<svg class="img-fluid" id="outputsvg" xmlns="http://www.w3.org/2000/svg" rs_id="2829" width="1200" height="1448" viewBox="0 0 12000 14480"><g id="l3Kt8u0tY4ApKAlT22oASTC" fill="rgb(255,255,255)" style="transform: none;"><g><path id="p2BTztD24" d="M0 7240 l0 -7240 6000 0 6000 0 0 7240 0 7240 -6000 0 -6000 0 0 -7240z m8995 6706 c954 -130 1793 -741 2204 -1608 198 -417 291 -843 278 -1278 -13 -406 -103 -776 -281 -1145 -206 -427 -486 -769 -860 -1050 -398 -298 -860 -488 -1356 -557 -147 -20 -577 -17 -715 5 -343 56 -590 135 -880 280 -459 229 -836 565 -1121 997 -656 998 -612 2274 111 3235 501 665 1234 1066 2085 1139 91 8 428 -3 535 -18z m-3654 -3132 l37 -6 7 -67 c39 -374 184 -845 356 -1158 l40 -73 -2541 0 c-2782 0 -2588 -4 -2610 56 -6 14 -10 98 -10 187 -1 112 -4 167 -13 178 -27 35 -54 39 -257 39 -209 0 -249 7 -264 45 -3 9 -6 180 -6 379 0 349 1 364 20 389 11 14 33 27 48 30 44 6 5153 7 5193 1z m-3271 -4184 l0 -2450 -445 0 -445 0 0 2450 0 2450 445 0 445 0 0 -2450z m1920 1080 c0 -1088 -3 -1371 -12 -1374 -376 -114 -585 -212 -799 -373 -39 -29 -72 -53 -75 -53 -2 0 -4 713 -4 1585 l0 1585 445 0 445 0 0 -1370z m1910 -205 l0 -1575 -68 49 c-204 148 -456 267 -712 337 -58 15 -108 33 -112 39 -4 5 -8 621 -7 1368 l0 1357 449 0 450 0 0 -1575z m1325 660 c137 -64 366 -149 495 -185 63 -17 122 -35 130 -39 13 -7 15 -229 18 -1885 l2 -1876 -450 0 -450 0 0 2059 0 2060 83 -46 c45 -25 123 -65 172 -88z m-2501 -2220 c703 -92 1288 -576 1514 -1251 164 -490 100 -1015 -179 -1480 -83 -139 -244 -332 -338 -405 -14 -11 -45 -38 -67 -59 -52 -48 -237 -171 -326 -216 -169 -85 -364 -148 -558 -181 -116 -19 -373 -21 -485 -4 -398 62 -745 235 -1026 511 -326 321 -506 701 -550 1163 -34 350 76 768 287 1090 181 277 418 492 704 641 324 168 686 235 1024 191z m-2405 -2282 c20 -121 105 -366 180 -519 172 -353 442 -659 771 -877 492 -325 1103 -440 1709 -322 596 116 1129 488 1456 1015 115 187 203 399 263 637 l36 143 924 0 c829 0 926 -2 955 -16 69 -35 126 -107 141 -181 10 -44 -25 -120 -77 -170 -23 -22 -244 -200 -492 -395 -557 -439 -591 -466 -839 -663 -111 -88 -262 -207 -335 -265 -74 -58 -247 -195 -386 -305 -139 -110 -353 -280 -476 -377 -123 -97 -514 -407 -869 -687 -355 -281 -664 -521 -688 -532 -52 -26 -98 -27 -148 -3 -21 10 -127 88 -234 173 -283 224 -682 540 -835 661 -73 58 -289 229 -480 380 -191 151 -407 322 -480 380 -73 58 -238 188 -367 289 -245 194 -695 550 -1083 858 -126 100 -311 245 -410 323 -216 170 -231 184 -257 233 -36 72 -22 148 43 222 70 80 0 75 1040 75 l925 0 13 -77z"></path><path id="po0U5p792" d="M7655 12921 c-16 -10 -202 -192 -412 -403 l-383 -384 0 -47 c0 -27 5 -58 11 -70 16 -31 758 -775 791 -793 57 -30 140 -10 157 38 6 17 11 98 11 179 0 136 2 151 20 169 20 20 33 20 1230 20 l1211 0 24 25 25 24 0 399 c0 388 -1 400 -21 426 l-20 26 -1216 2 -1215 3 -19 24 c-17 21 -19 40 -19 173 l0 150 -29 29 c-36 35 -99 40 -146 10z"></path><path id="pdMbiZADG" d="M9481 11014 c-19 -24 -21 -40 -21 -185 0 -144 -2 -161 -19 -178 -19 -19 -49 -20 -1208 -20 -653 -1 -1202 -4 -1220 -7 -63 -12 -63 -12 -63 -443 0 -398 3 -430 39 -448 9 -4 561 -10 1227 -13 1006 -4 1214 -7 1227 -19 15 -11 17 -36 17 -166 0 -150 1 -154 26 -184 23 -28 31 -31 82 -31 l57 0 402 403 403 402 0 48 c0 26 -6 60 -14 75 -8 15 -187 199 -398 410 l-384 382 -66 0 c-60 0 -69 -3 -87 -26z"></path><path id="p8oM60mcJ" d="M4370 5651 c-67 -36 -100 -106 -100 -217 l0 -61 -72 -36 c-173 -85 -300 -233 -362 -419 -23 -69 -39 -218 -31 -283 13 -106 93 -173 210 -174 66 -1 118 14 155 46 44 36 58 69 69 161 17 132 74 217 183 272 77 38 141 40 214 6 156 -72 227 -233 165 -371 -55 -124 -178 -195 -336 -195 -307 0 -575 -194 -671 -486 -27 -83 -29 -100 -29 -244 0 -173 10 -218 73 -350 28 -58 57 -96 127 -167 77 -78 104 -98 184 -137 52 -25 101 -46 108 -46 9 0 13 -18 13 -64 0 -153 76 -235 218 -236 95 0 163 35 198 103 8 15 18 66 21 113 4 57 10 84 18 84 7 0 55 21 106 46 79 39 108 61 184 138 102 103 149 185 184 320 25 94 28 249 7 299 -18 44 -77 94 -128 108 -56 15 -150 5 -197 -21 -57 -33 -80 -75 -95 -176 -15 -103 -40 -158 -97 -215 -60 -60 -137 -92 -207 -87 -145 10 -282 150 -284 287 0 102 82 219 187 267 43 20 80 27 187 34 152 10 212 26 320 82 149 77 276 225 336 390 25 69 26 83 27 258 0 178 -1 188 -28 258 -42 108 -94 189 -172 267 -82 82 -172 137 -272 168 l-73 22 0 45 c-1 107 -34 176 -100 210 -54 27 -189 27 -240 1z"></path></g></g><g id="l6rNySpRsUuUxTZZbzAGqgf" fill="rgb(25,47,58)" style="transform: none;"><g><path id="p11l8oZZmT" d="M8430 13994 c-572 -49 -1082 -241 -1515 -569 -545 -414 -924 -994 -1075 -1650 -130 -563 -81 -1183 135 -1721 260 -646 752 -1178 1380 -1491 290 -145 536 -223 880 -280 139 -22 625 -26 775 -5 799 112 1506 537 1972 1187 125 175 280 471 358 685 175 481 216 1042 114 1549 -50 246 -114 435 -224 668 -103 217 -244 438 -367 576 -63 71 -73 77 -73 47 0 -20 -4 -22 -32 -16 -52 10 -96 51 -111 104 -15 51 -13 72 9 72 8 0 14 2 14 4 0 16 -179 176 -295 263 -395 298 -859 491 -1345 559 -100 14 -506 26 -600 18z m-659 -1113 l29 -29 0 -150 c0 -133 2 -152 19 -173 l19 -24 1215 -3 1216 -2 20 -26 c20 -26 21 -38 21 -396 l0 -369 -25 -24 -24 -25 -1211 0 c-1197 0 -1210 0 -1230 -20 -18 -18 -20 -33 -20 -169 0 -81 -5 -162 -11 -179 -14 -40 -59 -58 -97 -37 -33 17 -775 761 -791 792 -6 12 -11 30 -11 40 0 19 745 772 795 804 40 25 51 24 86 -10z m2217 -2253 c211 -211 390 -396 399 -412 8 -15 12 -38 9 -50 -3 -11 -184 -200 -403 -418 -435 -435 -426 -428 -477 -367 -25 30 -26 34 -26 184 0 130 -2 155 -17 166 -13 12 -221 15 -1227 19 -666 3 -1218 9 -1227 13 -36 18 -39 50 -39 420 0 341 2 363 20 387 l19 25 848 5 c466 3 856 2 865 -2 9 -4 30 -5 47 -2 42 9 41 39 -1 75 l-33 28 33 1 33 0 -2 89 c-3 92 6 121 38 121 13 0 15 -23 12 -155 -3 -127 -1 -155 10 -157 8 -2 144 -1 303 2 272 5 291 6 304 24 11 15 14 57 14 177 0 143 2 159 21 183 15 20 29 26 57 26 35 0 56 -19 420 -382z m-1260 270 c18 -18 15 -26 -10 -30 -20 -3 -23 -10 -26 -59 -2 -42 1 -61 13 -73 9 -9 12 -16 7 -16 -16 0 -62 60 -64 83 -3 42 3 61 24 84 24 26 38 29 56 11z"></path><path id="p18awrtOYt" d="M118 10843 c-15 -2 -37 -16 -48 -30 -19 -25 -20 -39 -20 -419 0 -216 3 -400 6 -409 15 -38 55 -45 264 -45 203 0 230 -4 257 -39 9 -11 12 -66 13 -178 0 -89 4 -173 10 -187 23 -60 -176 -56 2655 -56 l2587 0 -60 113 c-194 366 -327 792 -367 1178 l-7 67 -37 6 c-47 8 -2401 8 -2466 0 l-50 -6 0 -127 c0 -155 -10 -183 -70 -206 -39 -15 -45 -15 -73 -1 -53 28 -82 86 -42 86 13 0 20 -7 20 -19 0 -29 25 -43 72 -39 42 3 43 4 46 42 5 58 -4 82 -40 105 l-33 21 38 0 37 0 0 70 0 70 -60 0 -60 0 0 -43 c0 -23 7 -54 16 -67 8 -14 -1 -7 -20 14 -23 25 -36 49 -36 67 0 15 -7 29 -15 33 -17 6 -2475 5 -2517 -1z"></path><path id="p19cqwpd1y" d="M1150 6630 l0 -2480 475 0 475 0 0 2480 0 2480 -475 0 -475 0 0 -2480z"></path><path id="pNb6z2G7w" d="M3070 7470 c0 -902 2 -1640 5 -1640 3 0 34 23 68 52 210 175 515 325 865 424 9 3 12 292 12 1404 l0 1400 -475 0 -475 0 0 -1640z"></path><path id="p1HDVgBZPn" d="M4970 8760 l1 -350 50 0 50 0 -3 -262 c-3 -289 -6 -304 -68 -350 l-30 -22 0 -720 c0 -397 4 -726 8 -731 4 -6 54 -24 112 -39 270 -74 525 -197 744 -360 48 -37 90 -66 92 -66 2 0 3 431 2 958 l-3 957 -47 -3 -48 -3 0 321 0 322 50 -7 50 -7 0 356 0 356 -480 0 -480 0 0 -350z m320 -749 c0 -239 -4 -402 -9 -406 -6 -3 -28 -3 -50 1 l-41 7 0 398 0 399 50 0 50 0 0 -399z m222 382 c10 -9 18 -22 18 -30 0 -8 12 -13 34 -13 27 0 39 7 56 30 17 23 29 30 56 30 l34 0 0 -236 c0 -255 -8 -313 -48 -356 -38 -41 -112 -63 -159 -47 -75 24 -112 63 -128 137 l-7 32 51 0 c50 0 51 -1 51 -29 0 -16 7 -37 16 -45 18 -19 94 -22 112 -4 7 7 12 37 12 68 0 50 -3 59 -32 86 -18 16 -59 47 -91 68 -119 80 -150 212 -69 299 29 31 66 35 94 10z"></path><path id="pZilcDB6i" d="M5480 8311 c-14 -27 -12 -121 3 -147 33 -56 55 -74 91 -74 l36 0 0 101 c0 127 -6 139 -70 139 -39 0 -52 -4 -60 -19z"></path><path id="pyFFHOw7m" d="M6940 6255 l0 -2105 471 -2 c259 -2 475 0 480 3 5 3 8 779 7 1909 -3 1679 -5 1904 -18 1911 -8 4 -73 24 -144 44 -230 64 -605 226 -743 319 -21 14 -41 26 -45 26 -5 0 -8 -947 -8 -2105z"></path><path id="pgGfnSfvz" d="M4303 5979 c-387 -45 -769 -224 -1046 -488 -330 -316 -521 -694 -572 -1130 -19 -160 -19 -263 0 -426 51 -430 230 -795 544 -1105 280 -276 625 -448 1026 -511 115 -18 428 -16 545 4 196 33 390 96 558 181 91 46 275 168 329 219 24 22 56 50 72 61 50 36 55 53 25 81 l-27 25 27 0 27 0 -2 95 c-2 97 7 125 38 125 13 0 15 -17 12 -102 -3 -71 -1 -102 8 -105 29 -10 207 239 299 420 213 416 252 953 102 1401 -199 595 -686 1052 -1285 1207 -210 54 -472 72 -680 48z m277 -359 c66 -34 99 -103 100 -210 l0 -45 73 -22 c100 -31 190 -86 272 -168 78 -78 130 -159 172 -267 26 -69 27 -83 27 -228 0 -142 -2 -161 -26 -228 -59 -165 -187 -313 -336 -390 -108 -56 -168 -72 -320 -82 -154 -11 -213 -31 -280 -98 -129 -129 -130 -332 -2 -459 65 -64 121 -87 222 -91 76 -3 94 -1 141 21 64 29 127 89 158 149 12 23 28 83 35 132 19 126 64 181 163 200 72 13 168 -40 197 -111 33 -78 4 -253 -64 -393 -69 -141 -241 -289 -398 -343 l-36 -13 -3 -80 c-3 -111 -34 -164 -117 -199 -100 -41 -210 14 -247 124 -6 19 -11 63 -11 97 0 46 -4 64 -13 64 -7 0 -56 21 -108 46 -80 39 -107 59 -184 137 -70 71 -99 109 -127 167 -60 125 -72 180 -73 320 0 112 3 135 29 214 29 88 92 195 158 268 120 133 320 218 513 218 158 0 280 71 337 195 18 39 23 68 23 135 0 74 -4 92 -29 143 -99 196 -349 241 -513 94 -59 -54 -92 -122 -104 -218 -11 -93 -25 -126 -69 -163 -45 -38 -104 -51 -160 -37 -60 16 -85 33 -117 83 -24 35 -27 50 -27 112 3 265 164 510 408 622 l56 25 0 62 c0 112 32 182 100 218 48 25 130 25 180 -1z m1149 -2523 c8 -11 5 -16 -14 -25 -22 -10 -25 -18 -25 -65 0 -32 6 -61 16 -76 l17 -23 -26 16 c-51 34 -65 121 -26 162 25 27 42 30 58 11z m-39 -332 c0 -28 -24 -34 -34 -9 -10 26 -7 34 14 34 15 0 20 -7 20 -25z"></path><path id="p1CxDTBcgw" d="M1350 3770 c-1061 -6 -973 1 -1044 -82 -87 -101 -82 -253 11 -340 15 -14 109 -90 208 -168 99 -78 284 -223 410 -323 388 -308 838 -664 1083 -858 129 -101 294 -231 367 -289 73 -58 289 -229 480 -380 191 -151 407 -322 480 -380 153 -121 552 -437 835 -661 107 -85 213 -163 235 -174 57 -27 147 -26 205 3 25 12 335 252 690 533 355 280 746 590 869 687 123 97 337 267 476 377 139 110 312 247 386 305 73 58 224 177 335 265 248 197 282 224 839 663 248 195 469 373 492 395 23 22 52 63 64 91 49 113 -7 257 -123 317 -35 18 -74 19 -990 19 l-953 1 -37 -144 c-106 -416 -291 -746 -578 -1035 -319 -321 -711 -533 -1141 -617 -296 -57 -551 -59 -841 -5 -793 149 -1444 722 -1696 1494 -28 83 -56 185 -63 226 -12 72 -22 92 -44 87 -5 -1 -435 -4 -955 -7z"></path></g></g><g id="l1b6RJT9FJuWqUBfwSevRo4" fill="rgb(26,50,62)" stroke="rgb(26,50,62)" stroke-width="10" style="transform: none;"><g><path id="p2mLGUboC" d="M10604 13154 c-12 -47 15 -136 52 -170 48 -46 158 -70 183 -40 10 11 8 17 -6 25 -10 6 -14 11 -9 11 9 0 -31 49 -116 138 -65 68 -94 78 -104 36z"></path><path id="pTvER92T1" d="M8675 10940 c-55 -21 -79 -100 -53 -174 10 -30 30 -53 83 -93 38 -30 72 -57 75 -62 3 -5 28 -10 57 -12 l51 -4 2 173 1 172 -46 0 c-33 0 -48 -5 -57 -19 -11 -18 -12 -18 -27 -1 -19 22 -59 31 -86 20z m97 -112 c8 -23 9 -98 1 -98 -4 0 -18 12 -30 27 -22 25 -30 63 -16 76 11 12 41 8 45 -5z"></path><path id="pt4g65hNO" d="M2615 10804 c5 -56 37 -100 105 -144 52 -33 73 -71 51 -93 -16 -16 -44 3 -51 34 -6 24 -16 26 -99 20 -10 -1 -12 -11 -7 -42 9 -56 21 -76 59 -99 39 -24 93 -25 146 -4 57 23 66 52 66 219 l0 140 -52 3 -53 3 0 -55 c0 -31 -4 -56 -9 -56 -18 0 -51 53 -51 81 0 25 -4 29 -27 30 -16 0 -40 2 -55 4 -26 3 -27 2 -23 -41z"></path><path id="pIMwOiMET" d="M5425 8440 c-58 -23 -90 -101 -82 -196 6 -85 39 -140 114 -190 87 -58 123 -94 123 -124 0 -28 -16 -50 -36 -50 -22 0 -44 31 -44 61 l0 29 -80 0 -80 0 0 -37 c0 -123 80 -203 202 -203 49 0 118 26 149 56 40 38 49 108 52 397 l2 257 -67 0 c-63 0 -68 -2 -89 -31 l-21 -30 -12 23 c-20 41 -82 59 -131 38z m145 -159 c11 -21 14 -161 4 -161 -7 0 -44 44 -61 74 -25 43 -9 106 27 106 11 0 24 -9 30 -19z"></path><path id="pPp6hne1d" d="M5920 8443 c0 -5 -27 -6 -60 -5 l-60 4 0 -351 0 -351 54 0 c32 0 58 5 64 13 11 13 18 697 7 697 -3 0 -5 -3 -5 -7z"></path><path id="p18xQ1FdWF" d="M4970 8090 c0 -192 3 -350 7 -350 20 0 75 43 93 72 26 43 30 91 33 381 l2 247 -67 0 -66 0 -2 -350z"></path><path id="pf2jzMUyI" d="M5162 8008 l3 -432 75 -1 75 0 3 433 2 432 -80 0 -80 0 2 -432z"></path><path id="pAQYg5hk6" d="M5648 3121 c-29 -26 -32 -34 -33 -87 0 -86 16 -116 90 -163 34 -23 65 -47 68 -55 4 -11 23 2 66 47 33 34 57 65 54 70 -3 5 -5 54 -4 108 l2 99 -45 0 c-34 0 -49 -5 -58 -19 -11 -18 -12 -18 -27 -1 -9 10 -31 20 -49 24 -26 4 -38 0 -64 -23z m132 -150 l-1 -56 -29 33 c-34 36 -39 76 -13 91 29 16 43 -6 43 -68z"></path><path id="pnrVUGffI" d="M5628 2822 c-20 -4 -22 -21 -8 -73 13 -48 41 -55 73 -20 28 30 38 63 26 82 -8 13 -54 19 -91 11z"></path></g></g></svg>