<svg class="img-fluid" id="outputsvg" xmlns="http://www.w3.org/2000/svg" rs_id="2827" width="450" height="450" viewBox="0 0 4500 4500"><g id="l4p4wQ3H0Un8M9C4gogMTyf" fill="rgb(255,255,255)" style="transform: none;" rs_id="2828"><g rs_id="2829" style="transform: none;"><path id="p1pa9J3oB" d="M0 2250 l0 -2250 2250 0 2250 0 0 2250 0 2250 -2250 0 -2250 0 0 -2250z m4082 1720 c46 -13 89 -49 120 -98 l23 -37 0 -870 c0 -478 -3 -882 -8 -898 -8 -30 -68 -101 -101 -120 -15 -9 -139 -13 -429 -17 l-409 -5 -1 -605 c-2 -599 -2 -605 -24 -652 -16 -34 -35 -56 -69 -78 l-48 -30 -1338 0 c-1309 0 -1340 0 -1377 20 -48 24 -87 70 -101 118 -8 25 -10 308 -8 907 l3 870 30 42 c18 26 49 53 79 68 l50 25 393 0 393 0 2 619 3 619 30 43 c17 24 49 52 75 65 l45 23 1315 1 c875 0 1327 -4 1352 -10z" rs_id="2830"></path><path id="pO5xKaVa7" d="M1492 3708 c-15 -15 -16 -72 -2 -99 10 -18 23 -19 213 -19 145 0 206 3 215 12 16 16 16 90 0 106 -17 17 -409 17 -426 0z" rs_id="2831"></path><path id="p10cfomsJs" d="M1525 3543 c-16 -3 -33 -10 -37 -16 -10 -16 -10 -79 0 -95 7 -9 96 -12 413 -10 l404 3 3 50 c3 38 -1 52 -14 62 -14 10 -99 13 -378 12 -199 -1 -374 -4 -391 -6z" rs_id="2832"></path><path id="ps6vA7DMn" d="M2395 3543 c-27 -7 -35 -21 -35 -63 0 -61 -1 -61 191 -58 l174 3 3 50 c5 72 -3 75 -172 74 -78 -1 -150 -4 -161 -6z" rs_id="2833"></path><path id="p12ThUhocu" d="M3631 2615 l-34 -15 8 -53 c8 -61 8 -103 0 -172 -6 -48 -5 -52 21 -65 41 -22 172 -20 208 3 41 27 69 98 64 161 -9 109 -60 156 -167 156 -36 -1 -81 -7 -100 -15z" rs_id="2834"></path></g></g><g id="l4UCNxMpnfGgHbkyxY9IbOL" fill="rgb(201,234,251)" style="transform: none;" rs_id="2835"><g rs_id="2836" style="transform: none;"><path id="p1GLMKQoR0" d="M4210 3875 c0 -28 4 -35 20 -35 22 0 26 20 10 51 -16 30 -30 23 -30 -16z" rs_id="2837"></path><path id="pUeY9dn2q" d="M3853 2515 c6 -19 16 -35 24 -35 8 0 13 13 13 35 0 30 -3 35 -24 35 -23 0 -24 -2 -13 -35z" rs_id="2838"></path><path id="poqk50S3a" d="M532 1723 l3 -238 1229 -3 c900 -1 1232 1 1242 9 11 9 14 46 14 155 l0 144 -827 2 -828 3 -64 35 c-42 22 -77 51 -100 82 l-36 47 -318 0 -317 1 2 -237z" rs_id="2839"></path><path id="p5tv5sNzS" d="M3270 715 c0 -40 24 -49 34 -12 10 37 7 47 -14 47 -16 0 -20 -7 -20 -35z" rs_id="2840"></path></g></g><g id="l7EFWtFckiGcbdwuCCW08X" fill="rgb(151,177,216)" style="transform: none;" rs_id="2841"><g rs_id="2842" style="transform: none;"><path id="pji31AD1d" d="M1340 3986 c-50 -25 -96 -84 -106 -133 -6 -28 -4 -33 13 -33 13 0 23 11 32 35 12 35 64 95 82 95 5 0 9 5 9 10 0 6 18 10 40 10 33 0 40 3 40 20 0 28 -52 26 -110 -4z" rs_id="2843"></path><path id="p13dLO7nMB" d="M4030 3993 c0 -17 9 -22 49 -27 29 -4 51 -12 55 -21 3 -8 15 -15 26 -15 13 0 20 -7 20 -20 0 -11 4 -20 8 -20 29 0 32 -93 32 -939 0 -743 -2 -867 -15 -898 -8 -19 -15 -48 -15 -64 0 -25 -4 -29 -27 -29 -44 0 -93 -22 -93 -42 0 -34 66 -15 118 35 72 68 67 -2 70 960 2 573 -1 888 -8 925 -17 94 -81 156 -173 168 -43 6 -47 5 -47 -13z" rs_id="2844"></path><path id="pbaqfmC4V" d="M394 2615 c-56 -28 -102 -87 -111 -140 -5 -30 -3 -35 14 -35 21 0 33 32 33 86 0 19 5 24 25 24 18 0 25 5 25 20 0 14 7 20 24 20 52 0 86 12 86 31 0 27 -35 24 -96 -6z" rs_id="2845"></path><path id="pFweipVBT" d="M3650 2606 c0 -23 2 -24 35 -13 19 6 35 16 35 24 0 8 -13 13 -35 13 -30 0 -35 -3 -35 -24z" rs_id="2846"></path><path id="pqmnISRnE" d="M3760 2611 c0 -5 16 -18 35 -30 l35 -20 0 29 c0 28 -3 30 -35 30 -19 0 -35 -4 -35 -9z" rs_id="2847"></path><path id="pabHIdYF8" d="M3862 2490 c9 -35 7 -47 -14 -90 l-25 -50 28 0 c34 0 49 37 49 121 0 56 -1 59 -24 59 -23 0 -23 -2 -14 -40z" rs_id="2848"></path><path id="pRGrnInxq" d="M3590 2369 c0 -33 19 -59 44 -59 9 0 16 -4 16 -10 0 -6 32 -10 75 -10 73 0 75 1 75 24 0 23 -2 24 -32 15 -66 -19 -146 11 -133 50 5 18 2 21 -19 21 -22 0 -26 -4 -26 -31z" rs_id="2849"></path><path id="pYqMbSJ5C" d="M530 1936 c0 -25 4 -36 15 -36 8 0 15 7 15 15 0 13 38 15 288 14 l287 0 36 -47 c23 -31 58 -60 100 -82 l64 -35 828 -3 c722 -2 827 -4 827 -17 0 -8 7 -15 15 -15 23 0 22 185 -1 194 -9 3 -372 6 -807 6 -707 0 -795 2 -822 16 -26 14 -90 17 -437 22 l-408 5 0 -37z" rs_id="2850"></path><path id="portCPzQu" d="M3270 1310 c0 -523 2 -620 14 -620 8 0 17 11 20 25 4 14 6 285 6 602 -1 512 1 578 15 581 31 7 16 32 -20 32 l-35 0 0 -620z" rs_id="2851"></path><path id="pVgBod9qw" d="M2987 1539 c-3 -11 -15 -23 -26 -26 -38 -10 -24 -33 19 -33 l40 0 0 40 c0 43 -23 57 -33 19z" rs_id="2852"></path><path id="phZos0Eq0" d="M530 1515 c0 -33 2 -35 35 -35 39 0 50 24 15 33 -11 3 -20 12 -20 21 0 9 -7 16 -15 16 -10 0 -15 -11 -15 -35z" rs_id="2853"></path><path id="pJ8IIawQP" d="M280 708 c1 -31 32 -99 55 -118 16 -14 17 -12 12 25 -9 65 -30 115 -49 115 -12 0 -18 -8 -18 -22z" rs_id="2854"></path><path id="pxcDTUR5X" d="M3250 666 c0 -16 -56 -76 -71 -76 -5 0 -9 -4 -9 -10 0 -5 -11 -10 -25 -10 -18 0 -25 -5 -25 -20 0 -29 37 -26 92 9 46 29 58 45 78 95 9 24 7 26 -15 26 -15 0 -25 -6 -25 -14z" rs_id="2855"></path><path id="pX6FHoSLX" d="M390 560 c0 -12 33 -30 54 -30 9 0 16 9 16 20 0 16 -7 20 -35 20 -19 0 -35 -4 -35 -10z" rs_id="2856"></path></g></g><g id="l3wyQHVU4v4e3IlCZb0usiv" fill="rgb(243,135,125)" style="transform: none;" rs_id="2857"><g rs_id="2858" style="transform: none;"><path id="pM9Pg0p2r" d="M1496 3717 c-13 -10 -17 -24 -14 -67 l3 -55 38 -3 c28 -2 37 0 37 12 0 9 -7 16 -15 16 -22 0 -39 38 -24 56 10 12 43 14 188 12 172 -3 176 -4 186 -25 15 -35 35 -28 35 12 0 24 -6 37 -19 45 -30 15 -393 13 -415 -3z" rs_id="2859"></path><path id="pG42k3xXE" d="M1493 3535 c-18 -19 -16 -93 1 -111 12 -12 80 -14 408 -14 293 0 397 3 406 12 16 16 16 100 0 116 -7 7 -38 12 -70 12 -45 0 -58 -3 -58 -15 0 -14 15 -19 50 -17 27 1 51 -19 48 -41 l-3 -22 -376 -3 c-329 -2 -378 0 -383 13 -9 24 4 45 28 45 37 0 66 12 66 26 0 19 -100 19 -117 -1z" rs_id="2860"></path><path id="pCVVNn4S7" d="M2368 3531 c-23 -23 -23 -72 1 -99 17 -21 27 -22 183 -22 114 0 168 4 176 12 7 7 12 33 12 58 0 25 -5 51 -12 58 -7 7 -38 12 -70 12 -45 0 -58 -3 -58 -15 0 -14 15 -19 50 -17 27 1 51 -19 48 -41 -3 -21 -8 -22 -149 -25 -124 -2 -148 0 -153 13 -9 26 4 43 40 49 20 4 34 13 34 21 0 22 -80 19 -102 -4z" rs_id="2861"></path><path id="pAhYW0Y8t" d="M1510 3020 l0 -60 35 0 35 0 0 60 0 60 -35 0 -35 0 0 -60z" rs_id="2862"></path><path id="pXJSPIA8T" d="M3701 2965 c-211 -46 -372 -133 -524 -282 -181 -179 -295 -441 -297 -681 l0 -62 247 2 247 3 13 70 c7 39 28 102 48 141 39 80 46 134 18 134 -26 1 -74 29 -50 30 13 0 17 8 17 35 0 33 -2 35 -34 35 -25 0 -36 -5 -39 -18 -3 -12 -11 -2 -27 32 -19 43 -21 54 -11 87 14 46 50 94 51 67 0 -14 8 -18 35 -18 33 0 35 2 35 34 0 19 -6 36 -12 39 -7 2 5 10 27 17 35 10 47 9 79 -4 49 -21 96 -20 156 1 44 16 50 16 92 0 49 -19 86 -53 115 -107 18 -32 24 -35 94 -46 41 -6 94 -18 119 -27 25 -9 60 -17 78 -17 l32 0 -2 262 -3 262 -60 13 c-82 17 -362 15 -444 -2z" rs_id="2863"></path><path id="pihix8TTv" d="M1510 2875 l0 -75 35 0 35 0 0 75 0 75 -35 0 -35 0 0 -75z" rs_id="2864"></path><path id="pH2kqsa9v" d="M1930 2775 c0 -33 2 -35 35 -35 33 0 35 2 35 35 0 33 -2 35 -35 35 -33 0 -35 -2 -35 -35z" rs_id="2865"></path><path id="pYtKEy8xY" d="M3560 2555 c0 -34 1 -35 41 -35 38 0 41 2 36 22 -4 12 -1 28 5 35 8 10 1 13 -36 13 -46 0 -46 0 -46 -35z" rs_id="2866"></path></g></g><g id="l5dpfZaSrBLoXSbDYl97rBU" fill="rgb(88,159,255)" style="transform: none;" rs_id="2867"><g rs_id="2868" style="transform: none;"><path id="p1Hlp3dXWT" d="M369 2562 c-21 -19 -34 -42 -40 -72 -9 -51 -12 -970 -3 -994 9 -23 264 -24 264 -1 0 8 -7 15 -15 15 -13 0 -15 31 -15 215 l0 215 273 -1 c149 0 325 -4 390 -7 117 -7 117 -7 117 16 0 21 -3 22 -94 22 -106 0 -92 -12 -118 105 l-14 60 -254 5 -255 5 255 5 255 5 0 60 0 60 -255 5 -255 5 255 5 255 5 3 148 3 147 -361 0 -360 0 -31 -28z" rs_id="2869"></path><path id="piIQE07PP" d="M2940 1916 c0 -8 11 -17 25 -20 16 -4 25 -13 25 -26 0 -13 7 -20 20 -20 16 0 20 7 20 34 0 37 -12 46 -61 46 -18 0 -29 -5 -29 -14z" rs_id="2870"></path><path id="p9wyLb7QR" d="M2989 1793 c0 -10 0 -78 1 -150 1 -114 -1 -133 -15 -133 -8 0 -15 -7 -15 -15 0 -13 23 -15 150 -15 l150 0 0 155 0 155 -120 0 c-73 0 -120 4 -120 10 0 18 -30 11 -31 -7z" rs_id="2871"></path><path id="pAw1t3QFg" d="M324 995 c-3 -8 -4 -85 -2 -172 4 -175 11 -201 63 -233 32 -20 56 -20 1407 -20 l1375 0 34 23 c54 37 59 54 59 245 l0 172 -1465 0 c-1272 0 -1466 -2 -1471 -15z" rs_id="2872"></path></g></g><g id="l5UH8F9z5z5OceBTwq1DJad" fill="rgb(255,196,6)" style="transform: none;" rs_id="2873"><g rs_id="2874" style="transform: none;"><path id="pYkiUAmhq" d="M1541 3144 c-20 -14 -21 -24 -21 -185 0 -98 4 -178 10 -190 10 -18 24 -19 245 -19 l235 0 16 25 c13 21 15 39 10 98 -4 39 -6 83 -4 97 1 14 2 54 3 88 0 101 0 101 -259 101 -172 -1 -218 -3 -235 -15z m372 -186 l42 -1 -42 -4 -42 -4 -4 -62 c-2 -34 -3 -6 -3 63 0 69 1 99 3 68 l4 -58 42 -2z m-223 45 l0 -58 -52 5 -53 5 48 3 47 3 0 50 c0 27 2 49 5 49 3 0 5 -26 5 -57z" rs_id="2875"></path><path id="p15nGDyU75" d="M3379 2607 c-88 -59 -95 -221 -12 -284 32 -25 45 -28 113 -28 57 0 83 5 104 18 26 17 27 22 22 65 -12 86 -11 115 2 119 8 3 12 -8 12 -36 0 -28 4 -41 14 -41 22 0 27 43 11 95 -8 27 -12 52 -9 57 3 4 1 8 -5 8 -6 0 -27 11 -47 25 -51 35 -155 36 -205 2z" rs_id="2876"></path></g></g><g id="l66Aj89co6FWfY178OpjBci" fill="rgb(72,124,219)" style="transform: none;" rs_id="2877"><g rs_id="2878" style="transform: none;"><path id="pqfUdOUYD" d="M1236 3858 c-10 -38 -7 -48 14 -48 16 0 20 7 20 35 0 40 -24 49 -34 13z" rs_id="2879"></path><path id="p353R4ejk" d="M400 2618 c-66 -24 -145 -148 -95 -148 10 0 15 -11 15 -35 0 -23 5 -35 14 -35 14 0 26 29 26 69 0 13 15 38 34 57 l34 34 331 0 331 0 0 -116 c0 -107 -1 -116 -20 -121 -11 -3 -20 -12 -20 -19 0 -12 -39 -14 -215 -14 -184 0 -215 2 -215 15 0 20 -34 19 -51 -1 -9 -11 -10 -20 -2 -32 9 -15 41 -18 264 -22 l254 -5 3 -28 c3 -22 -1 -30 -17 -34 -12 -3 -21 -12 -21 -19 0 -11 22 -14 100 -14 l100 0 0 65 0 65 -72 2 -73 2 75 5 75 6 3 146 3 146 -107 6 c-59 4 -246 7 -415 7 -253 0 -308 2 -311 14 -2 10 -9 11 -28 4z m-10 -68 c0 -13 -7 -20 -20 -20 -13 0 -20 7 -20 20 0 13 7 20 20 20 13 0 20 -7 20 -20z" rs_id="2880"></path><path id="p67GLjgCt" d="M3633 2623 c-7 -2 -13 -20 -13 -39 0 -34 0 -34 20 -14 11 11 31 22 45 26 37 9 32 34 -7 33 -18 0 -39 -3 -45 -6z" rs_id="2881"></path><path id="pyTs8UHUi" d="M3740 2617 c0 -8 16 -18 35 -24 33 -11 35 -10 35 13 0 21 -5 24 -35 24 -22 0 -35 -5 -35 -13z" rs_id="2882"></path><path id="ptIYJgNus" d="M3851 2525 c12 -19 25 -35 30 -35 5 0 9 16 9 35 0 32 -2 35 -30 35 l-29 0 20 -35z" rs_id="2883"></path><path id="pw0eAvrkv" d="M3863 2425 c-11 -33 -10 -35 13 -35 21 0 24 5 24 35 0 22 -5 35 -13 35 -8 0 -18 -16 -24 -35z" rs_id="2884"></path><path id="pBofP7DUP" d="M3793 2338 c-42 -26 -42 -38 2 -38 32 0 35 2 35 30 0 17 -1 30 -2 29 -2 0 -18 -10 -35 -21z" rs_id="2885"></path><path id="pjEGW2rK" d="M3640 2316 c0 -23 4 -26 35 -26 37 0 50 23 18 33 -10 2 -26 8 -35 12 -15 6 -18 2 -18 -19z" rs_id="2886"></path><path id="pscmq1RMi" d="M569 2164 c-16 -20 -1 -48 30 -52 18 -3 21 1 21 32 0 29 -4 36 -19 36 -10 0 -24 -7 -32 -16z" rs_id="2887"></path><path id="p11iOJI9kZ" d="M1050 2126 c0 -7 8 -16 19 -19 12 -3 20 -17 25 -47 11 -70 30 -120 46 -121 8 -1 47 0 86 1 55 1 80 -3 110 -19 49 -26 74 -27 74 -2 0 13 -9 21 -30 26 -16 4 -30 11 -30 16 0 5 -6 9 -12 9 -20 1 -66 72 -74 115 -4 22 -12 43 -18 47 -6 4 -53 8 -103 8 -73 0 -93 -3 -93 -14z" rs_id="2888"></path><path id="p2mEbq9lh" d="M2950 1917 c0 -8 10 -17 23 -20 20 -6 22 -11 19 -72 l-4 -65 121 0 121 0 0 -110 c0 -106 1 -110 22 -110 21 0 21 0 14 187 -3 103 -9 189 -12 192 -3 3 -73 7 -155 9 -126 3 -149 1 -149 -11z" rs_id="2889"></path><path id="pTioQtJWU" d="M320 1520 c0 -39 1 -40 35 -40 24 0 35 5 35 15 0 8 -7 15 -15 15 -8 0 -17 11 -21 25 -10 41 -34 31 -34 -15z" rs_id="2890"></path><path id="pJeai2U1d" d="M327 1013 c-4 -3 -7 -21 -7 -40 0 -37 24 -47 33 -13 5 20 14 20 1442 20 l1436 0 -3 -154 c-3 -147 -4 -156 -27 -180 -14 -14 -39 -31 -58 -38 -36 -13 -45 -38 -13 -38 11 0 20 -7 20 -15 0 -19 30 -19 55 1 14 11 16 18 8 21 -21 8 -15 33 7 33 14 0 20 7 20 21 0 16 4 19 19 14 14 -4 23 0 30 14 15 28 14 51 -4 51 -13 0 -15 22 -15 139 0 77 -3 146 -6 155 -6 15 -144 16 -1468 16 -805 0 -1466 -3 -1469 -7z" rs_id="2891"></path><path id="pWR2QSQr9" d="M320 716 c0 -45 19 -96 36 -96 8 0 14 -4 14 -10 0 -5 -10 -10 -21 -10 -18 0 -20 -2 -8 -16 12 -14 61 -44 74 -44 3 0 5 11 5 24 0 13 6 27 13 30 8 3 6 8 -7 17 -37 23 -56 50 -67 94 -14 54 -39 62 -39 11z" rs_id="2892"></path></g></g><g id="l7OytaLHmuqpaSXwFefPLjF" fill="rgb(210,164,36)" style="transform: none;" rs_id="2893"><g rs_id="2894" style="transform: none;"><path id="p1FTEDWtUs" d="M1531 3141 c-17 -17 -19 -36 -19 -189 -1 -233 -24 -214 270 -210 214 3 231 4 244 22 11 15 14 59 14 188 0 213 4 208 -140 208 -78 0 -100 -3 -100 -14 0 -7 8 -16 18 -18 15 -4 17 -20 14 -176 l-3 -172 -54 0 -55 0 0 170 0 170 25 6 c14 3 25 12 25 20 0 11 -23 14 -110 14 -95 0 -113 -3 -129 -19z m120 -81 c-2 -36 -4 -66 -5 -67 0 -1 -23 -3 -51 -4 l-50 -3 2 54 c3 65 28 93 77 88 l31 -3 -4 -65z m337 46 c10 -9 16 -32 16 -54 0 -61 -6 -68 -57 -64 l-45 4 -4 61 c-2 34 1 65 7 69 16 11 65 2 83 -16z m-334 -258 l2 -68 -43 0 c-36 0 -44 4 -56 28 -10 21 -16 98 -8 115 0 1 24 0 52 -3 l50 -5 3 -67z m352 26 c5 -37 3 -51 -13 -72 -17 -22 -26 -26 -59 -23 -21 1 -39 4 -39 4 0 1 1 32 3 70 l4 67 48 0 49 0 7 -46z" rs_id="2895"></path><path id="pU49al32G" d="M3386 2615 c-8 -8 -19 -15 -25 -15 -6 0 -20 -15 -31 -32 -15 -25 -20 -51 -20 -110 0 -77 0 -78 25 -78 23 0 25 3 18 28 -23 81 11 160 79 183 21 7 38 18 38 26 0 18 -65 17 -84 -2z" rs_id="2896"></path><path id="pgQjNh8R6" d="M3490 2617 c0 -7 15 -19 34 -25 52 -19 61 -35 42 -76 -20 -42 -20 -67 -1 -113 11 -27 12 -39 4 -49 -15 -19 -85 -36 -112 -29 -32 9 -71 29 -79 40 -4 5 -8 -5 -8 -22 0 -23 5 -33 15 -33 8 0 15 -4 15 -10 0 -6 33 -10 80 -10 64 0 80 3 80 15 0 9 9 15 23 15 28 1 62 25 47 35 -7 4 -5 13 5 28 18 26 20 119 3 147 -10 16 -10 24 0 40 10 17 10 20 -3 20 -8 0 -29 9 -47 20 -38 23 -98 27 -98 7z" rs_id="2897"></path></g></g><g id="l69n623gjJTQ441MP0WhI9r" fill="rgb(255,79,73)" style="transform: none;" rs_id="2898"><g rs_id="2899" style="transform: none;"><path id="pu1ET2Xla" d="M1350 3957 c-19 -7 -44 -27 -57 -46 l-23 -34 0 -922 0 -922 23 -34 c12 -18 34 -39 47 -46 19 -10 203 -13 813 -13 693 0 787 2 787 15 0 8 -7 15 -15 15 -19 0 -19 38 -1 142 46 258 190 488 406 648 76 57 217 125 325 156 165 48 509 43 523 -8 2 -10 11 -18 18 -18 12 0 14 81 14 499 0 496 0 498 -22 526 -45 58 30 55 -1445 54 -1025 0 -1367 -3 -1393 -12z m531 -267 c22 -12 25 -43 5 -59 -9 -8 -69 -11 -192 -9 l-179 3 -3 24 c-7 45 17 51 191 51 90 0 167 -4 178 -10z m403 -192 c8 -13 8 -23 0 -35 -10 -17 -41 -18 -379 -21 -379 -2 -395 -1 -395 37 0 40 10 41 394 39 339 -3 370 -4 380 -20z m420 0 c8 -13 8 -23 0 -35 -10 -16 -31 -18 -150 -21 -132 -3 -140 -2 -157 19 -17 21 -17 23 0 41 15 17 30 18 156 16 120 -3 141 -5 151 -20z m-739 -158 c12 -5 -63 -9 -188 -9 -136 -1 -206 2 -202 9 8 12 361 12 390 0z m640 0 c4 -7 -70 -10 -214 -10 -141 0 -221 4 -221 10 0 6 78 10 214 10 133 0 217 -4 221 -10z m595 0 c10 -6 -48 -10 -172 -10 -119 0 -188 4 -188 10 0 13 340 13 360 0z m665 0 c12 -5 -71 -9 -208 -9 -150 -1 -226 2 -222 9 8 12 401 12 430 0z m-1880 -190 c52 -32 65 -72 65 -202 0 -130 -14 -169 -71 -200 -29 -15 -58 -18 -197 -18 -178 0 -213 8 -250 55 -20 25 -22 39 -22 162 0 217 6 222 264 223 162 0 182 -2 211 -20z" rs_id="2900"></path><path id="p10N8hofql" d="M3901 2497 c2 -63 -6 -92 -38 -134 -48 -63 -117 -89 -178 -67 -22 7 -55 14 -72 14 -26 0 -33 4 -33 20 0 24 -4 25 -41 3 -30 -18 -38 -33 -16 -34 29 -1 -32 -18 -70 -18 -23 -1 -45 -5 -48 -11 -3 -5 3 -10 15 -10 12 0 20 -3 18 -7 -52 -103 -72 -155 -81 -209 -9 -50 -16 -68 -29 -72 -10 -2 -18 -11 -18 -18 0 -13 63 -14 416 -12 l416 3 34 37 34 38 0 234 c0 199 -2 235 -15 240 -10 4 -15 -1 -15 -15 0 -16 -4 -19 -17 -14 -66 26 -143 44 -207 50 -10 1 -24 9 -31 18 -20 28 -26 20 -24 -36z" rs_id="2901"></path></g></g><g id="l241KMx1e1Q8hOX4fbl1XUd" fill="rgb(61,100,196)" style="transform: none;" rs_id="2902"><g rs_id="2903" style="transform: none;"><path id="p17KltZF1I" d="M420 2586 c0 -9 -12 -16 -32 -18 -29 -3 -33 -7 -36 -35 -2 -21 -9 -33 -18 -33 -9 0 -14 -11 -14 -35 0 -47 27 -48 35 -1 8 42 59 92 103 101 44 9 43 35 -3 35 -24 0 -35 -5 -35 -14z" rs_id="2904"></path><path id="p96wRSiII" d="M1060 2586 c0 -18 31 -26 109 -26 60 0 63 -1 58 -22 -8 -31 2 -68 19 -68 10 0 14 13 14 45 0 25 -4 45 -10 45 -5 0 -10 9 -10 20 0 19 -7 20 -90 20 -70 0 -90 -3 -90 -14z" rs_id="2905"></path><path id="pHeD0ZBR0" d="M1230 2344 c0 -9 -9 -18 -19 -21 -11 -3 -21 -13 -24 -24 -7 -26 -47 -25 -54 1 -5 19 -14 20 -273 20 -228 0 -271 -2 -284 -15 -8 -9 -13 -22 -10 -30 5 -11 56 -15 277 -19 150 -3 296 -5 325 -5 l52 0 0 -36 c0 -24 -4 -35 -15 -35 -8 0 -15 -7 -15 -15 0 -10 11 -15 35 -15 l35 0 0 105 c0 87 -3 105 -15 105 -8 0 -15 -7 -15 -16z" rs_id="2906"></path><path id="pk8eW9kQw" d="M576 2165 c-17 -17 -12 -40 9 -49 8 -3 151 -6 318 -7 168 -1 309 -4 314 -8 6 -3 13 -24 17 -46 14 -74 96 -159 96 -99 0 19 -5 24 -25 24 -19 0 -25 5 -25 22 0 12 -5 48 -12 80 l-12 58 -59 0 c-50 0 -60 3 -64 20 -5 19 -14 20 -273 20 -228 0 -271 -2 -284 -15z" rs_id="2907"></path><path id="pSgQYafXw" d="M2980 1916 c0 -17 42 -28 75 -20 46 11 30 34 -25 34 -36 0 -50 -4 -50 -14z" rs_id="2908"></path><path id="pL09Zv7Qy" d="M3170 1916 c0 -8 13 -17 30 -21 21 -5 30 -13 30 -26 0 -13 7 -19 21 -19 17 0 20 5 17 38 -3 37 -3 37 -50 40 -37 2 -48 0 -48 -12z" rs_id="2909"></path><path id="pLE8GjE3m" d="M3230 1778 c0 -30 13 -58 26 -58 9 0 14 12 14 35 0 28 -4 35 -20 35 -11 0 -20 -6 -20 -12z" rs_id="2910"></path><path id="puF2LVgvr" d="M3236 1578 c-3 -13 -6 -33 -6 -45 0 -16 -6 -23 -20 -23 -14 0 -20 -7 -20 -21 0 -17 5 -20 38 -17 l37 3 3 63 c2 48 0 62 -11 62 -8 0 -17 -10 -21 -22z" rs_id="2911"></path><path id="p91aCWlll" d="M2950 1490 c0 -17 7 -20 40 -20 33 0 40 3 40 20 0 17 -7 20 -40 20 -33 0 -40 -3 -40 -20z" rs_id="2912"></path><path id="pPj8yohqF" d="M3200 1000 c0 -5 7 -10 15 -10 8 0 17 -11 21 -25 10 -39 34 -31 34 10 0 33 -2 35 -35 35 -19 0 -35 -4 -35 -10z" rs_id="2913"></path><path id="p1CphBV8rj" d="M3236 748 c-12 -45 -7 -68 14 -68 17 0 20 7 20 45 0 49 -23 64 -34 23z" rs_id="2914"></path><path id="p1HVRdr7dM" d="M3190 635 l-34 -35 37 0 c36 0 37 1 37 35 0 19 -1 35 -2 35 -2 0 -19 -16 -38 -35z" rs_id="2915"></path><path id="pK5QAUkfr" d="M380 610 c0 -30 15 -40 61 -40 43 0 35 22 -16 46 l-45 21 0 -27z" rs_id="2916"></path></g></g><g id="l1Ut8snM2zITwg3ts4KXiB6" fill="rgb(91,94,160)" style="transform: none;" rs_id="2917"><g rs_id="2918" style="transform: none;"><path id="pOrt9DGY2" d="M1390 4001 c-20 -4 -41 -11 -48 -15 -19 -11 -14 -26 8 -26 11 0 20 -7 20 -15 0 -16 12 -18 48 -9 12 4 22 13 22 20 0 12 201 14 1305 14 1153 0 1305 -2 1305 -15 0 -8 6 -15 13 -15 7 0 29 -9 50 -19 l37 -19 0 24 c0 13 5 24 10 24 6 0 10 -11 10 -25 0 -14 5 -25 10 -25 6 0 10 -7 10 -15 0 -8 5 -15 10 -15 6 0 10 -7 10 -15 0 -8 -7 -15 -15 -15 -13 0 -15 -104 -15 -880 0 -776 2 -880 15 -880 10 0 15 -10 15 -30 0 -36 25 -41 34 -7 9 35 7 47 -9 47 -13 0 -15 103 -15 865 0 762 2 865 15 865 21 0 19 26 -6 76 -28 58 -119 126 -119 89 0 -8 -4 -15 -10 -15 -5 0 -10 6 -10 14 0 7 -10 16 -22 20 -32 8 -2635 5 -2678 -3z" rs_id="2919"></path><path id="puvrdbQST" d="M1280 3875 c0 -19 4 -35 9 -35 5 0 18 16 30 35 l20 35 -29 0 c-28 0 -30 -3 -30 -35z" rs_id="2920"></path><path id="pCiNnDhkW" d="M1236 3848 c-3 -13 -6 -290 -6 -615 l0 -593 -382 -1 c-377 0 -445 -5 -455 -34 -3 -10 836 -10 865 0 19 7 18 1265 -2 1265 -7 0 -16 -10 -20 -22z" rs_id="2921"></path><path id="pRjFPjahi" d="M1540 3373 c-31 -12 -37 -35 -14 -57 13 -14 50 -16 245 -16 140 0 238 4 250 10 24 13 24 32 1 53 -14 13 -51 16 -242 16 -124 0 -232 -3 -240 -6z" rs_id="2922"></path><path id="pbkN3tGvB" d="M2128 3369 c-24 -13 -23 -46 1 -59 12 -6 114 -10 261 -10 147 0 249 4 261 10 28 15 24 49 -7 60 -34 13 -494 12 -516 -1z" rs_id="2923"></path><path id="pjeavoecL" d="M2798 3370 c-24 -14 -23 -47 1 -60 12 -6 104 -10 230 -10 177 0 212 2 225 16 20 19 20 22 -1 42 -14 15 -45 17 -227 19 -134 2 -217 -1 -228 -7z" rs_id="2924"></path><path id="pe2A4hX8P" d="M3398 3369 c-21 -12 -23 -40 -6 -57 9 -9 81 -12 263 -12 239 0 253 1 270 20 17 19 17 21 1 39 -17 19 -34 20 -264 20 -153 1 -254 -3 -264 -10z" rs_id="2925"></path><path id="pZxEoOcAt" d="M1538 3184 c-24 -13 -48 -42 -48 -58 0 -3 11 -6 25 -6 16 0 25 -6 25 -15 0 -12 4 -11 20 5 11 11 27 20 36 20 12 0 15 6 10 23 -3 12 -6 28 -6 35 0 16 -29 15 -62 -4z" rs_id="2926"></path><path id="p16bU3DX6F" d="M1940 3185 c0 -10 -11 -15 -35 -15 -28 0 -35 -4 -35 -20 0 -17 7 -20 50 -20 52 0 90 -23 90 -55 0 -10 11 -15 35 -15 40 0 44 13 19 66 -26 54 -124 101 -124 59z" rs_id="2927"></path><path id="pFJytfaHz" d="M1690 3150 c0 -17 7 -20 50 -20 43 0 50 3 50 20 0 17 -7 20 -50 20 -43 0 -50 -3 -50 -20z" rs_id="2928"></path><path id="p1AMA3Cwgx" d="M1510 2955 c0 -50 3 -65 15 -65 18 0 29 57 20 99 -4 17 -13 31 -21 31 -11 0 -14 -16 -14 -65z" rs_id="2929"></path><path id="p49X3o2Rf" d="M2006 2814 c-4 -16 -18 -30 -36 -37 -42 -16 -56 -77 -17 -77 37 0 89 34 109 71 28 52 24 69 -16 69 -28 0 -35 -4 -40 -26z" rs_id="2930"></path><path id="pX6RAxOMk" d="M1520 2815 c0 -8 -9 -15 -20 -15 -27 0 -25 -13 5 -47 19 -22 24 -24 25 -10 0 12 8 17 31 17 l32 0 -27 26 c-14 15 -26 31 -26 35 0 5 -4 9 -10 9 -5 0 -10 -7 -10 -15z" rs_id="2931"></path><path id="pdZ1xyYg7" d="M1550 2726 c0 -13 28 -26 58 -26 6 0 12 9 12 20 0 16 -7 20 -35 20 -23 0 -35 -5 -35 -14z" rs_id="2932"></path><path id="p18K1W0hJk" d="M3395 2651 c-140 -65 -167 -247 -52 -348 60 -52 143 -67 217 -37 22 9 49 14 60 11 16 -4 20 0 20 18 0 17 -7 25 -22 28 -19 3 -18 5 6 6 28 1 29 1 11 21 -23 25 -28 25 -70 -2 -24 -16 -33 -28 -29 -40 5 -16 -2 -18 -45 -18 -38 0 -49 3 -45 13 3 8 -9 21 -29 32 -19 10 -45 35 -58 57 -13 21 -29 36 -36 33 -10 -3 -13 12 -13 55 0 47 3 60 15 60 10 0 15 10 15 30 0 27 3 30 30 30 20 0 30 5 30 15 0 10 11 15 35 15 28 0 35 4 35 20 0 25 -22 25 -75 1z" rs_id="2933"></path><path id="p19G7lcVxv" d="M3490 2658 c1 -34 14 -55 43 -66 21 -8 33 -9 35 -2 2 5 20 10 40 10 21 0 46 7 56 15 11 8 28 15 38 15 11 0 18 7 18 20 0 25 -25 26 -80 4 -22 -9 -46 -14 -54 -11 -8 3 -17 1 -20 -6 -2 -7 -5 -5 -5 4 -1 25 -71 41 -71 17z" rs_id="2934"></path><path id="pz0gRP8ec" d="M3740 2652 c0 -12 13 -23 36 -31 21 -8 32 -16 25 -20 -7 -5 3 -21 28 -45 33 -33 40 -36 43 -20 2 12 9 1 17 -28 12 -41 11 -55 -2 -100 -8 -29 -16 -43 -16 -30 -1 29 -6 28 -42 -12 -16 -19 -43 -38 -59 -41 -17 -4 -30 -13 -30 -21 0 -10 -12 -14 -40 -14 -52 0 -56 -26 -5 -36 143 -26 275 119 236 259 -17 58 -64 115 -115 138 -52 24 -76 24 -76 1z" rs_id="2935"></path><path id="pQMkABG82" d="M306 2526 c-9 -19 -19 -48 -22 -65 -6 -27 -4 -31 15 -31 17 0 21 6 21 30 0 17 5 30 10 30 6 0 10 16 10 35 0 44 -13 45 -34 1z" rs_id="2936"></path><path id="p6fIlVGBU" d="M1270 2061 c0 -46 10 -61 40 -61 l27 0 -21 45 c-24 51 -46 59 -46 16z" rs_id="2937"></path><path id="pKTBMwWDu" d="M4147 2015 c-15 -18 -41 -36 -57 -40 -26 -6 -30 -11 -30 -41 0 -40 14 -43 75 -15 38 17 77 51 58 51 -4 0 -7 18 -5 40 5 48 -4 49 -41 5z" rs_id="2938"></path><path id="pMlfXRERb" d="M1350 1969 c0 -10 -7 -19 -15 -19 -27 0 -16 -21 20 -36 54 -22 65 -19 65 19 0 30 -4 35 -35 44 -32 10 -35 9 -35 -8z" rs_id="2939"></path><path id="p8fmBkt3Q" d="M2870 1950 c0 -19 7 -20 250 -20 243 0 250 1 250 20 0 19 -7 20 -250 20 -243 0 -250 -1 -250 -20z" rs_id="2940"></path><path id="p156Z3Y4ln" d="M327 1533 c-4 -3 -7 -136 -7 -295 0 -238 2 -288 14 -288 7 0 16 9 19 20 5 20 14 20 1442 20 1428 0 1437 0 1442 -20 3 -11 12 -20 19 -20 21 0 21 575 0 583 -8 3 -16 -1 -18 -9 -2 -12 -25 -15 -128 -15 -2382 -1 -2760 1 -2760 16 0 16 -12 20 -23 8z" rs_id="2941"></path><path id="p1Es2qYxvm" d="M285 703 c8 -44 37 -104 59 -122 14 -12 16 -9 16 23 0 24 -5 36 -14 36 -9 0 -16 18 -20 50 -6 42 -10 50 -27 50 -19 0 -20 -4 -14 -37z" rs_id="2942"></path><path id="pvwb49tqT" d="M3240 623 c0 -35 1 -36 19 -19 10 10 21 26 24 37 4 15 0 19 -19 19 -21 0 -24 -5 -24 -37z" rs_id="2943"></path><path id="pHesEQRmv" d="M400 556 c0 -13 28 -26 58 -26 6 0 12 9 12 20 0 16 -7 20 -35 20 -23 0 -35 -5 -35 -14z" rs_id="2944"></path><path id="pIPXfDHtU" d="M3100 550 c0 -21 16 -25 58 -14 39 11 27 34 -18 34 -33 0 -40 -3 -40 -20z" rs_id="2945"></path></g></g><g id="l1Odl7rvbdX2aXLRiLztEU9" fill="rgb(52,83,174)" style="transform: none;" rs_id="2946"><g rs_id="2947" style="transform: none;"><path id="p1FZTu8ULT" d="M1251 3893 c-9 -17 -15 -79 -12 -115 2 -27 31 -22 31 5 0 12 3 46 6 75 7 53 -5 71 -25 35z" rs_id="2948"></path><path id="pBHCzOe5t" d="M4210 3845 c0 -28 4 -35 20 -35 21 0 24 10 14 48 -10 36 -34 27 -34 -13z" rs_id="2949"></path><path id="ptEfwV8oB" d="M1237 2700 c-7 -28 3 -60 19 -60 10 0 14 13 14 40 0 43 -23 57 -33 20z" rs_id="2950"></path><path id="pX8x5GL8F" d="M3680 2620 c0 -17 7 -20 40 -20 33 0 40 3 40 20 0 17 -7 20 -40 20 -33 0 -40 -3 -40 -20z" rs_id="2951"></path><path id="p9kgBrTuJ" d="M3780 2600 c0 -5 4 -10 9 -10 4 0 20 -11 35 -25 l26 -24 0 34 c0 33 -2 35 -35 35 -19 0 -35 -4 -35 -10z" rs_id="2952"></path><path id="pB4KHIR2p" d="M410 2590 c0 -5 -9 -10 -20 -10 -11 0 -20 -7 -20 -15 0 -8 -7 -15 -15 -15 -8 0 -15 -7 -15 -16 0 -17 -23 -44 -38 -44 -9 0 -22 -32 -22 -57 0 -7 9 -13 20 -13 11 0 20 5 20 10 0 6 6 10 14 10 8 0 17 14 21 30 8 39 56 87 95 95 43 9 39 35 -5 35 -19 0 -35 -4 -35 -10z" rs_id="2953"></path><path id="pamYj0UCD" d="M1080 2586 c0 -16 32 -26 60 -19 37 10 23 33 -20 33 -27 0 -40 -4 -40 -14z" rs_id="2954"></path><path id="p1BFxkQdUp" d="M1180 2586 c0 -8 11 -17 25 -20 14 -4 25 -13 25 -21 0 -8 7 -15 15 -15 10 0 15 11 15 35 0 34 -1 35 -40 35 -28 0 -40 -4 -40 -14z" rs_id="2955"></path><path id="pedUoB83P" d="M3854 2399 c-9 -17 -28 -42 -42 -55 l-27 -23 38 -1 c30 0 37 3 37 20 0 11 7 20 15 20 10 0 15 11 15 35 0 43 -14 45 -36 4z" rs_id="2956"></path><path id="p1HmKxOxKI" d="M1230 2335 c0 -12 -14 -15 -65 -15 -57 0 -65 -2 -65 -19 0 -11 -6 -21 -12 -24 -30 -10 9 -22 73 -22 59 0 69 -3 69 -17 0 -11 5 -15 15 -12 11 5 15 22 15 65 0 46 -3 59 -15 59 -8 0 -15 -7 -15 -15z" rs_id="2957"></path><path id="p4jSYwy7a" d="M1230 2195 c0 -12 -14 -15 -65 -15 -57 0 -65 -2 -65 -19 0 -11 -6 -21 -12 -24 -28 -9 7 -22 71 -25 l69 -4 6 -39 c8 -47 36 -55 36 -10 0 74 -13 151 -26 151 -8 0 -14 -7 -14 -15z" rs_id="2958"></path><path id="pQcE5Svv4" d="M1250 2008 c0 -16 74 -84 99 -91 17 -4 21 -1 21 19 0 19 -5 24 -25 24 -17 0 -25 5 -25 18 0 10 -5 23 -12 30 -15 15 -58 16 -58 0z" rs_id="2959"></path><path id="pcqnOTfX" d="M3200 1916 c0 -8 8 -16 17 -18 14 -2 17 -13 14 -56 -3 -67 7 -112 25 -112 11 0 14 20 14 100 l0 100 -35 0 c-24 0 -35 -5 -35 -14z" rs_id="2960"></path><path id="p1HQbGP0EH" d="M320 1505 c0 -37 24 -50 32 -17 6 27 -2 52 -18 52 -9 0 -14 -11 -14 -35z" rs_id="2961"></path><path id="p10mN8ZOwz" d="M3238 1523 c-6 -28 2 -53 18 -53 9 0 14 11 14 35 0 37 -24 50 -32 18z" rs_id="2962"></path><path id="p8PQRsBUk" d="M320 995 c0 -37 24 -50 32 -17 6 27 -2 52 -18 52 -9 0 -14 -11 -14 -35z" rs_id="2963"></path><path id="p19VFGVPms" d="M3227 691 c-12 -35 -27 -56 -51 -70 -33 -21 -35 -21 -1385 -21 -1194 0 -1351 -2 -1351 -15 0 -8 -7 -15 -15 -15 -24 0 -18 -27 8 -34 35 -9 47 -7 47 9 0 13 164 15 1352 17 1070 2 1352 6 1356 16 2 6 10 12 18 12 8 0 14 7 14 15 0 8 6 15 14 15 16 0 36 50 36 91 0 45 -24 34 -43 -20z" rs_id="2964"></path><path id="prZcLBeMS" d="M320 703 c0 -55 11 -73 40 -73 l28 0 -19 37 c-10 21 -19 43 -19 50 0 7 -7 13 -15 13 -10 0 -15 -10 -15 -27z" rs_id="2965"></path></g></g><g id="l7hGZY7FsEl2YEMbedqsM8O" fill="rgb(24,46,143)" style="transform: none;" rs_id="2966"><g rs_id="2967" style="transform: none;"><path id="p14qwgNI6J" d="M1350 3989 c-28 -12 -76 -54 -93 -84 -9 -14 -13 -196 -17 -645 l-5 -625 -410 -5 c-356 -4 -414 -7 -440 -21 -36 -20 -56 -42 -81 -89 -18 -33 -19 -75 -19 -935 l0 -900 24 -48 c15 -31 38 -58 65 -75 l41 -27 1365 0 c751 0 1377 3 1392 7 40 12 89 57 109 103 17 37 19 80 19 647 l0 607 409 3 409 3 43 30 c24 17 52 46 64 65 20 35 20 46 20 955 l0 920 -28 41 c-15 22 -45 50 -66 62 l-39 22 -1368 -1 c-882 0 -1378 -4 -1394 -10z m2795 -90 c26 -29 35 -49 40 -90 3 -30 5 -434 3 -899 -3 -786 -4 -847 -21 -877 -33 -62 -16 -60 -667 -64 -327 -2 -939 -3 -1359 -1 l-763 2 -39 39 -39 39 2 910 c3 894 3 910 23 932 46 52 -16 49 1433 47 l1354 -2 33 -36z m-2914 -1556 c0 -126 4 -251 8 -278 9 -65 50 -118 113 -145 46 -20 65 -20 967 -20 l921 0 0 -595 c0 -655 1 -641 -61 -686 l-34 -24 -1328 -3 c-862 -1 -1342 1 -1366 8 -20 5 -50 24 -66 40 l-30 31 -3 900 c-3 994 -6 939 61 979 30 19 53 20 425 20 l392 0 1 -227z" rs_id="2968"></path><path id="pgg1Wz863" d="M1524 3355 c-4 -8 -4 -22 0 -30 5 -13 41 -15 248 -15 137 0 250 4 258 10 12 7 12 13 4 27 -10 16 -34 18 -258 21 -213 2 -247 0 -252 -13z" rs_id="2969"></path><path id="p15tGQC4Ss" d="M2116 3354 c-16 -41 4 -44 274 -44 270 0 290 3 274 44 -5 14 -36 16 -274 16 -238 0 -269 -2 -274 -16z" rs_id="2970"></path><path id="p15pfStVz1" d="M2784 3355 c-4 -8 -4 -22 0 -30 5 -13 40 -15 234 -15 240 0 261 4 246 44 -5 14 -33 16 -240 16 -199 0 -235 -2 -240 -15z" rs_id="2971"></path><path id="pLNhHO9X4" d="M3384 3355 c-4 -8 -4 -22 0 -30 5 -13 44 -15 269 -15 223 0 267 2 277 15 10 12 10 18 0 30 -10 13 -54 15 -277 15 -225 0 -264 -2 -269 -15z" rs_id="2972"></path><path id="p2t2IBQm6" d="M1544 3181 c-61 -37 -64 -49 -64 -233 l0 -167 33 -34 c42 -45 73 -50 299 -45 160 3 179 5 205 24 53 38 63 75 63 222 0 145 -9 180 -54 222 -27 25 -29 25 -239 28 -196 2 -214 1 -243 -17z m447 -66 c17 -16 19 -32 19 -163 0 -121 -3 -148 -17 -164 -15 -16 -35 -18 -215 -18 -254 0 -238 -12 -238 179 0 176 2 179 110 183 41 2 130 2 198 2 102 -2 126 -5 143 -19z" rs_id="2973"></path><path id="p5shxLjTv" d="M3417 2660 c-41 -13 -92 -54 -118 -97 -43 -69 -24 -201 37 -254 60 -52 176 -70 238 -36 25 13 33 14 55 3 78 -40 169 -27 236 35 53 49 69 92 63 169 -6 80 -40 130 -113 165 -47 23 -64 27 -107 22 -28 -4 -61 -13 -74 -22 -22 -14 -27 -14 -55 1 -38 19 -123 27 -162 14z m387 -79 c59 -33 82 -119 50 -187 -35 -73 -140 -98 -211 -50 l-36 25 -42 -25 c-106 -61 -225 -1 -225 114 0 88 56 142 145 142 34 0 58 -7 75 -20 30 -23 63 -26 80 -5 29 35 108 38 164 6z" rs_id="2974"></path></g></g><g id="l6uRkKgGbtr1Du8Q0TMcRHA" fill="rgb(23,33,129)" style="transform: none;" rs_id="2975"><g rs_id="2976" style="transform: none;"><path id="p8aYcSXVB" d="M1345 3983 c-37 -19 -84 -68 -96 -100 -13 -34 -12 -1246 1 -1241 6 2 10 221 11 618 l2 615 29 38 c31 39 52 49 41 20 -3 -10 -3 -15 1 -11 4 3 9 14 10 25 3 17 52 18 1382 23 l1379 5 43 -23 c35 -19 42 -27 37 -45 -5 -16 -4 -18 3 -8 30 42 32 -33 33 -943 0 -681 -3 -921 -12 -938 -18 -35 -51 -69 -78 -79 -13 -5 -204 -10 -424 -10 l-401 0 -15 -22 c-14 -19 -16 -97 -17 -602 -2 -715 2 -647 -31 -686 -54 -63 36 -60 -1445 -60 -743 1 -1353 3 -1356 6 -3 3 -16 5 -29 5 -12 0 -23 4 -23 10 0 5 -4 9 -9 7 -5 -1 -9 2 -9 8 0 5 -10 12 -21 17 -13 4 -21 16 -21 31 0 13 -7 32 -15 43 -21 28 -22 1748 -1 1807 18 48 40 73 91 101 38 20 55 21 440 26 l400 6 -395 2 c-248 1 -409 -2 -432 -8 -52 -15 -94 -53 -113 -103 -14 -38 -15 -138 -13 -952 l3 -910 24 -36 c14 -19 39 -45 57 -57 l34 -22 1380 0 c1515 -1 1409 -5 1463 59 47 57 50 84 43 360 -4 140 -4 409 0 597 l7 343 401 3 c388 3 402 4 441 24 41 22 58 40 85 84 13 22 15 145 18 918 2 615 -1 905 -8 932 -13 50 -62 106 -108 125 -30 13 -227 15 -1396 15 -1221 -1 -1364 -2 -1391 -17z" rs_id="2977"></path><path id="pHNOUy9Gz" d="M2067 3943 c354 -2 932 -2 1285 0 354 1 65 2 -642 2 -707 0 -996 -1 -643 -2z" rs_id="2978"></path><path id="ptlmZch40" d="M4075 3940 c17 -4 39 -11 50 -15 l20 -8 -20 16 c-11 9 -33 16 -50 16 l-30 -1 30 -8z" rs_id="2979"></path><path id="pYxZojaRs" d="M1296 3865 c-3 -9 -6 -26 -5 -38 1 -14 4 -9 9 13 9 37 7 52 -4 25z" rs_id="2980"></path><path id="pNPV4HMd8" d="M1617 3358 c-7 -4 73 -8 177 -8 104 0 187 2 184 5 -8 9 -349 11 -361 3z" rs_id="2981"></path><path id="pLI2aXQmk" d="M2250 3359 c-25 -3 51 -7 169 -7 118 -1 212 0 209 4 -8 8 -326 11 -378 3z" rs_id="2982"></path><path id="p5li8QXLD" d="M2880 3360 c0 -7 57 -10 190 -10 105 1 188 5 186 9 -8 12 -376 14 -376 1z" rs_id="2983"></path><path id="p13Sb7MRIA" d="M3475 3360 c-5 -8 54 -10 214 -10 121 1 223 5 225 9 3 4 -94 8 -214 10 -152 2 -220 -1 -225 -9z" rs_id="2984"></path><path id="pKb6cnNOt" d="M1521 3166 c-10 -11 -9 -14 1 -12 14 2 23 15 15 22 -2 2 -10 -2 -16 -10z" rs_id="2985"></path><path id="pIbtyu0TD" d="M2000 3173 c8 -3 26 -15 40 -27 l25 -21 -24 28 c-14 15 -32 27 -40 26 -14 0 -14 -1 -1 -6z" rs_id="2986"></path><path id="puiFDU7Yd" d="M1583 3145 c-9 -7 49 -9 183 -7 l196 4 29 -28 c30 -29 39 -23 15 9 -9 12 -36 21 -78 27 -83 11 -327 8 -345 -5z" rs_id="2987"></path><path id="pYTvt3lcN" d="M1527 3103 c-8 -14 -4 -293 4 -293 4 0 9 68 11 150 3 134 -1 167 -15 143z" rs_id="2988"></path><path id="pNtXDFClz" d="M1484 2945 c0 -82 2 -115 3 -72 2 43 2 110 0 150 -1 40 -3 5 -3 -78z" rs_id="2989"></path><path id="pWTFEUd9j" d="M2010 2816 c0 -8 -7 -22 -16 -31 -19 -18 -13 -30 11 -22 13 6 23 67 10 67 -3 0 -5 -6 -5 -14z" rs_id="2990"></path><path id="pkMNfX9OY" d="M1551 2783 c8 -13 23 -23 34 -22 14 0 16 2 5 6 -8 3 -24 13 -34 22 -18 15 -18 15 -5 -6z" rs_id="2991"></path><path id="p1CqAT5eMX" d="M1935 2761 c-6 -5 -19 -11 -30 -14 -11 -3 -1 -5 23 -6 31 -1 42 3 42 14 0 17 -21 20 -35 6z" rs_id="2992"></path><path id="p30A9JwZt" d="M1748 2743 c12 -2 32 -2 45 0 12 2 2 4 -23 4 -25 0 -35 -2 -22 -4z" rs_id="2993"></path><path id="p9SVxopZr" d="M3368 2631 c-43 -27 -88 -95 -88 -132 0 -8 10 6 21 31 25 55 56 90 74 84 8 -3 19 4 25 16 6 11 14 18 18 16 5 -3 14 -1 22 5 12 7 11 9 -6 9 -11 0 -41 -13 -66 -29z" rs_id="2994"></path><path id="pyTaMRlyN" d="M3543 2646 c20 -8 44 -19 52 -26 9 -7 18 -10 21 -7 8 8 -71 47 -93 47 -10 -1 -1 -7 20 -14z" rs_id="2995"></path><path id="pAQnKUuud" d="M3634 2645 c-18 -14 -17 -15 11 -9 46 10 65 23 34 24 -14 0 -34 -7 -45 -15z" rs_id="2996"></path><path id="p1BpqImdql" d="M3770 2651 c69 -21 124 -68 136 -116 3 -14 11 -28 17 -32 7 -4 8 0 4 11 -4 10 -7 22 -7 27 0 5 -17 28 -37 50 -38 42 -87 70 -120 68 -12 0 -10 -3 7 -8z" rs_id="2997"></path><path id="pTbvH8YaM" d="M3660 2612 c-14 -9 -30 -23 -36 -31 -9 -11 -15 -11 -42 3 -18 9 -32 21 -32 26 0 12 -97 4 -148 -12 -40 -12 -82 -79 -82 -131 0 -41 36 -119 61 -133 80 -45 90 -48 111 -35 11 7 17 8 13 2 -12 -21 28 -11 49 12 11 12 30 22 41 21 23 -1 77 -24 86 -37 10 -14 94 -2 123 17 47 30 66 50 66 68 0 10 5 18 10 18 6 0 10 18 10 41 0 22 4 38 9 35 17 -11 -24 61 -54 95 -50 56 -135 75 -185 41z m142 -28 c87 -45 89 -191 3 -244 -46 -28 -115 -27 -163 4 l-38 24 -40 -24 c-25 -15 -54 -24 -82 -24 -89 0 -142 55 -142 149 0 49 3 57 39 92 36 36 43 39 96 39 42 0 67 -6 92 -22 34 -20 36 -20 65 -3 62 36 111 39 170 9z" rs_id="2998"></path><path id="p6IXz4Nbq" d="M417 2569 c-10 -6 -21 -8 -24 -5 -10 10 -33 -15 -33 -35 0 -10 -6 -22 -13 -26 -9 -5 -11 -16 -6 -33 7 -24 7 -24 8 -2 2 39 62 94 112 102 41 7 42 8 9 8 -19 1 -43 -3 -53 -9z" rs_id="2999"></path><path id="pWotHuq4n" d="M3283 2430 c0 -25 2 -35 4 -22 2 12 2 32 0 45 -2 12 -4 2 -4 -23z" rs_id="3000"></path><path id="pUBKf1Tia" d="M3306 2352 c20 -35 54 -64 89 -75 15 -5 14 -3 -5 11 -14 9 -42 35 -63 57 l-39 40 18 -33z" rs_id="3001"></path><path id="p17eX6zADa" d="M3448 2259 c15 -5 36 -6 55 0 29 8 27 9 -23 9 -44 1 -50 -1 -32 -9z" rs_id="3002"></path><path id="p14niUvgLx" d="M3704 2260 c17 -6 36 -5 45 0 11 7 3 9 -29 9 -42 -1 -43 -1 -16 -9z" rs_id="3003"></path><path id="puNqOavto" d="M1240 2068 c0 -48 47 -114 105 -146 27 -15 108 -17 855 -20 546 -1 820 1 810 8 -10 6 -308 10 -825 10 -805 0 -810 0 -845 21 -44 26 -79 68 -80 94 0 11 -5 27 -10 35 -8 13 -10 13 -10 -2z" rs_id="3004"></path><path id="p1EWisSjJC" d="M4148 1998 c-7 -7 -20 -15 -28 -17 -8 -2 -28 -7 -45 -12 -29 -8 -28 -8 8 -6 20 2 37 -1 37 -6 0 -4 11 4 25 19 14 15 25 29 25 30 0 7 -9 4 -22 -8z" rs_id="3005"></path><path id="pSlGI1BDS" d="M3248 1883 c-1 -5 -2 -271 -3 -593 -1 -385 -5 -594 -12 -610 -20 -46 -62 -78 -116 -88 -45 -8 -47 -10 -17 -11 39 -1 120 29 120 44 0 6 9 28 20 50 19 38 20 59 20 627 -1 509 -3 618 -12 581z" rs_id="3006"></path><path id="pxXWoQIRH" d="M340 695 c0 -37 82 -116 120 -115 8 1 -5 11 -30 23 -30 15 -52 35 -67 62 -13 22 -23 36 -23 30z" rs_id="3007"></path></g></g><g id="l58gtPJXSAICumwdPrZacmb" fill="rgb(10,21,132)" style="transform: none;" rs_id="3008"><g rs_id="3009" style="transform: none;"><path id="p3MGszh6K" d="M1350 3984 c-45 -20 -68 -41 -91 -86 -18 -35 -19 -66 -17 -645 l2 -608 6 617 5 618 45 45 c37 36 55 47 99 55 36 7 513 10 1373 10 l1319 0 48 -25 c45 -24 70 -57 94 -125 3 -9 6 -6 6 8 2 47 -51 114 -108 138 -52 22 -2730 20 -2781 -2z" rs_id="3010"></path><path id="p14uiTekXY" d="M1533 3040 c0 -30 2 -43 4 -27 2 15 2 39 0 55 -2 15 -4 2 -4 -28z" rs_id="3011"></path><path id="p1AGzOjISk" d="M1533 2875 c0 -27 2 -38 4 -22 2 15 2 37 0 50 -2 12 -4 0 -4 -28z" rs_id="3012"></path><path id="pa3tVAJyA" d="M419 2620 c-14 -4 -37 -15 -52 -25 -30 -19 -70 -82 -64 -99 3 -6 9 0 15 14 14 34 63 79 109 101 40 18 36 23 -8 9z" rs_id="3013"></path><path id="psqbCSYWJ" d="M3663 2608 c-13 -6 -23 -15 -23 -21 0 -5 7 -3 16 4 9 7 40 13 70 13 65 0 100 -22 132 -84 16 -32 22 -38 22 -22 0 26 -52 87 -91 108 -32 16 -94 17 -126 2z" rs_id="3014"></path><path id="pbU8j5BNk" d="M3871 2452 c-2 -40 -28 -88 -61 -112 -40 -28 -116 -32 -155 -6 -32 21 -43 16 -16 -8 10 -9 40 -19 67 -22 92 -10 190 69 173 141 -5 24 -7 26 -8 7z" rs_id="3015"></path><path id="pJPLJ31Du" d="M4225 2040 c-11 -36 -64 -90 -110 -111 -24 -11 -32 -19 -21 -19 36 0 105 49 127 91 11 22 18 46 16 52 -2 7 -7 1 -12 -13z" rs_id="3016"></path><path id="pr9vlCn9b" d="M3310 1907 l-25 -13 -5 -624 c-3 -344 -6 -626 -8 -628 -43 -46 -94 -83 -127 -91 l-40 -9 36 -1 c46 -1 109 43 135 95 18 37 19 71 22 652 l2 612 375 0 c238 0 376 4 380 10 10 16 -713 13 -745 -3z" rs_id="3017"></path><path id="pr6WvrZht" d="M297 675 c15 -70 86 -136 145 -134 21 1 26 3 13 6 -11 3 -24 9 -30 14 -5 5 -16 9 -25 9 -22 0 -69 50 -91 97 -16 34 -18 35 -12 8z" rs_id="3018"></path></g></g></svg>