<svg class="img-fluid" id="outputsvg" xmlns="http://www.w3.org/2000/svg" rs_id="2829" width="1600" height="406" viewBox="0 0 16000 4060">
	<g id="l2p7VaxzY7WdIGvUDlog2Q6" fill="rgb(254,249,248)" style="transform: none;">
		<g style="transform: none;">
			<path id="pWzRaGtOX" d="M0 2030 l0 -2030 8000 0 8000 0 0 485 c0 470 -1 485 -19 485 -12 0 -29 16 -45 44 -27 46 -34 86 -16 86 6 0 26 16 45 35 l35 34 0 1446 0 1445 -8000 0 -8000 0 0 -2030z m7852 1223 l3 -538 43 -3 c45 -3 59 4 146 81 24 20 52 37 63 37 11 0 28 9 37 19 10 10 33 22 51 25 19 4 38 13 42 20 5 7 27 16 51 19 24 3 51 12 61 21 27 24 326 23 353 -1 10 -9 42 -18 73 -21 30 -2 60 -11 66 -18 6 -8 22 -14 35 -14 13 0 32 -9 41 -20 10 -11 27 -20 39 -20 41 0 334 -288 334 -328 0 -12 9 -31 20 -42 11 -11 22 -31 26 -46 4 -14 13 -28 20 -31 9 -3 14 -20 14 -43 0 -22 8 -48 20 -63 18 -23 20 -40 20 -226 0 -165 -2 -201 -14 -201 -17 0 -26 -22 -26 -66 0 -19 -4 -34 -9 -34 -5 0 -14 -15 -22 -32 -7 -18 -18 -36 -25 -40 -6 -4 -15 -20 -19 -35 -3 -15 -20 -41 -37 -57 -16 -17 -37 -44 -45 -61 -25 -46 -56 -85 -68 -85 -7 0 -20 -9 -30 -20 -10 -11 -23 -20 -30 -20 -6 0 -30 -18 -53 -40 -22 -22 -50 -40 -60 -40 -10 0 -27 -9 -37 -20 -10 -11 -29 -20 -42 -20 -13 0 -31 -9 -40 -20 -11 -12 -30 -20 -49 -20 -17 0 -41 -9 -54 -20 -19 -16 -37 -20 -105 -20 -69 0 -86 -3 -106 -21 l-24 -20 -18 22 c-17 21 -23 22 -107 16 -57 -4 -90 -3 -90 3 0 6 -6 10 -14 10 -7 0 -19 7 -26 15 -9 11 -27 15 -54 13 -33 -2 -45 2 -59 20 -10 12 -29 22 -43 22 -13 0 -29 9 -36 20 -7 11 -23 20 -35 20 -29 0 -323 289 -323 317 0 11 -9 29 -20 41 -11 12 -20 32 -20 45 0 13 -9 36 -20 50 -11 14 -20 40 -20 60 0 19 -9 45 -20 60 -20 25 -20 40 -20 956 l0 931 130 0 130 0 2 -537z m7292 -341 c32 4 47 0 69 -19 16 -13 37 -23 47 -23 9 0 23 -7 30 -15 7 -8 20 -15 30 -15 22 0 125 -96 139 -130 16 -37 34 -63 54 -78 13 -10 17 -28 17 -70 0 -32 8 -74 18 -96 17 -38 17 -41 0 -75 -10 -19 -18 -52 -18 -73 0 -66 -105 -211 -162 -223 -15 -4 -33 -15 -38 -26 -6 -10 -21 -19 -34 -19 -13 0 -31 -9 -41 -20 -11 -12 -31 -20 -50 -20 -18 0 -42 -9 -55 -20 -17 -15 -37 -20 -80 -20 -43 0 -63 -5 -80 -20 -18 -16 -37 -20 -90 -20 -53 0 -72 -4 -90 -20 -15 -13 -37 -20 -66 -20 -33 0 -46 -5 -54 -20 -7 -13 -21 -20 -41 -20 -17 0 -32 -6 -35 -15 -3 -8 -15 -17 -25 -20 -48 -15 -59 -43 -59 -143 l0 -95 47 -48 c26 -27 55 -49 63 -49 9 0 26 -11 38 -25 l23 -26 193 3 c161 3 197 6 212 19 11 9 32 19 48 23 16 4 50 31 79 62 28 29 57 54 64 54 8 0 33 -18 55 -40 24 -22 52 -40 64 -40 21 0 54 -33 54 -52 0 -15 -75 -86 -97 -93 -13 -3 -23 -10 -23 -15 0 -4 -11 -11 -25 -14 -13 -3 -29 -15 -35 -26 -6 -11 -20 -20 -30 -20 -11 0 -29 -9 -40 -20 -11 -11 -31 -20 -45 -20 -13 0 -32 -8 -42 -19 -14 -15 -37 -20 -112 -23 -61 -3 -96 -9 -99 -16 -5 -17 -42 -15 -49 3 -4 13 -22 16 -96 14 -80 -2 -92 0 -106 18 -11 12 -34 22 -66 26 -29 4 -56 15 -67 27 -10 11 -26 20 -35 20 -19 0 -22 3 -120 100 -48 47 -73 80 -73 95 0 12 -9 34 -20 48 -17 22 -20 40 -20 145 0 106 2 121 20 137 11 10 20 28 20 39 0 24 77 110 125 141 55 35 120 65 141 65 12 0 33 9 47 20 16 13 40 20 69 20 24 0 60 9 81 20 22 12 56 20 84 20 30 0 60 8 81 20 18 11 49 20 69 20 19 0 50 9 67 19 17 11 47 22 66 26 42 8 66 27 103 81 25 37 27 48 27 137 l0 96 -40 40 c-22 22 -40 44 -40 50 0 6 -6 11 -14 11 -8 0 -21 8 -28 19 -8 11 -32 21 -61 25 -27 4 -50 13 -53 20 -4 10 -44 13 -174 12 -145 -1 -171 -3 -187 -18 -11 -10 -35 -18 -54 -18 -23 0 -38 -6 -47 -20 -7 -11 -19 -20 -27 -20 -8 0 -23 -9 -32 -20 -10 -11 -24 -20 -32 -20 -8 0 -29 -17 -47 -37 -31 -34 -34 -36 -51 -21 -10 9 -27 18 -38 22 -29 9 -115 88 -115 106 0 19 100 110 121 110 9 0 24 9 33 19 10 11 31 23 46 26 16 3 34 12 40 20 6 7 23 16 38 20 15 4 34 12 42 19 8 8 34 16 58 19 24 3 49 12 55 21 10 13 43 16 207 18 194 3 195 3 214 -20 16 -20 26 -23 60 -20z m-3267 18 c15 -11 41 -20 60 -20 20 0 46 -9 60 -20 14 -11 34 -20 44 -20 10 0 21 -4 24 -10 8 -12 107 -60 126 -60 21 -1 157 -141 142 -147 -7 -3 -13 -11 -13 -18 0 -14 -22 -25 -50 -25 -11 0 -37 -18 -59 -40 -22 -22 -45 -40 -53 -40 -7 0 -30 18 -51 40 -23 24 -46 40 -61 40 -12 0 -31 9 -41 20 -10 11 -27 20 -38 20 -12 0 -31 10 -43 21 -22 20 -33 21 -241 22 -225 0 -263 -4 -263 -29 0 -9 -11 -14 -35 -14 -23 0 -41 -7 -52 -20 -10 -11 -23 -20 -30 -20 -16 0 -173 -161 -208 -213 -14 -21 -25 -48 -25 -61 0 -13 -9 -31 -20 -41 -16 -14 -20 -29 -18 -59 l3 -41 715 -5 715 -5 3 -182 c2 -174 2 -183 -18 -193 -16 -8 -20 -21 -20 -59 0 -35 -5 -53 -20 -66 -11 -10 -20 -28 -20 -41 0 -13 -6 -27 -14 -31 -7 -4 -24 -29 -38 -55 -28 -54 -152 -182 -185 -192 -11 -4 -24 -13 -27 -21 -3 -8 -14 -15 -25 -15 -11 0 -25 -9 -31 -20 -7 -12 -21 -20 -38 -20 -16 0 -32 -8 -40 -20 -9 -14 -23 -20 -51 -20 -24 0 -48 -8 -66 -22 -25 -19 -39 -22 -111 -20 -63 2 -86 -1 -97 -13 -14 -14 -17 -14 -25 1 -8 15 -22 16 -96 11 -52 -4 -86 -2 -86 3 0 6 -9 10 -20 10 -10 0 -23 6 -27 14 -4 7 -30 16 -57 19 -28 3 -55 12 -61 20 -6 9 -24 19 -41 23 -16 4 -36 13 -44 20 -58 52 -75 64 -88 64 -8 0 -24 9 -36 20 -12 11 -51 48 -87 83 -36 34 -69 74 -72 88 -4 14 -22 42 -42 62 -20 21 -35 46 -35 60 0 13 -9 32 -20 42 -14 12 -20 31 -20 58 0 27 -7 48 -20 62 -19 20 -21 35 -20 210 0 175 1 190 20 210 13 14 20 35 20 61 0 27 6 45 20 57 11 9 20 27 20 40 0 12 9 30 20 40 11 9 20 26 20 37 0 29 260 290 289 290 11 0 21 4 21 8 0 13 73 58 106 66 16 4 36 13 44 21 8 7 40 15 70 18 35 3 58 10 65 21 8 14 34 16 188 16 164 0 181 -2 204 -20z m1660 -1 c24 -14 49 -20 74 -17 27 2 40 -1 48 -14 6 -10 23 -18 39 -18 19 0 40 -12 66 -39 21 -21 55 -47 76 -57 23 -11 41 -28 45 -41 3 -13 10 -23 15 -23 6 0 10 -7 10 -15 0 -8 11 -22 25 -31 14 -9 25 -21 25 -28 0 -6 11 -28 25 -48 18 -27 25 -50 25 -85 0 -27 5 -54 11 -60 8 -8 8 -17 0 -31 -6 -11 -11 -43 -11 -70 0 -43 -5 -55 -32 -84 -18 -18 -40 -44 -48 -57 -8 -13 -28 -35 -43 -50 -16 -14 -48 -45 -72 -68 -24 -24 -53 -43 -64 -43 -12 0 -29 -9 -38 -20 -12 -13 -30 -20 -55 -20 -26 0 -44 -7 -55 -20 -14 -16 -30 -20 -80 -20 -43 0 -66 -5 -78 -16 -10 -11 -43 -18 -96 -23 -61 -5 -83 -11 -90 -24 -7 -12 -23 -17 -55 -17 -32 0 -49 -6 -61 -20 -10 -11 -30 -20 -45 -20 -15 0 -35 -9 -45 -19 -10 -10 -27 -20 -38 -23 -15 -2 -21 -12 -23 -40 -2 -20 -10 -42 -18 -48 -49 -42 40 -239 109 -240 11 0 27 -10 37 -22 18 -22 25 -23 200 -25 167 -2 197 1 240 25 8 5 38 20 65 33 28 13 65 41 84 62 30 34 35 36 50 24 9 -8 26 -18 38 -21 11 -4 27 -13 33 -21 7 -8 18 -15 26 -15 7 0 24 -11 38 -24 l26 -23 -21 -19 c-12 -10 -27 -31 -35 -46 -8 -16 -21 -28 -30 -28 -8 0 -34 -20 -58 -45 -25 -25 -53 -45 -65 -45 -12 0 -29 -9 -38 -20 -11 -12 -30 -20 -50 -20 -20 0 -37 -7 -45 -18 -10 -15 -31 -20 -103 -25 -51 -3 -91 -10 -93 -16 -6 -17 -50 -13 -60 5 -8 14 -23 16 -90 12 -76 -4 -83 -3 -104 19 -16 17 -32 23 -65 23 -32 0 -46 5 -55 20 -7 11 -23 20 -35 20 -26 0 -203 168 -203 193 0 8 -9 26 -20 40 -11 14 -20 40 -20 60 0 20 -8 49 -17 65 -17 29 -17 31 0 50 11 12 17 35 17 66 0 33 6 56 20 73 11 14 20 32 20 40 0 23 130 151 160 157 15 3 34 11 41 19 8 8 34 16 57 20 24 3 51 12 60 20 9 8 41 17 70 19 29 3 60 12 70 20 10 10 43 17 84 20 44 3 73 10 86 21 11 10 35 17 56 17 36 0 65 11 141 53 17 9 43 22 58 28 19 7 30 21 34 40 3 15 14 36 24 45 25 22 28 154 4 174 -8 7 -15 20 -15 30 0 9 -25 43 -55 74 -45 46 -61 56 -89 56 -18 0 -44 8 -57 18 -21 17 -43 19 -190 18 -143 -1 -168 -3 -183 -18 -10 -10 -32 -18 -51 -18 -24 0 -38 -6 -45 -20 -6 -12 -21 -20 -37 -20 -18 0 -41 -16 -80 -57 -39 -42 -60 -57 -75 -55 -12 2 -45 28 -73 57 -28 30 -63 57 -78 60 -26 7 -26 7 36 70 36 36 75 65 92 69 16 4 35 16 43 27 7 10 20 19 28 19 8 0 14 4 14 9 0 5 17 15 38 21 20 7 44 18 52 25 8 7 35 15 59 18 24 3 51 13 60 21 13 13 45 16 203 16 171 0 191 -2 225 -21z m-13212 -66 c12 -24 26 -48 33 -55 7 -7 12 -27 12 -45 0 -18 8 -40 19 -50 10 -10 21 -35 24 -57 3 -21 13 -46 22 -56 8 -9 15 -28 15 -42 0 -14 9 -33 20 -43 11 -10 20 -31 20 -46 0 -32 19 -79 32 -79 4 0 8 -13 8 -28 0 -15 5 -33 12 -40 9 -9 155 -12 594 -12 320 0 589 3 598 6 10 4 16 18 16 35 0 18 7 32 20 39 14 7 20 21 20 44 0 20 8 40 20 51 13 12 20 31 20 54 0 24 7 42 20 54 11 9 20 29 20 43 0 14 9 37 20 51 11 14 20 40 20 58 0 19 8 39 20 50 12 11 20 31 20 50 0 54 29 65 165 65 l115 0 0 -38 c0 -26 -7 -45 -20 -57 -11 -10 -20 -29 -20 -43 0 -14 -7 -33 -16 -43 -9 -10 -19 -38 -21 -63 -3 -26 -13 -52 -24 -62 -11 -9 -19 -30 -19 -45 0 -15 -7 -32 -16 -37 -10 -5 -18 -27 -21 -55 -3 -27 -13 -53 -24 -63 -11 -9 -19 -30 -19 -45 0 -15 -4 -30 -9 -34 -5 -3 -15 -30 -22 -60 -7 -30 -17 -55 -22 -55 -18 0 -47 -43 -47 -70 0 -15 -9 -35 -20 -45 -11 -10 -20 -27 -20 -37 0 -11 -9 -31 -20 -45 -11 -14 -20 -41 -20 -59 0 -21 -8 -42 -20 -54 -11 -11 -20 -30 -20 -42 0 -12 -7 -29 -16 -39 -9 -10 -19 -38 -21 -63 -3 -26 -13 -52 -24 -62 -11 -9 -19 -28 -19 -41 0 -14 -9 -36 -20 -50 -11 -14 -20 -38 -20 -53 0 -15 -9 -39 -20 -53 -11 -14 -20 -35 -20 -48 0 -12 -7 -30 -16 -40 -9 -10 -19 -38 -21 -63 -3 -26 -13 -52 -24 -62 -11 -9 -19 -28 -19 -42 0 -14 -7 -33 -15 -42 -9 -10 -19 -35 -22 -56 -3 -22 -14 -47 -24 -57 -11 -10 -19 -29 -19 -42 0 -14 -9 -39 -20 -57 -11 -18 -20 -43 -20 -55 0 -13 -9 -32 -20 -43 -11 -11 -20 -32 -20 -47 0 -16 -9 -39 -20 -53 -11 -14 -20 -36 -20 -48 0 -13 -9 -35 -20 -49 -11 -15 -20 -41 -20 -62 0 -25 -10 -47 -30 -71 -28 -35 -29 -35 -122 -38 -51 -1 -113 1 -138 5 -40 8 -45 12 -51 42 -4 19 -14 38 -23 43 -9 5 -16 22 -16 38 0 19 -7 33 -20 40 -15 8 -20 21 -20 55 0 33 -6 50 -20 62 -11 10 -20 29 -20 44 0 14 -9 34 -20 44 -13 11 -20 31 -20 52 0 20 -9 46 -20 60 -11 14 -20 36 -20 48 0 12 -7 28 -15 35 -8 7 -17 34 -21 61 -4 28 -14 55 -25 65 -11 10 -19 31 -19 48 0 17 -9 45 -20 61 -11 17 -20 39 -20 51 0 11 -9 29 -20 39 -12 11 -20 31 -20 50 0 18 -9 44 -20 58 -11 14 -20 36 -20 50 0 13 -9 36 -20 50 -11 14 -20 36 -20 50 0 13 -9 36 -20 50 -11 14 -20 36 -20 50 0 13 -9 36 -20 50 -11 14 -20 39 -20 56 0 19 -8 38 -20 48 -11 10 -20 30 -20 45 0 17 -7 31 -20 38 -15 8 -20 21 -20 54 0 30 -6 48 -20 61 -11 10 -20 30 -20 45 0 15 -9 35 -20 45 -13 11 -20 31 -20 52 0 20 -9 46 -20 60 -11 14 -20 36 -20 48 0 12 -7 28 -15 35 -8 7 -17 34 -21 61 -4 28 -14 55 -25 65 -11 10 -19 31 -19 48 0 17 -9 45 -20 61 -11 17 -20 39 -20 51 0 11 -9 29 -20 39 -12 11 -20 31 -20 50 0 18 -9 44 -20 58 -21 26 -25 48 -13 61 4 3 57 5 117 4 l111 -3 20 -42z m2423 -1137 c1 -649 -1 -1183 -6 -1188 -11 -11 -164 -22 -206 -14 -30 6 -36 11 -36 31 0 14 -4 25 -10 25 -7 0 -10 385 -10 1136 l0 1136 28 29 c27 29 27 29 132 27 l105 -3 3 -1179z m762 1165 c13 -26 14 -1619 0 -1655 -9 -25 -11 -26 -108 -26 -104 0 -122 7 -122 47 0 13 -4 23 -10 23 -7 0 -10 265 -10 775 0 510 3 775 10 775 6 0 10 6 10 14 0 8 4 26 10 40 9 26 11 26 109 26 89 0 101 -2 111 -19z m1976 1 c18 -15 22 -33 27 -126 l6 -109 -27 -21 c-26 -21 -35 -21 -622 -26 l-595 -5 -3 -362 c-1 -219 2 -371 8 -387 l9 -26 488 -2 488 -3 0 -125 0 -125 -50 -7 c-27 -4 -246 -7 -485 -7 -239 1 -441 0 -447 0 -16 -1 -19 -705 -3 -745 l10 -26 543 0 c409 0 546 -3 555 -12 8 -8 12 -50 12 -124 0 -97 -2 -113 -17 -120 -10 -5 -327 -10 -704 -12 -634 -3 -687 -1 -700 14 -20 24 -21 2317 -1 2352 l13 22 737 0 c686 -1 738 -2 758 -18z m577 6 c14 -7 29 -23 32 -35 3 -13 36 -53 74 -90 38 -38 76 -84 84 -103 8 -20 44 -65 80 -100 36 -36 71 -81 79 -100 8 -19 43 -63 78 -97 60 -60 65 -63 111 -63 45 0 52 4 94 46 24 25 47 56 51 68 7 23 6 22 94 115 32 35 62 73 66 85 7 24 14 32 77 97 43 43 89 103 125 161 l17 28 148 0 148 0 -16 -29 c-8 -16 -42 -58 -76 -93 -34 -35 -68 -79 -76 -98 -8 -18 -46 -65 -84 -103 -38 -38 -72 -81 -76 -96 -3 -14 -39 -59 -80 -99 -40 -41 -76 -86 -79 -100 -4 -15 -41 -61 -82 -102 -72 -71 -76 -78 -80 -125 l-4 -51 76 -75 c42 -41 85 -92 95 -114 10 -22 46 -67 80 -100 34 -33 70 -78 80 -100 10 -22 48 -69 84 -105 37 -35 69 -76 72 -91 4 -15 39 -59 80 -100 40 -40 75 -83 78 -96 l4 -23 -151 0 c-138 0 -152 2 -161 19 -42 79 -63 107 -123 168 -38 37 -72 80 -75 94 -4 15 -40 60 -80 101 -41 40 -77 86 -80 100 -4 15 -27 47 -52 72 -43 44 -47 46 -105 46 -37 0 -60 -4 -60 -11 0 -6 -27 -38 -60 -71 -33 -34 -60 -69 -60 -80 0 -10 -36 -55 -80 -100 -44 -44 -80 -89 -80 -100 0 -10 -36 -55 -80 -100 -44 -46 -80 -90 -80 -100 0 -32 -34 -39 -196 -36 l-156 3 49 50 c26 28 65 75 85 105 20 30 49 69 64 85 16 17 42 46 57 65 16 19 63 71 105 115 83 86 132 147 132 164 0 6 24 34 53 63 89 91 107 124 107 199 0 53 -3 66 -20 77 -11 7 -20 22 -20 33 0 13 -24 44 -60 79 -33 32 -60 63 -60 69 0 5 -9 15 -20 21 -11 6 -20 20 -20 31 0 19 -92 119 -108 119 -8 0 -62 66 -62 74 0 4 -8 15 -17 25 -67 72 -118 135 -135 168 -11 21 -39 56 -62 78 -83 79 -88 75 81 75 98 0 158 -4 176 -12z m3950 -2 c16 -12 17 -48 17 -502 0 -471 1 -490 20 -522 11 -18 20 -43 20 -56 0 -25 54 -106 70 -106 6 0 10 -6 10 -13 0 -23 59 -95 84 -101 13 -3 41 -24 64 -46 27 -28 48 -40 68 -40 16 0 40 -9 54 -20 19 -15 41 -20 95 -20 108 -1 115 -10 115 -149 l0 -111 -49 0 c-26 0 -69 -3 -94 -6 -40 -6 -49 -3 -70 18 -17 17 -40 27 -73 31 -27 3 -53 12 -59 21 -7 9 -18 16 -25 16 -7 0 -26 11 -44 25 -17 14 -36 29 -42 34 -40 32 -109 42 -132 19 -7 -7 -12 -33 -12 -59 0 -26 -4 -50 -9 -54 -15 -9 -226 -19 -255 -11 -19 5 -26 13 -26 31 0 14 -4 25 -10 25 -6 0 -10 115 -10 325 0 210 4 325 10 325 6 0 10 23 10 50 0 28 -4 50 -10 50 -6 0 -10 123 -10 350 0 227 4 350 10 350 6 0 10 24 10 54 0 30 4 66 10 80 9 26 10 26 127 26 82 -1 123 -5 136 -14z m-6620 -1893 c-6 -42 11 -103 28 -103 5 0 9 -10 9 -22 0 -14 20 -43 51 -73 27 -27 60 -61 72 -74 49 -54 58 -61 83 -61 14 0 37 -9 51 -20 14 -11 34 -20 44 -20 11 0 19 -4 19 -10 0 -5 -24 -10 -53 -10 -41 0 -55 -4 -65 -20 -7 -12 -23 -20 -38 -20 -34 0 -150 -120 -160 -165 -4 -16 -14 -35 -23 -42 -13 -9 -16 -30 -16 -97 0 -47 -3 -86 -6 -86 -11 0 -19 43 -19 110 0 54 -3 67 -20 78 -11 7 -20 23 -20 37 0 34 -131 165 -165 165 -14 0 -29 8 -35 19 -8 15 -26 21 -87 27 l-78 8 53 7 c29 4 61 14 71 23 10 9 27 16 39 16 11 0 27 8 34 19 7 10 23 21 35 25 31 10 96 76 137 140 32 50 36 64 36 120 0 73 8 105 21 85 4 -8 5 -33 2 -56z m12247 -23 c0 -14 -31 -21 -48 -11 -15 8 -14 11 8 19 26 10 40 7 40 -8z">
			</path>
			<path id="pKnTKIn05" d="M8430 2709 c-24 -13 -56 -19 -102 -19 -57 0 -69 -3 -78 -20 -7 -13 -21 -20 -40 -20 -19 0 -33 -7 -40 -20 -6 -11 -21 -20 -34 -20 -30 0 -166 -130 -166 -158 0 -11 -9 -27 -20 -37 -11 -10 -20 -28 -20 -40 0 -12 -10 -30 -21 -41 -19 -17 -21 -27 -16 -97 4 -61 2 -81 -10 -93 -12 -12 -14 -29 -9 -87 4 -40 9 -101 12 -137 5 -65 54 -190 75 -190 5 0 9 -8 9 -18 0 -31 187 -201 223 -202 4 0 21 -10 36 -21 22 -16 39 -20 73 -17 34 3 46 0 60 -16 14 -18 30 -21 117 -24 86 -3 107 -1 144 17 25 12 63 21 89 21 30 0 54 7 70 19 13 11 36 23 51 26 14 4 41 21 59 39 18 17 46 39 61 49 15 10 31 25 34 34 4 9 24 33 45 54 23 22 38 46 38 61 0 13 9 31 20 41 13 10 20 29 20 50 0 21 8 41 20 52 18 17 20 31 20 175 0 144 -2 158 -20 175 -14 13 -20 31 -20 64 0 35 -5 49 -20 59 -11 7 -20 23 -20 37 0 30 -192 225 -221 225 -11 0 -19 4 -19 10 0 5 -16 12 -36 16 -19 4 -38 13 -41 20 -4 10 -26 14 -84 14 -66 0 -82 3 -99 20 -26 26 -91 25 -140 -1z">
			</path>
			<path id="pqTpoeKlF" d="M11037 1963 c-4 -3 -7 -28 -7 -55 0 -35 6 -54 20 -68 11 -11 20 -31 20 -44 0 -14 4 -27 9 -31 13 -8 71 -94 71 -105 0 -13 101 -96 126 -104 12 -4 29 -15 39 -26 10 -11 27 -20 37 -20 10 0 32 -9 47 -21 23 -17 40 -20 90 -17 35 2 62 -1 64 -7 5 -14 169 -13 174 1 2 7 27 10 71 7 59 -5 69 -3 86 16 11 11 29 21 42 21 21 0 84 54 84 73 0 4 5 7 10 7 16 0 107 93 114 117 4 12 13 27 21 33 9 8 15 31 15 60 0 33 5 50 15 54 17 6 22 86 5 86 -5 0 -10 7 -10 15 0 13 -70 15 -568 15 -313 0 -572 -3 -575 -7z">
			</path>
			<path id="ppZ4hhXTC" d="M698 2032 c-15 -18 -4 -118 15 -140 9 -10 17 -30 17 -44 0 -14 9 -37 20 -51 11 -14 20 -37 20 -51 0 -14 9 -35 20 -46 11 -11 20 -33 20 -49 0 -15 8 -39 18 -52 11 -13 22 -41 25 -63 3 -21 13 -46 22 -56 8 -9 15 -26 15 -37 0 -11 9 -32 20 -46 11 -14 20 -38 20 -55 0 -16 9 -41 20 -55 11 -14 20 -36 20 -50 0 -13 9 -32 20 -42 11 -10 20 -31 20 -46 0 -32 19 -79 32 -79 4 0 8 -13 8 -28 0 -16 9 -37 20 -47 13 -12 20 -31 20 -56 0 -59 7 -69 50 -69 38 0 50 11 50 49 0 10 9 28 20 41 11 13 20 37 20 55 0 19 8 39 20 50 12 11 20 31 20 50 0 19 8 39 20 50 13 12 20 31 20 54 0 24 7 42 20 54 12 10 20 29 20 49 0 22 7 37 20 46 14 9 20 23 20 51 0 25 7 44 20 56 12 11 20 31 20 50 0 19 8 39 20 50 12 11 20 31 20 49 0 19 8 38 20 49 13 10 20 29 20 50 0 21 8 41 20 52 12 11 20 31 20 50 0 19 8 39 20 50 21 19 27 79 14 141 l-5 29 -436 0 c-336 0 -437 -3 -445 -13z">
			</path>
		</g>
	</g>
	<g id="l2JpUokIABfdpRDO6sSqyeE" fill="rgb(234,46,8)" style="transform: none;">
		<g style="transform: none;">
			<path id="p4RdRmDMC" d="M7560 3813 c-1 -5 -1 -437 0 -961 0 -939 0 -954 20 -979 11 -15 20 -41 20 -60 0 -20 9 -46 20 -60 11 -14 20 -37 20 -50 0 -13 9 -33 20 -45 11 -12 20 -30 20 -41 0 -28 294 -317 323 -317 15 0 29 -9 37 -25 10 -18 19 -23 35 -19 16 4 28 -2 44 -22 18 -23 26 -26 61 -21 27 3 43 1 51 -9 6 -8 18 -14 25 -14 8 0 14 -5 14 -11 0 -9 26 -10 93 -5 85 6 93 5 105 -14 16 -26 71 -27 102 0 18 16 33 18 86 15 67 -4 105 4 130 30 9 8 30 15 47 15 20 0 39 8 50 20 9 11 27 20 40 20 13 0 32 9 42 20 10 11 27 20 37 20 10 0 38 18 60 40 23 22 47 40 53 40 7 0 20 9 30 20 10 11 23 20 30 20 12 0 43 39 68 85 8 17 29 44 45 61 17 16 34 43 38 58 3 15 12 30 19 33 7 2 16 15 19 27 3 12 14 33 25 45 11 12 17 29 14 37 -8 23 6 62 24 66 15 3 16 26 16 230 0 216 -1 228 -22 254 -13 16 -21 41 -21 64 0 23 -5 40 -14 43 -7 3 -16 17 -20 31 -4 15 -15 35 -26 46 -11 11 -20 30 -20 42 0 40 -293 328 -334 328 -12 0 -29 9 -39 20 -9 11 -27 20 -40 20 -13 0 -32 9 -42 20 -14 15 -29 19 -68 18 -38 -2 -53 2 -66 17 -15 19 -28 20 -204 19 -162 -1 -190 -3 -206 -18 -11 -10 -39 -20 -63 -23 -24 -3 -46 -12 -51 -19 -4 -7 -23 -16 -42 -20 -18 -3 -41 -15 -51 -25 -9 -10 -26 -19 -37 -19 -11 0 -39 -17 -63 -37 -74 -66 -104 -85 -120 -79 -13 5 -15 71 -14 538 l2 533 -161 3 c-89 1 -161 -1 -161 -5z m979 -1132 c20 -20 106 -35 146 -25 20 5 30 2 40 -13 8 -12 26 -20 40 -20 14 0 32 -8 39 -18 7 -10 18 -15 23 -12 6 4 56 -38 112 -93 74 -73 101 -107 101 -125 0 -14 9 -30 20 -37 15 -10 20 -24 20 -59 0 -32 6 -51 19 -63 16 -14 19 -33 20 -142 1 -121 0 -128 -24 -156 -18 -21 -23 -37 -19 -53 4 -17 0 -29 -15 -42 -12 -9 -21 -28 -21 -41 0 -15 -15 -39 -38 -61 -21 -21 -41 -45 -45 -54 -3 -9 -19 -24 -34 -34 -15 -10 -43 -32 -61 -49 -18 -18 -45 -35 -59 -39 -15 -3 -38 -15 -51 -26 -18 -14 -34 -18 -57 -13 -24 4 -48 -1 -88 -20 -47 -23 -66 -26 -127 -23 -62 3 -76 7 -91 26 -17 20 -26 23 -64 18 -36 -4 -51 0 -72 16 -15 12 -32 22 -38 23 -43 6 -214 163 -215 197 0 9 -4 17 -9 17 -5 0 -23 28 -41 62 -22 44 -29 70 -25 90 4 15 -1 55 -9 88 -20 78 -20 97 0 118 14 13 15 29 10 92 -6 69 -4 79 14 95 11 10 20 28 20 40 0 12 9 30 20 40 11 10 20 26 20 37 0 28 136 158 166 158 13 0 28 9 34 20 7 13 21 20 40 20 19 0 33 7 40 20 10 18 20 20 74 19 47 -1 74 4 102 18 50 26 60 27 83 4z">
			</path>
			<path id="psilnn7VL" d="M11458 2966 c-12 -13 -34 -20 -69 -22 -29 -2 -59 -10 -68 -18 -9 -8 -29 -18 -45 -22 -33 -8 -106 -53 -106 -66 0 -4 -10 -8 -21 -8 -29 0 -289 -261 -289 -290 0 -11 -9 -28 -20 -37 -11 -10 -20 -28 -20 -40 0 -13 -9 -31 -20 -40 -14 -12 -20 -30 -20 -57 0 -27 -7 -47 -22 -63 -20 -22 -21 -31 -21 -238 0 -207 1 -216 22 -238 14 -16 21 -36 21 -64 0 -27 6 -46 20 -58 11 -10 20 -29 20 -42 0 -14 15 -39 35 -60 20 -20 38 -48 42 -62 3 -14 36 -54 72 -88 36 -35 78 -75 92 -89 15 -15 31 -24 37 -20 8 5 27 -9 82 -58 8 -7 30 -17 48 -21 17 -3 32 -10 32 -15 0 -16 58 -38 85 -32 19 3 30 0 37 -12 5 -9 18 -16 28 -16 11 0 20 -5 20 -11 0 -9 24 -10 85 -5 77 5 87 4 105 -14 25 -25 56 -26 69 -3 8 15 24 18 98 18 76 0 92 3 117 22 19 15 42 23 67 23 28 0 42 6 51 20 8 12 24 20 40 20 17 0 31 8 38 20 6 11 20 20 31 20 11 0 22 7 25 15 3 8 16 17 27 21 33 10 157 138 185 192 14 26 31 51 38 55 8 4 14 18 14 31 0 13 9 31 20 41 15 13 20 31 20 67 0 41 4 50 23 59 22 10 22 11 21 215 -1 113 -6 210 -11 215 -5 5 -325 9 -716 9 -465 1 -709 5 -713 11 -3 6 3 21 15 33 12 12 21 32 21 44 0 11 11 38 25 59 35 52 192 213 208 213 7 0 20 9 30 20 11 13 29 20 52 20 24 0 35 5 35 14 0 21 21 25 145 26 210 2 282 -4 306 -26 11 -10 29 -18 38 -16 10 1 26 -7 36 -18 10 -11 28 -20 41 -20 14 0 44 -22 82 -60 57 -57 82 -72 82 -50 0 17 101 110 120 110 25 0 50 10 50 21 0 5 9 18 19 28 12 12 17 28 14 39 -6 24 -145 162 -163 162 -18 0 -117 48 -125 60 -3 6 -15 10 -25 10 -10 0 -32 12 -50 26 -24 21 -37 25 -61 20 -23 -4 -35 -1 -53 17 -21 21 -28 22 -226 22 -188 0 -205 -1 -222 -19z m692 -1040 c0 -8 6 -17 13 -20 8 -3 6 -9 -8 -21 -14 -11 -19 -26 -18 -57 2 -28 -4 -49 -17 -66 -11 -14 -20 -29 -20 -34 0 -13 -97 -108 -110 -108 -5 0 -10 -3 -10 -7 0 -19 -63 -73 -84 -73 -13 0 -31 -9 -40 -19 -15 -17 -27 -19 -83 -14 -41 4 -68 2 -72 -5 -3 -5 -22 -13 -42 -17 -27 -5 -40 -2 -53 10 -14 15 -28 16 -86 11 -66 -7 -71 -6 -96 19 -15 15 -33 24 -41 21 -8 -4 -28 5 -45 19 -16 14 -34 25 -40 25 -14 0 -118 89 -118 100 0 11 -58 97 -71 105 -5 4 -9 19 -9 36 0 16 -5 29 -10 29 -15 0 -34 46 -27 64 5 14 71 15 547 16 462 0 540 -2 540 -14z">
			</path>
			<path id="pOIIF9mMj" d="M13108 2981 c-7 -2 -21 -10 -30 -18 -9 -8 -36 -17 -59 -19 -23 -2 -49 -10 -58 -18 -9 -7 -33 -19 -53 -26 -21 -6 -38 -16 -38 -21 0 -5 -6 -9 -14 -9 -8 0 -21 -9 -28 -19 -8 -11 -27 -23 -43 -27 -18 -4 -59 -36 -101 -78 -59 -60 -69 -75 -64 -96 4 -18 13 -25 34 -27 19 -1 45 -20 83 -60 31 -32 65 -59 77 -61 57 -8 71 -1 127 58 41 43 64 60 82 60 16 0 31 8 37 20 7 14 21 20 45 20 18 0 41 7 50 16 14 14 40 17 154 17 127 0 141 -2 169 -22 21 -14 39 -20 55 -16 19 5 33 -2 68 -37 55 -55 80 -86 60 -73 -17 10 -7 -10 20 -41 23 -25 21 -93 -2 -121 -9 -10 -19 -30 -23 -45 -3 -16 -17 -30 -33 -37 -16 -6 -41 -19 -58 -28 -77 -42 -101 -51 -128 -46 -20 4 -38 -1 -60 -18 -25 -19 -45 -24 -93 -24 -48 0 -67 -5 -84 -20 -15 -14 -36 -20 -70 -20 -32 0 -54 -6 -68 -18 -11 -10 -40 -21 -64 -24 -23 -4 -49 -12 -57 -20 -7 -8 -26 -16 -41 -19 -30 -6 -160 -134 -160 -157 0 -8 -9 -26 -20 -40 -14 -17 -20 -40 -20 -73 0 -38 -5 -54 -26 -75 l-27 -28 27 -54 c14 -30 26 -69 26 -86 0 -18 9 -44 20 -58 11 -14 20 -32 20 -40 0 -25 177 -193 203 -193 12 0 28 -9 35 -20 9 -15 23 -20 55 -20 34 0 49 -6 67 -25 23 -25 29 -26 104 -21 67 4 82 2 92 -12 15 -21 101 -24 113 -4 5 9 36 14 95 16 76 3 89 6 102 24 10 15 26 22 47 22 20 0 39 8 50 20 9 11 26 20 38 20 12 0 40 20 65 45 24 25 50 45 58 45 9 0 22 13 30 29 9 16 34 45 56 64 l41 35 -26 19 c-15 10 -35 26 -46 36 -10 9 -24 17 -30 17 -6 0 -22 9 -36 20 -14 11 -31 20 -38 20 -6 0 -20 9 -30 20 -27 30 -54 24 -99 -22 -35 -37 -87 -69 -146 -93 -8 -3 -24 -11 -36 -18 -14 -8 -72 -12 -178 -12 -151 1 -159 2 -176 23 -10 12 -26 22 -37 22 -31 1 -79 52 -102 109 -20 52 -20 55 -4 74 10 10 18 33 18 50 0 24 5 33 20 35 11 2 28 13 38 23 10 10 30 19 45 19 15 0 35 9 45 20 13 16 28 20 57 18 31 -1 45 3 61 21 17 18 28 22 51 17 35 -7 117 12 136 31 8 8 37 13 75 13 50 0 66 4 80 20 11 14 29 20 56 20 27 0 43 5 50 17 5 10 20 18 34 18 16 1 42 19 71 49 26 26 51 44 56 41 6 -3 10 0 10 7 0 8 8 21 18 29 9 9 24 27 32 40 8 13 31 39 50 59 30 30 35 42 38 90 1 30 5 74 8 98 3 23 2 48 -3 55 -4 6 -8 34 -8 61 1 38 -4 55 -22 74 -13 14 -26 36 -29 48 -3 13 -17 30 -30 39 -13 8 -24 22 -24 30 0 8 -4 15 -10 15 -5 0 -12 10 -15 23 -4 13 -22 30 -45 41 -21 10 -55 36 -76 57 -26 27 -47 39 -65 39 -17 0 -34 8 -43 21 -12 17 -22 20 -52 17 -36 -4 -94 15 -94 30 0 7 -410 10 -432 3z">
			</path>
			<path id="p1GWrRHy0k" d="M14658 2981 c-7 -2 -18 -10 -25 -18 -6 -8 -31 -17 -55 -20 -24 -3 -50 -11 -58 -19 -8 -7 -27 -15 -42 -19 -15 -4 -32 -13 -38 -20 -6 -8 -24 -17 -40 -20 -15 -3 -36 -15 -46 -26 -9 -10 -24 -19 -33 -19 -20 0 -161 -130 -161 -147 0 -7 4 -13 8 -13 5 0 34 -25 66 -55 32 -30 68 -57 79 -61 12 -3 31 -14 42 -24 22 -21 75 -37 75 -24 0 16 66 84 81 84 8 0 22 9 32 20 9 11 24 20 32 20 8 0 20 9 27 20 9 14 24 20 47 20 19 0 43 8 53 17 15 14 42 17 156 17 121 1 139 -1 151 -17 7 -10 19 -16 27 -13 8 3 14 1 14 -5 0 -5 11 -7 26 -3 19 5 29 1 40 -15 8 -11 22 -21 30 -21 8 0 14 -5 14 -11 0 -6 17 -28 39 -49 37 -37 39 -41 39 -107 0 -57 -4 -74 -26 -108 -36 -53 -60 -72 -102 -80 -19 -4 -49 -15 -67 -26 -21 -13 -40 -18 -56 -13 -18 4 -39 -2 -70 -20 -36 -22 -52 -25 -85 -20 -33 5 -47 2 -73 -17 -24 -17 -47 -23 -84 -24 -37 0 -58 -6 -79 -23 -16 -12 -38 -22 -50 -22 -21 0 -86 -30 -141 -65 -47 -30 -125 -117 -125 -139 0 -11 -10 -30 -22 -43 -21 -22 -22 -33 -22 -167 1 -132 2 -146 22 -171 12 -15 22 -38 22 -50 0 -15 25 -48 73 -95 98 -97 101 -100 120 -100 10 0 27 -11 39 -25 12 -14 28 -23 35 -21 7 3 13 0 13 -6 0 -6 11 -8 31 -4 24 5 35 1 49 -17 17 -20 26 -22 105 -20 74 2 89 -1 106 -18 23 -23 72 -25 94 -3 12 12 38 17 106 19 77 1 92 5 110 23 11 12 31 22 44 22 14 0 34 9 45 20 11 11 29 20 40 20 10 0 24 9 30 19 5 11 20 23 32 27 12 3 28 13 36 20 7 8 19 14 25 14 16 0 68 55 95 100 l21 35 -33 33 c-18 17 -42 32 -53 32 -11 0 -40 20 -64 44 -39 38 -50 43 -83 41 -33 -2 -47 -11 -91 -58 -30 -32 -65 -59 -81 -63 -16 -4 -37 -14 -47 -22 -14 -12 -50 -15 -184 -16 -162 -1 -168 0 -187 21 -11 13 -27 23 -36 23 -9 0 -36 21 -60 46 -41 44 -44 50 -47 108 -2 72 9 100 48 116 15 7 30 18 33 26 3 8 19 14 35 14 20 0 34 7 41 21 8 14 20 20 38 19 47 -3 58 -1 82 20 13 12 31 18 39 15 27 -11 120 7 143 26 12 11 33 19 47 18 57 -4 89 2 111 21 13 11 37 20 55 20 19 0 39 8 50 20 10 11 28 20 41 20 13 0 28 9 34 19 5 11 23 22 38 26 56 12 162 157 162 221 0 34 17 82 42 115 9 14 6 29 -16 78 -21 46 -27 74 -25 113 2 40 -1 54 -17 67 -22 19 -39 45 -55 81 -14 35 -117 130 -139 130 -11 0 -26 10 -34 21 -9 13 -21 19 -30 16 -9 -4 -28 5 -46 19 -23 20 -39 25 -71 23 -31 -3 -45 1 -58 16 -15 19 -29 20 -228 20 -117 0 -219 -2 -225 -4z">
			</path>
			<path id="p1CC0BY4IN" d="M47 2932 c-16 -20 -9 -92 13 -120 11 -14 20 -39 20 -57 0 -19 8 -39 20 -50 11 -10 20 -28 20 -39 0 -12 9 -34 20 -51 11 -16 20 -43 20 -59 0 -17 9 -39 20 -51 13 -13 21 -37 22 -63 1 -26 8 -48 20 -58 10 -10 18 -27 18 -39 0 -12 9 -34 20 -48 11 -14 20 -40 20 -60 0 -21 7 -41 20 -52 11 -10 20 -30 20 -45 0 -15 9 -35 20 -45 14 -13 20 -31 20 -61 0 -33 5 -46 20 -54 13 -7 20 -21 20 -38 0 -15 9 -35 20 -45 12 -10 20 -29 20 -48 0 -17 9 -42 20 -56 11 -14 20 -37 20 -50 0 -14 9 -36 20 -50 11 -14 20 -37 20 -50 0 -14 9 -36 20 -50 11 -14 20 -37 20 -50 0 -14 9 -36 20 -50 11 -14 20 -40 20 -58 0 -19 8 -39 20 -50 11 -10 20 -28 20 -39 0 -12 9 -34 20 -51 11 -16 20 -43 20 -59 0 -17 9 -39 20 -51 13 -13 21 -37 22 -63 1 -26 8 -48 20 -58 10 -10 18 -27 18 -39 0 -12 9 -34 20 -48 11 -14 20 -40 20 -60 0 -21 7 -41 20 -52 11 -10 20 -30 20 -44 0 -15 9 -34 20 -44 14 -12 20 -29 20 -62 0 -34 5 -47 20 -55 13 -7 20 -21 20 -38 0 -15 9 -35 20 -45 11 -9 20 -28 20 -41 0 -41 17 -45 183 -45 l156 0 31 39 c20 26 30 49 30 73 0 19 9 45 20 60 11 14 20 36 20 49 0 12 9 34 20 48 11 14 20 37 20 52 0 16 9 37 20 48 11 11 20 30 20 42 0 13 9 38 20 56 11 18 20 43 20 57 0 13 8 32 19 42 10 10 21 35 24 57 3 21 13 46 22 56 8 9 15 28 15 42 0 14 8 33 19 42 11 10 21 36 24 62 2 25 12 53 21 63 9 10 16 28 16 40 0 13 9 34 20 48 11 14 20 38 20 53 0 15 9 39 20 53 11 14 20 36 20 50 0 13 8 32 19 41 11 10 21 36 24 62 2 25 12 53 21 63 9 10 16 27 16 39 0 12 9 31 20 42 12 12 20 33 20 54 0 18 9 45 20 59 11 14 20 34 20 44 0 11 14 32 30 48 28 27 43 64 20 50 -5 -3 -10 -2 -10 3 0 13 32 47 51 54 10 4 16 19 17 37 0 17 8 45 16 63 9 17 16 41 16 53 0 12 8 30 19 39 11 10 21 36 24 63 3 28 11 50 21 55 9 5 16 22 16 37 0 15 8 36 19 45 11 10 21 36 24 62 2 25 12 53 21 63 9 10 16 29 16 43 0 14 9 33 20 43 11 10 20 31 20 47 0 16 5 39 11 50 8 15 8 26 0 42 -11 20 -19 21 -155 20 -166 -1 -196 -12 -196 -69 0 -19 -8 -39 -20 -50 -12 -11 -20 -31 -20 -50 0 -18 -9 -44 -21 -59 -12 -15 -22 -41 -23 -57 -1 -17 -10 -35 -19 -41 -11 -6 -17 -22 -17 -45 0 -24 -8 -45 -22 -60 -14 -15 -21 -34 -20 -53 2 -20 -4 -32 -18 -40 -13 -7 -20 -21 -20 -39 0 -17 -7 -31 -16 -35 -29 -11 -1118 -5 -1131 6 -7 6 -13 23 -13 39 0 16 -4 29 -8 29 -13 0 -32 47 -32 79 0 15 -9 36 -20 46 -11 10 -20 29 -20 43 0 14 -7 33 -15 42 -9 10 -19 35 -22 56 -3 22 -14 47 -24 57 -11 10 -19 32 -19 49 0 17 -8 40 -17 50 -10 11 -18 30 -18 42 -1 12 -10 31 -21 42 -17 17 -34 19 -152 19 -99 0 -137 -3 -145 -13z m1509 -960 c5 -36 3 -47 -15 -66 -12 -12 -21 -35 -21 -53 0 -17 -8 -37 -20 -48 -12 -11 -20 -31 -20 -52 0 -21 -7 -40 -20 -50 -12 -10 -20 -30 -20 -47 0 -17 -9 -40 -22 -53 -12 -13 -21 -35 -20 -52 0 -17 -7 -36 -19 -47 -12 -11 -19 -30 -19 -55 0 -27 -6 -42 -20 -52 -13 -9 -22 -28 -24 -52 -1 -22 -9 -41 -19 -47 -11 -6 -17 -22 -17 -45 0 -24 -8 -45 -22 -60 -14 -15 -21 -34 -20 -52 1 -17 -5 -35 -18 -46 -12 -11 -20 -31 -20 -50 0 -18 -9 -42 -20 -55 -11 -13 -20 -32 -20 -44 0 -12 -5 -28 -10 -36 -9 -13 -11 -13 -20 0 -5 8 -10 33 -10 56 0 28 -6 47 -20 59 -11 10 -20 31 -20 47 0 15 -4 28 -8 28 -13 0 -32 47 -32 79 0 15 -9 36 -20 46 -11 10 -20 29 -20 42 0 14 -9 36 -20 50 -11 14 -20 39 -20 55 0 17 -9 41 -20 55 -11 14 -20 35 -20 46 0 11 -7 28 -15 37 -9 10 -19 35 -22 56 -3 22 -15 50 -25 64 -11 13 -18 36 -16 50 1 16 -6 34 -20 48 -12 12 -22 34 -22 48 0 14 -9 37 -20 51 -11 14 -20 38 -20 53 0 15 -6 33 -14 39 -19 16 -30 69 -18 84 8 9 111 12 416 12 l406 0 6 -43z">
			</path>
			<path id="p7iNOP1JU" d="M2483 2915 l-33 -30 0 -1173 c0 -771 3 -1171 10 -1167 6 3 7 -1 4 -10 -4 -8 -1 -22 6 -30 16 -19 284 -19 300 0 12 15 15 2414 3 2426 -5 4 -64 9 -133 11 l-125 3 -32 -30z">
			</path>
			<path id="p11VQbMHww" d="M3267 2931 c-6 -7 -13 -25 -15 -40 -2 -14 -7 -27 -13 -29 -13 -5 -12 -1612 1 -1612 6 0 10 -10 10 -22 1 -48 16 -53 149 -51 75 1 128 6 135 13 18 18 21 1710 3 1734 -12 16 -30 18 -136 20 -93 1 -125 -2 -134 -13z">
			</path>
			<path id="p1GAh3lOcw" d="M3970 2942 c-6 -2 -17 -17 -25 -33 -13 -25 -15 -181 -14 -1197 0 -896 3 -1174 12 -1193 l13 -24 734 0 735 0 3 145 c2 89 -1 153 -8 165 -11 20 -20 20 -556 18 l-545 -2 -9 25 c-12 30 -14 684 -2 684 4 0 223 0 487 1 391 0 483 3 495 14 12 11 15 40 14 155 -1 78 -6 146 -11 151 -4 4 -226 9 -491 9 l-483 2 -10 25 c-5 15 -8 163 -7 357 l3 331 593 2 593 3 29 22 29 23 -3 136 c-4 128 -5 138 -28 160 l-24 24 -757 0 c-416 0 -762 -2 -767 -3z">
			</path>
			<path id="pkX2BbEPH" d="M5710 2942 c-5 -2 -10 -16 -10 -32 0 -22 15 -44 60 -89 33 -33 68 -77 79 -97 17 -31 68 -95 134 -165 9 -10 16 -20 15 -21 -4 -5 56 -78 64 -78 16 0 108 -100 108 -119 0 -11 9 -25 20 -31 11 -6 20 -16 20 -21 0 -6 27 -37 60 -69 36 -35 60 -66 60 -79 0 -11 9 -26 20 -33 29 -19 26 -73 -7 -122 -16 -22 -52 -64 -80 -94 -29 -29 -53 -59 -53 -67 0 -8 -9 -20 -20 -28 -11 -8 -18 -16 -15 -19 3 -3 -27 -38 -66 -79 -39 -41 -92 -99 -118 -129 -25 -30 -59 -68 -75 -85 -15 -16 -44 -55 -64 -85 -20 -30 -60 -79 -89 -108 -53 -52 -68 -92 -41 -108 18 -11 369 -4 390 7 10 5 18 18 18 27 0 10 36 54 80 100 44 45 80 90 80 100 0 11 36 56 80 100 44 45 80 90 80 100 0 11 27 46 60 80 33 33 60 64 60 69 0 5 13 10 30 11 24 2 39 -7 75 -43 25 -26 48 -58 52 -73 3 -14 39 -60 80 -100 40 -41 76 -86 80 -101 3 -14 37 -57 75 -94 38 -38 79 -87 91 -109 49 -90 23 -81 230 -81 102 1 193 5 202 10 16 9 15 12 -9 36 -14 14 -26 34 -26 44 0 10 -34 51 -75 91 -41 42 -76 86 -80 101 -3 15 -35 56 -72 91 -36 36 -74 83 -84 105 -10 22 -46 67 -80 100 -34 33 -70 78 -80 100 -10 22 -53 73 -94 114 -63 61 -75 78 -71 97 4 13 39 56 80 96 40 40 76 85 80 100 3 14 39 59 79 100 41 40 77 85 80 99 4 15 38 58 76 96 38 38 76 85 84 103 8 19 44 66 81 104 36 38 66 73 66 78 0 5 14 22 31 37 25 23 29 32 21 47 -9 18 -24 19 -198 17 -117 -1 -190 -5 -192 -12 -2 -5 -17 -26 -33 -47 -16 -20 -29 -40 -29 -44 0 -4 -27 -36 -60 -71 -88 -93 -87 -92 -94 -115 -4 -12 -34 -50 -66 -85 -88 -93 -87 -92 -94 -115 -10 -31 -93 -114 -115 -114 -25 0 -140 116 -159 160 -8 19 -43 64 -79 100 -36 35 -72 80 -80 100 -8 19 -46 65 -84 103 -38 37 -71 78 -75 92 -3 14 -13 25 -20 25 -8 0 -17 6 -19 13 -4 9 -50 12 -185 12 -99 0 -184 -1 -190 -3z">
			</path>
			<path id="p1Bf359lN8" d="M9726 2930 c-6 -8 -13 -28 -15 -45 -2 -16 -7 -31 -12 -33 -14 -5 -11 -49 4 -56 10 -5 10 -7 0 -12 -17 -7 -19 -764 -3 -764 6 0 10 -9 10 -20 0 -11 -4 -20 -10 -20 -6 0 -10 -125 -10 -355 0 -230 4 -355 10 -355 6 0 10 -4 10 -10 0 -5 -8 -10 -17 -10 -16 0 -16 -1 0 -18 15 -15 40 -17 175 -19 193 -2 205 2 196 67 -9 70 22 86 80 39 6 -5 25 -20 42 -34 18 -14 39 -25 47 -25 8 0 17 -7 21 -15 3 -8 12 -15 21 -15 8 0 15 -5 15 -11 0 -8 12 -10 35 -6 29 5 40 1 60 -19 23 -23 28 -24 144 -21 67 2 123 5 125 8 3 2 6 65 7 139 3 134 2 136 -23 162 -24 23 -33 25 -95 23 -57 -2 -73 1 -99 21 -20 14 -39 21 -53 17 -16 -4 -32 5 -62 36 -23 23 -52 44 -65 47 -25 6 -84 78 -84 101 0 7 -4 13 -10 13 -16 0 -70 81 -70 106 0 13 -9 38 -20 56 -20 32 -20 48 -19 520 1 459 0 487 -18 505 -16 16 -36 18 -161 18 -115 0 -146 -3 -156 -15z">
			</path>
			<path id="p19vwwdDff" d="M15600 1175 c-7 -8 -11 -38 -10 -72 3 -77 2 -83 -13 -83 -18 0 -47 -32 -47 -52 0 -31 89 -50 131 -28 23 13 26 62 4 80 -10 8 -15 31 -15 69 0 93 -18 124 -50 86z">
			</path>
			<path id="pgCX29j2d" d="M15721 1176 c-16 -19 -4 -203 15 -230 12 -18 14 -17 38 9 14 15 28 36 31 46 4 11 10 19 14 19 4 0 13 18 20 40 6 22 16 40 20 40 11 0 21 -25 21 -51 0 -11 12 -41 28 -67 24 -43 30 -47 60 -44 l32 3 0 125 c0 119 -1 124 -21 124 -12 0 -34 -13 -49 -30 -15 -16 -30 -30 -33 -30 -2 0 -10 14 -17 30 -10 24 -17 29 -34 24 -30 -9 -46 -33 -46 -68 0 -35 -15 -64 -27 -52 -4 4 -10 33 -13 63 -5 58 -18 74 -39 49z">
			</path>
			<path id="p1BizbwZ6b" d="M3344 1075 c-10 -24 -13 -51 -8 -84 6 -43 3 -53 -31 -105 -42 -66 -106 -132 -138 -142 -12 -4 -28 -15 -35 -25 -7 -11 -23 -19 -34 -19 -12 0 -30 -8 -41 -17 -14 -13 -34 -17 -75 -16 -66 2 -99 -11 -81 -33 6 -8 18 -14 25 -14 8 0 14 -7 14 -15 0 -16 42 -30 65 -22 8 4 17 2 21 -4 3 -6 19 -7 34 -4 23 5 31 2 40 -14 6 -12 21 -21 35 -21 33 0 165 -131 165 -164 0 -14 9 -31 21 -40 19 -13 21 -21 16 -63 -8 -65 10 -122 40 -129 47 -12 53 -1 51 91 -3 70 0 89 13 98 9 7 19 26 23 42 10 45 126 165 159 165 15 0 32 9 40 20 11 16 24 20 62 18 35 -1 50 3 57 15 5 10 21 17 36 17 35 0 51 16 44 42 -4 18 -11 19 -65 15 -54 -4 -63 -2 -85 20 -18 18 -31 23 -48 19 -24 -6 -29 -3 -81 55 -12 13 -45 47 -72 74 -31 30 -51 59 -51 73 0 12 -4 22 -8 22 -16 0 -29 44 -25 77 3 18 2 49 -1 68 -6 31 -11 35 -37 35 -25 0 -33 -6 -45 -35z">
			</path>
		</g>
	</g>
</svg>
