<svg class="img-fluid" id="outputsvg" xmlns="http://www.w3.org/2000/svg" rs_id="2809" width="1600" height="406" viewBox="0 0 16000 4060">
	<g id="l1wbc1yIT5yx8NQej3DEQjf" fill="rgb(255,255,255)" style="transform: none;" rs_id="2810">
		<g rs_id="2811" style="transform: none;">
			<path id="p8SaR52GV" d="M0 2030 l0 -2030 8000 0 8000 0 0 2030 0 2030 -8000 0 -8000 0 0 -2030z m7370 1670 c135 -10 385 -42 470 -59 25 -5 74 -15 110 -21 183 -34 490 -121 688 -194 305 -114 527 -224 767 -382 165 -108 193 -146 126 -173 -24 -10 -45 -5 -176 47 -430 170 -896 292 -1360 356 -351 49 -527 59 -925 53 -383 -5 -452 -10 -800 -58 -727 -101 -1447 -339 -2054 -678 -62 -35 -114 -57 -118 -53 -19 19 264 249 512 418 191 131 527 312 755 408 88 37 425 157 475 169 14 3 77 20 140 37 124 34 133 35 350 73 358 62 712 81 1040 57z m2403 -319 c79 -84 130 -159 187 -271 80 -160 132 -333 146 -489 8 -102 -3 -133 -59 -159 -83 -38 -145 -47 -337 -47 -192 0 -257 9 -404 57 -97 31 -256 116 -256 137 0 4 28 4 63 0 297 -34 572 -35 674 -4 80 24 93 47 93 166 0 142 -45 316 -154 592 -19 48 -31 87 -26 87 4 0 37 -31 73 -69z m1747 -1102 c57 -13 165 -56 211 -85 150 -94 280 -260 349 -446 55 -151 65 -213 65 -418 0 -155 -4 -212 -19 -275 -86 -373 -288 -615 -572 -689 -90 -23 -280 -22 -366 3 -71 20 -175 69 -218 103 -160 124 -260 284 -323 518 -30 112 -31 121 -31 325 -1 187 2 219 22 295 50 184 102 300 186 409 168 218 434 317 696 260z m-8425 -5 c67 -7 167 -42 234 -81 24 -14 79 -57 122 -95 105 -92 114 -91 200 21 35 46 83 99 105 118 l42 34 145 -126 c80 -69 148 -129 151 -133 2 -4 -20 -43 -49 -86 -92 -133 -88 -103 -95 -666 -5 -400 -9 -505 -22 -545 -41 -135 -122 -233 -244 -297 -120 -62 -155 -68 -408 -68 -209 0 -231 2 -300 24 -216 68 -371 221 -430 424 -15 51 -14 53 7 66 12 7 94 21 181 31 155 16 160 16 173 -2 8 -10 17 -29 20 -43 9 -37 42 -102 67 -128 11 -13 44 -36 71 -50 42 -21 67 -27 150 -30 119 -5 172 7 222 51 59 52 75 101 81 253 6 156 12 148 -123 158 -127 10 -327 42 -415 67 -323 89 -503 302 -503 594 0 283 162 474 438 515 49 8 61 7 180 -6z m4715 -11 c109 -26 238 -102 325 -192 32 -33 46 -41 75 -41 32 1 39 6 72 58 21 31 66 86 101 120 l64 64 69 -58 c122 -102 229 -197 232 -206 2 -4 -17 -36 -42 -72 -96 -133 -90 -96 -97 -646 -4 -277 -11 -505 -17 -531 -46 -198 -159 -317 -371 -390 -47 -16 -85 -19 -285 -19 -198 0 -240 3 -291 19 -199 62 -330 169 -410 335 -19 39 -37 90 -41 113 -8 51 3 58 101 67 39 4 109 12 157 18 105 13 109 11 138 -78 24 -73 65 -120 133 -156 37 -20 56 -23 167 -23 114 0 129 2 167 24 87 50 113 124 113 318 0 118 11 107 -125 118 -371 28 -601 105 -744 246 -114 112 -171 249 -172 409 0 105 12 162 55 254 102 217 347 315 626 249z m-2984 -17 c18 -14 19 -36 25 -643 6 -659 6 -672 52 -758 22 -42 76 -90 116 -104 44 -14 168 -14 212 0 40 14 85 53 105 92 34 64 38 137 38 763 1 597 2 623 20 643 18 20 29 21 190 21 136 0 176 -3 193 -15 l21 -15 5 -628 c4 -727 2 -708 92 -798 41 -42 61 -54 104 -63 65 -14 106 -14 171 0 62 13 107 49 134 109 20 44 21 58 21 708 l0 664 24 19 c21 17 41 19 190 19 135 0 171 -3 189 -16 l22 -15 0 -732 c0 -790 -1 -801 -54 -905 -52 -102 -148 -182 -264 -221 -73 -25 -212 -28 -283 -7 -125 38 -234 127 -289 236 -29 58 -32 60 -69 60 -32 0 -40 -4 -45 -23 -10 -40 -105 -166 -156 -206 -83 -65 -145 -83 -276 -79 -102 3 -115 5 -178 37 -82 42 -169 132 -211 219 -28 57 -33 62 -62 62 l-33 0 0 -125 c0 -172 8 -165 -202 -165 -136 0 -164 3 -180 17 -17 15 -18 57 -18 921 0 828 1 907 17 924 14 16 34 18 188 18 132 0 176 -3 191 -14z m8061 -8 l23 -21 0 -561 c0 -309 5 -590 10 -625 19 -135 79 -240 161 -281 29 -15 58 -20 124 -20 131 0 179 31 221 145 18 47 19 94 22 696 3 630 3 647 23 668 19 20 29 21 194 21 163 0 176 -1 196 -21 20 -20 20 -25 16 -717 -3 -661 -4 -702 -24 -787 -26 -113 -61 -183 -125 -251 -97 -103 -187 -137 -346 -132 -91 3 -116 7 -165 30 -32 15 -73 40 -92 56 -48 39 -110 125 -146 200 -28 58 -32 62 -65 62 l-34 0 0 -142 c0 -118 -3 -145 -17 -160 -14 -16 -34 -18 -180 -18 -150 0 -165 2 -183 20 -20 20 -20 30 -18 926 3 883 3 906 22 920 15 11 59 14 190 14 160 0 171 -1 193 -22z m-3742 -71 c203 -85 296 -102 565 -102 213 1 231 2 335 29 108 28 166 48 252 87 69 31 73 23 73 -143 0 -179 -4 -187 -113 -238 -158 -74 -324 -110 -508 -110 l-99 0 0 -36 c0 -28 12 -52 49 -103 26 -36 111 -156 188 -266 76 -110 157 -225 178 -255 182 -257 248 -354 260 -384 16 -37 21 -221 7 -242 -21 -32 -51 -34 -612 -34 -561 0 -591 2 -612 34 -4 6 -8 67 -8 135 0 102 3 128 17 143 15 17 39 18 335 18 l318 0 0 38 c0 29 -10 52 -43 98 -57 78 -568 809 -629 901 -58 86 -68 130 -68 300 0 114 9 163 28 163 4 0 43 -15 87 -33z" rs_id="2812">
			</path>
			<path id="p15JdI308X" d="M11249 1960 c-135 -71 -188 -298 -176 -765 7 -296 35 -406 126 -488 48 -44 93 -57 191 -57 229 0 300 160 300 677 0 394 -49 564 -180 631 -60 30 -206 31 -261 2z" rs_id="2813">
			</path>
			<path id="p6NlX0FBE" d="M3073 1979 c-55 -16 -109 -76 -128 -143 -25 -84 -17 -241 14 -313 58 -130 206 -197 456 -205 l100 -3 -1 170 c-2 228 -27 314 -117 412 -61 67 -106 86 -207 89 -47 2 -100 -1 -117 -7z" rs_id="2814">
			</path>
			<path id="p15Gym9jqZ" d="M7704 1966 c-80 -41 -110 -95 -121 -221 -8 -98 11 -203 48 -259 73 -109 185 -152 447 -172 l92 -7 0 134 c-1 187 -13 270 -54 354 -64 133 -141 186 -276 193 -76 3 -90 1 -136 -22z" rs_id="2815">
			</path>
		</g>
	</g>
	<g id="l3Wc9NiFaItW8yrADw3BYGS" fill="rgb(37,37,37)" style="transform: none;" rs_id="2816">
		<g rs_id="2817" style="transform: none;">
			<path id="pxMcFj6iX" d="M11229 2314 c-228 -41 -399 -172 -518 -396 -43 -80 -68 -148 -103 -278 -21 -78 -23 -106 -23 -325 0 -238 1 -241 32 -355 64 -234 163 -394 323 -518 43 -34 147 -83 218 -103 88 -25 333 -27 426 -3 335 87 561 418 594 869 25 334 -44 608 -206 824 -175 233 -450 338 -743 285z m251 -386 c128 -65 180 -239 180 -601 0 -384 -51 -566 -174 -623 -89 -41 -189 -28 -257 33 -87 79 -118 193 -126 463 -12 430 43 660 176 730 52 28 144 27 201 -2z" rs_id="2818">
			</path>
			<path id="p11aIGr5ti" d="M2885 2310 c-177 -26 -312 -117 -385 -260 -52 -101 -72 -324 -41 -450 44 -183 173 -332 356 -412 119 -53 333 -97 550 -114 133 -10 129 -6 122 -130 -7 -121 -26 -173 -80 -221 -47 -41 -104 -56 -192 -51 -119 8 -198 61 -239 158 -48 118 -42 110 -88 110 -85 0 -344 -33 -365 -46 -28 -17 -29 -49 -7 -125 59 -204 213 -356 430 -425 71 -23 89 -24 330 -24 286 0 316 5 438 68 132 69 213 175 250 328 15 60 17 136 19 540 3 538 -3 502 100 653 61 90 62 93 47 121 -13 23 -297 270 -313 271 -55 5 -113 -40 -199 -155 l-62 -84 -77 68 c-130 114 -232 161 -392 179 -105 12 -127 12 -202 1z m401 -378 c47 -24 115 -95 142 -149 40 -78 53 -150 55 -297 l2 -141 -70 3 c-293 15 -439 120 -453 328 -9 134 48 245 141 273 47 15 137 6 183 -17z" rs_id="2819">
			</path>
			<path id="pdMp6y1ru" d="M7515 2306 c-180 -36 -293 -118 -361 -262 -45 -97 -56 -150 -56 -279 -1 -190 52 -324 173 -444 143 -141 373 -218 744 -246 133 -10 125 -4 125 -88 0 -162 -31 -241 -113 -288 -36 -21 -55 -24 -137 -24 -79 0 -102 4 -137 23 -68 36 -107 82 -134 158 -29 84 -44 93 -131 83 -35 -5 -112 -13 -173 -19 -133 -13 -142 -16 -156 -41 -15 -29 5 -118 47 -205 78 -165 209 -273 409 -335 52 -16 94 -19 321 -19 229 0 268 2 315 19 212 73 325 192 371 390 6 26 13 254 17 531 l6 485 26 55 c15 30 48 84 73 119 44 62 54 93 38 117 -7 11 -120 110 -235 207 -94 79 -112 78 -198 -10 -53 -55 -98 -111 -136 -172 -2 -2 -29 20 -60 50 -102 97 -203 156 -313 182 -96 23 -242 29 -325 13z m421 -374 c60 -31 112 -89 150 -167 39 -81 53 -166 54 -323 l0 -102 -57 6 c-254 25 -352 65 -422 170 -64 97 -63 278 3 367 11 15 43 39 70 53 42 21 61 25 107 21 30 -3 73 -14 95 -25z" rs_id="2820">
			</path>
			<path id="pKmAfLSC7" d="M4417 2272 c-15 -17 -17 -100 -17 -952 0 -859 1 -934 16 -951 16 -17 35 -19 211 -19 247 0 233 -10 233 167 l1 128 32 -64 c45 -91 131 -180 213 -222 66 -33 71 -34 208 -37 125 -3 148 -1 199 18 31 12 79 39 107 61 51 40 146 166 156 206 9 36 21 28 54 -37 55 -109 164 -198 289 -236 74 -22 268 -19 343 7 116 39 212 119 264 221 53 105 54 112 54 935 l0 762 -22 15 c-19 13 -57 16 -219 16 -179 0 -199 -2 -220 -19 l-24 -19 0 -659 c0 -610 -2 -661 -18 -705 -37 -95 -134 -141 -247 -117 -44 9 -63 21 -105 63 -90 90 -88 71 -92 798 l-5 628 -21 15 c-17 12 -60 15 -223 15 -192 0 -202 -1 -220 -21 -18 -20 -19 -46 -20 -623 0 -330 -4 -630 -8 -666 -17 -146 -88 -220 -211 -220 -111 0 -183 63 -223 195 -13 42 -17 154 -21 678 -6 607 -7 629 -25 643 -16 11 -63 14 -221 14 -182 0 -203 -2 -218 -18z" rs_id="2821">
			</path>
			<path id="poBcFzCbX" d="M12474 2276 c-19 -14 -19 -37 -22 -950 -2 -926 -2 -936 18 -956 19 -19 33 -20 213 -20 174 0 196 2 210 18 13 14 17 46 19 162 l3 145 32 -65 c64 -131 137 -210 240 -258 53 -25 71 -27 196 -30 192 -5 273 23 375 132 64 68 99 138 125 251 20 86 21 126 24 817 4 722 4 727 -16 747 -20 20 -33 21 -226 21 -196 0 -205 -1 -224 -21 -20 -21 -20 -38 -23 -668 -3 -602 -4 -649 -22 -696 -38 -104 -93 -145 -191 -145 -133 0 -228 112 -255 301 -5 35 -10 316 -10 625 l0 561 -23 21 c-22 21 -32 22 -223 22 -157 0 -204 -3 -220 -14z" rs_id="2822">
			</path>
			<path id="pujlqJYsH" d="M9025 2225 c-24 -24 -25 -28 -25 -183 0 -207 8 -246 68 -335 65 -97 575 -829 624 -894 66 -91 91 -83 -269 -83 -297 0 -321 -1 -336 -18 -14 -16 -17 -43 -17 -173 0 -85 4 -159 8 -165 21 -32 51 -34 642 -34 591 0 621 2 642 34 15 21 9 264 -7 302 -12 30 -78 127 -260 384 -21 30 -102 145 -178 255 -77 110 -162 230 -188 266 -27 37 -49 69 -49 73 0 3 45 6 99 6 184 0 350 36 508 110 112 52 113 55 113 269 l0 170 -26 20 c-15 11 -29 19 -33 18 -126 -63 -197 -90 -326 -123 -101 -25 -126 -28 -300 -28 -126 -1 -214 4 -260 13 -95 19 -231 64 -323 106 -41 19 -77 35 -79 35 -2 0 -15 -11 -28 -25z" rs_id="2823">
			</path>
		</g>
	</g>
	<g id="l1VGjbHvSumdCJObKxpLmil" fill="rgb(246,154,50)" style="transform: none;" rs_id="2824">
		<g rs_id="2825" style="transform: none;">
			<path id="pXj9NkQpL" d="M6735 3729 c-145 -11 -271 -27 -435 -56 -217 -38 -226 -39 -350 -73 -63 -17 -126 -34 -140 -37 -50 -12 -387 -132 -475 -169 -396 -167 -807 -419 -1147 -703 -143 -120 -164 -154 -113 -187 30 -20 38 -17 171 57 209 117 497 250 744 344 508 193 1012 309 1635 375 198 22 754 25 970 6 630 -56 1188 -184 1728 -397 161 -64 188 -69 234 -50 57 23 63 81 14 135 -49 54 -314 218 -492 306 -322 159 -765 308 -1099 370 -36 6 -85 16 -110 21 -85 17 -335 49 -470 59 -154 11 -516 11 -665 -1z" rs_id="2826">
			</path>
			<path id="pu7MFzLNF" d="M9662 3488 c-18 -18 -16 -31 33 -152 140 -355 188 -591 134 -659 -55 -71 -291 -83 -702 -36 -104 12 -127 6 -127 -31 0 -52 180 -145 379 -197 100 -27 118 -28 326 -28 229 0 286 7 372 47 58 27 67 55 60 186 -17 284 -145 591 -329 788 -55 59 -102 94 -126 94 -4 0 -13 -5 -20 -12z" rs_id="2827">
			</path>
		</g>
	</g>
</svg>
