<svg class="img-fluid" id="outputsvg" xmlns="http://www.w3.org/2000/svg" rs_id="2869" width="1602" height="406" viewBox="0 0 16020 4060">
	<g id="l5nmY0VFbVjPPR4EOAHaajK" fill="rgb(254,253,252)" style="transform: none;">
		<g style="transform: none;">
			<path id="pg4738LAB" d="M0 2030 l0 -2030 2880 0 2880 0 0 945 0 945 -34 0 c-38 0 -37 4 -52 -177 l-6 -73 -34 0 c-39 0 -54 -24 -54 -85 0 -46 -29 -105 -52 -105 -11 0 -20 -10 -23 -25 -3 -14 -7 -36 -10 -50 -4 -20 -11 -25 -35 -25 -17 0 -30 -4 -30 -10 0 -5 -6 -10 -13 -10 -25 0 -47 -36 -47 -76 0 -46 -14 -64 -48 -64 -33 0 -92 -50 -92 -77 0 -17 -6 -23 -22 -23 -39 0 -68 -12 -68 -26 0 -8 -10 -14 -23 -14 -13 0 -27 -4 -32 -8 -6 -5 -36 -14 -69 -21 -43 -10 -60 -18 -63 -32 -5 -16 -15 -19 -70 -19 -55 0 -66 -3 -70 -19 -4 -17 -20 -20 -181 -27 -182 -9 -207 -9 -424 2 -94 4 -128 9 -128 19 0 17 -32 25 -102 25 -44 0 -58 4 -58 14 0 10 -17 17 -57 21 -32 4 -72 13 -89 20 -16 8 -49 17 -72 21 -32 5 -42 11 -42 25 0 11 -7 19 -15 19 -10 0 -15 10 -15 29 0 27 -3 29 -62 40 -35 7 -80 21 -101 32 -22 10 -45 19 -52 19 -9 0 -12 11 -8 39 4 32 1 46 -18 70 -13 16 -32 30 -41 30 -10 1 -18 6 -18 11 0 6 -9 10 -20 10 -15 0 -20 7 -20 29 0 16 -11 49 -25 72 -14 25 -25 60 -25 82 0 25 -5 37 -14 37 -8 0 -17 11 -20 25 -4 14 -13 25 -20 25 -10 0 -16 18 -19 63 -3 34 -10 103 -17 152 -16 114 -16 476 -1 575 7 41 15 96 18 122 4 34 10 48 24 51 15 4 19 14 19 45 0 31 4 41 20 45 15 4 20 14 20 40 0 20 5 39 10 42 5 3 10 16 10 29 0 24 28 56 48 56 7 0 12 14 12 30 0 17 5 30 12 30 18 0 68 52 68 71 0 11 11 19 34 23 21 4 36 13 39 25 3 13 18 20 50 24 26 4 55 11 64 16 10 5 26 12 36 15 12 4 17 16 17 40 0 30 4 35 30 41 17 4 30 13 30 21 0 8 9 14 20 14 10 0 29 4 42 9 13 6 40 12 60 16 22 3 38 12 38 19 0 9 37 16 138 25 190 17 212 20 212 37 0 12 37 14 220 14 189 0 220 -2 220 -15 0 -9 10 -15 23 -16 22 -1 143 -13 244 -25 38 -4 52 -11 56 -24 3 -13 18 -20 51 -24 25 -3 66 -9 91 -12 35 -5 45 -10 45 -25 0 -15 7 -19 35 -19 33 0 35 -2 35 -34 0 -38 33 -67 85 -76 18 -3 34 -14 40 -27 5 -13 13 -23 17 -23 5 0 8 -9 8 -20 0 -13 7 -20 19 -20 10 0 21 -7 25 -15 3 -8 17 -15 30 -15 28 0 46 -25 46 -64 0 -19 5 -26 19 -26 21 0 43 -59 56 -152 l7 -48 -231 0 -231 0 0 40 c0 33 -3 40 -20 40 -11 0 -20 7 -20 15 0 8 -9 15 -20 15 -15 0 -20 7 -20 28 0 16 -9 37 -20 47 -11 10 -20 26 -20 37 0 11 -7 18 -20 18 -11 0 -38 6 -60 12 -33 11 -40 17 -40 39 0 24 -5 28 -67 42 -137 32 -231 41 -418 41 -144 0 -205 -5 -253 -17 -35 -9 -72 -17 -83 -17 -38 0 -79 -29 -79 -55 0 -21 -5 -25 -32 -25 -58 0 -108 -19 -108 -40 0 -13 -7 -20 -20 -20 -11 0 -20 -4 -20 -10 0 -5 -9 -10 -20 -10 -16 0 -20 -7 -20 -30 0 -21 -5 -30 -16 -30 -21 0 -53 -39 -54 -65 -1 -36 -12 -65 -25 -65 -7 0 -15 -18 -19 -40 -4 -26 -12 -40 -21 -40 -8 0 -17 -10 -19 -22 -8 -34 -26 -224 -26 -263 l0 -35 1080 0 1080 0 6 27 c4 15 4 247 1 515 l-6 488 219 0 c144 0 221 -4 225 -11 4 -5 10 -79 13 -162 l7 -152 38 -3 c43 -4 77 18 77 50 0 11 7 18 18 18 9 0 22 10 27 23 6 12 21 24 35 25 14 2 30 8 35 12 6 5 27 11 48 15 35 7 37 9 37 45 0 29 4 39 20 43 11 3 20 12 20 21 0 10 9 16 23 16 41 0 127 30 127 44 0 9 17 16 47 20 42 5 206 23 226 25 4 1 7 8 7 16 0 13 29 15 200 15 159 0 200 -3 200 -13 0 -9 28 -17 93 -25 50 -7 111 -15 135 -18 26 -4 42 -11 42 -20 0 -8 8 -14 18 -14 9 0 30 -7 46 -15 15 -8 41 -15 57 -15 19 0 29 -5 29 -15 0 -8 9 -15 21 -15 39 0 59 -19 59 -55 0 -25 5 -35 15 -35 8 0 23 -4 33 -9 9 -5 29 -14 45 -22 15 -7 27 -20 27 -31 0 -10 4 -18 9 -18 5 0 11 -10 13 -22 2 -19 10 -24 42 -26 45 -4 85 -43 86 -83 0 -15 7 -32 15 -39 8 -7 15 -19 15 -26 0 -8 9 -14 20 -14 11 0 23 -7 26 -15 4 -9 19 -15 35 -15 27 0 29 -3 29 -39 0 -22 5 -43 10 -46 6 -3 10 -21 10 -40 0 -19 5 -37 10 -40 6 -3 10 -24 10 -46 0 -38 1 -39 34 -39 l33 0 6 68 c4 37 7 95 7 129 0 60 1 62 27 65 26 3 28 8 39 68 14 81 32 120 56 120 11 0 18 7 18 20 0 16 7 20 30 20 23 0 30 5 30 19 0 11 14 31 30 44 23 20 30 34 30 60 0 32 3 35 35 41 19 4 35 12 35 19 0 8 33 20 80 31 51 11 80 23 80 31 0 14 21 20 105 30 70 9 85 14 85 29 0 16 201 25 424 18 115 -4 146 -7 146 -18 0 -8 6 -14 13 -15 6 0 48 -5 92 -10 44 -6 99 -13 123 -16 23 -3 42 -10 42 -17 0 -16 69 -46 103 -46 16 0 27 -6 27 -14 0 -8 11 -17 25 -20 21 -5 25 -12 25 -41 0 -40 12 -47 95 -62 47 -7 51 -11 73 -55 13 -27 29 -48 37 -48 7 0 18 -7 25 -15 7 -9 29 -15 55 -15 l42 0 6 113 c4 61 7 136 7 165 l0 52 216 0 217 0 -7 -92 c-3 -50 -6 -421 -6 -824 l0 -733 -27 -3 c-28 -3 -28 -4 -31 -85 l-3 -82 45 -6 c64 -10 76 -3 76 43 0 46 19 89 42 95 11 3 18 20 23 53 14 106 13 104 55 104 37 0 38 1 44 44 4 24 13 52 21 62 8 11 15 29 15 41 0 12 5 25 10 28 6 3 10 21 10 40 0 19 5 37 10 40 6 3 10 17 10 31 0 21 4 24 40 24 36 0 40 2 51 38 6 20 15 57 19 82 15 81 33 120 55 120 16 0 24 12 38 58 9 32 17 63 17 70 0 7 7 12 15 12 9 0 18 8 21 18 20 61 27 71 52 74 23 3 27 8 30 39 2 27 9 38 23 42 14 4 19 14 19 39 0 18 7 42 15 52 8 11 15 30 15 42 0 32 10 54 25 54 7 0 15 14 19 30 5 25 10 30 36 30 28 0 30 3 30 35 0 19 9 49 20 67 11 18 20 48 20 66 0 24 4 32 18 32 22 0 42 43 42 92 0 26 4 38 14 38 8 0 17 13 21 30 4 16 13 30 21 30 9 0 14 11 14 35 0 23 -5 35 -14 35 -8 0 -17 15 -20 35 -4 21 -13 35 -21 35 -8 0 -15 7 -15 15 0 26 -30 75 -45 75 -10 0 -15 10 -15 30 0 16 -9 45 -19 64 -11 19 -21 54 -23 78 -3 39 -6 43 -30 46 -25 3 -28 8 -28 38 0 27 -4 34 -20 34 -13 0 -20 7 -20 20 0 12 -6 33 -14 48 -8 15 -18 45 -21 66 -5 25 -14 40 -26 43 -11 3 -19 12 -19 19 0 9 -11 14 -30 14 -26 0 -30 3 -30 29 0 16 -3 36 -6 45 -6 15 -520 16 -5735 16 l-5729 0 0 -2030z">
			</path>
			<path id="p16LQusWQh" d="M11980 4035 c0 -15 6 -25 15 -25 8 0 18 -17 25 -42 6 -24 17 -58 25 -76 8 -18 15 -39 15 -47 0 -8 6 -15 14 -15 9 0 16 -12 18 -27 2 -22 9 -29 30 -31 22 -3 29 -11 42 -55 9 -29 21 -81 27 -117 15 -87 23 -100 63 -100 31 0 34 -3 40 -40 4 -24 12 -40 20 -40 8 0 21 -24 31 -57 35 -117 38 -123 61 -123 17 0 24 -9 33 -44 6 -25 11 -58 11 -75 0 -16 4 -32 9 -35 5 -3 14 -27 20 -53 20 -81 39 -113 66 -113 22 0 25 -4 25 -36 0 -26 5 -37 18 -41 17 -4 42 -64 42 -98 0 -9 7 -29 15 -45 14 -26 21 -30 59 -30 l43 0 7 -62 c4 -37 18 -81 32 -107 13 -24 24 -57 24 -73 0 -21 6 -31 20 -35 13 -4 20 -14 20 -30 0 -16 7 -27 19 -30 13 -3 22 -21 30 -59 7 -29 17 -56 22 -59 5 -4 9 -26 9 -51 0 -37 3 -44 20 -44 16 0 20 -7 20 -30 0 -23 4 -30 20 -30 11 0 20 -7 20 -15 0 -32 35 -125 47 -125 8 0 13 -12 13 -30 0 -23 5 -30 19 -30 13 0 21 -9 26 -30 5 -23 12 -30 31 -30 19 0 24 -5 24 -26 0 -17 6 -28 19 -31 20 -5 24 -18 36 -107 5 -33 12 -50 23 -53 22 -5 42 -48 42 -88 0 -40 27 -95 46 -95 8 0 14 -7 14 -15 0 -8 9 -15 20 -15 16 0 20 -7 20 -37 0 -21 7 -47 15 -57 8 -11 15 -39 15 -62 0 -54 15 -94 35 -94 8 0 15 -7 15 -15 0 -8 9 -15 20 -15 17 0 20 -7 20 -40 l0 -40 -209 0 c-252 0 -268 2 -276 41 -4 16 -13 29 -21 29 -9 0 -14 11 -14 30 0 16 -9 45 -20 65 -13 23 -20 54 -20 86 0 42 -3 52 -19 56 -11 3 -21 13 -24 24 -3 10 -12 19 -21 19 -11 0 -16 9 -16 30 0 17 -11 53 -25 80 -14 27 -25 63 -25 80 0 53 -15 70 -64 70 -43 0 -44 0 -55 44 -6 25 -11 55 -11 68 0 32 -33 108 -47 108 -6 0 -13 12 -15 28 -2 21 -9 28 -30 30 -23 3 -28 10 -43 71 -9 37 -28 103 -43 147 -25 71 -30 79 -55 82 -24 3 -27 7 -27 42 0 22 -4 49 -9 62 -5 13 -17 49 -27 81 -9 31 -23 57 -30 57 -7 0 -14 12 -16 28 -2 22 -9 28 -33 30 -26 3 -33 11 -52 55 -12 29 -24 66 -28 82 -16 78 -22 102 -29 113 -9 14 -95 16 -130 2 -21 -8 -26 -16 -26 -44 0 -19 -4 -38 -10 -41 -5 -3 -10 -19 -10 -34 0 -37 -21 -79 -42 -85 -11 -2 -18 -14 -18 -29 0 -16 -7 -26 -20 -30 -15 -4 -20 -14 -20 -40 0 -20 -4 -39 -10 -42 -5 -3 -10 -17 -10 -31 0 -17 -5 -24 -20 -24 -15 0 -20 -7 -20 -29 0 -20 -6 -30 -20 -34 -16 -4 -20 -14 -20 -50 0 -36 -4 -46 -20 -50 -13 -3 -20 -14 -20 -30 0 -16 -7 -26 -20 -30 -13 -3 -20 -14 -20 -30 0 -14 -4 -29 -10 -32 -5 -3 -10 -17 -10 -29 0 -15 -7 -26 -20 -29 -15 -4 -20 -14 -20 -36 0 -18 -6 -42 -14 -54 -8 -12 -17 -41 -21 -64 -6 -37 -10 -43 -32 -43 -16 0 -27 -7 -30 -20 -3 -11 -14 -20 -24 -20 -16 0 -19 -8 -19 -55 0 -37 -6 -65 -20 -87 -12 -19 -20 -51 -20 -75 0 -33 -4 -43 -16 -43 -9 0 -18 -9 -21 -20 -3 -13 -14 -20 -28 -20 -27 0 -55 -46 -55 -92 0 -18 -5 -28 -15 -28 -21 0 -48 -65 -43 -103 7 -44 1 -57 -28 -57 -29 0 -54 -43 -54 -93 0 -18 -6 -45 -12 -60 l-13 -27 -262 0 -262 0 6 37 c9 63 25 93 50 93 20 0 23 5 23 35 l0 35 -50 0 c-27 0 -50 -4 -50 -10 0 -5 -6 -10 -13 -10 -7 0 -18 -9 -25 -20 -7 -11 -22 -20 -35 -20 -46 0 -67 -12 -67 -36 0 -15 -6 -24 -15 -24 -8 0 -15 -8 -15 -18 0 -19 -19 -26 -150 -55 -37 -9 -56 -18 -58 -30 -3 -14 -16 -17 -79 -17 -64 0 -76 -3 -80 -18 -4 -17 -24 -20 -191 -30 -131 -8 -237 -9 -352 -2 -91 5 -186 9 -212 10 -34 0 -48 4 -48 14 0 20 -23 26 -95 26 -54 0 -63 3 -68 20 -3 13 -14 20 -28 20 -24 0 -82 16 -111 31 -10 5 -27 9 -38 9 -11 0 -20 6 -20 14 0 8 -11 17 -24 20 -17 4 -26 14 -28 33 -3 22 -11 28 -53 40 -27 8 -54 19 -59 24 -6 5 -18 9 -28 9 -10 0 -18 5 -18 10 0 6 -9 10 -20 10 -17 0 -20 7 -20 51 0 41 -3 52 -19 56 -30 8 -66 101 -78 201 l-5 42 233 -2 234 -3 6 -50 c8 -68 27 -105 54 -105 13 0 28 -7 35 -15 7 -8 23 -15 36 -15 17 0 23 -6 26 -26 4 -31 33 -48 113 -64 117 -24 172 -28 360 -29 189 -1 321 11 339 29 6 6 26 10 46 10 56 0 90 20 90 53 0 24 4 27 33 27 78 0 137 60 137 138 0 30 4 42 15 42 21 0 26 47 23 200 l-3 134 -335 -2 c-389 -4 -808 12 -930 33 -47 8 -99 15 -116 15 -23 0 -33 5 -37 20 -4 15 -14 20 -36 20 -20 0 -31 5 -31 14 0 16 -30 26 -77 26 -25 0 -33 4 -33 18 0 15 -14 21 -65 32 -48 10 -65 18 -65 30 0 9 -11 23 -24 30 -14 7 -26 22 -28 34 -2 13 -13 23 -28 27 -65 16 -70 20 -70 59 0 21 -7 43 -15 50 -8 7 -15 23 -15 36 0 21 -5 24 -37 24 l-36 0 6 -104 c4 -57 4 -161 0 -230 -6 -122 -7 -126 -28 -126 -25 0 -27 -6 -45 -152 -6 -47 -17 -102 -25 -122 -8 -19 -15 -49 -15 -65 0 -45 -10 -61 -36 -61 -14 0 -27 -7 -30 -15 -4 -8 -17 -15 -30 -15 -25 0 -44 -25 -44 -62 0 -13 -14 -38 -30 -55 -23 -25 -38 -33 -65 -33 -35 0 -35 0 -35 -45 0 -38 -5 -50 -32 -75 -18 -16 -50 -32 -70 -35 -34 -6 -38 -10 -38 -36 0 -19 -5 -29 -15 -29 -8 0 -15 -8 -15 -18 0 -15 -13 -20 -67 -29 -38 -6 -81 -15 -98 -21 -16 -7 -51 -14 -77 -17 -32 -4 -48 -11 -48 -21 0 -9 -10 -14 -29 -14 -38 0 -61 -9 -61 -25 0 -17 -230 -28 -409 -19 -103 5 -141 10 -141 19 0 9 -26 15 -80 20 -51 5 -80 11 -80 19 0 6 -24 17 -52 23 -182 40 -198 45 -198 69 0 8 -10 14 -25 14 -21 0 -25 5 -25 30 0 23 -5 30 -19 30 -11 0 -23 5 -26 10 -3 6 -19 10 -35 10 -16 0 -33 6 -37 14 -4 8 -17 15 -28 17 -16 3 -21 13 -23 54 -4 64 -15 77 -66 73 l-41 -3 -3 -663 -2 -662 4905 0 4905 0 0 2030 0 2030 -2020 0 -2020 0 0 -25z">
			</path>
			<path id="p1EvakfoFo" d="M9345 3021 c-211 -27 -265 -45 -265 -87 0 -17 -6 -24 -20 -24 -11 0 -23 -7 -26 -15 -4 -8 -11 -15 -18 -15 -16 -1 -46 -71 -46 -108 0 -21 -5 -32 -14 -32 -21 0 -26 -23 -26 -130 0 -107 5 -130 26 -130 10 0 14 -12 14 -39 0 -22 5 -43 10 -46 6 -3 10 -14 10 -23 0 -9 14 -23 30 -30 18 -8 30 -21 30 -33 0 -14 7 -19 25 -19 15 0 25 -6 25 -14 0 -28 26 -33 280 -57 184 -17 178 -15 182 -52 l3 -32 423 -3 422 -2 0 169 c0 184 -5 231 -26 231 -8 0 -14 10 -14 24 0 14 -4 28 -10 31 -5 3 -10 21 -10 40 0 19 -4 37 -10 40 -5 3 -10 22 -10 41 0 27 -4 34 -19 34 -10 0 -21 7 -25 15 -3 9 -19 15 -41 15 -32 0 -35 3 -35 28 0 16 -8 32 -20 40 -11 7 -20 21 -20 31 0 15 -10 21 -42 26 -70 11 -78 15 -78 40 0 39 -35 52 -205 75 -94 13 -425 20 -500 11z">
			</path>
			<path id="pJhP7QykB" d="M6875 3010 c-44 -4 -111 -15 -150 -24 -38 -8 -73 -16 -77 -16 -5 0 -8 -12 -8 -28 0 -29 -24 -45 -88 -58 -17 -4 -32 -11 -32 -16 0 -6 -11 -19 -25 -30 -16 -13 -25 -29 -25 -49 0 -22 -5 -29 -20 -29 -11 0 -20 -4 -20 -10 0 -5 -9 -10 -20 -10 -16 0 -20 -7 -20 -35 0 -31 -3 -35 -25 -35 -27 0 -39 -18 -49 -72 -4 -22 -13 -38 -23 -40 -18 -3 -41 -93 -42 -165 -1 -29 -5 -43 -15 -43 -17 0 -26 -71 -26 -211 0 -141 10 -229 25 -229 7 0 15 -20 18 -47 17 -133 19 -143 37 -143 14 0 18 -12 23 -59 6 -73 21 -101 51 -101 13 0 26 -7 30 -15 3 -8 12 -15 21 -15 11 0 15 -11 15 -40 0 -27 4 -40 14 -40 7 0 27 -12 43 -27 17 -16 50 -32 79 -38 43 -9 49 -13 52 -37 5 -44 45 -58 237 -80 196 -23 437 -10 640 34 52 11 60 16 63 38 4 27 28 49 53 50 9 0 23 8 32 18 9 10 32 24 52 32 31 12 35 18 35 52 0 29 4 38 18 38 30 0 62 63 62 125 0 53 1 55 26 55 17 0 28 6 31 20 3 13 14 20 28 20 26 0 28 5 46 160 13 120 7 419 -11 518 -11 55 -15 62 -35 62 -19 0 -24 6 -27 33 -2 26 -8 33 -30 35 -23 3 -28 9 -34 40 -3 20 -12 47 -20 59 -8 12 -14 36 -14 53 0 23 -4 30 -20 30 -11 0 -20 5 -20 10 0 6 -9 10 -20 10 -15 0 -20 7 -20 28 0 21 -7 30 -31 41 -18 8 -34 21 -36 30 -2 9 -22 24 -44 34 -29 14 -39 25 -39 42 0 24 -22 35 -72 35 -15 0 -29 4 -32 9 -3 4 -29 11 -58 15 -204 26 -346 30 -503 16z">
			</path>
			<path id="pLkg0bFyE" d="M3600 1888 c0 -91 23 -248 37 -248 8 0 13 -12 13 -30 0 -23 4 -30 20 -30 11 0 20 -6 20 -14 0 -7 7 -19 14 -26 8 -6 16 -30 18 -53 3 -40 5 -43 63 -70 33 -16 68 -33 77 -38 10 -5 25 -9 33 -9 10 0 15 -10 15 -29 0 -27 3 -29 48 -34 26 -2 61 -9 77 -15 104 -37 169 -43 395 -39 221 5 316 14 375 35 17 6 49 16 73 23 31 9 42 17 42 32 0 25 27 46 59 47 15 0 35 13 54 35 16 19 36 35 43 35 10 0 14 14 14 45 0 33 4 45 15 45 22 0 36 35 42 111 4 45 10 69 18 69 18 0 25 34 25 123 l0 77 -795 0 -795 0 0 -42z">
			</path>
		</g>
	</g>
	<g id="l2qbYiB8O7WiSFhh4p6FN9t" fill="rgb(245,173,2)" style="transform: none;">
		<g style="transform: none;">
			<path id="p5IquTGuM" d="M9375 3390 c3 -5 19 -10 36 -10 16 0 29 5 29 10 0 6 -16 10 -36 10 -21 0 -33 -4 -29 -10z">
			</path>
			<path id="p7C73c4Ie" d="M9192 3363 c-104 -3 -123 -6 -118 -18 6 -16 -6 -20 -84 -30 -121 -15 -130 -18 -128 -33 2 -12 -14 -20 -64 -31 -39 -9 -68 -20 -68 -28 0 -6 -16 -15 -35 -19 -32 -6 -35 -9 -35 -41 0 -26 -7 -40 -30 -60 -16 -13 -30 -33 -30 -44 0 -14 -7 -19 -30 -19 -23 0 -30 -4 -30 -20 0 -13 -7 -20 -18 -20 -24 0 -42 -39 -56 -120 -11 -59 -14 -65 -36 -65 -25 0 -25 -1 -32 -124 -8 -129 -16 -178 -17 -104 -1 23 -6 45 -13 49 -8 5 -9 -24 -4 -117 4 -68 10 -127 12 -131 3 -4 14 -8 24 -8 14 0 21 -10 25 -37 20 -114 44 -157 39 -70 -1 29 0 40 2 25 3 -14 12 -32 20 -38 8 -8 14 -30 14 -57 0 -35 3 -44 14 -40 8 3 20 -1 27 -9 7 -8 21 -13 33 -12 15 2 22 -3 24 -18 2 -12 14 -27 28 -34 13 -7 24 -22 24 -32 0 -12 7 -18 23 -18 13 0 27 -3 31 -7 8 -9 14 -10 51 -12 18 -1 25 -7 25 -21 0 -17 7 -20 40 -20 33 0 40 -3 40 -20 0 -16 7 -20 35 -21 57 -2 60 -3 60 -19 0 -11 16 -17 55 -22 30 -4 69 -10 85 -13 113 -18 315 -27 765 -31 l515 -6 3 -101 c4 -108 -4 -179 -17 -158 -11 17 -21 -10 -21 -57 0 -20 -9 -51 -19 -69 -21 -33 -77 -66 -108 -63 -36 4 -43 0 -43 -29 0 -32 -15 -40 -85 -48 -22 -3 -45 -9 -51 -14 -31 -26 -389 -39 -524 -19 -173 25 -227 45 -222 84 2 17 -3 26 -17 31 -12 3 -25 4 -30 1 -5 -3 -14 1 -21 9 -7 8 -23 15 -35 15 -26 0 -51 48 -46 92 1 15 -3 36 -9 47 -10 20 -18 21 -271 21 l-261 0 5 -72 c7 -114 47 -233 78 -233 10 0 15 -17 17 -52 3 -45 6 -53 23 -53 10 0 19 -4 19 -10 0 -5 6 -10 13 -10 8 0 29 -8 48 -17 19 -10 43 -19 54 -20 39 -6 47 -12 40 -33 -4 -13 -1 -22 9 -26 9 -3 16 -15 16 -25 0 -15 7 -19 39 -19 22 0 42 -4 45 -9 3 -5 18 -11 33 -14 16 -4 46 -10 68 -14 25 -5 40 -14 40 -23 0 -11 15 -16 60 -18 81 -3 113 -11 95 -22 -19 -12 11 -17 130 -24 239 -14 418 -15 575 -4 139 11 170 16 170 28 0 12 18 16 80 20 61 4 80 8 80 20 0 9 19 18 55 27 131 29 150 36 150 55 0 17 16 23 48 19 8 -1 12 8 10 26 -3 25 0 28 29 31 19 2 39 12 48 25 8 11 18 18 22 14 3 -4 1 -13 -5 -19 -7 -7 -12 -21 -12 -32 0 -18 4 -17 29 11 19 22 38 33 55 33 25 0 26 2 26 55 0 46 3 55 18 55 19 0 42 42 42 75 0 12 9 40 20 63 24 49 26 82 4 82 -12 0 -14 10 -12 53 3 47 5 52 26 50 12 -2 25 3 27 10 2 6 5 393 7 860 l3 847 -242 0 -243 0 -1 -82 c0 -46 -4 -105 -9 -133 l-7 -50 -3 40 c-2 38 -3 37 -13 -19 -9 -53 -8 -61 9 -73 15 -11 15 -13 2 -13 -8 0 -21 7 -28 15 -7 8 -19 15 -26 15 -7 0 -23 20 -34 45 -12 26 -29 48 -38 51 -9 3 -24 9 -33 14 -9 5 -26 6 -37 3 -34 -8 -60 12 -54 43 3 19 -1 31 -14 41 -10 8 -19 19 -19 25 0 7 -18 14 -40 16 -53 5 -114 32 -108 48 3 8 -11 14 -44 17 -196 21 -277 36 -207 38 29 1 29 1 4 8 -31 10 -382 18 -548 14z m618 -382 c174 -24 210 -37 210 -76 0 -25 8 -29 78 -40 32 -5 42 -11 42 -26 0 -10 9 -24 20 -31 12 -8 20 -24 20 -40 0 -25 3 -28 35 -28 22 0 38 -6 41 -15 4 -8 15 -15 25 -15 15 0 19 -7 19 -34 0 -19 5 -38 10 -41 6 -3 10 -21 10 -39 0 -18 3 -36 8 -40 4 -4 12 -29 18 -54 8 -34 12 -40 14 -22 l2 25 8 -27 c4 -15 9 -93 9 -173 l2 -145 -393 2 -393 3 0 32 c0 37 -3 38 -170 48 -55 3 -113 10 -130 15 -16 5 -56 11 -87 14 -64 5 -78 11 -78 32 0 8 -10 14 -25 14 -18 0 -25 5 -25 19 0 12 -12 25 -30 33 -17 7 -30 20 -30 29 0 9 -3 19 -7 22 -3 4 -8 24 -10 44 -4 39 -22 81 -23 53 0 -13 -1 -13 -10 0 -12 17 -10 164 2 182 5 8 8 2 9 -17 0 -22 4 -15 15 28 7 32 13 61 12 65 -3 18 16 42 34 42 11 0 18 5 15 13 -8 22 13 47 40 47 22 0 25 4 21 25 -4 17 1 28 16 38 20 13 116 32 241 48 75 9 335 3 435 -10z">
			</path>
			<path id="piT4Cg5II" d="M9828 1833 c94 -2 250 -2 345 0 94 1 17 3 -173 3 -190 0 -267 -2 -172 -3z">
			</path>
			<path id="pIwCwmEuY" d="M10933 1583 c-14 -29 -9 -43 8 -26 6 6 9 20 7 32 -3 19 -4 19 -15 -6z">
			</path>
		</g>
	</g>
	<g id="l6JQicRJ6j07RF1UPP9KnGK" fill="rgb(133,184,22)" style="transform: none;">
		<g style="transform: none;">
			<path id="pg13aR20x" d="M11425 4038 c4 -13 9 -40 12 -60 5 -34 8 -38 33 -38 19 0 29 -6 33 -20 3 -11 11 -19 18 -18 7 2 17 -16 24 -42 6 -25 17 -55 23 -67 7 -12 12 -31 12 -42 0 -14 6 -21 19 -21 16 0 20 -8 23 -37 3 -32 7 -38 27 -38 20 0 24 -5 26 -37 1 -20 10 -53 20 -75 20 -40 21 -44 23 -80 1 -13 9 -23 17 -23 19 0 45 -51 45 -90 0 -24 4 -30 21 -30 18 0 20 -5 17 -42 -2 -35 -6 -42 -20 -40 -15 2 -18 -5 -18 -51 0 -62 -18 -107 -42 -107 -13 0 -18 -8 -18 -30 0 -17 -11 -52 -25 -77 -16 -31 -22 -55 -18 -71 5 -21 3 -23 -23 -20 -25 3 -30 -1 -41 -32 -6 -19 -12 -30 -13 -25 -2 21 -30 -30 -30 -55 0 -14 -6 -35 -14 -46 -8 -11 -16 -36 -18 -55 -2 -22 -8 -34 -18 -34 -10 0 -17 -13 -20 -40 -5 -36 -8 -40 -31 -37 -23 3 -27 -2 -41 -45 -9 -26 -21 -48 -29 -48 -11 0 -25 -38 -46 -121 -4 -16 -11 -20 -29 -16 -20 4 -24 0 -24 -19 -1 -13 -7 -35 -15 -49 -8 -14 -14 -38 -15 -53 0 -16 -7 -50 -16 -78 -16 -48 -17 -49 -55 -49 -34 0 -39 -3 -39 -23 0 -13 -4 -27 -10 -33 -5 -5 -10 -24 -12 -42 -1 -19 -6 -36 -10 -38 -4 -3 -8 -15 -8 -27 0 -12 -7 -30 -15 -41 -8 -10 -17 -38 -21 -62 -6 -43 -7 -44 -45 -44 -36 0 -38 -2 -44 -37 -14 -89 -22 -118 -33 -116 -16 4 -41 -54 -44 -102 -3 -36 -5 -40 -29 -37 -21 2 -28 -4 -47 -46 -12 -27 -22 -57 -22 -68 0 -32 -24 -74 -42 -74 -14 0 -18 -11 -20 -57 -3 -56 -4 -58 -30 -58 -20 1 -28 -4 -28 -17 0 -9 -4 -20 -10 -23 -5 -3 -10 -21 -10 -39 0 -18 -3 -36 -7 -40 -8 -8 -9 -13 -12 -41 -1 -10 -12 -15 -31 -15 -16 0 -30 -4 -30 -10 0 -6 116 -10 328 -10 l327 0 13 28 c7 16 14 47 16 68 4 56 23 86 46 79 25 -8 42 25 39 73 -2 43 16 96 30 87 12 -7 33 30 30 53 -1 9 3 30 9 45 9 22 17 27 32 22 15 -5 22 0 30 19 5 15 15 25 22 24 8 -2 14 14 18 48 3 27 13 63 24 78 12 19 18 46 17 82 0 46 2 54 18 54 10 0 21 9 24 20 4 14 12 19 28 18 20 -3 24 4 35 50 7 29 17 58 23 65 6 8 12 28 13 47 2 22 8 35 20 38 10 2 18 14 18 26 0 12 4 26 9 32 5 5 11 20 13 34 2 14 10 25 18 25 9 0 17 12 20 30 3 18 11 30 20 30 11 0 16 15 20 50 3 34 10 50 19 50 16 0 31 33 24 53 -3 7 3 12 16 12 15 0 21 6 21 23 0 13 4 27 10 33 5 5 10 25 12 43 2 22 8 36 20 39 9 2 18 16 20 31 2 14 9 26 16 26 17 0 42 51 42 84 0 15 4 31 9 36 5 6 11 26 13 45 3 31 7 36 41 44 46 12 56 3 69 -56 21 -98 25 -114 41 -145 9 -17 14 -39 11 -48 -6 -14 -1 -16 29 -14 43 4 44 3 50 -41 2 -20 9 -34 16 -32 19 4 61 -123 61 -188 0 -39 1 -41 27 -38 26 3 29 -1 55 -76 14 -44 34 -110 43 -148 15 -60 20 -68 40 -68 29 0 35 -9 37 -55 1 -25 5 -34 15 -31 17 7 43 -44 44 -86 0 -18 6 -51 13 -73 11 -39 12 -40 53 -37 47 4 63 -13 63 -68 0 -17 11 -53 25 -80 14 -27 25 -63 25 -80 0 -21 5 -30 16 -30 9 0 18 -9 21 -19 3 -11 13 -21 24 -24 16 -4 19 -14 19 -56 0 -32 7 -63 20 -86 12 -21 20 -54 20 -81 0 -38 3 -45 16 -40 10 4 18 0 21 -13 7 -28 39 -31 324 -31 230 0 259 2 259 16 0 9 -9 18 -20 21 -17 4 -20 14 -20 54 0 41 -3 49 -19 49 -11 0 -21 9 -24 21 -3 12 -10 18 -16 14 -15 -9 -32 40 -29 85 1 22 -5 49 -15 64 -9 14 -17 41 -17 61 0 28 -4 35 -19 35 -11 0 -21 9 -24 21 -3 12 -10 18 -16 15 -13 -9 -41 51 -41 89 0 38 -24 90 -42 90 -12 0 -19 24 -33 116 -4 25 -12 38 -25 42 -13 3 -20 14 -21 31 -3 48 -4 51 -28 48 -16 -1 -24 4 -28 18 -3 11 -14 20 -24 20 -14 0 -19 8 -20 30 -2 42 -3 47 -11 56 -5 4 -8 -1 -9 -12 -1 -22 -38 83 -39 109 0 10 -8 17 -20 17 -16 0 -20 7 -20 30 0 23 -4 30 -20 30 -17 0 -20 7 -20 43 0 24 -4 47 -9 53 -5 5 -16 34 -23 64 -9 35 -20 55 -29 55 -8 0 -15 12 -17 26 -2 17 -11 29 -23 32 -13 4 -19 14 -19 35 0 17 -9 47 -21 66 -12 20 -23 48 -25 64 -2 15 -7 46 -10 70 l-6 42 -44 0 c-38 0 -45 4 -59 30 -8 16 -15 37 -15 47 0 33 -28 98 -42 98 -8 0 -15 16 -18 40 -4 33 -9 40 -28 40 -26 0 -44 30 -62 104 -6 28 -16 54 -21 57 -5 3 -9 20 -9 38 0 18 -7 55 -15 82 -8 27 -15 51 -15 54 0 3 -10 5 -22 5 -12 0 -25 9 -29 20 -12 31 -41 128 -44 145 -1 8 -8 15 -16 15 -8 0 -15 12 -17 28 -3 23 -8 27 -37 27 -42 0 -50 14 -67 111 -6 41 -19 94 -28 119 -13 37 -21 45 -40 45 -20 0 -26 7 -30 30 -3 17 -10 30 -15 30 -11 -1 -28 40 -50 117 -15 56 -24 70 -35 63 -5 -3 -11 -1 -15 5 -4 6 -111 10 -297 10 l-290 0 7 -22z">
			</path>
			<path id="pTC9uEBry" d="M11627 3626 c-7 -19 11 -32 24 -19 6 6 5 14 -4 22 -12 9 -16 8 -20 -3z">
			</path>
			<path id="pmRUafyyN" d="M8372 2398 l3 -53 44 -3 44 -3 -7 32 c-3 17 -6 36 -6 41 0 5 -9 6 -21 3 -15 -5 -22 -2 -26 14 -3 12 -12 21 -20 21 -11 0 -13 -12 -11 -52z">
			</path>
			<path id="p1A5CXqweP" d="M11305 2350 c-3 -5 3 -10 15 -10 12 0 18 5 15 10 -3 6 -10 10 -15 10 -5 0 -12 -4 -15 -10z">
			</path>
			<path id="pAGFXeifd" d="M8440 2275 c0 -19 5 -35 10 -35 6 0 10 16 10 35 0 19 -4 35 -10 35 -5 0 -10 -16 -10 -35z">
			</path>
		</g>
	</g>
	<g id="lTglwKwbCDheD93ZRli80e" fill="rgb(229,46,52)" style="transform: none;">
		<g style="transform: none;">
			<path id="p1HWjznBFL" d="M4160 3350 c-12 -8 -10 -10 9 -10 55 0 6 -12 -85 -20 -55 -5 -130 -12 -169 -16 -75 -7 -88 -11 -80 -24 3 -5 -11 -12 -32 -15 -21 -4 -54 -12 -73 -17 -19 -6 -41 -13 -49 -15 -8 -2 -11 -7 -7 -10 4 -4 -8 -13 -26 -19 -29 -9 -33 -16 -34 -45 0 -25 -5 -35 -20 -38 -10 -2 -23 -7 -29 -11 -5 -5 -36 -13 -68 -19 -67 -12 -77 -17 -77 -37 0 -8 -9 -14 -20 -14 -13 0 -20 -7 -20 -18 0 -20 -53 -76 -62 -66 -10 9 -30 -36 -24 -52 3 -8 -1 -14 -8 -14 -19 0 -46 -33 -46 -56 0 -11 -4 -24 -9 -30 -5 -5 -11 -25 -13 -44 -2 -23 -8 -35 -18 -35 -10 0 -17 -14 -20 -45 -3 -31 -10 -45 -20 -45 -10 0 -17 -14 -21 -45 -4 -25 -12 -83 -20 -130 -16 -108 -16 -513 0 -635 7 -49 14 -112 16 -140 6 -72 14 -102 25 -86 11 18 34 -52 27 -85 -2 -13 0 -24 4 -24 5 0 10 17 10 38 2 37 2 36 8 -8 4 -25 16 -63 29 -83 12 -21 22 -51 22 -68 0 -22 5 -29 20 -29 11 0 20 -4 20 -10 0 -5 7 -10 16 -10 30 0 58 -49 55 -97 -2 -32 1 -43 12 -43 8 0 32 -9 54 -19 21 -11 67 -25 101 -32 60 -11 63 -14 59 -37 -3 -18 0 -26 14 -29 11 -3 19 -13 19 -23 0 -13 11 -19 42 -24 23 -4 56 -13 72 -21 17 -7 58 -17 91 -21 51 -6 55 -8 30 -14 l-30 -6 34 -7 c18 -4 59 -7 90 -8 31 0 65 -4 76 -9 l20 -9 -20 -1 c-16 0 -17 -2 -5 -9 32 -19 395 -29 610 -18 181 9 210 13 208 26 -3 13 11 17 67 21 53 4 70 9 70 20 0 10 20 20 60 30 33 8 65 18 71 22 6 4 26 9 44 10 21 2 35 9 38 20 2 10 16 18 36 20 24 2 31 8 31 24 1 27 55 74 87 74 35 0 48 18 48 65 0 41 22 75 48 75 7 0 12 5 12 10 0 6 13 10 30 10 24 0 31 5 35 25 3 14 7 36 10 50 3 15 12 25 23 25 23 0 52 59 52 105 0 18 5 46 10 60 8 22 15 26 43 23 l32 -3 7 75 c4 41 12 100 16 130 l9 55 2 -80 c2 -55 5 -74 11 -60 13 30 12 575 0 575 -6 0 -13 -7 -16 -15 -5 -13 -132 -15 -1056 -15 l-1050 0 5 43 c4 23 9 74 12 112 8 87 14 112 25 95 5 -8 11 -1 18 19 6 17 16 30 23 29 6 -2 13 8 14 22 11 95 35 149 68 150 12 0 17 8 17 30 0 23 4 30 20 30 11 0 20 5 20 10 0 6 9 10 20 10 13 0 20 7 20 19 0 22 21 31 95 40 44 5 50 9 47 28 -3 24 39 53 77 53 11 0 48 7 83 16 118 31 495 18 588 -19 24 -9 33 -11 73 -15 12 -1 17 -11 17 -30 0 -23 6 -29 40 -40 22 -6 49 -12 61 -12 12 0 19 -5 16 -12 -2 -7 5 -24 17 -36 11 -13 21 -36 21 -50 0 -20 6 -28 21 -30 12 -2 24 -12 27 -23 4 -13 10 -17 22 -13 12 5 16 1 14 -17 -6 -63 -29 -59 301 -59 193 0 300 4 300 10 0 6 -17 10 -39 10 l-38 0 -6 65 c-9 99 -34 175 -58 175 -14 0 -19 7 -19 28 0 39 -27 74 -51 67 -12 -4 -21 -1 -25 9 -3 9 -15 16 -25 16 -12 0 -19 7 -19 20 0 11 -3 20 -8 20 -4 0 -12 10 -17 23 -6 13 -22 24 -40 27 -52 9 -85 38 -85 76 0 32 -2 34 -35 34 -28 0 -35 4 -35 20 0 16 -7 20 -36 20 -19 0 -44 4 -54 10 -10 5 -35 11 -56 12 -22 2 -39 9 -39 15 0 24 -1 24 -187 41 -48 4 -91 11 -94 15 -4 4 1 7 12 7 16 0 16 2 4 10 -20 12 -571 13 -590 0z m999 -1503 c-3 -64 -17 -111 -18 -58 -2 60 -10 28 -21 -73 -10 -99 -23 -141 -41 -131 -12 8 -31 -44 -26 -72 2 -13 0 -23 -4 -23 -5 0 -9 14 -9 30 0 17 -4 30 -8 30 -4 0 -6 -15 -5 -32 5 -41 -42 -98 -79 -98 -13 0 -29 -5 -35 -11 -6 -6 -19 -12 -29 -13 -12 -2 -19 -11 -19 -27 0 -18 -8 -26 -30 -32 -17 -5 -43 -13 -60 -19 -57 -20 -151 -29 -344 -35 -195 -5 -264 3 -366 39 -16 6 -51 13 -77 15 -45 5 -48 7 -48 34 0 22 -5 29 -19 29 -10 0 -24 7 -31 15 -7 9 -18 14 -24 12 -6 -2 -33 8 -61 23 -46 24 -50 29 -53 67 -2 23 -10 47 -18 53 -7 7 -14 19 -14 26 0 8 -9 14 -20 14 -17 0 -19 8 -22 68 -2 43 -7 67 -15 67 -18 0 -20 6 -27 83 l-6 72 766 0 765 0 -2 -53z">
			</path>
		</g>
	</g>
	<g id="l4qM11yD1A8xalU1E0mCUS7" fill="rgb(4,99,210)" style="transform: none;">
		<g style="transform: none;">
			<path id="p153cr0KS8" d="M6945 3350 c-19 -8 -18 -9 4 -9 50 -2 9 -13 -76 -22 -87 -8 -134 -15 -182 -25 -19 -4 -21 -8 -11 -14 16 -10 -76 -40 -123 -40 -23 0 -28 -4 -23 -16 4 -11 -1 -18 -14 -21 -16 -4 -20 -14 -20 -43 0 -36 -2 -38 -37 -45 -21 -4 -43 -11 -50 -17 -7 -5 -17 -7 -23 -3 -13 8 -50 -22 -50 -42 0 -7 -9 -13 -20 -13 -13 0 -20 -7 -20 -18 0 -24 -37 -59 -49 -46 -5 5 -11 75 -13 155 -3 80 -8 151 -12 157 -5 9 -77 12 -255 12 l-247 0 3 -1632 c2 -898 3 -1641 3 -1650 0 -17 19 -18 255 -18 l255 0 0 644 c0 437 3 647 10 651 21 13 39 -17 42 -68 2 -41 7 -53 21 -55 11 -2 28 -13 39 -24 12 -12 28 -18 39 -15 10 3 22 1 25 -4 3 -5 14 -9 25 -9 14 0 19 -7 19 -30 0 -25 4 -30 25 -30 15 0 25 -6 25 -14 0 -20 12 -26 83 -43 168 -39 175 -41 137 -43 l-35 -2 40 -9 c22 -4 72 -11 110 -15 81 -7 97 -14 36 -14 -23 0 -40 -4 -37 -9 12 -19 650 -21 696 -2 21 8 22 10 5 11 -37 1 6 18 55 21 56 3 72 11 40 20 -20 5 -16 7 25 13 28 3 64 11 80 18 17 6 60 15 98 21 54 9 67 14 67 29 0 10 7 18 15 18 10 0 15 10 15 29 0 26 4 30 38 36 20 3 52 19 70 35 27 25 32 37 32 75 0 45 0 45 35 45 27 0 42 8 65 33 16 17 30 42 30 55 0 39 17 60 43 55 19 -4 26 0 30 17 4 16 11 20 26 15 24 -7 41 19 41 64 0 17 7 48 15 68 8 21 21 83 28 138 11 94 13 100 34 97 19 -3 23 3 29 45 10 63 11 460 1 496 -7 24 -10 27 -23 16 -23 -19 -32 -1 -38 81 -7 101 -16 163 -27 174 -5 6 -9 25 -9 42 0 18 -4 36 -10 39 -5 3 -10 24 -10 46 0 37 -2 39 -30 39 -26 0 -31 5 -36 30 -6 30 -18 38 -28 21 -4 -5 0 -12 6 -14 8 -3 6 -6 -4 -6 -10 -1 -18 5 -18 13 0 7 -7 19 -15 26 -8 7 -15 24 -15 39 -1 40 -41 79 -86 83 -32 2 -40 7 -42 26 -2 12 -8 22 -13 22 -5 0 -9 8 -9 18 0 11 -12 24 -27 31 -16 8 -36 17 -45 22 -10 5 -25 9 -33 9 -10 0 -15 10 -15 35 0 24 -6 37 -20 45 -11 6 -19 16 -17 23 1 8 -15 13 -48 15 -27 1 -64 9 -82 17 -17 8 -38 15 -47 15 -10 0 -13 6 -10 15 5 12 -2 15 -34 15 -23 0 -51 4 -64 9 -13 6 -50 13 -83 17 -55 7 -57 8 -25 14 l35 6 -34 7 c-47 10 -532 7 -556 -3z m358 -381 c18 -5 46 -9 64 -9 17 0 35 -4 38 -10 3 -5 21 -10 40 -10 29 0 34 -4 37 -27 2 -15 10 -27 19 -29 29 -4 68 -35 62 -50 -3 -8 1 -14 11 -14 9 0 31 -8 49 -17 23 -13 32 -25 32 -43 0 -17 6 -26 20 -28 11 -3 23 -10 28 -18 4 -7 14 -11 22 -8 11 5 15 -2 15 -25 0 -18 7 -42 16 -56 8 -13 14 -29 13 -37 -1 -7 3 -25 9 -40 8 -20 18 -27 34 -25 19 2 24 -4 28 -33 4 -28 9 -35 28 -34 12 0 22 -3 22 -8 0 -4 -9 -8 -20 -8 -11 0 -20 -4 -20 -8 0 -5 10 -8 22 -8 18 1 24 -6 30 -39 15 -80 19 -377 6 -475 -12 -91 -14 -95 -38 -95 -14 0 -24 -5 -23 -12 2 -7 -2 -24 -7 -38 -7 -18 -16 -24 -32 -22 -21 2 -23 -3 -28 -58 -6 -67 -35 -125 -62 -125 -14 0 -18 -8 -18 -38 0 -34 -4 -40 -35 -52 -20 -8 -43 -22 -52 -32 -9 -10 -23 -18 -32 -18 -26 -1 -56 -29 -56 -53 0 -19 -9 -24 -60 -35 -237 -51 -480 -57 -715 -16 -56 9 -100 33 -93 49 9 24 -15 44 -63 51 -29 4 -55 17 -75 35 -17 16 -37 29 -44 29 -9 0 -15 15 -17 43 -2 26 -8 42 -16 42 -7 0 -17 7 -22 15 -5 8 -19 15 -32 15 -27 0 -47 46 -47 113 -1 34 -4 42 -20 42 -20 0 -23 13 -41 178 -10 94 -19 117 -21 51 l-2 -44 -7 50 c-11 65 -11 238 -1 295 l8 45 2 -40 c2 -34 4 -37 11 -18 5 12 10 49 11 81 2 66 20 167 32 178 4 4 7 1 7 -7 1 -8 10 3 20 25 11 21 17 42 14 47 -10 17 16 49 39 46 19 -2 22 3 25 36 2 28 7 37 17 33 8 -3 18 1 22 8 5 8 17 15 28 18 14 2 20 12 20 31 1 35 27 61 62 62 21 0 27 5 25 18 -2 9 3 17 11 17 7 0 25 6 40 13 20 9 27 19 27 40 0 15 3 27 8 27 4 0 39 8 77 16 39 9 106 20 150 24 94 9 352 2 398 -11z">
			</path>
		</g>
	</g>
</svg>
