<svg class="img-fluid" id="outputsvg" xmlns="http://www.w3.org/2000/svg" rs_id="2859" width="1600" height="406" viewBox="0 0 16000 4060">
	<g id="l4EJF3R69vEZXBlvwBMA5Yi" fill="rgb(248,249,252)" style="transform: none;">
		<g style="transform: none;">
			<path id="p1HgTxpcuK" d="M0 2030 l0 -2030 8000 0 8000 0 0 2030 0 2030 -8000 0 -8000 0 0 -2030z m6123 1899 c20 -27 37 -61 37 -75 0 -14 6 -38 14 -52 8 -15 17 -43 21 -63 3 -21 12 -42 20 -49 8 -7 15 -27 15 -44 0 -22 8 -40 25 -56 13 -12 30 -39 36 -59 6 -20 15 -40 19 -46 4 -5 13 -28 20 -50 7 -22 17 -45 22 -52 11 -13 -8 -22 -34 -15 -11 3 -18 14 -18 28 0 13 -3 24 -7 24 -13 0 -43 60 -43 87 0 25 -27 82 -45 95 -5 4 -26 8 -46 8 -41 0 -49 -11 -49 -66 0 -19 -4 -34 -9 -34 -4 0 -20 -26 -34 -57 -26 -58 -67 -106 -67 -80 0 7 7 22 15 33 8 10 15 35 15 55 0 22 7 42 19 53 11 10 21 37 25 67 8 62 15 79 31 79 18 0 17 199 -1 220 -8 9 -20 35 -28 58 -21 59 -1 55 47 -9z m-4308 -189 c72 -25 103 -44 116 -73 5 -12 16 -33 24 -47 14 -23 13 -26 -5 -39 -11 -7 -20 -20 -20 -28 0 -16 -50 -73 -64 -73 -5 0 -19 -11 -31 -24 -26 -28 -83 -56 -135 -65 -24 -4 -41 -16 -58 -41 -55 -82 8 -190 112 -190 40 0 121 32 129 52 4 10 10 8 21 -6 24 -29 20 -36 -21 -36 -21 0 -45 -8 -56 -17 -29 -27 -129 -25 -155 2 -10 11 -33 31 -50 44 -29 22 -32 29 -32 81 0 48 5 64 30 99 17 23 38 45 48 48 9 3 29 15 44 25 14 10 34 18 44 18 25 0 77 38 102 75 29 42 28 79 -4 121 l-26 34 -99 0 c-88 0 -99 -2 -112 -21 -10 -14 -17 -17 -22 -9 -16 26 62 70 156 89 3 0 32 -8 64 -19z m1470 -22 c3 -3 -1 -10 -9 -17 -10 -8 -21 -9 -40 -1 -41 15 -116 11 -156 -8 -34 -17 -35 -19 -35 -77 l0 -60 153 -3 c126 -2 152 -5 152 -17 0 -8 -4 -15 -8 -15 -5 0 -19 -23 -32 -51 -18 -38 -33 -54 -59 -65 -20 -8 -46 -25 -59 -36 -18 -18 -27 -20 -49 -12 -42 14 -38 30 6 26 33 -3 44 1 80 34 31 29 41 46 41 70 0 17 -6 36 -12 42 -7 5 -53 9 -103 9 -49 0 -96 -4 -102 -9 -7 -6 -13 -26 -13 -46 0 -28 7 -42 33 -63 19 -17 26 -28 17 -28 -23 0 -53 29 -80 77 -13 23 -27 42 -32 42 -17 0 -8 87 12 113 11 14 20 31 20 37 0 22 53 64 100 80 41 14 51 14 107 0 34 -9 65 -19 68 -22z m1424 26 c36 -10 64 -28 92 -57 40 -43 43 -50 53 -123 9 -64 -7 -61 -20 3 -6 32 -22 75 -35 95 l-24 37 -90 1 c-96 0 -135 -14 -135 -48 0 -9 -7 -26 -15 -36 -22 -29 -18 -72 11 -132 30 -61 55 -74 142 -74 43 0 59 5 77 23 31 31 75 66 75 61 0 -17 -61 -80 -105 -110 -60 -39 -80 -42 -97 -14 -7 11 -19 20 -27 20 -28 0 -101 51 -107 75 -3 13 -12 29 -20 36 -17 14 -19 92 -2 122 19 36 87 96 131 116 23 11 42 20 43 20 0 1 24 -6 53 -15z m1041 -1 c86 -26 79 -43 -14 -36 -90 7 -120 0 -152 -34 -26 -28 -33 -90 -12 -111 8 -8 57 -12 154 -12 170 0 183 -7 129 -64 -19 -21 -35 -43 -35 -50 0 -6 -15 -20 -32 -30 -18 -11 -43 -28 -55 -39 -19 -16 -28 -18 -54 -11 -53 15 -48 34 8 34 40 0 55 5 86 33 28 24 37 40 37 63 0 17 -6 36 -12 42 -7 5 -60 9 -118 8 l-105 -1 -3 -35 c-2 -25 5 -47 22 -73 l25 -37 -39 26 c-22 15 -40 32 -40 40 0 16 -33 74 -42 74 -5 0 -8 7 -8 15 0 19 52 129 64 134 5 2 19 14 31 27 11 12 33 26 48 29 15 4 30 11 33 16 7 12 16 11 84 -8z m2473 -6 c26 -6 47 -18 47 -25 0 -10 -16 -11 -74 -6 -91 8 -116 2 -161 -37 -26 -23 -35 -39 -35 -63 0 -53 10 -56 177 -56 l153 0 0 -25 c0 -14 -8 -33 -17 -43 -10 -11 -26 -33 -35 -50 -10 -18 -25 -32 -36 -32 -10 0 -33 -11 -52 -25 -41 -30 -64 -31 -90 -5 -11 11 -28 20 -39 20 -31 0 -67 43 -74 87 -4 23 -14 48 -22 57 -18 17 -12 58 11 77 8 6 14 24 14 38 0 17 10 37 26 52 31 29 111 60 139 53 11 -3 41 -10 68 -17z m709 2 c40 -9 50 -16 72 -53 29 -49 36 -134 17 -201 -10 -40 -53 -95 -72 -95 -5 0 -23 -9 -38 -21 -35 -25 -73 -22 -86 9 -7 16 -18 22 -41 22 -43 0 -54 -30 -54 -148 0 -120 -16 -147 -60 -100 -19 21 -20 34 -20 286 0 275 5 312 39 291 22 -15 121 -3 147 16 11 8 26 12 34 9 8 -3 36 -10 62 -15z m508 -3 c27 -7 45 -18 45 -27 0 -8 -7 -12 -15 -10 -48 12 -153 12 -180 1 -44 -18 -72 -62 -68 -107 l3 -38 150 -5 150 -5 3 -49 c3 -44 0 -51 -30 -77 -18 -15 -37 -28 -43 -29 -5 0 -29 -10 -52 -22 -33 -18 -47 -20 -60 -12 -32 20 -26 34 15 34 29 0 49 7 72 26 27 23 31 32 28 68 l-3 41 -80 3 c-113 4 -125 0 -125 -45 0 -29 7 -43 33 -66 19 -17 25 -26 14 -23 -10 3 -25 6 -33 6 -8 0 -20 12 -27 28 -6 15 -20 36 -29 46 -14 15 -18 37 -18 95 0 71 2 78 33 115 35 41 126 81 157 69 8 -3 35 -11 60 -17z m788 15 c9 -5 25 -12 35 -15 30 -10 8 -26 -34 -26 -75 0 -79 -6 -79 -130 0 -59 3 -115 6 -124 4 -11 19 -16 45 -16 42 0 80 -25 72 -46 -3 -9 -23 -14 -58 -14 -61 0 -65 -5 -65 -107 0 -60 -1 -63 -24 -63 -34 0 -56 35 -56 91 0 33 -5 51 -20 64 -27 24 -25 36 10 67 33 28 40 72 18 107 -15 25 4 135 29 163 13 14 72 48 101 57 1 1 10 -3 20 -8z m389 -6 c19 -8 48 -15 64 -15 18 0 29 -5 29 -14 0 -18 -23 -27 -41 -15 -24 15 -126 10 -164 -8 -39 -19 -48 -39 -43 -99 l3 -39 153 -3 152 -3 0 -24 c0 -14 -9 -33 -20 -42 -11 -10 -20 -22 -20 -28 0 -17 -39 -49 -97 -78 -42 -21 -57 -25 -78 -17 -40 15 -29 30 23 30 40 0 53 5 76 29 23 24 27 36 24 72 l-3 44 -95 2 c-53 1 -100 -3 -107 -9 -7 -6 -13 -26 -13 -46 0 -28 7 -42 33 -63 40 -35 16 -38 -30 -3 -18 14 -33 34 -33 45 0 12 -10 34 -21 51 -24 32 -21 78 6 104 8 9 15 25 15 36 0 29 46 70 100 89 25 9 46 17 48 18 1 0 19 -6 39 -14z m-4139 -7 c7 -7 12 -20 12 -30 0 -19 -35 -42 -50 -33 -14 9 -12 62 3 68 19 8 22 8 35 -5z m3429 -2 c14 -13 -14 -26 -56 -26 -69 0 -77 -13 -85 -144 -7 -124 -2 -136 53 -136 42 0 78 -21 67 -38 -4 -7 -25 -12 -46 -12 -51 0 -70 -27 -70 -96 0 -59 -19 -86 -48 -67 -13 8 -16 22 -14 60 3 44 0 55 -27 86 -33 37 -37 47 -20 47 22 0 59 51 59 81 0 16 -5 29 -10 29 -7 0 -10 28 -8 77 l3 77 50 39 c46 35 54 38 99 33 27 -3 51 -7 53 -10z m1306 -37 c-7 -26 -20 -32 -27 -14 -3 8 -12 15 -21 15 -19 0 -19 9 2 32 15 17 18 17 34 3 10 -10 15 -24 12 -36z m-7435 25 c21 -14 22 -22 22 -159 l0 -144 36 -7 c53 -10 108 1 138 27 26 22 26 25 26 150 0 99 3 129 15 139 29 24 35 0 35 -140 0 -138 0 -140 25 -156 14 -9 45 -19 70 -21 110 -13 135 22 135 188 0 90 3 119 15 129 29 24 35 0 35 -143 0 -161 -2 -166 -82 -211 -37 -22 -51 -25 -67 -17 -10 6 -21 16 -23 23 -3 9 -30 13 -91 13 -75 0 -88 -3 -109 -22 -31 -29 -46 -29 -88 2 -39 29 -109 34 -133 11 -29 -30 -37 2 -37 155 0 81 4 159 10 173 11 30 35 33 68 10z m1300 -3 c19 -17 22 -29 22 -90 0 -56 -3 -71 -15 -71 -21 0 -20 -60 2 -99 21 -36 51 -51 104 -51 89 0 109 36 109 193 0 88 3 117 15 127 29 24 35 0 35 -144 0 -138 -1 -144 -25 -170 -13 -14 -30 -26 -36 -26 -7 0 -20 -6 -28 -14 -30 -26 -59 -28 -81 -6 -16 16 -37 21 -93 25 l-72 4 -3 158 c-1 86 0 163 2 170 7 19 37 15 64 -6z m2064 5 c15 -11 1 -14 -97 -19 -65 -4 -123 -12 -135 -19 -19 -12 -20 -22 -20 -269 0 -243 -1 -257 -20 -274 -11 -10 -23 -15 -28 -11 -4 4 -8 142 -10 307 l-3 299 148 0 c106 -1 153 -4 165 -14z m206 -167 c2 -144 0 -178 -12 -188 -12 -10 -19 -8 -35 8 -19 19 -21 33 -21 181 0 141 2 160 18 169 44 26 47 16 50 -170z m362 126 c0 -12 9 -30 20 -40 11 -10 20 -31 20 -47 0 -15 9 -37 20 -48 11 -11 20 -27 20 -36 0 -9 8 -28 18 -42 34 -50 57 -112 42 -112 -6 0 -10 5 -10 11 0 6 -13 23 -29 38 -16 15 -34 45 -40 66 -15 54 -66 105 -106 105 -39 0 -55 -16 -55 -56 0 -17 -6 -37 -14 -43 -8 -7 -18 -26 -21 -42 -7 -32 -53 -81 -67 -72 -5 3 -3 12 5 21 7 10 19 31 26 49 7 17 21 39 32 49 10 9 19 29 19 43 0 15 8 31 20 39 14 8 20 23 20 47 0 22 8 43 20 55 11 11 20 32 20 47 0 25 0 26 20 8 11 -10 20 -28 20 -40z m3240 -93 c6 -163 10 -172 86 -172 24 0 54 -4 69 -10 25 -9 25 -11 9 -35 -21 -32 -39 -32 -69 1 -22 24 -30 26 -72 21 -27 -3 -55 -8 -64 -12 -24 -9 -29 20 -29 182 0 117 3 144 16 158 9 9 24 15 33 13 14 -3 17 -25 21 -146z m-8795 58 c0 -44 -1 -80 -3 -80 -14 0 -64 34 -72 49 -15 29 -13 37 21 76 47 53 54 47 54 -45z m263 -26 c3 -95 1 -102 -23 -128 -15 -16 -25 -39 -25 -56 0 -20 -8 -34 -27 -47 -69 -47 -121 -55 -153 -23 -11 11 -30 20 -42 20 -16 0 -19 3 -11 11 8 8 17 8 31 0 33 -17 69 -13 122 15 50 26 50 26 50 75 l0 50 -70 -2 c-39 -1 -73 1 -77 5 -3 3 25 6 63 6 41 0 75 5 82 12 24 24 6 146 -21 149 -17 2 65 17 83 15 12 -1 16 -21 18 -102z m316 42 c4 -19 13 -39 21 -46 8 -7 15 -24 15 -37 0 -14 17 -57 38 -96 43 -80 54 -114 41 -122 -13 -9 -59 72 -59 104 0 20 -11 43 -31 66 -27 30 -37 35 -75 35 -41 0 -44 -2 -44 -26 0 -16 -11 -36 -25 -50 -16 -15 -25 -34 -25 -54 0 -21 -8 -38 -22 -51 -25 -20 -48 -25 -48 -9 0 14 50 102 71 126 11 11 19 30 19 41 0 11 9 32 20 46 11 14 20 38 20 54 0 32 7 43 35 59 26 15 41 3 49 -40z m10690 -345 c4 -5 25 -12 49 -16 46 -8 72 -26 93 -66 11 -22 12 -67 4 -245 -4 -121 -13 -239 -19 -264 -6 -25 -14 -121 -17 -215 l-6 -170 -31 -32 c-23 -24 -40 -33 -63 -33 -18 0 -36 -5 -40 -11 -4 -8 -9 -8 -17 0 -6 6 -21 11 -33 11 -13 0 -32 13 -46 33 -23 29 -25 44 -32 181 -4 95 -10 153 -18 157 -7 5 -14 86 -19 245 -5 150 -12 240 -19 242 -15 5 -12 36 7 74 9 18 19 40 23 48 8 17 57 43 120 63 25 9 59 7 64 -2z m-6084 -116 c10 -12 10 -21 2 -40 -14 -30 -22 -31 -45 -4 -17 20 -18 22 -1 40 21 23 28 24 44 4z m-3305 -545 c6 -4 42 -15 80 -25 39 -10 83 -29 98 -42 16 -13 34 -23 41 -23 6 0 31 -18 54 -40 35 -34 47 -40 86 -40 62 0 76 7 76 40 0 33 55 86 98 96 15 3 39 9 53 14 34 10 117 -5 141 -27 23 -20 23 -37 1 -59 -17 -16 -19 -58 -24 -494 -5 -458 -7 -478 -26 -506 -11 -16 -29 -50 -41 -75 -20 -48 -135 -168 -161 -169 -7 0 -26 -11 -43 -25 -16 -14 -37 -25 -46 -25 -9 0 -39 -14 -67 -30 -49 -29 -52 -30 -201 -30 -132 0 -158 3 -205 22 -30 12 -58 25 -63 30 -6 4 -25 8 -43 8 -24 0 -41 8 -58 26 -17 19 -38 28 -70 32 -44 5 -45 5 -45 41 0 43 23 114 39 119 6 2 11 10 11 18 0 19 20 18 35 -3 9 -11 32 -18 76 -21 43 -3 73 -11 92 -26 26 -19 42 -21 157 -21 114 0 131 2 157 21 15 11 45 23 66 27 67 11 84 38 91 147 9 135 13 132 -163 128 -78 -2 -141 0 -141 5 0 4 -14 7 -30 7 -18 0 -33 6 -36 14 -4 10 -29 17 -74 22 -46 4 -76 13 -89 25 -11 11 -26 19 -34 19 -8 0 -19 11 -25 25 -8 18 -20 25 -39 25 -38 1 -133 88 -133 123 0 13 -7 30 -15 37 -8 6 -21 36 -30 65 -8 29 -20 55 -26 57 -19 6 -22 90 -5 130 9 20 20 39 26 43 5 3 10 23 10 43 0 26 6 41 20 50 11 7 20 18 20 25 0 6 12 23 25 36 14 13 25 26 25 30 0 4 25 24 55 46 30 22 55 43 55 48 0 4 10 7 22 7 26 0 89 21 104 35 12 11 103 8 119 -5z m4533 1 c18 -20 72 -41 106 -41 12 0 44 -20 71 -45 28 -25 54 -45 58 -45 4 0 17 -9 29 -20 22 -20 70 -26 114 -14 11 3 29 20 39 37 36 61 77 93 130 103 44 9 108 4 121 -8 2 -3 7 -59 11 -126 3 -67 10 -122 16 -122 14 0 5 -629 -9 -638 -16 -10 -44 -112 -44 -159 0 -27 -6 -46 -20 -58 -11 -10 -20 -26 -20 -36 0 -34 -60 -107 -122 -150 -34 -23 -71 -50 -82 -60 -11 -11 -27 -19 -35 -19 -9 0 -45 -14 -79 -30 -62 -29 -68 -30 -213 -30 -140 0 -153 2 -200 25 -27 14 -52 32 -56 40 -6 18 -70 20 -75 3 -3 -8 -14 -3 -31 14 -15 15 -43 30 -62 34 -19 3 -37 10 -40 14 -2 4 5 23 15 43 12 21 20 56 20 82 0 55 12 62 65 35 21 -11 52 -20 68 -20 16 0 45 -9 63 -21 65 -40 330 -35 365 7 6 8 18 14 27 14 26 0 79 66 91 114 6 25 16 46 21 46 6 0 10 16 10 35 0 19 -4 35 -9 35 -5 0 -12 11 -15 25 l-6 25 -128 0 c-173 0 -233 8 -240 32 -3 15 -14 18 -57 18 -37 0 -60 6 -78 20 -14 11 -38 20 -55 20 -29 0 -53 20 -66 53 -3 11 -15 21 -26 24 -11 3 -20 9 -20 14 0 6 -8 13 -17 16 -35 13 -83 58 -83 78 0 11 -12 31 -25 44 -27 25 -28 41 -25 232 2 96 26 169 62 186 14 7 43 30 64 51 60 59 109 92 135 92 33 0 103 26 107 39 2 6 27 11 59 11 41 0 59 -5 71 -19z m2505 5 c18 -7 47 -19 65 -25 17 -6 44 -16 60 -21 l27 -10 -3 -114 -3 -113 -107 -5 c-111 -4 -162 -22 -162 -55 0 -8 -10 -29 -22 -46 -23 -31 -23 -38 -26 -372 -2 -223 1 -350 7 -369 l11 -27 104 7 c57 3 129 3 160 0 51 -7 56 -10 56 -32 0 -16 6 -24 16 -24 14 0 16 -10 12 -77 -3 -45 -10 -79 -17 -81 -6 -2 -11 -23 -11 -47 0 -30 -5 -45 -16 -49 -9 -3 -81 -6 -160 -6 l-144 0 0 -29 c0 -17 -5 -33 -11 -36 -7 -5 -10 -63 -8 -174 1 -92 -1 -173 -5 -179 -5 -8 -52 -12 -156 -12 -126 0 -149 2 -154 16 -3 9 -6 329 -6 712 1 585 3 701 15 722 9 15 14 54 15 98 0 58 4 79 20 99 11 14 20 36 20 48 0 25 80 105 105 105 8 0 22 11 31 25 9 14 22 25 30 25 17 0 85 31 102 48 18 16 116 15 155 -2z m-9098 -47 c28 -13 30 -19 36 -79 3 -36 13 -79 22 -97 9 -18 17 -52 17 -77 0 -50 12 -90 35 -112 9 -9 15 -34 15 -58 0 -25 10 -64 25 -94 17 -35 25 -69 25 -105 0 -33 7 -67 20 -92 12 -24 20 -59 20 -90 0 -31 8 -66 20 -90 11 -22 20 -55 20 -75 0 -46 18 -110 36 -127 8 -8 14 -34 14 -57 0 -62 10 -106 25 -106 7 0 14 -22 18 -58 9 -88 13 -94 61 -90 l41 3 5 136 c4 112 8 141 23 156 13 15 17 37 17 87 0 83 17 156 37 156 11 0 14 14 12 63 -1 44 5 77 21 117 12 30 26 83 30 118 4 34 14 70 23 80 10 12 16 44 19 103 2 65 7 92 21 106 10 12 17 36 17 61 0 68 12 87 103 163 20 17 37 36 37 43 0 21 112 39 192 31 83 -8 108 -24 108 -69 0 -18 9 -49 20 -71 11 -22 20 -59 20 -85 0 -26 9 -63 20 -85 13 -25 20 -59 20 -95 0 -39 6 -62 20 -80 11 -14 20 -41 20 -61 0 -34 11 -79 30 -124 5 -11 11 -44 13 -73 3 -34 12 -64 27 -84 12 -16 25 -49 27 -72 3 -22 14 -58 24 -78 11 -21 19 -58 19 -85 0 -29 8 -65 20 -88 11 -22 20 -59 20 -85 0 -25 9 -65 20 -89 11 -24 20 -57 20 -75 0 -43 15 -93 34 -112 9 -9 16 -32 16 -54 0 -21 4 -41 9 -44 13 -9 41 -101 41 -138 0 -18 9 -50 19 -70 11 -19 17 -39 14 -42 -4 -3 -78 -6 -165 -6 -119 0 -159 3 -162 12 -2 7 -11 36 -21 63 -10 28 -21 87 -25 133 -4 56 -11 86 -21 92 -9 6 -16 36 -20 95 -3 48 -9 90 -15 93 -24 18 -37 60 -35 114 1 32 -2 58 -7 58 -12 0 -33 93 -40 185 -4 44 -15 95 -25 114 -12 24 -17 58 -17 113 0 58 -4 80 -14 84 -21 8 -28 49 -26 141 2 107 -7 123 -68 123 l-47 0 -23 -94 c-17 -66 -23 -115 -21 -169 3 -67 1 -79 -16 -91 -17 -12 -20 -28 -22 -111 -2 -80 -5 -99 -20 -110 -15 -11 -19 -31 -22 -106 -2 -60 -8 -97 -17 -106 -27 -27 -47 -153 -24 -153 6 0 10 -7 10 -15 0 -8 -6 -15 -14 -15 -20 0 -59 -97 -63 -160 -3 -30 -11 -70 -20 -88 -10 -23 -14 -57 -12 -103 3 -46 -1 -73 -9 -81 -15 -15 -362 -25 -362 -11 0 5 -9 19 -21 32 -14 15 -25 47 -33 94 -6 40 -20 85 -31 101 -15 22 -18 43 -17 92 2 35 -1 64 -6 64 -13 0 -42 107 -42 155 0 26 -8 59 -20 80 -14 24 -20 54 -20 95 0 41 -6 71 -20 95 -14 25 -20 54 -20 100 0 57 -11 99 -31 115 -3 3 -9 38 -11 79 -3 40 -10 76 -15 80 -27 17 -40 68 -35 138 5 86 -6 103 -67 103 l-40 0 -7 -81 c-4 -54 -11 -82 -20 -86 -11 -4 -14 -29 -14 -99 0 -52 -4 -94 -9 -94 -13 0 -41 -99 -41 -144 0 -20 5 -36 10 -36 6 0 10 -7 10 -15 0 -8 -6 -15 -12 -15 -21 0 -58 -105 -58 -163 0 -30 -9 -70 -21 -97 -15 -34 -20 -64 -19 -125 2 -107 2 -105 -14 -105 -20 0 -27 -40 -25 -132 2 -65 -1 -81 -16 -92 -12 -9 -20 -32 -24 -77 l-6 -64 -170 -3 -171 -2 7 74 c3 41 13 85 21 98 9 13 17 54 20 95 2 49 9 77 21 91 12 13 17 36 17 77 0 67 18 125 38 125 10 0 13 16 12 63 -2 49 4 73 24 114 16 33 26 70 26 97 0 28 7 52 20 69 15 19 20 40 20 90 0 49 5 70 20 90 15 18 20 40 20 82 0 69 18 135 37 135 9 0 13 15 13 51 0 51 25 145 41 155 5 3 9 22 9 42 0 20 9 52 20 70 11 18 20 46 20 62 0 18 8 37 20 47 11 10 20 25 20 33 0 24 75 83 123 97 54 15 183 11 222 -8z m3410 -21 c3 -24 5 -443 3 -933 l-3 -890 -165 0 -165 0 -3 913 c-2 907 -2 914 18 919 11 3 20 12 20 19 0 11 28 14 144 14 l145 0 6 -42z m659 20 c3 -13 6 -220 6 -461 l0 -437 42 -68 c23 -37 45 -69 48 -72 3 -3 10 -14 16 -25 6 -11 24 -27 40 -35 16 -8 34 -22 41 -30 8 -11 36 -16 97 -19 71 -2 91 0 114 15 15 10 40 25 57 34 16 8 35 25 41 38 6 13 26 39 44 57 29 30 32 37 25 72 -4 21 -9 233 -12 471 -3 402 -2 434 14 457 18 24 20 24 169 25 l151 0 7 -37 c3 -21 6 -239 6 -484 0 -431 1 -447 20 -472 11 -14 20 -35 20 -47 0 -31 62 -90 94 -90 14 0 35 -9 46 -20 29 -29 175 -29 213 0 14 11 31 20 39 20 24 0 65 53 78 103 7 27 18 47 26 47 10 0 14 15 14 55 0 30 -4 55 -10 55 -7 0 -10 145 -10 415 0 360 2 416 15 421 8 4 15 12 15 20 0 11 29 14 154 14 l153 0 7 -46 c3 -26 6 -234 6 -463 0 -353 -3 -424 -16 -471 -9 -30 -19 -75 -21 -100 -3 -25 -13 -56 -23 -70 -9 -14 -23 -42 -29 -63 -9 -27 -29 -50 -74 -84 -34 -26 -68 -55 -75 -65 -7 -10 -21 -18 -30 -18 -10 0 -33 -13 -52 -30 -34 -28 -39 -29 -133 -30 -93 0 -101 2 -142 30 -24 17 -50 30 -59 30 -8 0 -23 11 -34 25 -11 14 -33 28 -48 31 -17 3 -55 31 -89 65 -54 53 -64 59 -102 59 -36 0 -43 -3 -43 -19 0 -11 -14 -27 -33 -39 -19 -10 -53 -42 -78 -71 -24 -28 -51 -51 -59 -51 -8 0 -37 -14 -65 -30 -45 -27 -59 -30 -136 -30 -83 0 -88 1 -132 35 -26 20 -57 35 -72 35 -18 0 -29 6 -32 20 -3 10 -14 22 -24 25 -11 4 -24 15 -29 26 -6 10 -17 19 -24 19 -8 0 -19 7 -26 15 -7 9 -29 15 -51 15 l-39 0 0 -49 c0 -39 -5 -56 -24 -75 -23 -25 -27 -26 -147 -26 -97 0 -130 4 -147 16 l-22 15 0 665 0 664 25 12 c14 6 25 15 25 20 0 4 60 8 134 8 130 0 134 -1 140 -22z m3886 -25 c9 -35 11 -162 10 -458 -2 -225 -2 -415 -1 -422 0 -7 12 -23 26 -37 14 -14 25 -28 25 -32 0 -13 43 -54 56 -54 6 0 14 -8 16 -18 7 -27 118 -57 213 -58 45 0 86 -4 93 -8 8 -5 12 -47 12 -138 0 -161 -4 -168 -94 -168 -56 0 -64 3 -99 35 -21 19 -42 35 -46 35 -15 0 -146 140 -151 163 -5 19 -12 22 -60 22 l-55 0 -3 -90 c-3 -122 -7 -125 -157 -125 l-112 0 -7 38 c-8 48 -8 1310 0 1340 6 22 9 22 164 22 l158 0 12 -47z m2255 25 c6 -24 73 -78 97 -78 16 0 109 -67 154 -110 16 -17 35 -30 40 -30 6 0 19 -9 29 -20 10 -11 27 -22 39 -26 11 -4 39 -21 61 -39 22 -17 66 -43 98 -58 31 -14 57 -31 57 -37 0 -16 72 -80 91 -80 9 0 28 -11 43 -25 25 -23 27 -30 21 -68 -10 -66 -13 -70 -59 -99 -39 -25 -47 -27 -96 -19 -31 5 -56 15 -62 25 -5 10 -22 16 -42 16 -18 0 -41 7 -52 15 -10 8 -27 15 -37 15 -10 0 -35 11 -55 25 -20 14 -42 25 -49 25 -6 0 -20 14 -30 30 -14 25 -24 30 -54 30 -29 0 -39 5 -44 20 -5 15 -15 20 -39 20 -20 0 -40 8 -50 19 -11 12 -36 21 -64 24 -82 8 -122 28 -165 82 -21 28 -48 53 -58 57 -28 11 -25 63 6 100 14 16 25 42 25 58 0 21 15 43 61 89 50 51 66 61 94 61 28 0 36 -5 40 -22z m2490 10 c32 -29 45 -38 52 -38 13 -1 74 -89 84 -123 5 -18 14 -47 20 -65 15 -45 -17 -114 -63 -138 -18 -9 -39 -25 -45 -34 -7 -10 -27 -20 -45 -23 -79 -13 -120 -26 -131 -40 -7 -8 -32 -17 -56 -20 -24 -3 -47 -10 -50 -15 -3 -5 -21 -14 -38 -20 -18 -6 -43 -20 -55 -32 -13 -12 -39 -30 -58 -39 -19 -10 -58 -30 -86 -45 -29 -14 -64 -26 -79 -26 -14 0 -46 -12 -70 -26 -31 -18 -51 -23 -67 -18 -21 6 -34 15 -105 71 -52 41 -20 122 56 143 34 9 90 57 102 87 5 12 73 53 89 53 7 0 35 18 62 40 28 22 55 40 60 40 6 0 31 17 57 39 25 21 72 55 104 75 32 21 61 44 64 52 3 8 11 14 17 14 27 0 102 48 114 73 14 29 44 35 67 15z m-1796 -1194 c32 -36 41 -55 41 -83 0 -44 -31 -97 -62 -107 -13 -4 -41 -22 -63 -40 -22 -18 -64 -44 -93 -59 -29 -15 -71 -46 -94 -71 -22 -24 -64 -55 -93 -69 -29 -14 -62 -35 -73 -46 -12 -10 -28 -19 -37 -19 -8 0 -15 -4 -15 -10 0 -5 -6 -10 -14 -10 -8 0 -28 -17 -44 -38 -44 -55 -152 -112 -213 -112 l-48 0 -39 68 c-22 37 -43 77 -46 89 -4 12 -16 25 -27 28 -30 10 -26 75 6 105 14 13 25 29 25 36 0 7 13 15 29 19 16 3 37 15 47 26 9 10 27 19 38 19 12 0 35 14 53 30 18 17 41 30 51 30 11 0 25 6 31 14 6 7 32 16 57 20 25 3 57 15 71 26 14 11 32 20 40 20 8 0 26 9 40 20 14 11 38 20 54 20 15 0 31 5 35 11 3 6 25 19 48 29 22 9 50 27 60 39 11 11 30 21 43 21 14 0 36 9 50 20 16 12 41 20 63 20 33 0 44 -7 79 -46z m1169 26 c12 -11 35 -20 51 -20 22 0 36 -8 53 -30 12 -17 31 -30 43 -30 12 0 30 -8 39 -19 9 -10 35 -21 58 -24 23 -3 45 -12 50 -21 5 -8 24 -18 43 -22 19 -3 39 -12 45 -19 6 -8 30 -16 53 -20 23 -4 52 -13 64 -21 12 -8 28 -14 34 -14 7 0 25 -13 41 -30 17 -18 38 -30 54 -30 14 0 39 -11 56 -25 16 -14 38 -25 49 -25 20 0 42 -36 53 -86 9 -40 -61 -200 -99 -227 -36 -27 -107 -34 -124 -13 -7 9 -28 16 -45 16 -33 1 -66 20 -66 38 0 20 -61 82 -81 82 -10 0 -22 6 -26 13 -16 24 -72 57 -115 66 -24 6 -47 18 -53 27 -17 30 -78 83 -103 89 -13 3 -42 24 -65 45 -22 22 -47 40 -54 40 -27 0 -106 61 -125 97 -18 33 -19 42 -8 73 6 19 30 52 53 72 48 43 91 49 125 18z m-548 -380 c26 -28 27 -31 33 -207 3 -98 12 -209 21 -248 8 -40 17 -152 20 -261 6 -180 5 -193 -14 -216 -10 -14 -34 -31 -52 -39 -18 -7 -39 -21 -46 -31 -11 -16 -25 -18 -75 -16 -53 3 -63 6 -72 26 -5 12 -17 22 -26 22 -10 0 -29 15 -43 32 -14 18 -33 40 -41 49 -19 20 -19 39 -1 39 17 0 26 103 26 321 0 138 3 169 15 176 11 7 16 43 21 168 l7 160 31 33 c31 34 31 34 100 27 59 -6 73 -11 96 -35z">
			</path>
			<path id="p4HVDqpoh" d="M8024 3525 c-3 -7 -4 -30 -2 -51 4 -51 50 -84 118 -84 38 0 51 5 74 29 23 24 27 36 24 72 l-3 44 -103 2 c-77 1 -105 -2 -108 -12z">
			</path>
			<path id="pcXZAyB6F" d="M8786 3695 c-21 -7 -43 -20 -48 -27 -5 -7 -7 -58 -6 -114 4 -130 11 -139 116 -139 51 0 77 4 80 13 2 6 10 12 17 12 7 0 24 15 39 34 39 52 36 116 -8 177 -27 37 -42 47 -73 52 -54 9 -73 8 -117 -8z">
			</path>
			<path id="pKIBztGU6" d="M3983 2411 c-12 -6 -40 -34 -62 -64 -40 -52 -41 -56 -41 -132 0 -89 9 -106 108 -202 46 -46 60 -54 110 -62 31 -5 70 -14 85 -20 45 -17 208 -14 235 5 22 15 22 19 17 137 -4 67 -13 138 -20 157 -7 19 -16 47 -19 62 -4 16 -23 38 -48 57 -24 16 -51 38 -60 47 -15 14 -42 18 -150 21 -73 2 -143 -1 -155 -6z">
			</path>
			<path id="pjpuyNuac" d="M8560 2421 c-14 -5 -38 -9 -53 -10 -37 -1 -83 -36 -107 -83 -24 -47 -27 -149 -5 -192 8 -15 15 -39 15 -51 0 -17 14 -32 53 -56 28 -18 62 -41 74 -52 28 -25 134 -48 255 -54 91 -5 96 -4 103 16 3 12 10 21 15 21 5 0 9 65 9 145 0 80 -4 145 -8 145 -5 0 -14 14 -21 31 -7 17 -36 54 -63 82 -46 47 -54 52 -101 54 -28 2 -71 5 -96 8 -25 2 -56 0 -70 -4z">
			</path>
		</g>
	</g>
	<g id="lgfYU45dYZ4FwPf7BNH32h" fill="rgb(255,192,28)" style="transform: none;">
		<g style="transform: none;">
			<path id="pp5Zwyg5Q" d="M13325 3353 c-11 -3 -24 -9 -29 -14 -6 -5 -18 -9 -27 -9 -24 0 -79 -48 -73 -64 3 -7 -5 -25 -18 -41 -23 -30 -32 -55 -19 -55 4 0 6 -13 3 -30 -3 -22 0 -30 10 -30 18 0 27 -104 29 -333 1 -113 5 -149 15 -155 10 -6 16 -47 20 -157 7 -138 9 -153 32 -182 15 -21 33 -33 48 -33 12 0 26 -4 29 -10 8 -13 72 -13 80 1 4 5 19 8 34 4 21 -4 33 1 64 33 l37 38 5 169 c2 94 10 190 16 215 6 25 14 135 19 246 4 111 11 210 14 222 10 30 -10 96 -39 130 -18 22 -37 32 -70 36 -24 4 -47 11 -50 17 -6 9 -93 11 -130 2z">
			</path>
			<path id="poI2dwOml" d="M12021 2609 c-45 -45 -61 -68 -61 -89 0 -15 -13 -44 -31 -66 -20 -25 -28 -45 -25 -59 3 -11 6 -35 6 -53 0 -23 6 -35 19 -40 10 -4 37 -29 58 -57 43 -54 83 -74 165 -82 28 -3 53 -12 64 -24 10 -11 30 -19 50 -19 24 0 34 -5 39 -20 6 -20 20 -25 60 -22 13 1 27 -9 38 -28 10 -16 24 -30 30 -30 7 0 29 -11 49 -25 20 -14 45 -25 55 -25 10 0 27 -7 37 -15 11 -8 34 -15 51 -15 18 0 37 -8 47 -19 12 -14 36 -21 92 -26 73 -7 78 -6 119 21 57 39 63 49 65 103 0 26 2 52 3 57 7 38 -35 94 -70 94 -19 0 -91 64 -91 80 0 6 -26 23 -57 37 -32 15 -76 41 -98 58 -22 18 -50 35 -61 39 -12 4 -29 15 -39 26 -10 11 -23 20 -29 20 -5 0 -24 13 -40 30 -45 43 -138 110 -154 110 -24 0 -91 54 -97 78 -5 20 -11 22 -70 22 l-64 0 -60 -61z">
			</path>
			<path id="peIx26u0u" d="M14578 2643 c-12 -25 -87 -73 -114 -73 -6 0 -14 -6 -17 -14 -3 -8 -32 -31 -64 -52 -32 -20 -79 -54 -104 -75 -26 -22 -51 -39 -57 -39 -5 0 -32 -18 -60 -40 -27 -22 -55 -40 -62 -40 -16 0 -84 -41 -89 -53 -12 -30 -68 -78 -102 -87 -25 -7 -48 -23 -65 -46 -24 -30 -26 -41 -21 -85 6 -52 12 -60 88 -118 45 -35 117 -40 166 -11 21 12 53 24 72 26 19 3 57 16 85 31 28 14 67 34 86 44 19 9 45 27 58 39 12 12 37 26 55 32 17 6 35 15 38 20 3 4 24 10 48 12 26 3 50 12 62 24 11 13 26 18 38 15 11 -3 30 2 43 11 12 9 35 16 50 16 15 0 33 8 40 19 7 10 27 25 45 34 22 12 42 36 63 79 31 60 31 63 15 90 -9 15 -22 49 -28 76 -12 45 -73 141 -90 142 -5 0 -15 6 -22 13 -8 6 -21 18 -29 25 -8 6 -38 12 -65 12 -44 0 -51 -3 -63 -27z">
			</path>
			<path id="pUXBmP4vs" d="M12707 1490 c-14 -11 -36 -20 -50 -20 -13 0 -32 -10 -43 -21 -10 -12 -38 -30 -60 -39 -23 -10 -45 -23 -48 -29 -4 -6 -20 -11 -35 -11 -16 0 -40 -9 -54 -20 -14 -11 -32 -20 -40 -20 -8 0 -26 -9 -40 -20 -14 -11 -44 -22 -67 -24 -22 -2 -49 -11 -59 -20 -9 -9 -25 -16 -35 -16 -9 0 -31 -13 -49 -30 -18 -16 -41 -30 -51 -30 -11 0 -29 -8 -40 -19 -12 -10 -34 -23 -51 -28 -16 -5 -28 -12 -25 -16 3 -3 -9 -21 -26 -39 -28 -31 -30 -37 -26 -95 3 -47 8 -64 20 -68 10 -3 33 -37 52 -76 53 -108 62 -116 145 -113 58 2 80 9 138 41 38 20 82 54 99 75 16 21 36 38 44 38 8 0 14 5 14 10 0 6 7 10 15 10 9 0 25 9 37 19 11 11 44 31 73 45 28 14 73 48 99 76 26 28 52 48 57 45 5 -4 9 -3 9 2 0 4 14 14 30 22 17 7 52 30 78 50 26 20 60 42 75 49 39 17 65 82 59 149 -3 44 -11 60 -44 98 l-40 45 -68 0 c-52 0 -73 -4 -93 -20z">
			</path>
			<path id="p1EJaOVM4e" d="M13894 1472 c-23 -20 -49 -56 -58 -80 -17 -44 -19 -102 -3 -102 4 0 6 -4 3 -9 -3 -5 1 -12 10 -15 8 -3 13 -10 9 -15 -6 -11 97 -81 118 -81 7 0 32 -18 54 -40 23 -21 52 -42 65 -45 21 -6 54 -34 119 -102 12 -13 32 -21 48 -21 27 1 88 -34 104 -59 4 -7 16 -13 26 -13 21 0 81 -63 81 -84 0 -17 48 -42 72 -38 11 2 28 -4 37 -12 21 -19 141 -30 141 -13 0 6 3 8 6 4 8 -7 74 41 74 54 0 5 21 53 46 106 39 82 45 100 34 116 -6 11 -13 28 -15 39 -8 39 -40 81 -63 83 -12 1 -33 11 -45 23 -13 12 -35 22 -50 22 -17 0 -38 11 -55 30 -16 17 -34 30 -41 30 -6 0 -24 8 -38 17 -15 10 -42 19 -61 20 -19 1 -42 8 -51 16 -9 8 -31 18 -48 22 -18 3 -37 13 -41 22 -5 8 -27 17 -50 20 -23 3 -49 14 -58 24 -9 11 -27 19 -39 19 -12 0 -31 13 -43 30 -17 22 -31 30 -53 30 -16 0 -39 9 -51 20 -17 16 -35 20 -82 20 -56 -1 -64 -4 -102 -38z">
			</path>
			<path id="pafV4Ghq7" d="M13274 1118 l-31 -33 -7 -159 c-5 -131 -9 -161 -23 -171 -14 -11 -16 -33 -14 -166 3 -201 -7 -329 -25 -329 -19 0 -18 -79 1 -99 8 -9 27 -31 41 -49 14 -17 33 -32 43 -32 9 0 21 -10 26 -22 9 -21 19 -24 95 -28 75 -4 87 -3 106 15 12 11 39 29 60 40 65 34 75 64 64 181 -5 54 -10 151 -10 214 0 65 -7 141 -15 175 -9 34 -18 139 -22 243 l-6 183 -30 32 c-28 30 -32 31 -125 35 l-97 3 -31 -33z">
			</path>
		</g>
	</g>
	<g id="l5LLEuEd8Pesbl3plly9Wcm" fill="rgb(17,114,209)" style="transform: none;">
		<g style="transform: none;">
			<path id="pA6QAAR8b" d="M6033 4007 c-26 -26 -29 -40 -10 -56 8 -6 19 -28 25 -50 7 -21 18 -44 25 -50 10 -8 12 -26 6 -73 -4 -37 -4 -64 2 -66 14 -6 11 -22 -5 -22 -17 0 -27 -22 -33 -80 -3 -27 -13 -54 -26 -68 -14 -15 -20 -34 -19 -54 2 -20 -6 -42 -23 -64 -24 -31 -35 -71 -16 -60 5 3 8 -2 7 -12 -1 -13 8 -18 37 -20 24 -2 37 1 37 9 0 7 3 9 7 6 6 -6 38 30 38 43 0 21 41 90 53 90 11 0 13 9 9 39 -5 44 3 64 24 56 18 -8 49 -69 49 -100 0 -25 30 -85 43 -85 4 0 7 -11 7 -24 0 -39 80 -50 121 -17 l24 19 -21 29 c-11 15 -27 45 -34 66 -6 22 -18 51 -26 65 -7 14 -11 29 -8 34 3 4 -11 25 -30 45 -27 29 -34 43 -29 61 4 16 -2 31 -17 47 -14 15 -24 38 -24 57 -1 18 -9 44 -19 58 -9 13 -17 37 -17 52 0 25 -42 91 -84 134 -20 20 -47 17 -73 -9z">
			</path>
			<path id="pvKKyVrNJ" d="M1656 3771 c-94 -27 -127 -88 -78 -143 22 -25 38 -22 62 12 20 28 25 30 89 30 66 0 70 -1 94 -34 l26 -33 -22 -30 c-25 -36 -76 -73 -101 -73 -10 0 -30 -8 -44 -18 -15 -10 -34 -21 -43 -25 -9 -3 -30 -22 -45 -43 -25 -33 -30 -48 -34 -123 -5 -83 -4 -87 21 -111 79 -75 107 -90 167 -88 47 1 106 20 117 38 3 6 23 10 44 10 30 0 40 5 51 24 11 22 9 28 -15 60 -37 49 -63 55 -89 23 -12 -14 -40 -33 -63 -42 -37 -15 -44 -15 -70 -2 -27 15 -69 57 -57 57 4 0 1 6 -5 14 -18 22 27 79 69 87 52 9 109 37 135 65 12 13 26 24 31 24 15 0 64 57 64 74 0 8 9 20 20 26 24 13 27 63 5 100 -8 14 -19 35 -24 47 -13 29 -44 48 -116 73 -68 24 -109 24 -189 1z">
			</path>
			<path id="p181ct5MTc" d="M2130 3769 c-58 -31 -90 -73 -90 -120 0 -55 14 -77 63 -101 23 -11 53 -26 67 -34 18 -11 41 -13 83 -9 52 5 57 4 57 -13 0 -14 -16 -28 -49 -46 l-49 -25 -26 20 c-24 19 -27 19 -56 4 -34 -18 -65 -59 -55 -75 3 -5 21 -10 40 -10 19 0 35 -6 38 -14 3 -8 25 -20 48 -26 76 -21 199 35 199 90 0 17 10 40 25 56 24 26 25 32 25 156 0 128 0 128 -26 140 -19 9 -33 9 -55 1 -24 -10 -41 -8 -87 7 -69 24 -106 23 -152 -1z m145 -69 c3 -11 10 -20 15 -20 5 0 14 -16 20 -35 16 -49 3 -62 -64 -63 -47 0 -55 2 -60 21 -11 40 -6 85 10 101 23 23 71 21 79 -4z">
			</path>
			<path id="p10YVMebXB" d="M2669 3783 c-1 -5 0 -16 1 -26 1 -11 -7 -21 -18 -24 -23 -6 -44 -46 -36 -67 3 -8 -5 -30 -19 -48 -13 -18 -22 -39 -20 -46 3 -7 -4 -23 -15 -35 -11 -12 -32 -44 -47 -72 -15 -27 -30 -54 -33 -60 -21 -34 5 -75 46 -75 14 0 41 10 59 23 26 17 33 29 33 55 0 22 8 40 25 56 14 14 25 34 25 50 0 36 22 33 59 -9 20 -23 31 -46 31 -66 0 -16 11 -47 25 -69 21 -34 30 -40 59 -40 32 0 70 23 63 38 -2 4 -8 18 -13 32 -6 14 -30 62 -53 108 -24 48 -40 90 -36 101 3 11 -3 25 -15 36 -11 10 -22 32 -26 50 -9 49 -90 123 -95 88z">
			</path>
			<path id="p1GqBffv3S" d="M3080 3771 c-46 -16 -100 -59 -100 -79 0 -6 -12 -28 -26 -49 -15 -23 -24 -47 -21 -60 2 -13 1 -23 -3 -23 -11 0 12 -72 27 -88 8 -8 21 -28 29 -45 20 -37 53 -66 75 -67 9 0 19 -7 22 -14 7 -19 78 -39 103 -29 11 3 32 17 47 30 16 13 40 26 53 29 17 4 33 23 51 57 14 28 31 57 39 65 16 16 18 50 4 72 -8 12 -37 15 -157 15 l-147 0 0 30 c0 24 6 33 34 47 44 21 60 22 109 2 36 -14 42 -14 68 0 15 8 36 18 46 22 24 9 21 36 -5 54 -29 18 -145 50 -178 48 -14 0 -45 -8 -70 -17z m150 -276 c8 -5 -1 -20 -29 -46 -45 -43 -48 -43 -105 5 -43 36 -25 51 57 50 36 -1 71 -5 77 -9z">
			</path>
			<path id="p1CbqlXnlS" d="M4583 3769 c-44 -20 -112 -80 -131 -116 -17 -32 -16 -168 2 -182 8 -7 17 -23 20 -36 6 -23 78 -75 105 -75 7 0 20 -9 29 -20 10 -11 33 -23 52 -26 29 -4 45 1 96 34 57 38 114 98 114 121 0 5 7 14 15 18 12 7 13 18 7 55 -5 25 -8 58 -6 74 6 52 -73 136 -148 159 -66 19 -103 18 -155 -6z m184 -134 c12 -19 27 -51 32 -71 9 -33 8 -38 -16 -58 -14 -11 -36 -31 -48 -43 -46 -47 -122 -22 -159 52 -23 45 -24 51 -11 72 8 12 15 29 15 37 0 28 42 46 105 46 57 -1 61 -2 82 -35z">
			</path>
			<path id="p4hYXwfnS" d="M5636 3781 c-3 -5 -18 -12 -33 -16 -15 -3 -37 -17 -48 -29 -12 -13 -26 -25 -31 -27 -5 -2 -22 -32 -39 -67 -28 -60 -36 -128 -17 -142 14 -10 42 -59 42 -73 0 -14 71 -67 90 -67 5 0 10 -4 10 -10 0 -5 17 -17 38 -25 41 -18 93 -13 112 10 7 9 30 25 51 37 22 12 39 28 39 35 0 7 18 31 41 54 30 30 40 47 37 67 -6 53 -20 57 -176 56 -157 0 -176 6 -148 49 32 48 95 59 167 31 l41 -17 29 32 c16 18 29 38 29 45 0 36 -215 88 -234 57z m135 -287 c8 -4 -2 -19 -27 -41 -51 -44 -89 -42 -121 6 -12 18 -21 36 -19 40 6 9 153 4 167 -5z">
			</path>
			<path id="p12Gzqmk0R" d="M6416 3775 c-29 -22 -24 -112 8 -144 l24 -23 35 28 c20 15 38 39 42 51 3 13 10 21 15 18 6 -3 10 1 10 10 0 9 -4 14 -9 11 -4 -3 -13 6 -19 20 -11 23 -48 44 -75 44 -7 0 -21 -7 -31 -15z">
			</path>
			<path id="pppYSXSh9" d="M8058 3772 c-59 -21 -108 -66 -101 -93 3 -11 -2 -28 -12 -39 -25 -28 -32 -114 -11 -135 9 -9 19 -35 23 -58 7 -46 44 -87 78 -87 13 0 25 -7 28 -14 3 -8 24 -20 46 -26 42 -11 81 -2 114 27 9 9 27 17 40 18 13 1 31 15 44 36 12 19 30 43 40 54 21 21 29 90 14 114 -7 10 -43 13 -159 13 -177 -1 -194 6 -137 57 45 39 75 46 128 32 60 -17 97 -11 110 16 5 12 14 20 19 17 15 -9 5 28 -12 46 -8 9 -22 15 -30 13 -8 -2 -35 3 -59 12 -55 19 -103 18 -163 -3z m150 -284 c1 -8 -11 -26 -27 -42 -23 -22 -36 -27 -55 -22 -35 9 -80 50 -74 67 8 20 152 17 156 -3z">
			</path>
			<path id="pPY7B3hnw" d="M8813 3779 c-16 -16 -86 -30 -97 -19 -18 18 -75 11 -86 -9 -15 -30 -13 -601 3 -622 32 -41 84 -50 113 -18 16 18 18 34 16 117 -2 71 2 104 13 122 11 19 14 21 15 8 0 -10 11 -25 25 -34 29 -19 92 -12 127 15 13 10 32 21 43 25 23 7 65 64 65 89 0 8 4 18 9 21 5 3 8 47 7 98 -1 82 -4 98 -29 139 -26 44 -32 47 -95 63 -78 19 -114 20 -129 5z m133 -158 c18 -25 34 -54 34 -64 0 -23 -48 -87 -65 -87 -7 0 -15 -6 -17 -12 -3 -8 -23 -13 -50 -13 -65 0 -82 21 -86 109 -1 39 1 77 6 84 13 20 78 39 113 34 22 -3 40 -17 65 -51z">
			</path>
			<path id="pb55KleLm" d="M9280 3771 c-43 -14 -63 -28 -93 -67 -31 -39 -38 -53 -33 -77 3 -16 6 -60 6 -96 0 -50 4 -72 18 -87 9 -10 22 -31 29 -45 7 -17 22 -28 43 -32 17 -4 39 -16 48 -26 28 -33 71 -35 127 -6 28 14 55 25 60 25 6 1 25 13 43 29 31 26 33 33 35 100 2 44 -1 75 -8 81 -6 5 -75 10 -153 11 -78 1 -145 5 -148 10 -9 15 34 66 67 79 25 11 41 11 83 1 90 -21 99 -20 118 19 17 33 17 35 0 51 -42 40 -166 56 -242 30z m146 -283 c8 -12 -48 -68 -69 -68 -6 1 -28 14 -47 31 -29 24 -32 31 -20 39 21 14 127 12 136 -2z">
			</path>
			<path id="pZNFjeo6w" d="M9755 3764 c-85 -57 -85 -56 -85 -171 0 -58 4 -103 10 -103 13 0 -31 -45 -51 -52 -9 -4 -19 -18 -21 -32 -4 -21 3 -35 32 -64 36 -35 38 -41 33 -85 -7 -56 14 -87 56 -87 50 0 71 25 71 83 0 55 20 97 46 97 8 0 14 -4 14 -10 0 -17 29 -11 47 10 10 11 23 20 30 20 7 0 13 9 13 20 0 11 -7 20 -16 20 -8 0 -13 4 -10 8 3 5 -6 19 -21 32 -20 17 -34 21 -59 17 -21 -4 -36 -1 -41 6 -4 7 -6 48 -4 92 3 97 15 115 70 108 33 -5 43 -1 70 26 45 44 32 64 -52 79 -86 16 -86 16 -132 -14z">
			</path>
			<path id="pgpq9nZn8" d="M10138 3771 c-57 -27 -76 -49 -87 -102 -14 -63 -14 -156 -1 -164 7 -4 6 -13 -1 -26 -6 -12 -13 -18 -16 -15 -12 12 -32 -31 -33 -70 0 -28 6 -46 20 -59 15 -13 20 -31 20 -67 0 -79 52 -116 125 -88 25 9 26 13 19 55 -3 25 -3 61 1 81 l6 36 54 -4 c50 -4 54 -3 60 19 3 13 10 21 15 18 6 -3 9 5 8 19 -1 14 -12 30 -25 37 -13 7 -23 16 -23 21 0 4 -20 8 -44 8 -53 0 -56 5 -56 110 0 92 11 105 79 94 39 -6 40 -6 50 32 12 42 2 64 -30 64 -10 0 -21 5 -24 10 -10 15 -76 10 -117 -9z">
			</path>
			<path id="pCiOqDpQl" d="M10500 3771 c-54 -19 -100 -60 -100 -89 0 -11 -6 -27 -13 -34 -22 -21 -40 -86 -32 -115 3 -15 15 -39 26 -54 10 -15 19 -36 19 -48 0 -22 57 -71 82 -71 9 0 18 -6 21 -13 3 -7 23 -19 46 -25 38 -12 45 -11 103 19 68 35 108 66 108 84 0 6 9 18 20 28 17 15 20 27 18 74 l-3 57 -147 -1 c-86 -1 -150 3 -154 8 -13 21 7 56 41 72 44 21 72 21 119 2 28 -12 41 -13 57 -4 25 13 59 46 59 57 0 17 -37 42 -62 42 -14 0 -42 7 -61 15 -45 19 -88 17 -147 -4z m148 -281 c6 -17 -49 -70 -72 -70 -12 1 -36 14 -55 30 -48 41 -33 56 55 53 42 -1 70 -6 72 -13z">
			</path>
			<path id="pxMbgQuxO" d="M11142 3767 c-12 -13 -25 -37 -28 -55 -6 -27 -3 -33 19 -41 14 -5 27 -21 31 -35 3 -14 12 -26 19 -26 23 0 77 74 77 104 0 24 -50 76 -74 76 -12 0 -32 -10 -44 -23z">
			</path>
			<path id="pFKBo07bo" d="M4010 3773 c-44 -16 -47 -28 -44 -157 3 -119 2 -124 -20 -144 -31 -26 -58 -34 -90 -26 l-26 6 0 144 c0 136 -1 144 -22 158 -27 19 -111 21 -126 3 -6 -7 -11 -87 -12 -203 -1 -176 1 -192 18 -208 20 -18 72 -14 72 6 0 5 5 6 10 3 6 -3 10 -1 10 4 0 18 22 12 63 -16 52 -36 106 -37 142 -3 22 21 36 25 83 24 34 0 57 -5 60 -12 2 -7 16 -19 32 -27 30 -16 73 -8 116 20 13 8 24 12 24 8 0 -3 13 8 29 26 l30 33 3 167 c2 91 -1 171 -5 178 -14 20 -58 25 -83 8 -23 -15 -24 -20 -24 -133 0 -99 -3 -122 -20 -149 -25 -42 -59 -50 -107 -26 l-38 18 -2 139 c-1 77 -6 143 -10 147 -13 11 -47 18 -63 12z">
			</path>
			<path id="p3KMJ5o7Q" d="M5292 3764 c-21 -14 -22 -23 -22 -132 0 -98 -3 -122 -19 -149 -24 -38 -53 -49 -92 -33 -26 11 -31 17 -28 37 0 3 -6 10 -15 15 -20 11 -21 28 -1 28 12 0 15 18 15 103 -1 97 -2 103 -25 120 -18 13 -39 17 -73 15 l-47 -3 -5 -203 c-3 -133 -1 -210 6 -223 10 -20 10 -20 29 1 10 11 25 18 32 16 7 -3 13 -2 13 2 0 15 73 -1 91 -19 37 -37 64 -34 166 19 57 30 61 42 64 227 l4 169 -25 13 c-32 16 -41 16 -68 -3z">
			</path>
			<path id="pHPANxHRh" d="M7283 3765 l-32 -14 -3 -188 c-3 -185 -3 -188 20 -210 27 -27 83 -31 102 -8 8 10 12 72 12 212 0 198 0 198 -23 210 -30 16 -36 16 -76 -2z">
			</path>
			<path id="pvJU3MdA6" d="M10890 3769 c-13 -6 -28 -15 -32 -22 -13 -21 -9 -359 5 -387 15 -30 42 -37 65 -17 27 23 71 30 78 12 8 -19 56 -45 84 -45 30 0 77 55 76 88 -1 33 -35 52 -97 52 -80 0 -84 8 -85 167 -1 135 -2 138 -25 150 -28 15 -36 15 -69 2z">
			</path>
			<path id="p1AzMnK9iZ" d="M6800 3758 c-4 -287 2 -643 10 -652 12 -16 69 -8 93 12 15 14 17 40 17 272 l0 257 24 13 c16 8 38 10 61 6 25 -5 35 -4 30 3 -4 7 10 11 40 11 25 0 44 -4 41 -9 -6 -9 54 1 73 13 20 13 12 53 -14 70 -20 13 -55 16 -200 16 -133 0 -175 -3 -175 -12z">
			</path>
			<path id="pLMbiA8tp" d="M7639 3768 c0 -2 -2 -16 -3 -32 -1 -15 -9 -34 -19 -41 -11 -8 -17 -26 -17 -49 0 -25 -6 -40 -20 -48 -12 -8 -20 -24 -20 -39 0 -15 -7 -33 -17 -40 -9 -8 -24 -32 -34 -55 -10 -22 -27 -49 -39 -59 -21 -19 -28 -41 -8 -29 7 4 8 3 4 -5 -12 -19 14 -41 48 -41 39 0 82 38 91 80 4 16 15 36 26 43 14 11 18 21 13 44 -4 19 -1 33 9 41 12 10 21 5 51 -28 20 -22 36 -47 36 -56 0 -24 42 -94 52 -88 5 3 12 -4 15 -16 5 -18 12 -21 47 -18 57 4 59 24 14 112 -7 12 -6 16 1 11 18 -11 12 0 -19 35 -17 19 -28 41 -25 48 3 8 -6 25 -20 38 -16 14 -25 34 -25 52 0 16 -9 37 -20 47 -11 10 -19 26 -18 36 5 28 -31 59 -69 59 -18 0 -33 -1 -34 -2z">
			</path>
			<path id="pZR9aGXze" d="M7271 3237 c-22 -24 -41 -48 -41 -54 0 -7 15 -28 33 -48 42 -46 82 -46 108 0 24 43 14 88 -26 119 l-32 25 -42 -42z">
			</path>
			<path id="po7OadcJP" d="M3888 2697 c-17 -15 -78 -37 -106 -37 -12 0 -22 -3 -22 -7 0 -5 -25 -26 -55 -48 -30 -22 -55 -42 -55 -46 0 -4 -11 -17 -25 -30 -13 -13 -25 -30 -25 -36 0 -7 -11 -20 -25 -29 -21 -14 -25 -22 -20 -46 5 -19 2 -35 -7 -46 -29 -34 -40 -81 -36 -154 2 -44 9 -73 16 -76 7 -2 19 -28 27 -57 9 -29 22 -59 30 -65 8 -7 15 -24 15 -38 0 -13 10 -34 23 -46 78 -71 101 -87 118 -83 14 4 24 -3 35 -25 10 -19 21 -28 30 -24 8 3 14 2 14 -2 0 -15 40 -31 90 -37 73 -8 74 -8 86 -23 5 -8 22 -15 37 -15 15 -1 27 -5 27 -9 0 -3 63 -4 140 -1 129 6 142 5 154 -13 9 -11 12 -32 8 -54 -3 -19 -4 -48 -4 -64 2 -39 -35 -75 -85 -83 -21 -3 -49 -14 -62 -25 -14 -10 -32 -16 -43 -13 -10 4 -18 2 -18 -4 0 -14 -113 -15 -159 -1 -19 5 -43 17 -53 27 -15 13 -37 18 -80 18 -47 0 -62 4 -74 19 -23 32 -109 33 -91 1 1 -2 -5 -10 -13 -17 -41 -34 -59 -194 -26 -227 14 -13 18 -14 25 -2 11 18 49 5 78 -25 15 -16 33 -24 56 -24 18 0 37 -4 43 -8 5 -5 33 -18 63 -30 48 -20 72 -22 235 -22 l181 0 50 30 c28 16 58 30 67 30 9 0 30 11 46 25 17 14 36 25 43 25 19 0 146 124 154 150 3 11 14 20 23 20 14 0 15 2 2 10 -12 8 -10 16 16 52 l30 43 2 445 c3 458 6 505 29 528 20 20 17 96 -6 116 -30 27 -134 41 -200 26 -31 -8 -68 -19 -82 -26 -37 -19 -79 -71 -72 -90 7 -18 -12 -34 -40 -34 -10 0 -37 18 -59 40 -23 22 -48 40 -54 40 -7 0 -27 12 -44 27 -18 15 -40 27 -49 28 -35 3 -116 28 -126 40 -14 16 -160 19 -177 2z m302 -317 c0 -4 12 -5 27 -2 16 3 30 -1 37 -9 6 -8 30 -27 54 -43 44 -30 66 -58 55 -70 -4 -3 3 -23 14 -44 16 -29 22 -59 25 -135 3 -88 1 -100 -16 -113 -40 -29 -221 -7 -249 30 -6 8 -10 7 -14 -1 -9 -24 -55 -1 -113 57 -80 79 -95 105 -96 164 -1 45 3 58 38 104 22 29 49 57 61 62 27 10 177 10 177 0z">
			</path>
			<path id="p5p9WKA1I" d="M8408 2699 c-4 -13 -74 -39 -107 -39 -26 0 -75 -33 -135 -92 -21 -21 -50 -44 -64 -51 -46 -22 -62 -89 -63 -267 -1 -195 -3 -182 23 -210 13 -13 22 -31 20 -40 -3 -16 57 -70 91 -83 9 -3 17 -13 17 -22 0 -9 7 -15 16 -13 10 2 24 -9 34 -27 19 -34 82 -75 87 -58 3 7 18 2 41 -14 30 -20 45 -24 80 -19 33 4 42 3 42 -9 0 -17 46 -39 66 -31 8 3 16 2 18 -3 3 -4 68 -5 144 -3 137 4 140 4 147 -18 7 -22 -1 -86 -13 -105 -4 -5 -7 -16 -8 -22 -3 -18 -60 -73 -75 -73 -7 0 -21 -7 -31 -16 -10 -10 -35 -17 -58 -17 -22 0 -40 -4 -40 -10 0 -6 -31 -8 -86 -4 -64 5 -94 12 -122 29 -20 12 -46 21 -58 20 -26 -4 -94 23 -94 37 0 12 -79 5 -95 -9 -8 -6 -11 -25 -8 -49 4 -29 -2 -51 -21 -85 -41 -73 -34 -97 32 -111 18 -4 44 -18 57 -31 26 -26 95 -35 95 -11 0 6 5 4 11 -6 6 -9 32 -28 59 -42 47 -24 57 -25 229 -25 178 0 179 0 243 30 34 16 70 30 79 30 8 0 24 8 35 19 11 10 48 37 82 60 62 43 122 116 122 151 0 10 11 27 24 37 18 15 22 26 18 51 -5 37 24 153 42 164 8 5 12 112 14 365 2 220 -1 353 -6 344 -6 -8 -11 21 -14 85 -3 62 -1 104 6 113 8 10 5 18 -11 31 -32 25 -102 33 -175 19 -67 -13 -104 -41 -143 -106 -10 -17 -29 -34 -42 -38 -22 -5 -63 12 -63 27 0 5 -6 8 -12 8 -7 0 -35 20 -63 45 -27 25 -59 45 -71 45 -34 0 -88 21 -106 41 -13 16 -30 19 -101 19 -53 0 -87 -4 -89 -11z m302 -323 c8 4 21 6 29 5 21 -4 106 -95 121 -130 7 -17 16 -31 20 -31 4 0 7 -51 6 -114 -1 -63 -4 -112 -7 -110 -4 2 -10 -7 -13 -21 -6 -23 -11 -25 -59 -25 -61 1 -137 19 -161 39 -15 12 -19 13 -26 1 -7 -11 -12 -11 -32 3 -13 10 -51 36 -86 58 -52 34 -63 46 -58 63 3 11 -2 28 -10 37 -9 10 -18 36 -21 59 -10 76 57 169 124 171 15 1 39 4 53 8 15 5 42 2 65 -6 21 -7 46 -10 55 -7z">
			</path>
			<path id="p1EnZ79OAs" d="M10889 2698 c-21 -19 -89 -49 -99 -43 -5 3 -18 -8 -30 -25 -12 -16 -28 -30 -36 -30 -24 0 -104 -80 -104 -104 0 -12 -11 -37 -25 -55 -21 -30 -23 -40 -18 -95 4 -47 1 -70 -11 -94 -14 -28 -16 -106 -16 -756 0 -398 3 -731 6 -740 5 -14 31 -16 183 -16 122 1 181 4 192 13 18 14 25 102 9 112 -6 4 -10 55 -10 121 0 76 3 113 10 109 6 -4 10 -3 9 2 -1 4 -1 23 0 41 l1 32 150 0 149 0 25 27 c24 26 24 28 9 46 -15 15 -15 20 -3 27 11 7 15 37 18 114 4 95 3 106 -13 106 -14 0 -15 3 -6 13 8 11 7 18 -7 30 -14 13 -44 16 -172 15 -153 0 -155 0 -153 21 2 12 -1 20 -6 16 -6 -3 -6 7 0 27 11 41 11 41 -1 33 -7 -4 -10 73 -10 225 0 170 3 229 11 224 9 -5 10 4 4 32 -12 57 -8 91 15 123 11 16 20 36 20 44 0 39 141 73 208 49 53 -18 59 -5 65 155 l5 141 -26 10 c-15 6 -45 16 -67 23 -22 7 -45 18 -50 25 -15 17 -209 19 -226 2z">
			</path>
			<path id="p808GutLS" d="M1757 2664 c-3 -4 -19 -7 -35 -8 -34 -1 -122 -71 -122 -96 0 -8 -9 -23 -20 -33 -11 -9 -20 -29 -20 -46 0 -16 -12 -49 -26 -75 -14 -25 -24 -56 -23 -68 2 -22 -3 -38 -42 -126 -21 -47 -24 -72 -9 -72 6 0 10 -9 10 -20 0 -11 -6 -20 -14 -20 -18 0 -45 -105 -39 -151 4 -27 -1 -45 -22 -75 -24 -35 -26 -45 -20 -95 5 -43 3 -58 -9 -68 -8 -7 -23 -33 -32 -58 -14 -35 -15 -46 -5 -53 10 -6 4 -25 -23 -79 -34 -68 -48 -130 -26 -116 6 4 10 -5 10 -19 0 -15 -6 -26 -13 -26 -20 0 -37 -59 -37 -125 0 -35 -5 -65 -14 -74 -22 -26 -35 -78 -29 -115 4 -24 -2 -49 -20 -88 -19 -41 -24 -63 -20 -98 4 -37 1 -48 -16 -64 -12 -11 -21 -27 -21 -38 0 -17 11 -18 218 -16 l217 3 6 63 c5 47 12 68 28 84 21 19 22 26 16 89 -8 76 0 129 20 129 21 0 26 27 19 109 -5 64 -3 83 15 123 12 26 26 50 31 53 6 3 10 17 10 31 0 14 -4 22 -10 19 -18 -11 -11 42 13 100 12 30 28 55 35 55 8 0 12 16 12 45 0 25 -4 45 -9 45 -11 0 -9 12 8 77 6 22 18 43 26 47 12 4 14 21 9 94 -5 73 -3 90 9 95 10 4 16 30 21 86 7 80 15 93 41 68 9 -10 12 -34 9 -85 -5 -69 10 -125 38 -143 5 -3 11 -39 13 -79 2 -40 8 -76 13 -79 17 -12 26 -48 27 -111 1 -48 7 -75 24 -105 19 -31 22 -49 18 -86 -5 -36 -1 -56 19 -95 15 -30 24 -65 24 -93 0 -65 2 -81 11 -81 4 0 10 -16 13 -35 4 -19 11 -35 16 -35 6 0 10 -7 10 -15 0 -8 -4 -15 -10 -15 -25 0 2 -103 37 -142 9 -10 13 -26 10 -39 -3 -12 -2 -29 3 -38 5 -9 12 -33 15 -53 3 -21 9 -38 14 -38 4 0 14 -12 21 -26 l14 -25 202 3 c244 4 239 1 230 103 -5 53 -3 77 9 99 8 15 15 34 15 41 0 7 7 18 15 25 18 15 20 51 3 48 -17 -4 -12 24 14 85 11 26 27 47 34 47 16 0 20 86 4 92 -14 4 6 73 28 94 13 14 17 36 17 107 0 77 3 90 20 103 18 13 20 26 20 109 0 85 2 96 23 116 22 20 23 26 17 98 -5 62 -2 89 15 146 12 39 21 78 21 88 0 25 36 22 50 -5 8 -14 9 -47 5 -99 -6 -79 3 -122 33 -145 11 -8 13 -26 8 -75 -5 -54 -2 -72 19 -118 19 -40 25 -68 23 -110 -2 -33 4 -76 14 -104 9 -26 17 -57 17 -67 0 -11 5 -20 10 -20 6 0 10 -9 10 -20 0 -11 -4 -20 -10 -20 -17 0 -11 -40 13 -84 12 -22 26 -44 30 -47 12 -9 21 -79 10 -79 -14 0 13 -102 29 -111 8 -5 14 -35 14 -81 1 -45 9 -88 19 -113 10 -22 21 -53 24 -70 l7 -30 187 -5 c128 -3 191 -2 202 6 22 16 19 51 -7 87 -15 21 -23 48 -24 77 -1 44 -9 70 -42 139 -13 26 -14 35 -4 39 20 6 14 30 -18 62 -16 16 -27 36 -24 44 3 8 1 17 -5 20 -6 4 -8 20 -5 36 4 20 -2 45 -20 83 -21 43 -25 62 -20 94 5 34 2 47 -17 73 -19 24 -24 45 -24 88 0 39 -7 70 -21 97 -14 27 -20 51 -17 73 3 20 1 32 -6 32 -6 0 -11 5 -11 12 0 6 -7 19 -16 29 -8 9 -16 23 -18 31 -1 7 -5 18 -9 25 -4 6 -3 22 2 36 7 18 5 32 -8 53 -25 42 -41 105 -34 136 4 19 -2 37 -22 63 -25 31 -27 41 -22 86 5 43 3 56 -16 81 -17 22 -22 44 -22 86 0 39 -6 66 -19 85 -10 15 -19 46 -20 70 -1 69 -23 79 -169 80 -158 1 -188 -3 -198 -29 -4 -11 -22 -33 -41 -47 -84 -68 -107 -104 -100 -160 3 -25 -1 -44 -11 -55 -23 -26 -36 -89 -30 -143 4 -36 2 -54 -9 -67 -21 -25 -41 -79 -33 -91 3 -6 0 -11 -7 -11 -10 0 -9 -3 1 -9 16 -10 12 -22 -40 -139 -21 -47 -24 -78 -9 -87 15 -9 12 -45 -4 -45 -20 0 -40 -85 -37 -158 2 -45 -2 -69 -12 -80 -25 -29 -31 -63 -32 -181 0 -75 -4 -115 -11 -118 -15 -5 -23 18 -31 89 -4 36 -10 58 -18 58 -16 0 -31 73 -16 78 15 5 14 40 -1 57 -34 37 -40 48 -43 73 -2 15 -4 27 -5 27 -1 0 -3 15 -5 32 -1 18 1 30 6 27 15 -9 10 5 -18 48 -23 34 -28 53 -28 102 0 44 -5 69 -20 91 -14 21 -20 46 -21 90 0 45 -7 75 -29 119 -20 41 -25 61 -17 64 16 5 15 40 0 56 -19 20 -43 56 -44 66 -1 6 -3 11 -4 13 -1 1 -3 25 -5 52 -2 28 -13 72 -25 99 -17 36 -20 58 -16 90 8 50 -7 68 -69 85 -42 12 -207 15 -218 5z">
			</path>
			<path id="pc3wgAoWb" d="M5060 2656 c0 -7 -9 -16 -20 -19 -20 -5 -20 -14 -20 -945 0 -720 3 -943 12 -948 15 -10 370 -5 380 5 9 8 11 1843 2 1889 l-6 32 -174 0 c-142 0 -174 -3 -174 -14z">
			</path>
			<path id="p1DvDuzJzz" d="M5738 2663 c-1 -5 -13 -15 -26 -23 l-23 -15 0 -690 c1 -689 1 -690 22 -707 18 -16 43 -18 176 -18 l156 0 25 27 c21 23 25 36 23 75 -3 49 7 60 29 33 7 -8 18 -15 26 -15 7 0 18 -9 24 -19 5 -11 19 -23 30 -26 11 -3 20 -13 20 -20 0 -17 36 -38 53 -32 7 2 32 -11 56 -30 l44 -33 116 0 c111 0 118 2 166 30 28 16 57 30 65 30 8 0 35 23 59 51 25 29 59 61 78 71 19 12 33 28 33 39 0 32 22 21 85 -40 34 -34 72 -62 89 -65 15 -3 37 -17 48 -31 11 -14 26 -25 34 -25 9 0 35 -13 59 -30 43 -30 45 -30 172 -30 127 1 128 1 163 30 19 17 42 30 52 30 9 0 23 8 30 18 7 10 39 38 71 62 64 47 82 72 86 114 0 7 11 24 24 37 15 17 22 38 23 69 1 53 21 129 40 151 16 18 19 53 4 44 -7 -4 -10 139 -10 423 0 236 -3 450 -6 476 l-7 46 -183 0 c-151 0 -184 -3 -184 -14 0 -8 -7 -16 -15 -20 -13 -5 -15 -65 -15 -456 0 -298 3 -449 10 -445 6 4 10 -5 10 -19 0 -15 -6 -26 -14 -26 -8 0 -19 -20 -26 -47 -13 -50 -54 -103 -78 -103 -8 0 -25 -9 -39 -20 -36 -28 -125 -28 -153 0 -11 11 -32 20 -46 20 -32 0 -94 59 -94 90 0 12 -9 33 -20 47 -19 25 -20 41 -20 472 0 245 -3 463 -6 484 l-7 37 -179 0 c-174 0 -180 -1 -199 -22 -17 -22 -18 -47 -18 -478 0 -250 4 -464 9 -475 6 -15 1 -27 -22 -52 -17 -17 -36 -42 -42 -55 -6 -13 -25 -30 -41 -38 -17 -9 -42 -24 -58 -34 -36 -24 -133 -18 -154 9 -7 11 -20 20 -29 21 -21 3 -54 34 -54 50 0 7 -4 14 -8 16 -4 2 -27 33 -50 70 l-42 68 0 437 c0 241 -3 448 -6 461 -6 22 -9 22 -169 22 -90 0 -165 -3 -167 -7z">
			</path>
			<path id="pKo0wxPkW" d="M9565 2638 c-3 -18 -5 -346 -3 -728 l3 -695 144 -3 c179 -3 191 2 191 83 0 30 5 55 10 55 15 0 12 47 -2 53 -10 3 -10 8 -2 17 17 18 47 8 54 -18 5 -22 136 -162 151 -162 4 0 25 -16 46 -35 38 -35 39 -35 129 -35 127 0 124 -5 124 197 0 123 -3 163 -14 172 -8 7 -45 10 -92 9 -93 -3 -204 25 -212 54 -2 10 -10 18 -16 18 -13 0 -56 41 -56 54 0 4 -11 18 -25 32 -14 14 -25 30 -26 37 0 7 0 206 1 442 0 330 -2 436 -12 457 l-13 28 -187 0 -187 0 -6 -32z">
			</path>
		</g>
	</g>
</svg>
