<svg class="img-fluid" id="outputsvg" xmlns="http://www.w3.org/2000/svg" rs_id="2991" width="450" height="450" viewBox="0 0 4500 4500"><g id="l3Tq21jDU4HIDPHnyBUiy1z" fill="rgb(0,0,0)" style="transform: none;" rs_id="2992"><g rs_id="2993" style="transform: none;"><path id="pg8zJ2HLB" d="M1750 4480 c-335 -72 -655 -223 -933 -441 -74 -58 -270 -252 -337 -334 -223 -272 -388 -619 -459 -962 -19 -93 -21 -134 -21 -493 0 -358 2 -400 21 -493 54 -265 184 -573 332 -791 109 -158 290 -358 438 -482 242 -202 545 -354 896 -451 l98 -27 436 -3 436 -4 147 36 c167 41 248 68 390 132 255 114 462 256 665 455 292 288 486 623 598 1035 l38 138 0 450 c0 438 -1 453 -23 545 -82 331 -236 645 -446 909 -250 313 -637 581 -1026 711 -262 88 -280 90 -750 89 -362 -1 -426 -3 -500 -19z m755 -320 c724 -108 1318 -597 1565 -1289 166 -466 140 -968 -74 -1426 -200 -426 -572 -783 -1006 -967 -283 -119 -605 -174 -876 -150 -463 43 -869 230 -1197 551 -314 307 -496 655 -571 1091 -84 487 64 1038 389 1455 267 342 638 584 1065 694 245 63 472 76 705 41z" rs_id="2994"></path><path id="p1BM8iyP8b" d="M1611 3422 c-19 -10 -43 -34 -53 -53 -22 -42 -23 -87 -4 -594 8 -209 16 -425 18 -479 l3 -99 -45 -13 c-95 -28 -159 -112 -181 -239 -13 -77 4 -777 21 -820 12 -31 46 -45 110 -45 32 0 55 6 71 19 l24 19 -4 264 c-3 235 -1 265 13 277 9 8 20 11 24 7 11 -12 20 -165 21 -368 1 -181 2 -187 23 -202 14 -10 44 -16 76 -16 43 0 57 5 78 25 l25 25 -7 248 c-5 183 -4 254 5 270 14 26 37 29 49 5 5 -10 12 -130 16 -268 7 -236 8 -251 28 -268 28 -24 128 -24 157 1 20 17 20 26 22 412 2 353 1 401 -15 454 -32 107 -104 186 -185 202 l-34 7 7 231 c3 127 11 372 17 545 6 172 8 328 5 347 -8 42 -50 93 -93 110 -48 20 -151 18 -192 -4z" rs_id="2995"></path><path id="pZdTU3Ul1" d="M2650 3429 c-42 -18 -70 -51 -85 -103 -12 -41 -15 -136 -15 -538 l0 -488 -68 -67 c-77 -78 -121 -153 -154 -268 -19 -69 -22 -104 -22 -250 0 -143 3 -184 22 -255 42 -164 129 -297 226 -348 46 -25 61 -27 161 -27 98 0 116 3 165 26 120 58 210 188 257 369 23 91 28 330 9 431 -35 186 -114 308 -233 361 l-43 19 5 72 c8 107 25 683 25 830 0 144 -11 182 -62 219 -35 24 -147 35 -188 17z" rs_id="2996"></path></g></g><g id="l1o4vYpIQuq0zP02Ld5B5ib" fill="rgb(255,255,255)" style="transform: none;" rs_id="2997"><g rs_id="2998" style="transform: none;"><path id="pAiceof2M" d="M0 3443 c0 -581 2 -1054 5 -1052 2 3 9 53 14 111 39 409 220 841 491 1173 68 84 263 276 340 336 247 194 548 343 845 418 105 27 246 51 304 52 25 0 55 4 66 9 11 5 -432 9 -1022 9 l-1043 1 0 -1057z" rs_id="2999"></path><path id="p15akz4Jwf" d="M2440 4490 c14 -4 49 -8 79 -9 83 -2 285 -46 437 -97 249 -82 502 -220 713 -388 90 -72 255 -237 327 -327 251 -314 429 -719 474 -1075 7 -49 15 -114 20 -144 4 -30 8 419 9 998 l1 1052 -1042 -1 c-574 -1 -1032 -5 -1018 -9z" rs_id="3000"></path><path id="pcAmf2h30" d="M2070 4203 c-92 -8 -195 -27 -300 -54 -356 -92 -650 -259 -906 -517 -166 -166 -271 -314 -373 -521 -294 -597 -261 -1305 87 -1881 152 -252 404 -502 664 -659 537 -322 1198 -368 1778 -123 434 184 806 541 1006 967 276 589 240 1290 -94 1845 -356 591 -1001 955 -1677 948 -82 -1 -166 -3 -185 -5z m-272 -820 c14 -10 35 -32 46 -47 20 -26 21 -40 19 -204 -2 -98 -7 -305 -13 -462 -5 -157 -10 -334 -12 -394 l-2 -109 41 -12 c84 -25 147 -94 178 -195 14 -48 16 -105 16 -425 -1 -363 -2 -370 -22 -388 -12 -9 -34 -17 -49 -17 -15 0 -37 8 -48 17 -20 17 -22 32 -28 272 -6 228 -9 256 -26 273 -24 24 -63 23 -90 -4 -21 -21 -21 -24 -15 -276 l6 -254 -24 -24 c-28 -28 -61 -31 -93 -8 -21 15 -22 21 -23 202 -1 248 -10 360 -29 372 -24 15 -56 11 -74 -9 -16 -18 -17 -44 -15 -281 l3 -262 -23 -19 c-39 -32 -104 -18 -121 25 -16 43 -33 694 -20 767 22 122 86 205 180 233 l45 13 -2 84 c-1 46 -10 301 -19 566 -17 475 -17 482 3 519 26 51 75 76 136 71 27 -2 60 -13 75 -24z m1012 -3 c15 -11 36 -37 45 -57 18 -36 18 -61 6 -468 -6 -236 -14 -467 -18 -511 l-6 -82 45 -19 c165 -74 259 -289 244 -563 -11 -209 -68 -360 -177 -469 -69 -68 -137 -96 -234 -96 -67 0 -88 5 -131 27 -97 51 -184 184 -226 348 -31 122 -31 332 1 445 32 114 75 190 153 268 l68 67 0 488 c0 526 3 563 52 609 50 47 123 52 178 13z" rs_id="3001"></path><path id="pOFRk7nmW" d="M0 1057 l0 -1057 1048 1 c593 0 1038 4 1027 9 -11 5 -42 9 -70 9 -65 1 -210 25 -310 52 -318 83 -637 245 -874 443 -148 124 -329 324 -438 482 -192 283 -332 667 -364 1002 -5 58 -12 108 -14 111 -3 2 -5 -471 -5 -1052z" rs_id="3002"></path><path id="pohjc3pB0" d="M4486 2058 c-3 -13 -6 -43 -6 -68 0 -112 -65 -377 -137 -560 -165 -422 -466 -797 -838 -1044 -158 -105 -342 -198 -512 -259 -120 -44 -352 -95 -477 -107 -66 -6 -122 -13 -125 -15 -2 -3 471 -5 1052 -5 l1057 0 0 1040 c0 572 -2 1040 -4 1040 -2 0 -6 -10 -10 -22z" rs_id="3003"></path></g></g></svg>