<svg class="img-fluid" id="outputsvg" xmlns="http://www.w3.org/2000/svg" rs_id="2992" width="220" height="220" viewBox="0 0 2200 2200"><g id="l3cd9iqVOYCjuvyAiaswJxA" fill="rgb(0,0,0)" style="transform: none;" rs_id="2993"><g rs_id="2994"><path id="pIQvgulE8" d="M488 1910 c-91 -9 -162 -48 -200 -108 -21 -34 -23 -48 -22 -167 0 -109 5 -145 28 -227 67 -243 163 -465 223 -518 19 -17 37 -30 41 -30 4 0 6 -19 4 -43 l-4 -42 56 -27 c61 -30 60 -28 71 -165 12 -168 103 -306 244 -371 51 -24 67 -26 186 -27 112 0 138 3 186 23 142 57 239 200 254 373 11 140 10 137 71 166 51 26 54 29 54 65 0 24 -5 38 -12 38 -7 0 6 12 30 26 52 31 78 81 180 339 96 242 105 281 100 424 -3 101 -6 122 -28 160 -32 57 -64 79 -136 98 -49 13 -162 16 -654 18 -327 2 -630 0 -672 -5z m1002 -858 c0 -45 -17 -60 -22 -19 -2 19 -2 40 0 46 7 20 22 1 22 -27z m-720 -13 c0 -18 -4 -28 -10 -24 -5 3 -10 20 -10 36 0 18 4 28 10 24 6 -3 10 -20 10 -36z m627 -401 c-10 -154 -53 -223 -171 -279 -77 -37 -132 -38 -206 -3 -124 58 -167 124 -177 275 l-6 89 283 0 283 0 -6 -82z" rs_id="2995"></path></g></g><g id="l4FnDUIh9tVY1zxGGAZ7vFW" fill="rgb(255,255,255)" style="transform: none;" rs_id="2996"><g rs_id="2997"><path id="p1AZP64sTA" d="M0 1100 l0 -1100 1100 0 1100 0 0 1100 0 1100 -1100 0 -1100 0 0 -1100z m1784 767 c72 -19 104 -41 136 -98 32 -58 40 -186 16 -279 -20 -77 -145 -396 -192 -492 -38 -75 -87 -113 -165 -126 -23 -4 -44 -12 -46 -19 -5 -13 49 -33 88 -33 43 0 35 -13 -25 -43 -61 -29 -60 -26 -71 -166 -11 -129 -60 -230 -151 -310 -72 -63 -139 -85 -259 -85 -86 0 -108 4 -156 26 -140 64 -232 203 -244 371 -11 137 -10 135 -71 164 -60 30 -68 43 -25 43 35 0 91 19 91 31 0 5 -12 11 -27 14 -74 15 -106 28 -137 55 -59 53 -157 279 -222 518 -37 133 -39 279 -5 334 37 60 108 99 199 108 42 5 331 7 642 5 464 -2 576 -5 624 -18z" rs_id="2998"></path><path id="p899SejnT" d="M727 1123 c-23 -23 10 -229 35 -221 15 5 38 83 41 141 2 41 -2 52 -22 68 -24 20 -43 24 -54 12z" rs_id="2999"></path><path id="ptkXFv2QS" d="M1439 1106 c-19 -40 14 -206 40 -206 14 0 43 102 44 156 0 50 -6 60 -45 69 -23 6 -29 3 -39 -19z" rs_id="3000"></path><path id="pvEKjwuqz" d="M865 863 c-72 -8 -59 -21 29 -28 103 -9 522 -2 532 8 4 4 4 10 0 14 -8 8 -498 13 -561 6z" rs_id="3001"></path><path id="p16UCephNT" d="M812 633 c8 -184 45 -246 183 -310 86 -39 167 -38 256 4 131 61 168 126 176 311 l6 112 -313 0 -313 0 5 -117z" rs_id="3002"></path></g></g></svg>