<?xml version="1.0" encoding="UTF-8"?>
<!DOCTYPE svg PUBLIC "-//W3C//DTD SVG 1.1//EN" "http://www.w3.org/Graphics/SVG/1.1/DTD/svg11.dtd">
<svg xmlns="http://www.w3.org/2000/svg" version="1.1" width="114px" height="114px" style="shape-rendering:geometricPrecision; text-rendering:geometricPrecision; image-rendering:optimizeQuality; fill-rule:evenodd; clip-rule:evenodd" xmlns:xlink="http://www.w3.org/1999/xlink">
<g><path style="opacity:1" fill="#fcfcfc" d="M -0.5,-0.5 C 37.5,-0.5 75.5,-0.5 113.5,-0.5C 113.5,37.5 113.5,75.5 113.5,113.5C 75.5,113.5 37.5,113.5 -0.5,113.5C -0.5,75.5 -0.5,37.5 -0.5,-0.5 Z"/></g>
<g><path style="opacity:1" fill="#040404" d="M 36.5,79.5 C 36.8287,66.6557 36.4954,53.989 35.5,41.5C 28.6866,40.5088 21.6866,40.1755 14.5,40.5C 13.7731,36.7757 15.1064,34.1091 18.5,32.5C 19.4656,30.604 19.7989,28.604 19.5,26.5C 24.5111,26.3341 29.5111,26.5007 34.5,27C 36.0124,29.2453 38.0124,30.7453 40.5,31.5C 45.5119,30.4921 50.1786,28.6588 54.5,26C 67.1667,25.3333 79.8333,25.3333 92.5,26C 95.2317,26.3981 97.065,27.8981 98,30.5C 98.6667,47.5 98.6667,64.5 98,81.5C 97.6258,82.4162 97.1258,83.2496 96.5,84C 77.2566,85.6412 57.9233,85.9745 38.5,85C 36.8446,83.5557 36.178,81.7224 36.5,79.5 Z"/></g>
<g><path style="opacity:1" fill="#646464" d="M 25.5,29.5 C 27.924,29.1924 30.2573,29.5258 32.5,30.5C 31.3333,30.8333 30.1667,31.1667 29,31.5C 27.3189,31.3917 26.1522,30.7251 25.5,29.5 Z"/></g>
<g><path style="opacity:1" fill="#646464" d="M 61.5,32.5 C 64.5719,32.1826 67.5719,32.5159 70.5,33.5C 69,33.8333 67.5,34.1667 66,34.5C 64.0145,34.4313 62.5145,33.7647 61.5,32.5 Z"/></g>
<g><path style="opacity:1" fill="#aeaeae" d="M 82.5,32.5 C 85.5184,32.3354 88.5184,32.502 91.5,33C 92.4231,35.0408 92.7564,37.2075 92.5,39.5C 89.8127,39.6641 87.146,39.4974 84.5,39C 82.771,37.2111 82.1043,35.0444 82.5,32.5 Z"/></g>
<g><path style="opacity:1" fill="#080808" d="M 84.5,34.5 C 86.5,34.5 88.5,34.5 90.5,34.5C 90.5,35.5 90.5,36.5 90.5,37.5C 88.5,37.5 86.5,37.5 84.5,37.5C 84.5,36.5 84.5,35.5 84.5,34.5 Z"/></g>
<g><path style="opacity:1" fill="#050505" d="M 81.5,70.5 C 80.1667,71.1667 79.1667,72.1667 78.5,73.5C 57.987,80.487 48.1537,73.1537 49,51.5C 54.739,41.223 63.239,38.0563 74.5,42C 84.876,49.4732 87.2093,58.9732 81.5,70.5 Z"/></g>
<g><path style="opacity:1" fill="#858585" d="M 35.5,41.5 C 36.4954,53.989 36.8287,66.6557 36.5,79.5C 35.5318,81.6074 35.1984,83.9407 35.5,86.5C 29.9738,86.8214 24.6405,86.4881 19.5,85.5C 24.5,85.5 29.5,85.5 34.5,85.5C 34.5,71.5 34.5,57.5 34.5,43.5C 35.3382,43.1583 35.6716,42.4916 35.5,41.5 Z"/></g>
<g><path style="opacity:1" fill="#000000" d="M 34.5,43.5 C 34.5,57.5 34.5,71.5 34.5,85.5C 29.5,85.5 24.5,85.5 19.5,85.5C 16.8122,84.9759 15.3122,83.3092 15,80.5C 14.5001,68.1712 14.3335,55.8378 14.5,43.5C 21.1667,43.5 27.8333,43.5 34.5,43.5 Z"/></g>
<g><path style="opacity:1" fill="#d8d8d8" d="M 81.5,70.5 C 87.2093,58.9732 84.876,49.4732 74.5,42C 63.239,38.0563 54.739,41.223 49,51.5C 48.1537,73.1537 57.987,80.487 78.5,73.5C 68.1645,80.9992 58.6645,79.9992 50,70.5C 42.7495,55.85 46.5828,45.35 61.5,39C 79.5008,38.6728 87.3342,47.5062 85,65.5C 84.3028,67.5844 83.1361,69.2511 81.5,70.5 Z"/></g>
<g><path style="opacity:1" fill="#d8d8d8" d="M 63.5,49.5 C 71.9615,49.7969 75.4615,54.1302 74,62.5C 71.2522,66.6194 67.4188,68.1194 62.5,67C 58.7973,63.604 57.6306,59.4374 59,54.5C 60.1932,52.5029 61.6932,50.8362 63.5,49.5 Z"/></g>
<g><path style="opacity:1" fill="#070707" d="M 63.5,51.5 C 70.9778,51.4849 73.8111,55.1516 72,62.5C 67.601,66.6545 63.601,66.3211 60,61.5C 59.3333,59.5 59.3333,57.5 60,55.5C 61.3756,54.2949 62.5423,52.9616 63.5,51.5 Z"/></g>
<g><path style="opacity:1" fill="#838383" d="M 81.5,70.5 C 81.5,72.5 80.5,73.5 78.5,73.5C 79.1667,72.1667 80.1667,71.1667 81.5,70.5 Z"/></g>
</svg>
