<svg class="img-fluid" id="outputsvg" xmlns="http://www.w3.org/2000/svg" rs_id="2990" width="190" height="190" viewBox="0 0 1900 1900"><g id="l4yFcwwoa7UNO457Q4HRzbV" fill="rgb(0,0,0)" style="transform: none;" rs_id="2991"><g rs_id="2992" style="transform: none;"><path id="prXPEfayQ" d="M518 1671 c-43 -4 -83 -12 -90 -19 -20 -20 -27 -135 -27 -479 l-1 -333 -139 0 -138 0 -13 -57 c-7 -32 -15 -127 -17 -211 l-5 -152 35 -34 c38 -36 167 -83 352 -130 151 -38 206 -41 348 -20 119 17 130 17 214 1 169 -33 273 -20 528 64 233 77 260 104 249 254 -9 124 -32 212 -64 248 -28 31 -29 32 -138 35 l-110 4 -4 387 c-3 212 -8 394 -13 404 -4 10 -19 23 -34 29 -30 13 -810 20 -933 9z m507 -1271 c4 -6 -19 -10 -62 -9 -47 0 -62 3 -48 9 28 12 103 12 110 0z" rs_id="2993"></path></g></g><g id="l50Uo1NMFxaYhjnj4cngWjG" fill="rgb(255,255,255)" style="transform: none;" rs_id="2994"><g rs_id="2995" style="transform: none;"><path id="pL5DHERQQ" d="M0 950 l0 -950 950 0 950 0 0 950 0 950 -950 0 -950 0 0 -950z m1421 682 c15 -6 30 -19 34 -29 5 -10 10 -192 13 -404 l4 -387 110 -4 c109 -3 110 -4 138 -35 48 -53 81 -265 51 -321 -20 -38 -87 -72 -240 -122 -243 -80 -327 -92 -456 -65 -88 19 -175 19 -290 0 -100 -17 -135 -14 -280 22 -183 45 -313 93 -352 129 l-36 34 6 122 c3 68 11 149 17 181 l13 57 138 0 139 0 1 333 c0 344 7 459 27 479 7 7 47 15 90 19 121 11 843 4 873 -9z" rs_id="2996"></path><path id="pDpfknN0q" d="M917 439 c-48 -11 -107 -42 -129 -65 -16 -18 -13 -19 114 -16 72 2 151 -1 176 -7 26 -5 48 -8 50 -7 1 2 -2 14 -7 28 -20 53 -124 87 -204 67z" rs_id="2997"></path></g></g></svg>