<?xml version="1.0" encoding="UTF-8"?>
<!DOCTYPE svg PUBLIC "-//W3C//DTD SVG 1.1//EN" "http://www.w3.org/Graphics/SVG/1.1/DTD/svg11.dtd">
<svg xmlns="http://www.w3.org/2000/svg" version="1.1" width="116px" height="116px" style="shape-rendering:geometricPrecision; text-rendering:geometricPrecision; image-rendering:optimizeQuality; fill-rule:evenodd; clip-rule:evenodd" xmlns:xlink="http://www.w3.org/1999/xlink">
<g><path style="opacity:1" fill="#fcfcfc" d="M -0.5,-0.5 C 38.1667,-0.5 76.8333,-0.5 115.5,-0.5C 115.5,38.1667 115.5,76.8333 115.5,115.5C 76.8333,115.5 38.1667,115.5 -0.5,115.5C -0.5,76.8333 -0.5,38.1667 -0.5,-0.5 Z"/></g>
<g><path style="opacity:1" fill="#0d0d0d" d="M 21.5,32.5 C 22.7007,47.8434 22.7007,63.1767 21.5,78.5C 21.8244,81.694 20.6578,82.694 18,81.5C 17.6667,64.5 17.3333,47.5 17,30.5C 15.6439,29.6198 14.1439,29.2865 12.5,29.5C 12.5,28.5 12.5,27.5 12.5,26.5C 14.8568,26.3367 17.1902,26.5034 19.5,27C 21.1554,28.4443 21.822,30.2776 21.5,32.5 Z"/></g>
<g><path style="opacity:1" fill="#020202" d="M 53.5,81.5 C 52.8333,76.1667 52.1667,76.1667 51.5,81.5C 50.791,82.404 49.791,82.7373 48.5,82.5C 48.7852,80.712 48.4519,79.0453 47.5,77.5C 45.5,84.1667 43.5,84.1667 41.5,77.5C 40.5481,79.0453 40.2148,80.712 40.5,82.5C 39.0222,82.762 37.6888,82.4287 36.5,81.5C 35.4174,78.8619 34.0841,76.5286 32.5,74.5C 29.7131,73.5233 26.7131,73.19 23.5,73.5C 23.5,60.8333 23.5,48.1667 23.5,35.5C 23.5106,33.9826 24.1772,32.8159 25.5,32C 48.5,31.3333 71.5,31.3333 94.5,32C 95,32.5 95.5,33 96,33.5C 96.6667,46.1667 96.6667,58.8333 96,71.5C 93.834,73.1213 91.334,73.9546 88.5,74C 87.7362,76.0693 87.2362,78.236 87,80.5C 86.6121,81.428 85.9454,82.0946 85,82.5C 83.0559,81.3125 81.5559,79.6458 80.5,77.5C 79.5481,79.0453 79.2148,80.712 79.5,82.5C 77.0885,82.8633 75.5885,81.8633 75,79.5C 74.0766,80.7588 73.2432,82.0921 72.5,83.5C 71.684,81.7127 70.684,80.0461 69.5,78.5C 68.5,79.8333 67.5,81.1667 66.5,82.5C 65.2011,81.91 64.3678,80.91 64,79.5C 63.0922,81.4386 61.5922,82.4386 59.5,82.5C 59.7852,80.712 59.4519,79.0453 58.5,77.5C 57.7717,79.1932 56.7717,80.6932 55.5,82C 54.5632,82.6917 53.8966,82.525 53.5,81.5 Z"/></g>
<g><path style="opacity:1" fill="#f0f0f0" d="M 74.5,43.5 C 72.8333,44.8333 71.1667,44.8333 69.5,43.5C 70.7899,42.9423 71.6232,41.9423 72,40.5C 72.8518,41.5707 73.6851,42.5707 74.5,43.5 Z"/></g>
<g><path style="opacity:1" fill="#d4d4d4" d="M 60.5,44.5 C 61.4916,44.3284 62.1583,44.6618 62.5,45.5C 61.8333,49.8333 61.1667,54.1667 60.5,58.5C 59.2102,57.0652 57.5435,56.0652 55.5,55.5C 56.6888,54.5713 58.0222,54.238 59.5,54.5C 59.5,53.5 59.5,52.5 59.5,51.5C 57.6536,51.7778 56.3202,51.1112 55.5,49.5C 56.6888,48.5713 58.0222,48.238 59.5,48.5C 59.2322,46.901 59.5655,45.5676 60.5,44.5 Z"/></g>
<g><path style="opacity:1" fill="#000000" d="M 62.5,45.5 C 67.1667,45.5 71.8333,45.5 76.5,45.5C 76.5,50.1667 76.5,54.8333 76.5,59.5C 76.5,54.8333 76.5,50.1667 76.5,45.5C 71.8333,45.5 67.1667,45.5 62.5,45.5 Z"/></g>
<g><path style="opacity:1" fill="#8d8d8d" d="M 69.5,43.5 C 71.1667,44.8333 72.8333,44.8333 74.5,43.5C 77.5,43.1667 78.8333,44.5 78.5,47.5C 77.1667,49.1667 77.1667,50.8333 78.5,52.5C 79.6782,53.9986 81.3449,54.9986 83.5,55.5C 81.9547,56.4519 80.288,56.7852 78.5,56.5C 78.7845,58.4147 78.4511,60.0813 77.5,61.5C 77.6716,60.5084 77.3382,59.8417 76.5,59.5C 76.5,54.8333 76.5,50.1667 76.5,45.5C 71.8333,45.5 67.1667,45.5 62.5,45.5C 62.1583,44.6618 61.4916,44.3284 60.5,44.5C 61.9187,43.5489 63.5853,43.2155 65.5,43.5C 65.2148,41.712 65.5481,40.0453 66.5,38.5C 67.0014,40.6551 68.0014,42.3218 69.5,43.5 Z"/></g>
<g><path style="opacity:1" fill="#f7f7f7" d="M 78.5,47.5 C 79.0577,48.7899 80.0577,49.6232 81.5,50C 80.0577,50.3768 79.0577,51.2101 78.5,52.5C 77.1667,50.8333 77.1667,49.1667 78.5,47.5 Z"/></g>
<g><path style="opacity:1" fill="#838383" d="M 21.5,32.5 C 22.1667,33.5 22.8333,34.5 23.5,35.5C 23.5,48.1667 23.5,60.8333 23.5,73.5C 26.7131,73.19 29.7131,73.5233 32.5,74.5C 29.1667,74.5 25.8333,74.5 22.5,74.5C 22.7678,76.099 22.4345,77.4324 21.5,78.5C 22.7007,63.1767 22.7007,47.8434 21.5,32.5 Z"/></g>
<g><path style="opacity:1" fill="#7f7f7f" d="M 62.5,45.5 C 62.5,50.1667 62.5,54.8333 62.5,59.5C 67.1667,59.5 71.8333,59.5 76.5,59.5C 72.03,60.4861 67.3633,60.8195 62.5,60.5C 61.5,60.1667 60.8333,59.5 60.5,58.5C 61.1667,54.1667 61.8333,49.8333 62.5,45.5 Z"/></g>
<g><path style="opacity:1" fill="#c9c9c9" d="M 76.5,59.5 C 77.3382,59.8417 77.6716,60.5084 77.5,61.5C 76.4324,62.4345 75.099,62.7678 73.5,62.5C 72.8333,67.8333 72.1667,67.8333 71.5,62.5C 70.1667,62.5 68.8333,62.5 67.5,62.5C 67.762,63.9778 67.4287,65.3112 66.5,66.5C 65.6389,64.0894 64.3056,62.0894 62.5,60.5C 67.3633,60.8195 72.03,60.4861 76.5,59.5 Z"/></g>
<g><path style="opacity:1" fill="#878787" d="M 53.5,81.5 C 52.8333,81.5 52.1667,81.5 51.5,81.5C 52.1667,76.1667 52.8333,76.1667 53.5,81.5 Z"/></g>
</svg>
