<svg class="img-fluid" id="outputsvg" xmlns="http://www.w3.org/2000/svg" rs_id="3014" width="222" height="168" viewBox="0 0 2220 1680"><g id="l69AsHBbhcCGhHHTDSuuKo4" fill="rgb(0,0,0)" style="transform: none;" rs_id="3015"><g rs_id="3016" style="transform: none;"><path id="pNPwxu0cr" d="M740 1454 c-53 -10 -116 -28 -142 -41 -24 -12 -28 -20 -28 -57 0 -48 9 -56 65 -56 39 0 45 -11 45 -84 l0 -53 -186 -7 c-217 -8 -241 -12 -257 -40 -9 -15 -12 -125 -12 -419 l0 -399 26 -22 c24 -21 41 -23 170 -29 79 -4 463 -7 853 -7 l708 0 -4 563 c-3 379 -8 571 -16 588 -6 16 -24 32 -44 39 -41 15 -280 25 -382 15 l-76 -7 0 -154 0 -154 -24 10 c-13 5 -108 12 -210 16 l-186 7 0 43 c0 60 8 74 40 74 42 0 60 24 60 79 0 56 -9 66 -71 80 -49 11 -290 22 -329 15z" rs_id="3017"></path></g></g><g id="l18XUCq8vVrvsb3ujfOaBc4" fill="rgb(255,255,255)" style="transform: none;" rs_id="3018"><g rs_id="3019" style="transform: none;"><path id="pLVuY1SDR" d="M0 840 l0 -840 1110 0 1110 0 0 840 0 840 -1110 0 -1110 0 0 -840z m1040 569 c52 -12 70 -24 70 -50 0 -26 -28 -49 -60 -49 -34 0 -40 -13 -40 -96 l0 -64 -150 0 -150 0 0 74 c0 96 -4 106 -45 106 -43 0 -65 9 -65 26 0 22 74 51 170 68 36 6 217 -4 270 -15z m848 -9 c20 -7 38 -23 44 -39 8 -17 13 -203 16 -558 l4 -533 -231 0 -231 0 0 569 0 570 38 4 c72 9 327 0 360 -13z m-487 -288 c15 -6 30 -19 34 -29 5 -10 10 -197 13 -416 l4 -398 -468 2 c-258 2 -517 5 -576 8 -161 9 -152 -9 -157 304 -4 291 5 488 24 513 9 13 35 19 111 25 150 11 984 4 1015 -9z" rs_id="3020"></path><path id="p11pCktTDg" d="M1667 1174 c-46 -46 -44 -109 4 -134 46 -25 129 26 129 79 0 34 -47 81 -82 81 -14 0 -37 -11 -51 -26z m84 -34 c49 -27 -4 -86 -56 -62 -29 13 -32 34 -9 56 18 19 38 20 65 6z" rs_id="3021"></path><path id="pR9Lk2lnL" d="M1670 580 c0 -5 22 -10 49 -10 28 0 53 5 56 10 4 6 -15 10 -49 10 -31 0 -56 -4 -56 -10z" rs_id="3022"></path><path id="p9ud35qnn" d="M1683 483 c-24 -2 -43 -8 -43 -13 0 -12 84 -24 127 -17 94 16 23 41 -84 30z" rs_id="3023"></path></g></g></svg>