<?xml version="1.0" encoding="UTF-8"?>
<!DOCTYPE svg PUBLIC "-//W3C//DTD SVG 1.1//EN" "http://www.w3.org/Graphics/SVG/1.1/DTD/svg11.dtd">
<svg xmlns="http://www.w3.org/2000/svg" version="1.1" width="111px" height="111px" style="shape-rendering:geometricPrecision; text-rendering:geometricPrecision; image-rendering:optimizeQuality; fill-rule:evenodd; clip-rule:evenodd" xmlns:xlink="http://www.w3.org/1999/xlink">
<g><path style="opacity:1" fill="#fdfdfd" d="M -0.5,-0.5 C 36.5,-0.5 73.5,-0.5 110.5,-0.5C 110.5,36.5 110.5,73.5 110.5,110.5C 73.5,110.5 36.5,110.5 -0.5,110.5C -0.5,73.5 -0.5,36.5 -0.5,-0.5 Z"/></g>
<g><path style="opacity:1" fill="#050505" d="M 48.5,34.5 C 49.8216,50.4342 50.4883,50.4342 50.5,34.5C 56.1667,33.1667 61.8333,33.1667 67.5,34.5C 67.6655,38.5138 67.4988,42.5138 67,46.5C 66.3378,47.9839 65.5045,49.3172 64.5,50.5C 66.4109,50.4257 67.5776,49.4257 68,47.5C 68.3918,43.4724 68.8918,39.4724 69.5,35.5C 69.5,34.5 69.5,33.5 69.5,32.5C 77.2916,33.1962 84.9582,34.6962 92.5,37C 99.6258,45.1791 98.7925,52.6791 90,59.5C 88.986,55.6225 87.486,51.9558 85.5,48.5C 82.4824,58.0924 83.3157,67.4258 88,76.5C 90.405,77.2744 92.905,77.7744 95.5,78C 98.354,81.6 97.6873,84.6 93.5,87C 76.1705,96.0535 57.8371,98.7201 38.5,95C 29.214,93.2775 21.3807,89.1108 15,82.5C 14.2797,80.8876 14.4464,79.3876 15.5,78C 17.8991,77.289 20.2324,77.4557 22.5,78.5C 28.7857,71.3339 32.7857,63.0006 34.5,53.5C 33.8172,48.7845 32.1506,44.4512 29.5,40.5C 25.037,40.6505 20.537,40.3171 16,39.5C 15.3333,36.5 15.3333,33.5 16,30.5C 18.4488,24.4367 21.2822,18.6033 24.5,13C 39.7169,12.1087 47.7169,19.2754 48.5,34.5 Z"/></g>
<g><path style="opacity:1" fill="#a3a3a3" d="M 30.5,23.5 C 31.7942,27.2229 32.9609,27.2229 34,23.5C 34.49,24.7932 34.6567,26.1266 34.5,27.5C 33.1667,27.5 31.8333,27.5 30.5,27.5C 30.5,26.1667 30.5,24.8333 30.5,23.5 Z"/></g>
<g><path style="opacity:1" fill="#8c8c8c" d="M 67.5,34.5 C 68.1667,34.8333 68.8333,35.1667 69.5,35.5C 68.8918,39.4724 68.3918,43.4724 68,47.5C 67.5776,49.4257 66.4109,50.4257 64.5,50.5C 65.5045,49.3172 66.3378,47.9839 67,46.5C 67.4988,42.5138 67.6655,38.5138 67.5,34.5 Z"/></g>
<g><path style="opacity:1" fill="#a0a0a0" d="M 48.5,34.5 C 49.1667,34.5 49.8333,34.5 50.5,34.5C 50.4883,50.4342 49.8216,50.4342 48.5,34.5 Z"/></g>
<g><path style="opacity:1" fill="#919191" d="M 64.5,50.5 C 61.1694,54.1877 57.5028,54.3544 53.5,51C 57.149,51.8195 60.8157,51.6529 64.5,50.5 Z"/></g>
<g><path style="opacity:1" fill="#fafafa" d="M 46.5,64.5 C 53.1187,65.2571 59.7853,65.7571 66.5,66C 70.755,71.092 74.4217,76.592 77.5,82.5C 70.4421,85.8922 62.9421,87.2255 55,86.5C 50.8333,86.3333 46.6667,86.1667 42.5,86C 40.3921,85.6401 38.3921,84.9734 36.5,84C 35.4829,82.9505 35.3162,81.7839 36,80.5C 39.3295,75.0137 42.8295,69.6804 46.5,64.5 Z"/></g>
</svg>
