<?xml version="1.0" encoding="UTF-8"?>
<!DOCTYPE svg PUBLIC "-//W3C//DTD SVG 1.1//EN" "http://www.w3.org/Graphics/SVG/1.1/DTD/svg11.dtd">
<svg xmlns="http://www.w3.org/2000/svg" version="1.1" width="113px" height="113px" style="shape-rendering:geometricPrecision; text-rendering:geometricPrecision; image-rendering:optimizeQuality; fill-rule:evenodd; clip-rule:evenodd" xmlns:xlink="http://www.w3.org/1999/xlink">
<g><path style="opacity:1" fill="#fefefe" d="M -0.5,-0.5 C 37.1667,-0.5 74.8333,-0.5 112.5,-0.5C 112.5,37.1667 112.5,74.8333 112.5,112.5C 74.8333,112.5 37.1667,112.5 -0.5,112.5C -0.5,74.8333 -0.5,37.1667 -0.5,-0.5 Z"/></g>
<g><path style="opacity:1" fill="#050505" d="M 33.5,28.5 C 36.5184,28.3354 39.5184,28.502 42.5,29C 46.8521,30.7849 51.3521,31.9515 56,32.5C 61.731,31.3658 67.3977,30.0325 73,28.5C 80.931,28.4633 86.931,31.7966 91,38.5C 93.4024,45.0409 95.4024,51.7076 97,58.5C 97.8696,64.9172 97.5362,71.2506 96,77.5C 93.5881,80.792 90.4214,81.9587 86.5,81C 81.3132,76.9029 76.3132,72.5695 71.5,68C 61.4471,63.4103 51.4471,63.4103 41.5,68C 36.4025,73.1 30.7358,77.4333 24.5,81C 19.0567,81.5704 15.89,79.0704 15,73.5C 13.7627,61.5901 15.7627,50.2568 21,39.5C 24.7672,35.2235 28.9339,31.5569 33.5,28.5 Z"/></g>
<g><path style="opacity:1" fill="#f3f3f3" d="M 66.5,41.5 C 67.8333,41.5 69.1667,41.5 70.5,41.5C 70.5,42.8333 70.5,44.1667 70.5,45.5C 69.1667,45.5 67.8333,45.5 66.5,45.5C 66.5,44.1667 66.5,42.8333 66.5,41.5 Z"/></g>
<g><path style="opacity:1" fill="#f3f3f3" d="M 77.5,41.5 C 78.8333,41.5 80.1667,41.5 81.5,41.5C 81.5,42.8333 81.5,44.1667 81.5,45.5C 80.1667,45.5 78.8333,45.5 77.5,45.5C 77.5,44.1667 77.5,42.8333 77.5,41.5 Z"/></g>
<g><path style="opacity:1" fill="#d4d4d4" d="M 35.5,40.5 C 39.1999,40.5364 41.8665,42.2031 43.5,45.5C 42.791,46.404 41.791,46.7373 40.5,46.5C 39.5655,45.4324 39.2322,44.099 39.5,42.5C 38.209,42.2627 37.209,42.596 36.5,43.5C 35.596,42.791 35.2627,41.791 35.5,40.5 Z"/></g>
<g><path style="opacity:1" fill="#040404" d="M 40.5,46.5 C 41.9187,47.4511 43.5853,47.7845 45.5,47.5C 45.6495,48.552 45.4828,49.552 45,50.5C 42.5,51.6667 40.6667,53.5 39.5,56C 38.552,56.4828 37.552,56.6495 36.5,56.5C 36.7845,54.5853 36.4511,52.9187 35.5,51.5C 34.4324,50.5655 33.099,50.2322 31.5,50.5C 31.2627,49.209 31.596,48.209 32.5,47.5C 35.5,47.8333 36.8333,46.5 36.5,43.5C 37.209,42.596 38.209,42.2627 39.5,42.5C 39.2322,44.099 39.5655,45.4324 40.5,46.5 Z"/></g>
<g><path style="opacity:1" fill="#909090" d="M 35.5,40.5 C 35.2627,41.791 35.596,42.791 36.5,43.5C 36.8333,46.5 35.5,47.8333 32.5,47.5C 31.791,46.596 30.791,46.2627 29.5,46.5C 30.9187,45.5489 32.5853,45.2155 34.5,45.5C 34.2155,43.5853 34.5489,41.9187 35.5,40.5 Z"/></g>
<g><path style="opacity:1" fill="#d4d4d4" d="M 29.5,46.5 C 30.791,46.2627 31.791,46.596 32.5,47.5C 31.596,48.209 31.2627,49.209 31.5,50.5C 33.099,50.2322 34.4324,50.5655 35.5,51.5C 35.7373,52.791 35.404,53.791 34.5,54.5C 31.2031,52.8665 29.5364,50.1999 29.5,46.5 Z"/></g>
<g><path style="opacity:1" fill="#f3f3f3" d="M 66.5,52.5 C 67.8333,52.5 69.1667,52.5 70.5,52.5C 70.5,53.8333 70.5,55.1667 70.5,56.5C 69.1667,56.5 67.8333,56.5 66.5,56.5C 66.5,55.1667 66.5,53.8333 66.5,52.5 Z"/></g>
<g><path style="opacity:1" fill="#e5e5e5" d="M 77.5,52.5 C 81.1378,51.7366 82.6378,53.0699 82,56.5C 78.3307,58.0093 76.8307,56.6759 77.5,52.5 Z"/></g>
<g><path style="opacity:1" fill="#adadad" d="M 43.5,45.5 C 46.488,45.1547 47.8213,46.488 47.5,49.5C 47.597,52.9114 45.9304,54.2447 42.5,53.5C 42.5324,58.2129 40.1991,59.7129 35.5,58C 34.6634,56.9887 34.33,55.8221 34.5,54.5C 35.404,53.791 35.7373,52.791 35.5,51.5C 36.4511,52.9187 36.7845,54.5853 36.5,56.5C 37.552,56.6495 38.552,56.4828 39.5,56C 40.6667,53.5 42.5,51.6667 45,50.5C 45.4828,49.552 45.6495,48.552 45.5,47.5C 43.5853,47.7845 41.9187,47.4511 40.5,46.5C 41.791,46.7373 42.791,46.404 43.5,45.5 Z"/></g>
</svg>
