<?xml version="1.0" encoding="UTF-8"?>
<!DOCTYPE svg PUBLIC "-//W3C//DTD SVG 1.1//EN" "http://www.w3.org/Graphics/SVG/1.1/DTD/svg11.dtd">
<svg xmlns="http://www.w3.org/2000/svg" version="1.1" width="105px" height="105px" style="shape-rendering:geometricPrecision; text-rendering:geometricPrecision; image-rendering:optimizeQuality; fill-rule:evenodd; clip-rule:evenodd" xmlns:xlink="http://www.w3.org/1999/xlink">
<g><path style="opacity:1" fill="#fcfcfc" d="M -0.5,-0.5 C 34.5,-0.5 69.5,-0.5 104.5,-0.5C 104.5,34.5 104.5,69.5 104.5,104.5C 69.5,104.5 34.5,104.5 -0.5,104.5C -0.5,69.5 -0.5,34.5 -0.5,-0.5 Z"/></g>
<g><path style="opacity:1" fill="#050505" d="M 87.5,19.5 C 87.5,36.1667 87.5,52.8333 87.5,69.5C 79.8261,69.3336 72.1594,69.5003 64.5,70C 62.2922,70.1909 60.2922,70.6909 58.5,71.5C 56.0281,71.9416 53.5281,72.275 51,72.5C 45.568,71.2669 40.068,70.6003 34.5,70.5C 28.021,69.5093 21.3543,69.176 14.5,69.5C 14.5,52.8333 14.5,36.1667 14.5,19.5C 38.8333,19.5 63.1667,19.5 87.5,19.5 Z"/></g>
<g><path style="opacity:1" fill="#818181" d="M 87.5,19.5 C 88.4966,36.3251 88.8299,53.3251 88.5,70.5C 87.209,70.2627 86.209,70.596 85.5,71.5C 76.8333,71.5 68.1667,71.5 59.5,71.5C 59.1667,71.5 58.8333,71.5 58.5,71.5C 60.2922,70.6909 62.2922,70.1909 64.5,70C 72.1594,69.5003 79.8261,69.3336 87.5,69.5C 87.5,52.8333 87.5,36.1667 87.5,19.5 Z"/></g>
<g><path style="opacity:1" fill="#7d7d7d" d="M 80.5,26.5 C 79.5084,26.3284 78.8417,26.6618 78.5,27.5C 59.8333,27.5 41.1667,27.5 22.5,27.5C 22.5,39.5 22.5,51.5 22.5,63.5C 21.9569,63.56 21.6236,63.8933 21.5,64.5C 35.4841,65.4992 49.4841,65.8326 63.5,65.5C 49.3431,66.4959 35.0097,66.8293 20.5,66.5C 20.177,52.9208 20.5103,39.4208 21.5,26C 41.3376,25.1709 61.0043,25.3376 80.5,26.5 Z"/></g>
<g><path style="opacity:1" fill="#000000" d="M 78.5,27.5 C 78.5,39.5 78.5,51.5 78.5,63.5C 59.8333,63.5 41.1667,63.5 22.5,63.5C 22.5,51.5 22.5,39.5 22.5,27.5C 41.1667,27.5 59.8333,27.5 78.5,27.5 Z"/></g>
<g><path style="opacity:1" fill="#c9c9c9" d="M 80.5,26.5 C 80.6666,39.1711 80.4999,51.8377 80,64.5C 74.5934,65.4732 69.0934,65.8066 63.5,65.5C 49.4841,65.8326 35.4841,65.4992 21.5,64.5C 21.6236,63.8933 21.9569,63.56 22.5,63.5C 41.1667,63.5 59.8333,63.5 78.5,63.5C 78.5,51.5 78.5,39.5 78.5,27.5C 78.8417,26.6618 79.5084,26.3284 80.5,26.5 Z"/></g>
<g><path style="opacity:1" fill="#7f7f7f" d="M 14.5,69.5 C 21.3543,69.176 28.021,69.5093 34.5,70.5C 34.5,70.8333 34.5,71.1667 34.5,71.5C 28.1667,71.5 21.8333,71.5 15.5,71.5C 15.1667,70.8333 14.8333,70.1667 14.5,69.5 Z"/></g>
<g><path style="opacity:1" fill="#030303" d="M 15.5,71.5 C 21.8333,71.5 28.1667,71.5 34.5,71.5C 40.4774,72.4885 46.4774,73.4885 52.5,74.5C 55.5005,74.8284 57.8339,73.8284 59.5,71.5C 68.1667,71.5 76.8333,71.5 85.5,71.5C 88.6305,70.9078 90.9639,71.9078 92.5,74.5C 92.5,76.5 92.5,78.5 92.5,80.5C 67.5,80.5 42.5,80.5 17.5,80.5C 14.5525,80.7771 11.7191,80.4438 9,79.5C 7.27858,73.7189 9.44525,71.0522 15.5,71.5 Z"/></g>
<g><path style="opacity:1" fill="#bfbfbf" d="M 34.5,71.5 C 34.5,71.1667 34.5,70.8333 34.5,70.5C 40.068,70.6003 45.568,71.2669 51,72.5C 53.5281,72.275 56.0281,71.9416 58.5,71.5C 58.8333,71.5 59.1667,71.5 59.5,71.5C 57.8339,73.8284 55.5005,74.8284 52.5,74.5C 46.4774,73.4885 40.4774,72.4885 34.5,71.5 Z"/></g>
<g><path style="opacity:1" fill="#818181" d="M 92.5,74.5 C 93.4682,76.6074 93.8016,78.9407 93.5,81.5C 67.9945,81.8311 42.6612,81.4977 17.5,80.5C 42.5,80.5 67.5,80.5 92.5,80.5C 92.5,78.5 92.5,76.5 92.5,74.5 Z"/></g>
</svg>
