<?xml version="1.0" encoding="UTF-8"?>
<!DOCTYPE svg PUBLIC "-//W3C//DTD SVG 1.1//EN" "http://www.w3.org/Graphics/SVG/1.1/DTD/svg11.dtd">
<svg xmlns="http://www.w3.org/2000/svg" version="1.1" width="108px" height="108px" style="shape-rendering:geometricPrecision; text-rendering:geometricPrecision; image-rendering:optimizeQuality; fill-rule:evenodd; clip-rule:evenodd" xmlns:xlink="http://www.w3.org/1999/xlink">
<g><path style="opacity:1" fill="#fefefe" d="M -0.5,-0.5 C 35.5,-0.5 71.5,-0.5 107.5,-0.5C 107.5,35.5 107.5,71.5 107.5,107.5C 71.5,107.5 35.5,107.5 -0.5,107.5C -0.5,71.5 -0.5,35.5 -0.5,-0.5 Z"/></g>
<g><path style="opacity:1" fill="#030303" d="M 90.5,64.5 C 77.8289,64.6666 65.1623,64.4999 52.5,64C 45.651,61.8632 38.651,60.6965 31.5,60.5C 25.3554,59.5098 19.0221,59.1765 12.5,59.5C 12.1816,49.9166 12.5149,40.4166 13.5,31C 18.8333,30.6667 24.1667,30.3333 29.5,30C 35.0526,27.3904 40.7192,25.0571 46.5,23C 50.4755,21.6206 53.3088,22.7873 55,26.5C 55.5317,30.9092 55.5317,35.2426 55,39.5C 56.3333,38.1667 57.6667,36.8333 59,35.5C 62.5171,37.9657 63.0171,40.799 60.5,44C 62.8098,44.4966 65.1432,44.6633 67.5,44.5C 65.5978,49.4361 66.7644,50.4361 71,47.5C 77.4216,50.1962 83.9216,52.6962 90.5,55C 93.8922,57.2854 95.5589,60.452 95.5,64.5C 93.8333,64.5 92.1667,64.5 90.5,64.5 Z"/></g>
<g><path style="opacity:1" fill="#7d7d7d" d="M 12.5,59.5 C 19.0221,59.1765 25.3554,59.5098 31.5,60.5C 31.5,60.8333 31.5,61.1667 31.5,61.5C 25.1667,61.5 18.8333,61.5 12.5,61.5C 12.5,60.8333 12.5,60.1667 12.5,59.5 Z"/></g>
<g><path style="opacity:1" fill="#a0a0a0" d="M 31.5,61.5 C 31.5,61.1667 31.5,60.8333 31.5,60.5C 38.651,60.6965 45.651,61.8632 52.5,64C 65.1623,64.4999 77.8289,64.6666 90.5,64.5C 92.1667,65.1667 93.8333,65.8333 95.5,66.5C 82.8289,66.6666 70.1623,66.4999 57.5,66C 48.8785,64.1772 40.2118,62.6772 31.5,61.5 Z"/></g>
<g><path style="opacity:1" fill="#010101" d="M 12.5,61.5 C 18.8333,61.5 25.1667,61.5 31.5,61.5C 40.2118,62.6772 48.8785,64.1772 57.5,66C 70.1623,66.4999 82.8289,66.6666 95.5,66.5C 95.5,69.5 95.5,72.5 95.5,75.5C 86.1667,75.5 76.8333,75.5 67.5,75.5C 57.6362,75.4145 47.9695,74.0812 38.5,71.5C 37.5655,72.5676 37.2322,73.901 37.5,75.5C 29.1667,75.5 20.8333,75.5 12.5,75.5C 12.5,70.8333 12.5,66.1667 12.5,61.5 Z"/></g>
<g><path style="opacity:1" fill="#7b7b7b" d="M 12.5,61.5 C 12.5,66.1667 12.5,70.8333 12.5,75.5C 20.8333,75.5 29.1667,75.5 37.5,75.5C 37.2322,73.901 37.5655,72.5676 38.5,71.5C 38.5,73.1667 38.5,74.8333 38.5,76.5C 29.5,76.5 20.5,76.5 11.5,76.5C 11.1795,71.3054 11.5128,66.3054 12.5,61.5 Z"/></g>
<g><path style="opacity:1" fill="#828282" d="M 95.5,66.5 C 96.4794,69.6248 96.8128,72.9581 96.5,76.5C 86.6522,76.8271 76.9856,76.4938 67.5,75.5C 76.8333,75.5 86.1667,75.5 95.5,75.5C 95.5,72.5 95.5,69.5 95.5,66.5 Z"/></g>
</svg>
