<?xml version="1.0" encoding="UTF-8"?>
<!DOCTYPE svg PUBLIC "-//W3C//DTD SVG 1.1//EN" "http://www.w3.org/Graphics/SVG/1.1/DTD/svg11.dtd">
<svg xmlns="http://www.w3.org/2000/svg" version="1.1" width="108px" height="108px" style="shape-rendering:geometricPrecision; text-rendering:geometricPrecision; image-rendering:optimizeQuality; fill-rule:evenodd; clip-rule:evenodd" xmlns:xlink="http://www.w3.org/1999/xlink">
<g><path style="opacity:1" fill="#fcfcfc" d="M -0.5,-0.5 C 35.5,-0.5 71.5,-0.5 107.5,-0.5C 107.5,35.5 107.5,71.5 107.5,107.5C 71.5,107.5 35.5,107.5 -0.5,107.5C -0.5,71.5 -0.5,35.5 -0.5,-0.5 Z"/></g>
<g><path style="opacity:1" fill="#010101" d="M 57.5,71.5 C 57.5,80.1667 57.5,88.8333 57.5,97.5C 53.5,97.5 49.5,97.5 45.5,97.5C 45.5,88.8333 45.5,80.1667 45.5,71.5C 46.1283,68.91 47.295,66.5766 49,64.5C 49.3333,61.5 49.6667,58.5 50,55.5C 50.3076,54.6919 50.8076,54.0253 51.5,53.5C 64.3555,49.8817 77.3555,46.8817 90.5,44.5C 90.8885,39.3722 90.3885,34.3722 89,29.5C 88.6012,29.7284 88.4346,30.0618 88.5,30.5C 87.5184,33.9619 87.185,37.6286 87.5,41.5C 64.5,41.5 41.5,41.5 18.5,41.5C 17.2502,41.4226 16.4169,40.756 16,39.5C 15.5003,31.1733 15.3336,22.84 15.5,14.5C 39.5,14.5 63.5,14.5 87.5,14.5C 87.3354,17.5184 87.502,20.5184 88,23.5C 89.1769,25.1757 90.6769,26.5091 92.5,27.5C 93.6639,33.8072 93.8306,40.1405 93,46.5C 91.8289,47.8932 90.3289,48.7265 88.5,49C 77.1702,51.5657 65.8369,54.0657 54.5,56.5C 53.3526,58.7649 53.1859,61.0982 54,63.5C 55.3961,66.0639 56.5627,68.7305 57.5,71.5 Z"/></g>
<g><path style="opacity:1" fill="#676767" d="M 88.5,30.5 C 88.5,34.5 88.5,38.5 88.5,42.5C 64.994,42.8309 41.6607,42.4975 18.5,41.5C 41.5,41.5 64.5,41.5 87.5,41.5C 87.185,37.6286 87.5184,33.9619 88.5,30.5 Z"/></g>
<g><path style="opacity:1" fill="#868686" d="M 45.5,71.5 C 45.5,80.1667 45.5,88.8333 45.5,97.5C 49.5,97.5 53.5,97.5 57.5,97.5C 57.5,88.8333 57.5,80.1667 57.5,71.5C 58.4933,80.3178 58.8266,89.3178 58.5,98.5C 53.8333,98.5 49.1667,98.5 44.5,98.5C 44.1734,89.3178 44.5067,80.3178 45.5,71.5 Z"/></g>
</svg>
