<?xml version="1.0" encoding="UTF-8"?>
<!DOCTYPE svg PUBLIC "-//W3C//DTD SVG 1.1//EN" "http://www.w3.org/Graphics/SVG/1.1/DTD/svg11.dtd">
<svg xmlns="http://www.w3.org/2000/svg" version="1.1" width="76px" height="114px" style="shape-rendering:geometricPrecision; text-rendering:geometricPrecision; image-rendering:optimizeQuality; fill-rule:evenodd; clip-rule:evenodd" xmlns:xlink="http://www.w3.org/1999/xlink">
<g><path style="opacity:1" fill="#fbfbfb" d="M -0.5,-0.5 C 24.8333,-0.5 50.1667,-0.5 75.5,-0.5C 75.5,37.5 75.5,75.5 75.5,113.5C 50.1667,113.5 24.8333,113.5 -0.5,113.5C -0.5,75.5 -0.5,37.5 -0.5,-0.5 Z"/></g>
<g><path style="opacity:1" fill="#010101" d="M 62.5,19.5 C 62.5,21.1667 62.5,22.8333 62.5,24.5C 45.8333,24.5 29.1667,24.5 12.5,24.5C 12.5,22.8333 12.5,21.1667 12.5,19.5C 13.2026,17.2843 14.5359,15.451 16.5,14C 30.5,13.3333 44.5,13.3333 58.5,14C 60.4641,15.451 61.7974,17.2843 62.5,19.5 Z"/></g>
<g><path style="opacity:1" fill="#7b7b7b" d="M 12.5,19.5 C 12.5,21.1667 12.5,22.8333 12.5,24.5C 29.1667,24.5 45.8333,24.5 62.5,24.5C 62.5,22.8333 62.5,21.1667 62.5,19.5C 63.4614,21.2646 63.7947,23.2646 63.5,25.5C 46.1667,25.5 28.8333,25.5 11.5,25.5C 11.2053,23.2646 11.5386,21.2646 12.5,19.5 Z"/></g>
<g><path style="opacity:1" fill="#606060" d="M 35.5,19.5 C 36.9778,19.238 38.3112,19.5713 39.5,20.5C 38.8333,20.8333 38.1667,21.1667 37.5,21.5C 36.2867,21.2528 35.62,20.5862 35.5,19.5 Z"/></g>
<g><path style="opacity:1" fill="#848484" d="M 12.5,27.5 C 12.5,46.1667 12.5,64.8333 12.5,83.5C 29.1667,83.5 45.8333,83.5 62.5,83.5C 62.5,64.8333 62.5,46.1667 62.5,27.5C 63.8333,48.5 63.8333,69.5 62.5,90.5C 62.5,88.8333 62.5,87.1667 62.5,85.5C 45.8333,85.5 29.1667,85.5 12.5,85.5C 12.5,86.8333 12.5,88.1667 12.5,89.5C 11.1667,68.8333 11.1667,48.1667 12.5,27.5 Z"/></g>
<g><path style="opacity:1" fill="#000000" d="M 12.5,27.5 C 29.1667,27.5 45.8333,27.5 62.5,27.5C 62.5,46.1667 62.5,64.8333 62.5,83.5C 45.8333,83.5 29.1667,83.5 12.5,83.5C 12.5,64.8333 12.5,46.1667 12.5,27.5 Z"/></g>
<g><path style="opacity:1" fill="#020202" d="M 62.5,90.5 C 62.0611,94.1057 60.0611,96.2723 56.5,97C 43.1667,97.6667 29.8333,97.6667 16.5,97C 13.9756,95.117 12.6423,92.617 12.5,89.5C 12.5,88.1667 12.5,86.8333 12.5,85.5C 29.1667,85.5 45.8333,85.5 62.5,85.5C 62.5,87.1667 62.5,88.8333 62.5,90.5 Z"/></g>
</svg>
