<?xml version="1.0" encoding="UTF-8"?>
<!DOCTYPE svg PUBLIC "-//W3C//DTD SVG 1.1//EN" "http://www.w3.org/Graphics/SVG/1.1/DTD/svg11.dtd">
<svg xmlns="http://www.w3.org/2000/svg" version="1.1" width="115px" height="115px" style="shape-rendering:geometricPrecision; text-rendering:geometricPrecision; image-rendering:optimizeQuality; fill-rule:evenodd; clip-rule:evenodd" xmlns:xlink="http://www.w3.org/1999/xlink">
<g><path style="opacity:1" fill="#fdfdfd" d="M -0.5,-0.5 C 37.8333,-0.5 76.1667,-0.5 114.5,-0.5C 114.5,37.8333 114.5,76.1667 114.5,114.5C 76.1667,114.5 37.8333,114.5 -0.5,114.5C -0.5,76.1667 -0.5,37.8333 -0.5,-0.5 Z"/></g>
<g><path style="opacity:1" fill="#080808" d="M 35.5,17.5 C 50.5,17.5 65.5,17.5 80.5,17.5C 80.1039,25.253 80.6039,32.9196 82,40.5C 82.4986,36.8484 82.6653,33.1817 82.5,29.5C 83.209,28.596 84.209,28.2627 85.5,28.5C 85.2317,31.1194 85.565,33.6194 86.5,36C 89.7058,36.2963 92.8725,36.7963 96,37.5C 97.4768,38.444 98.4768,39.7774 99,41.5C 99.6667,52.1667 99.6667,62.8333 99,73.5C 97.1713,77.511 94.0046,79.1777 89.5,78.5C 88.1667,78.5 86.8333,78.5 85.5,78.5C 85.8182,73.9677 85.4849,69.6344 84.5,65.5C 66.8333,65.5 49.1667,65.5 31.5,65.5C 30.5151,69.6344 30.1818,73.9677 30.5,78.5C 27.8333,78.5 25.1667,78.5 22.5,78.5C 18.9302,78.0995 16.7636,76.0995 16,72.5C 15.3333,62.1667 15.3333,51.8333 16,41.5C 19.2308,36.6344 23.7308,34.6344 29.5,35.5C 29.2436,33.2075 29.5769,31.0408 30.5,29C 32.9342,28.6671 33.9342,29.8338 33.5,32.5C 33.3354,35.5184 33.502,38.5184 34,41.5C 35.3633,33.5705 35.8633,25.5705 35.5,17.5 Z"/></g>
<g><path style="opacity:1" fill="#7e7e7e" d="M 80.5,17.5 C 81.1667,21.5 81.8333,25.5 82.5,29.5C 82.6653,33.1817 82.4986,36.8484 82,40.5C 80.6039,32.9196 80.1039,25.253 80.5,17.5 Z"/></g>
<g><path style="opacity:1" fill="#7b7b7b" d="M 35.5,17.5 C 35.8633,25.5705 35.3633,33.5705 34,41.5C 33.502,38.5184 33.3354,35.5184 33.5,32.5C 34.1667,27.5 34.8333,22.5 35.5,17.5 Z"/></g>
<g><path style="opacity:1" fill="#828282" d="M 39.5,21.5 C 39.5,28.8333 39.5,36.1667 39.5,43.5C 51.8333,43.5 64.1667,43.5 76.5,43.5C 76.5,36.1667 76.5,28.8333 76.5,21.5C 77.492,28.9818 77.8254,36.6484 77.5,44.5C 64.5,44.5 51.5,44.5 38.5,44.5C 38.1746,36.6484 38.508,28.9818 39.5,21.5 Z"/></g>
<g><path style="opacity:1" fill="#fefffe" d="M 39.5,21.5 C 51.8333,21.5 64.1667,21.5 76.5,21.5C 76.5,28.8333 76.5,36.1667 76.5,43.5C 64.1667,43.5 51.8333,43.5 39.5,43.5C 39.5,36.1667 39.5,28.8333 39.5,21.5 Z"/></g>
<g><path style="opacity:1" fill="#999999" d="M 81.5,53.5 C 84.7973,53.3287 85.1306,53.9954 82.5,55.5C 81.7025,55.0431 81.3691,54.3764 81.5,53.5 Z"/></g>
<g><path style="opacity:1" fill="#838383" d="M 31.5,65.5 C 31.3284,66.4916 31.6618,67.1583 32.5,67.5C 32.5,70.5 32.5,73.5 32.5,76.5C 31.596,77.209 31.2627,78.209 31.5,79.5C 28.2869,79.81 25.2869,79.4767 22.5,78.5C 25.1667,78.5 27.8333,78.5 30.5,78.5C 30.1818,73.9677 30.5151,69.6344 31.5,65.5 Z"/></g>
<g><path style="opacity:1" fill="#d5d5d5" d="M 31.5,65.5 C 49.1667,65.5 66.8333,65.5 84.5,65.5C 84.6716,66.4916 84.3382,67.1583 83.5,67.5C 66.5,67.5 49.5,67.5 32.5,67.5C 31.6618,67.1583 31.3284,66.4916 31.5,65.5 Z"/></g>
<g><path style="opacity:1" fill="#808080" d="M 84.5,65.5 C 85.4849,69.6344 85.8182,73.9677 85.5,78.5C 86.8333,78.5 88.1667,78.5 89.5,78.5C 87.3166,79.8434 85.3166,79.51 83.5,77.5C 83.5,74.1667 83.5,70.8333 83.5,67.5C 84.3382,67.1583 84.6716,66.4916 84.5,65.5 Z"/></g>
<g><path style="opacity:1" fill="#0e0e0e" d="M 32.5,67.5 C 49.5,67.5 66.5,67.5 83.5,67.5C 83.5,70.8333 83.5,74.1667 83.5,77.5C 82.828,78.2674 81.9947,78.9341 81,79.5C 80.6667,83.1667 80.3333,86.8333 80,90.5C 78.5557,92.1554 76.7224,92.822 74.5,92.5C 61.5,92.5 48.5,92.5 35.5,92.5C 35.815,88.6286 35.4816,84.9619 34.5,81.5C 33.8333,79.8333 33.1667,78.1667 32.5,76.5C 32.5,73.5 32.5,70.5 32.5,67.5 Z"/></g>
<g><path style="opacity:1" fill="#838383" d="M 39.5,71.5 C 39.5,77.1667 39.5,82.8333 39.5,88.5C 51.8333,88.5 64.1667,88.5 76.5,88.5C 76.5,82.8333 76.5,77.1667 76.5,71.5C 77.4896,77.31 77.8229,83.31 77.5,89.5C 64.5,89.5 51.5,89.5 38.5,89.5C 38.1771,83.31 38.5104,77.31 39.5,71.5 Z"/></g>
<g><path style="opacity:1" fill="#fefffe" d="M 39.5,71.5 C 51.8333,71.5 64.1667,71.5 76.5,71.5C 76.5,77.1667 76.5,82.8333 76.5,88.5C 64.1667,88.5 51.8333,88.5 39.5,88.5C 39.5,82.8333 39.5,77.1667 39.5,71.5 Z"/></g>
<g><path style="opacity:1" fill="#808080" d="M 34.5,81.5 C 35.4816,84.9619 35.815,88.6286 35.5,92.5C 48.5,92.5 61.5,92.5 74.5,92.5C 61.3438,93.4956 48.0105,93.8289 34.5,93.5C 34.5,89.5 34.5,85.5 34.5,81.5 Z"/></g>
</svg>
