<?xml version="1.0" encoding="UTF-8"?>
<!DOCTYPE svg PUBLIC "-//W3C//DTD SVG 1.1//EN" "http://www.w3.org/Graphics/SVG/1.1/DTD/svg11.dtd">
<svg xmlns="http://www.w3.org/2000/svg" version="1.1" width="102px" height="102px" style="shape-rendering:geometricPrecision; text-rendering:geometricPrecision; image-rendering:optimizeQuality; fill-rule:evenodd; clip-rule:evenodd" xmlns:xlink="http://www.w3.org/1999/xlink">
<g><path style="opacity:1" fill="#fbfbfb" d="M -0.5,-0.5 C 33.5,-0.5 67.5,-0.5 101.5,-0.5C 101.5,33.5 101.5,67.5 101.5,101.5C 67.5,101.5 33.5,101.5 -0.5,101.5C -0.5,67.5 -0.5,33.5 -0.5,-0.5 Z"/></g>
<g><path style="opacity:1" fill="#020202" d="M 71.5,47.5 C 58.2459,48.4808 44.9125,48.8142 31.5,48.5C 31.2041,46.597 30.5375,44.9303 29.5,43.5C 29.5,45.8333 29.5,48.1667 29.5,50.5C 32.8333,50.5 36.1667,50.5 39.5,50.5C 47.8089,49.2751 56.1422,49.2751 64.5,50.5C 67.1667,50.5 69.8333,50.5 72.5,50.5C 72.8115,38.6614 78.4782,34.4947 89.5,38C 91.5924,39.8527 92.5924,42.1861 92.5,45C 89.2981,53.6004 87.1315,62.4337 86,71.5C 84.4207,73.0412 82.5873,74.2078 80.5,75C 78.8729,79.6519 75.5396,81.4852 70.5,80.5C 70.7135,78.8561 70.3802,77.3561 69.5,76C 57.1667,75.3333 44.8333,75.3333 32.5,76C 31.6198,77.3561 31.2865,78.8561 31.5,80.5C 28.8333,80.5 26.1667,80.5 23.5,80.5C 24.5489,76.1694 22.8822,74.0027 18.5,74C 17.2986,73.0975 16.4652,71.9308 16,70.5C 14.5331,61.7988 12.3665,53.2988 9.5,45C 9.55722,42.2719 10.5572,39.9386 12.5,38C 16.7835,36.3371 21.1168,36.0038 25.5,37C 18.7326,31.351 19.0659,26.0176 26.5,21C 34.4014,19.8635 42.4014,19.3635 50.5,19.5C 57.8333,19.6667 65.1667,19.8333 72.5,20C 78.8685,21.3523 81.7018,25.1857 81,31.5C 75.8938,35.7527 72.7272,41.0861 71.5,47.5 Z"/></g>
<g><path style="opacity:1" fill="#878787" d="M 29.5,43.5 C 28.1522,42.4732 27.6522,41.1398 28,39.5C 29.1882,40.5634 29.6882,41.8967 29.5,43.5 Z"/></g>
<g><path style="opacity:1" fill="#797979" d="M 71.5,47.5 C 69.4922,49.0826 67.1589,50.0826 64.5,50.5C 56.1422,49.2751 47.8089,49.2751 39.5,50.5C 36.8333,49.8333 34.1667,49.1667 31.5,48.5C 44.9125,48.8142 58.2459,48.4808 71.5,47.5 Z"/></g>
<g><path style="opacity:1" fill="#b9b9b9" d="M 29.5,43.5 C 30.5375,44.9303 31.2041,46.597 31.5,48.5C 34.1667,49.1667 36.8333,49.8333 39.5,50.5C 36.1667,50.5 32.8333,50.5 29.5,50.5C 29.5,48.1667 29.5,45.8333 29.5,43.5 Z"/></g>
</svg>
