<?xml version="1.0" encoding="UTF-8"?>
<!DOCTYPE svg PUBLIC "-//W3C//DTD SVG 1.1//EN" "http://www.w3.org/Graphics/SVG/1.1/DTD/svg11.dtd">
<svg xmlns="http://www.w3.org/2000/svg" version="1.1" width="121px" height="121px" style="shape-rendering:geometricPrecision; text-rendering:geometricPrecision; image-rendering:optimizeQuality; fill-rule:evenodd; clip-rule:evenodd" xmlns:xlink="http://www.w3.org/1999/xlink">
<g><path style="opacity:1" fill="#fdfdfd" d="M -0.5,-0.5 C 39.8333,-0.5 80.1667,-0.5 120.5,-0.5C 120.5,39.8333 120.5,80.1667 120.5,120.5C 80.1667,120.5 39.8333,120.5 -0.5,120.5C -0.5,80.1667 -0.5,39.8333 -0.5,-0.5 Z"/></g>
<g><path style="opacity:1" fill="#040404" d="M 57.5,17.5 C 68.6793,17.7259 78.6793,21.2259 87.5,28C 83.0828,32.5247 83.5828,33.3581 89,30.5C 89.772,30.6448 90.4387,30.9781 91,31.5C 97.1535,40.0864 99.6535,49.4197 98.5,59.5C 91.5054,59.0557 84.8388,57.389 78.5,54.5C 77.3406,52.7497 75.674,51.7497 73.5,51.5C 72.1783,49.1979 72.1783,46.8646 73.5,44.5C 70.9052,44.6444 68.2386,44.3111 65.5,43.5C 61.0211,35.3963 58.3545,26.7297 57.5,17.5 Z"/></g>
<g><path style="opacity:1" fill="#bebebe" d="M 57.5,17.5 C 58.3545,26.7297 61.0211,35.3963 65.5,43.5C 59.8286,36.1625 56.4953,27.8292 55.5,18.5C 56.1667,18.1667 56.8333,17.8333 57.5,17.5 Z"/></g>
<g><path style="opacity:1" fill="#040404" d="M 34.5,35.5 C 39.8333,41.5 45.5,47.1667 51.5,52.5C 62.8059,64.14 74.1392,75.8067 85.5,87.5C 86.8998,89.9386 86.2331,91.7719 83.5,93C 76.3622,97.2128 68.6955,99.7128 60.5,100.5C 60.4359,94.7235 59.1025,89.3902 56.5,84.5C 57.5031,89.8644 58.5031,95.1978 59.5,100.5C 48.1662,101.445 38.3329,98.1112 30,90.5C 29.3162,89.2161 29.4829,88.0495 30.5,87C 29.1667,87 27.8333,87 26.5,87C 20.3122,79.2732 16.9789,70.4399 16.5,60.5C 17.1522,59.2749 18.3189,58.6083 20,58.5C 26.5364,59.0231 32.7031,60.5231 38.5,63C 31.7526,58.9783 24.4192,56.8116 16.5,56.5C 15.9569,56.44 15.6236,56.1067 15.5,55.5C 17.1072,45.9543 21.1072,37.6209 27.5,30.5C 30.0387,31.9308 32.3721,33.5975 34.5,35.5 Z"/></g>
<g><path style="opacity:1" fill="#b2b2b2" d="M 34.5,35.5 C 34.8333,35.5 35.1667,35.5 35.5,35.5C 41.1667,40.5 46.5,45.8333 51.5,51.5C 51.5,51.8333 51.5,52.1667 51.5,52.5C 45.5,47.1667 39.8333,41.5 34.5,35.5 Z"/></g>
<g><path style="opacity:1" fill="#dedede" d="M 65.5,43.5 C 68.2386,44.3111 70.9052,44.6444 73.5,44.5C 72.1783,46.8646 72.1783,49.1979 73.5,51.5C 69.1667,50.5 66.5,47.8333 65.5,43.5 Z"/></g>
<g><path style="opacity:1" fill="#040404" d="M 55.5,18.5 C 56.4953,27.8292 59.8286,36.1625 65.5,43.5C 66.5,47.8333 69.1667,50.5 73.5,51.5C 74.6594,53.2503 76.326,54.2503 78.5,54.5C 84.2694,58.2027 90.6027,60.5361 97.5,61.5C 98.6935,61.9704 99.3601,62.9704 99.5,64.5C 98.1585,72.5157 95.1585,79.849 90.5,86.5C 89.1916,87.6256 87.8583,87.6256 86.5,86.5C 78.172,78.0047 70.0053,69.338 62,60.5C 61.6948,58.4432 61.6948,56.4432 62,54.5C 57.8434,56.0149 54.3434,55.0149 51.5,51.5C 46.5,45.8333 41.1667,40.5 35.5,35.5C 33.8729,33.3702 32.0396,31.3702 30,29.5C 29.2506,28.365 29.4173,27.365 30.5,26.5C 36.1064,22.8638 42.1064,20.0305 48.5,18C 51.0385,17.2042 53.3718,17.3709 55.5,18.5 Z"/></g>
<g><path style="opacity:1" fill="#999999" d="M 73.5,51.5 C 75.674,51.7497 77.3406,52.7497 78.5,54.5C 76.326,54.2503 74.6594,53.2503 73.5,51.5 Z"/></g>
<g><path style="opacity:1" fill="#d5d5d5" d="M 51.5,51.5 C 54.3434,55.0149 57.8434,56.0149 62,54.5C 61.6948,56.4432 61.6948,58.4432 62,60.5C 70.0053,69.338 78.172,78.0047 86.5,86.5C 85.8333,86.5 85.5,86.8333 85.5,87.5C 74.1392,75.8067 62.8059,64.14 51.5,52.5C 51.5,52.1667 51.5,51.8333 51.5,51.5 Z"/></g>
<g><path style="opacity:1" fill="#979797" d="M 78.5,54.5 C 84.8388,57.389 91.5054,59.0557 98.5,59.5C 98.1667,60.1667 97.8333,60.8333 97.5,61.5C 90.6027,60.5361 84.2694,58.2027 78.5,54.5 Z"/></g>
<g><path style="opacity:1" fill="#9d9d9d" d="M 16.5,56.5 C 24.4192,56.8116 31.7526,58.9783 38.5,63C 32.7031,60.5231 26.5364,59.0231 20,58.5C 18.3189,58.6083 17.1522,59.2749 16.5,60.5C 15.3143,59.2946 15.3143,57.9613 16.5,56.5 Z"/></g>
<g><path style="opacity:1" fill="#d9d9d9" d="M 52.5,76.5 C 49.0285,72.1969 45.0285,68.3635 40.5,65C 42.6159,65.2821 44.7825,65.7821 47,66.5C 48.2259,66.3552 49.3926,66.0219 50.5,65.5C 50.1005,69.1864 50.7672,72.8531 52.5,76.5 Z"/></g>
<g><path style="opacity:1" fill="#8a8a8a" d="M 52.5,76.5 C 54.873,78.5792 56.2064,81.2459 56.5,84.5C 54.659,82.1515 53.3257,79.4848 52.5,76.5 Z"/></g>
<g><path style="opacity:1" fill="#989898" d="M 56.5,84.5 C 59.1025,89.3902 60.4359,94.7235 60.5,100.5C 60.1667,100.5 59.8333,100.5 59.5,100.5C 58.5031,95.1978 57.5031,89.8644 56.5,84.5 Z"/></g>
</svg>
