<?xml version="1.0" encoding="UTF-8"?>
<!DOCTYPE svg PUBLIC "-//W3C//DTD SVG 1.1//EN" "http://www.w3.org/Graphics/SVG/1.1/DTD/svg11.dtd">
<svg xmlns="http://www.w3.org/2000/svg" version="1.1" width="112px" height="112px" style="shape-rendering:geometricPrecision; text-rendering:geometricPrecision; image-rendering:optimizeQuality; fill-rule:evenodd; clip-rule:evenodd" xmlns:xlink="http://www.w3.org/1999/xlink">
<g><path style="opacity:1" fill="#f8f8f8" d="M -0.5,-0.5 C 36.8333,-0.5 74.1667,-0.5 111.5,-0.5C 111.5,36.8333 111.5,74.1667 111.5,111.5C 74.1667,111.5 36.8333,111.5 -0.5,111.5C -0.5,74.1667 -0.5,36.8333 -0.5,-0.5 Z"/></g>
<g><path style="opacity:1" fill="#080808" d="M 66.5,18.5 C 58.6989,19.6276 58.6989,20.2943 66.5,20.5C 67.8333,21.8333 67.8333,23.1667 66.5,24.5C 59.8333,25.1667 59.8333,25.8333 66.5,26.5C 67.7911,27.5417 67.7911,28.7083 66.5,30C 57.495,31.2029 57.8283,32.0363 67.5,32.5C 67.7373,33.791 67.404,34.791 66.5,35.5C 59.8333,36.1667 59.8333,36.8333 66.5,37.5C 67.7911,38.5417 67.7911,39.7083 66.5,41C 57.495,42.2029 57.8283,43.0363 67.5,43.5C 67.7373,44.791 67.404,45.791 66.5,46.5C 59.8333,47.1667 59.8333,47.8333 66.5,48.5C 67.7911,49.5417 67.7911,50.7083 66.5,52C 57.495,53.2029 57.8283,54.0363 67.5,54.5C 67.7373,55.791 67.404,56.791 66.5,57.5C 59.8333,58.1667 59.8333,58.8333 66.5,59.5C 67.8333,60.8333 67.8333,62.1667 66.5,63.5C 58.5,64.1667 58.5,64.8333 66.5,65.5C 67.8333,66.5 67.8333,67.5 66.5,68.5C 59.8333,69.1667 59.8333,69.8333 66.5,70.5C 67.8333,71.8333 67.8333,73.1667 66.5,74.5C 58.5,75.1667 58.5,75.8333 66.5,76.5C 67.404,77.209 67.7373,78.209 67.5,79.5C 59.8234,79.5233 59.8234,80.5233 67.5,82.5C 67.7373,83.791 67.404,84.791 66.5,85.5C 63.7531,85.1866 61.0865,85.52 58.5,86.5C 61.4281,87.4841 64.4281,87.8174 67.5,87.5C 67.5,90.5 67.5,93.5 67.5,96.5C 59.5,96.5 51.5,96.5 43.5,96.5C 41.9826,96.4894 40.8159,95.8228 40,94.5C 39.6667,91.8333 39.3333,89.1667 39,86.5C 38.0504,62.4583 38.3837,38.4583 40,14.5C 40.5,14 41,13.5 41.5,13C 50.1603,12.5002 58.8269,12.3336 67.5,12.5C 67.7947,14.7354 67.4614,16.7354 66.5,18.5 Z"/></g>
<g><path style="opacity:1" fill="#080808" d="M 31.5,26.5 C 26.9677,26.8182 22.6344,26.4849 18.5,25.5C 20.0453,20.7428 22.3786,16.4094 25.5,12.5C 29.1596,15.8139 31.8263,19.8139 33.5,24.5C 33.2528,25.7133 32.5862,26.38 31.5,26.5 Z"/></g>
<g><path style="opacity:1" fill="#050505" d="M 89.5,49.5 C 89.666,44.1563 89.4994,38.8229 89,33.5C 83.9283,32.5286 78.7616,32.1953 73.5,32.5C 73.5,29.8333 73.5,27.1667 73.5,24.5C 73.2628,20.5898 74.0961,16.9231 76,13.5C 78.0639,12.4086 80.2305,12.2419 82.5,13C 83.4372,16.156 84.9372,18.9894 87,21.5C 87.3333,23.8333 87.6667,26.1667 88,28.5C 89.3561,29.3802 90.8561,29.7135 92.5,29.5C 92.5,36.8333 92.5,44.1667 92.5,51.5C 90.8212,51.7148 89.8212,51.0481 89.5,49.5 Z"/></g>
<g><path style="opacity:1" fill="#6f6f6f" d="M 66.5,18.5 C 66.5,19.1667 66.5,19.8333 66.5,20.5C 58.6989,20.2943 58.6989,19.6276 66.5,18.5 Z"/></g>
<g><path style="opacity:1" fill="#858585" d="M 66.5,24.5 C 66.5,25.1667 66.5,25.8333 66.5,26.5C 59.8333,25.8333 59.8333,25.1667 66.5,24.5 Z"/></g>
<g><path style="opacity:1" fill="#828282" d="M 18.5,25.5 C 22.6344,26.4849 26.9677,26.8182 31.5,26.5C 26.9848,27.8124 22.3181,27.8124 17.5,26.5C 17.6236,25.8933 17.9569,25.56 18.5,25.5 Z"/></g>
<g><path style="opacity:1" fill="#000000" d="M 17.5,29.5 C 23.1667,29.5 28.8333,29.5 34.5,29.5C 34.5,45.1667 34.5,60.8333 34.5,76.5C 28.8333,76.5 23.1667,76.5 17.5,76.5C 17.5,60.8333 17.5,45.1667 17.5,29.5 Z"/></g>
<g><path style="opacity:1" fill="#7e7e7e" d="M 73.5,24.5 C 73.5,27.1667 73.5,29.8333 73.5,32.5C 78.7616,32.1953 83.9283,32.5286 89,33.5C 89.4994,38.8229 89.666,44.1563 89.5,49.5C 88.8333,59.5 88.1667,69.5 87.5,79.5C 87.5,64.5 87.5,49.5 87.5,34.5C 82.8333,34.5 78.1667,34.5 73.5,34.5C 72.2185,31.0641 72.2185,27.7307 73.5,24.5 Z"/></g>
<g><path style="opacity:1" fill="#000000" d="M 73.5,34.5 C 78.1667,34.5 82.8333,34.5 87.5,34.5C 87.5,49.5 87.5,64.5 87.5,79.5C 82.8333,79.5 78.1667,79.5 73.5,79.5C 73.5,64.5 73.5,49.5 73.5,34.5 Z"/></g>
<g><path style="opacity:1" fill="#8e8e8e" d="M 66.5,35.5 C 66.5,36.1667 66.5,36.8333 66.5,37.5C 59.8333,36.8333 59.8333,36.1667 66.5,35.5 Z"/></g>
<g><path style="opacity:1" fill="#8e8e8e" d="M 66.5,46.5 C 66.5,47.1667 66.5,47.8333 66.5,48.5C 59.8333,47.8333 59.8333,47.1667 66.5,46.5 Z"/></g>
<g><path style="opacity:1" fill="#858585" d="M 66.5,57.5 C 66.5,58.1667 66.5,58.8333 66.5,59.5C 59.8333,58.8333 59.8333,58.1667 66.5,57.5 Z"/></g>
<g><path style="opacity:1" fill="#878787" d="M 66.5,63.5 C 66.5,64.1667 66.5,64.8333 66.5,65.5C 58.5,64.8333 58.5,64.1667 66.5,63.5 Z"/></g>
<g><path style="opacity:1" fill="#858585" d="M 66.5,68.5 C 66.5,69.1667 66.5,69.8333 66.5,70.5C 59.8333,69.8333 59.8333,69.1667 66.5,68.5 Z"/></g>
<g><path style="opacity:1" fill="#878787" d="M 66.5,74.5 C 66.5,75.1667 66.5,75.8333 66.5,76.5C 58.5,75.8333 58.5,75.1667 66.5,74.5 Z"/></g>
<g><path style="opacity:1" fill="#060606" d="M 32.5,82.5 C 27.8333,82.5 23.1667,82.5 18.5,82.5C 17.596,81.791 17.2627,80.791 17.5,79.5C 23.1667,79.5 28.8333,79.5 34.5,79.5C 34.7148,81.1788 34.0481,82.1788 32.5,82.5 Z"/></g>
<g><path style="opacity:1" fill="#8f8f8f" d="M 85.5,82.5 C 81.2984,82.1832 77.2984,82.5166 73.5,83.5C 72.9569,83.44 72.6236,83.1067 72.5,82.5C 76.9838,81.1889 81.3171,81.1889 85.5,82.5 Z"/></g>
<g><path style="opacity:1" fill="#8d8d8d" d="M 18.5,82.5 C 23.1667,82.5 27.8333,82.5 32.5,82.5C 33.1667,83.1667 33.8333,83.8333 34.5,84.5C 28.8333,84.5 23.1667,84.5 17.5,84.5C 17.8333,83.8333 18.1667,83.1667 18.5,82.5 Z"/></g>
<g><path style="opacity:1" fill="#070707" d="M 85.5,82.5 C 86.0967,82.7352 86.4301,83.2352 86.5,84C 81.9705,100.736 77.6372,100.57 73.5,83.5C 77.2984,82.5166 81.2984,82.1832 85.5,82.5 Z"/></g>
<g><path style="opacity:1" fill="#070707" d="M 17.5,84.5 C 23.1667,84.5 28.8333,84.5 34.5,84.5C 34.665,87.8499 34.4983,91.1832 34,94.5C 33.5,95 33,95.5 32.5,96C 27.581,96.8015 22.7477,96.6349 18,95.5C 16.515,91.7202 16.3483,88.0535 17.5,84.5 Z"/></g>
<g><path style="opacity:1" fill="#818181" d="M 66.5,85.5 C 68.3177,89.1726 68.9843,93.1726 68.5,97.5C 59.9832,97.8261 51.6499,97.4927 43.5,96.5C 51.5,96.5 59.5,96.5 67.5,96.5C 67.5,93.5 67.5,90.5 67.5,87.5C 64.4281,87.8174 61.4281,87.4841 58.5,86.5C 61.0865,85.52 63.7531,85.1866 66.5,85.5 Z"/></g>
</svg>
