<?xml version="1.0" encoding="UTF-8"?>
<!DOCTYPE svg PUBLIC "-//W3C//DTD SVG 1.1//EN" "http://www.w3.org/Graphics/SVG/1.1/DTD/svg11.dtd">
<svg xmlns="http://www.w3.org/2000/svg" version="1.1" width="120px" height="120px" style="shape-rendering:geometricPrecision; text-rendering:geometricPrecision; image-rendering:optimizeQuality; fill-rule:evenodd; clip-rule:evenodd" xmlns:xlink="http://www.w3.org/1999/xlink">
<g><path style="opacity:1" fill="#fefefe" d="M -0.5,-0.5 C 39.5,-0.5 79.5,-0.5 119.5,-0.5C 119.5,39.5 119.5,79.5 119.5,119.5C 79.5,119.5 39.5,119.5 -0.5,119.5C -0.5,79.5 -0.5,39.5 -0.5,-0.5 Z"/></g>
<g><path style="opacity:1" fill="#060606" d="M 89.5,20.5 C 89.5,25.5 89.5,30.5 89.5,35.5C 69.8333,35.5 50.1667,35.5 30.5,35.5C 29.5028,35.5299 28.8361,35.0299 28.5,34C 29.3557,32.4053 30.6891,31.572 32.5,31.5C 38.1449,30.284 43.8116,30.284 49.5,31.5C 49.8016,28.9407 49.4682,26.6074 48.5,24.5C 41.6866,23.5088 34.6866,23.1755 27.5,23.5C 27.7993,20.3579 29.4659,18.1912 32.5,17C 50.5087,16.5749 68.5087,16.9083 86.5,18C 87.9423,18.3768 88.9423,19.2101 89.5,20.5 Z"/></g>
<g><path style="opacity:1" fill="#eaeaea" d="M 66.5,25.5 C 67.8333,25.5 69.1667,25.5 70.5,25.5C 71.2436,28.9496 69.9103,30.6162 66.5,30.5C 66.5,28.8333 66.5,27.1667 66.5,25.5 Z"/></g>
<g><path style="opacity:1" fill="#eaeaea" d="M 77.5,25.5 C 78.8333,25.5 80.1667,25.5 81.5,25.5C 82.2436,28.9496 80.9103,30.6162 77.5,30.5C 77.5,28.8333 77.5,27.1667 77.5,25.5 Z"/></g>
<g><path style="opacity:1" fill="#070707" d="M 47.5,27.5 C 41.9262,29.4533 35.9262,30.12 29.5,29.5C 27.9519,29.1788 27.2852,28.1788 27.5,26.5C 34.3543,26.176 41.021,26.5093 47.5,27.5 Z"/></g>
<g><path style="opacity:1" fill="#999999" d="M 48.5,24.5 C 49.4682,26.6074 49.8016,28.9407 49.5,31.5C 43.8116,30.284 38.1449,30.284 32.5,31.5C 31.5,30.8333 30.5,30.1667 29.5,29.5C 35.9262,30.12 41.9262,29.4533 47.5,27.5C 48.404,26.791 48.7373,25.791 48.5,24.5 Z"/></g>
<g><path style="opacity:1" fill="#878787" d="M 89.5,20.5 C 90.8333,44.8333 90.8333,69.1667 89.5,93.5C 89.5,74.8333 89.5,56.1667 89.5,37.5C 68.8333,37.5 48.1667,37.5 27.5,37.5C 28.5,36.8333 29.5,36.1667 30.5,35.5C 50.1667,35.5 69.8333,35.5 89.5,35.5C 89.5,30.5 89.5,25.5 89.5,20.5 Z"/></g>
<g><path style="opacity:1" fill="#7f7f7f" d="M 27.5,37.5 C 27.5,55.1667 27.5,72.8333 27.5,90.5C 33.0262,90.1786 38.3595,90.5119 43.5,91.5C 41.5853,91.2155 39.9187,91.5489 38.5,92.5C 36.1667,92.5 33.8333,92.5 31.5,92.5C 30.0813,91.5489 28.4147,91.2155 26.5,91.5C 26.1699,73.3256 26.5032,55.3256 27.5,37.5 Z"/></g>
<g><path style="opacity:1" fill="#020202" d="M 27.5,37.5 C 48.1667,37.5 68.8333,37.5 89.5,37.5C 89.5,56.1667 89.5,74.8333 89.5,93.5C 90.8155,98.836 88.8155,101.503 83.5,101.5C 70.5,101.5 57.5,101.5 44.5,101.5C 44.8128,97.9581 44.4794,94.6248 43.5,91.5C 38.3595,90.5119 33.0262,90.1786 27.5,90.5C 27.5,72.8333 27.5,55.1667 27.5,37.5 Z"/></g>
<g><path style="opacity:1" fill="#d0d0d0" d="M 68.5,47.5 C 55.0491,42.4757 45.5491,46.4757 40,59.5C 39.2087,65.2957 39.7087,70.9624 41.5,76.5C 36.3838,68.7824 36.2172,60.7824 41,52.5C 49.0279,43.93 58.1946,42.2633 68.5,47.5 Z"/></g>
<g><path style="opacity:1" fill="#c9c9c9" d="M 68.5,47.5 C 69.7562,47.4614 70.7562,47.9614 71.5,49C 70.0024,49.5847 69.0024,49.0847 68.5,47.5 Z"/></g>
<g><path style="opacity:1" fill="#f5f5f5" d="M 54.5,49.5 C 66.3616,48.5423 72.8616,53.8756 74,65.5C 71.1158,63.4739 67.9491,62.1406 64.5,61.5C 60.5152,62.8229 56.5152,64.1563 52.5,65.5C 43.202,64.4593 41.5353,60.626 47.5,54C 49.8981,52.4758 52.2314,50.9758 54.5,49.5 Z"/></g>
<g><path style="opacity:1" fill="#929292" d="M 77.5,58.5 C 75.7631,56.3599 74.5965,54.0266 74,51.5C 76.2379,53.3091 77.4046,55.6424 77.5,58.5 Z"/></g>
<g><path style="opacity:1" fill="#555555" d="M 77.5,58.5 C 79.1744,61.5544 79.6744,64.8877 79,68.5C 78.1744,65.2072 77.6744,61.8738 77.5,58.5 Z"/></g>
<g><path style="opacity:1" fill="#b1b1b1" d="M 41.5,76.5 C 42.9063,76.9731 43.573,77.9731 43.5,79.5C 42.0937,79.0269 41.427,78.0269 41.5,76.5 Z"/></g>
<g><path style="opacity:1" fill="#cccccc" d="M 43.5,79.5 C 54.7865,88.1129 65.2865,87.1129 75,76.5C 76.2754,74.2827 77.2754,71.9494 78,69.5C 77.6188,78.2271 73.1188,83.7271 64.5,86C 60.1667,86.6667 55.8333,86.6667 51.5,86C 48.0641,84.7261 45.3974,82.5594 43.5,79.5 Z"/></g>
<g><path style="opacity:1" fill="#f2f2f2" d="M 38.5,92.5 C 39.9187,91.5489 41.5853,91.2155 43.5,91.5C 43.7678,93.099 43.4345,94.4324 42.5,95.5C 41.7377,93.7376 40.4044,92.7376 38.5,92.5 Z"/></g>
<g><path style="opacity:1" fill="#858585" d="M 43.5,91.5 C 44.4794,94.6248 44.8128,97.9581 44.5,101.5C 57.5,101.5 70.5,101.5 83.5,101.5C 66.5,102.833 49.5,102.833 32.5,101.5C 35.8333,101.5 39.1667,101.5 42.5,101.5C 42.5,99.5 42.5,97.5 42.5,95.5C 43.4345,94.4324 43.7678,93.099 43.5,91.5 Z"/></g>
<g><path style="opacity:1" fill="#040404" d="M 31.5,92.5 C 33.8333,92.5 36.1667,92.5 38.5,92.5C 40.4044,92.7376 41.7377,93.7376 42.5,95.5C 42.5,97.5 42.5,99.5 42.5,101.5C 39.1667,101.5 35.8333,101.5 32.5,101.5C 28.4844,100.805 26.9844,98.4716 28,94.5C 28.8159,93.1772 29.9826,92.5106 31.5,92.5 Z"/></g>
</svg>
