<?xml version="1.0" encoding="UTF-8"?>
<!DOCTYPE svg PUBLIC "-//W3C//DTD SVG 1.1//EN" "http://www.w3.org/Graphics/SVG/1.1/DTD/svg11.dtd">
<svg xmlns="http://www.w3.org/2000/svg" version="1.1" width="117px" height="117px" style="shape-rendering:geometricPrecision; text-rendering:geometricPrecision; image-rendering:optimizeQuality; fill-rule:evenodd; clip-rule:evenodd" xmlns:xlink="http://www.w3.org/1999/xlink">
<g><path style="opacity:1" fill="#fefefe" d="M -0.5,-0.5 C 38.5,-0.5 77.5,-0.5 116.5,-0.5C 116.5,38.5 116.5,77.5 116.5,116.5C 77.5,116.5 38.5,116.5 -0.5,116.5C -0.5,77.5 -0.5,38.5 -0.5,-0.5 Z"/></g>
<g><path style="opacity:1" fill="#0c0c0c" d="M 50.5,14.5 C 58.5852,14.0989 66.5852,14.5989 74.5,16C 75.7014,16.9025 76.5348,18.0692 77,19.5C 80.3688,32.2381 86.3688,43.5714 95,53.5C 95.9116,59.3013 93.9116,63.968 89,67.5C 87.4443,72.2798 85.1109,76.6131 82,80.5C 79.6263,86.0366 77.6263,91.7033 76,97.5C 74.8289,98.8932 73.3289,99.7265 71.5,100C 60.0683,100.99 48.735,100.49 37.5,98.5C 35.4376,94.0306 33.9376,89.3639 33,84.5C 28.3324,78.1567 24.999,71.1567 23,63.5C 22.3333,59.5 22.3333,55.5 23,51.5C 28.376,39.6866 33.5427,27.8533 38.5,16C 42.6877,15.8238 46.6877,15.3238 50.5,14.5 Z"/></g>
<g><path style="opacity:1" fill="#838383" d="M 40.5,19.5 C 40.5,20.5 40.5,21.5 40.5,22.5C 50.8333,22.5 61.1667,22.5 71.5,22.5C 71.5,21.5 71.5,20.5 71.5,19.5C 72.4345,20.5676 72.7678,21.901 72.5,23.5C 61.5,23.5 50.5,23.5 39.5,23.5C 39.2322,21.901 39.5655,20.5676 40.5,19.5 Z"/></g>
<g><path style="opacity:1" fill="#fefffe" d="M 40.5,19.5 C 50.8333,19.5 61.1667,19.5 71.5,19.5C 71.5,20.5 71.5,21.5 71.5,22.5C 61.1667,22.5 50.8333,22.5 40.5,22.5C 40.5,21.5 40.5,20.5 40.5,19.5 Z"/></g>
<g><path style="opacity:1" fill="#d6d6d6" d="M 78.5,43.5 C 75.7029,41.205 73.0362,38.705 70.5,36C 67.7022,34.266 64.7022,33.0993 61.5,32.5C 56.4671,32.3366 51.4671,32.8366 46.5,34C 42.0496,36.6193 38.0496,39.7859 34.5,43.5C 44.1086,29.5977 56.4419,26.7643 71.5,35C 74.4468,37.4356 76.7801,40.2689 78.5,43.5 Z"/></g>
<g><path style="opacity:1" fill="#020202" d="M 78.5,43.5 C 84.9646,57.3389 82.2979,69.1722 70.5,79C 54.2694,86.907 41.6027,83.0736 32.5,67.5C 31.7195,62.6424 31.3862,57.8091 31.5,53C 32.2065,49.7151 33.2065,46.5484 34.5,43.5C 38.0496,39.7859 42.0496,36.6193 46.5,34C 51.4671,32.8366 56.4671,32.3366 61.5,32.5C 64.7022,33.0993 67.7022,34.266 70.5,36C 73.0362,38.705 75.7029,41.205 78.5,43.5 Z"/></g>
<g><path style="opacity:1" fill="#d9d9d9" d="M 34.5,43.5 C 33.2065,46.5484 32.2065,49.7151 31.5,53C 31.3862,57.8091 31.7195,62.6424 32.5,67.5C 31.7321,66.7375 31.2321,65.7375 31,64.5C 30.3333,59.5 30.3333,54.5 31,49.5C 31.4238,46.9746 32.5905,44.9746 34.5,43.5 Z"/></g>
<g><path style="opacity:1" fill="#dddddd" d="M 67.5,45.5 C 68.525,45.8966 68.6917,46.5632 68,47.5C 65.4634,50.372 62.6301,52.872 59.5,55C 56.3511,56.0346 53.6844,55.3679 51.5,53C 54.0977,53.4217 56.7644,53.4217 59.5,53C 62.4315,50.7155 65.0982,48.2155 67.5,45.5 Z"/></g>
<g><path style="opacity:1" fill="#606060" d="M 90.5,55.5 C 91.5862,55.62 92.2528,56.2867 92.5,57.5C 92.1667,58.1667 91.8333,58.8333 91.5,59.5C 90.5713,58.3112 90.238,56.9778 90.5,55.5 Z"/></g>
<g><path style="opacity:1" fill="#d9d9d9" d="M 78.5,43.5 C 80.4741,45.428 81.9741,47.7613 83,50.5C 85.072,64.1888 80.2386,74.6888 68.5,82C 56.0826,87.1295 45.2493,84.9629 36,75.5C 34.0073,73.1825 32.8406,70.5158 32.5,67.5C 41.6027,83.0736 54.2694,86.907 70.5,79C 82.2979,69.1722 84.9646,57.3389 78.5,43.5 Z"/></g>
<g><path style="opacity:1" fill="#838383" d="M 41.5,92.5 C 41.5,93.5 41.5,94.5 41.5,95.5C 51.5,95.5 61.5,95.5 71.5,95.5C 71.5,94.5 71.5,93.5 71.5,92.5C 72.4345,93.5676 72.7678,94.901 72.5,96.5C 61.8333,96.5 51.1667,96.5 40.5,96.5C 40.2322,94.901 40.5655,93.5676 41.5,92.5 Z"/></g>
<g><path style="opacity:1" fill="#fefffe" d="M 41.5,92.5 C 51.5,92.5 61.5,92.5 71.5,92.5C 71.5,93.5 71.5,94.5 71.5,95.5C 61.5,95.5 51.5,95.5 41.5,95.5C 41.5,94.5 41.5,93.5 41.5,92.5 Z"/></g>
</svg>
