<svg class="img-fluid" id="outputsvg" xmlns="http://www.w3.org/2000/svg" rs_id="2993" width="220" height="220" viewBox="0 0 2200 2200"><g id="l5vQmw0YgeoMsOkXTRETtfZ" fill="rgb(0,0,0)" style="transform: none;" rs_id="2994"><g rs_id="2995"><path id="pRBzdvW08" d="M353 1656 l-28 -24 -6 -219 c-7 -223 -10 -251 -57 -433 -24 -92 -27 -125 -27 -260 l0 -156 37 -76 c50 -99 74 -112 202 -106 104 5 156 25 246 94 100 76 189 181 399 473 25 34 73 91 109 126 84 84 136 104 298 115 134 9 196 28 295 92 83 53 110 94 116 170 9 128 -28 150 -347 199 -111 17 -190 23 -340 23 -184 1 -198 0 -242 -22 -53 -26 -87 -71 -163 -220 -56 -109 -123 -187 -195 -226 -28 -15 -53 -26 -55 -24 -2 2 -8 91 -13 198 -9 203 -14 223 -60 273 -22 23 -33 27 -83 27 -47 0 -63 -5 -86 -24z" rs_id="2996"></path></g></g><g id="lk80gfBuR7W0Z9jh9pT0aj" fill="rgb(255,255,255)" style="transform: none;" rs_id="2997"><g rs_id="2998"><path id="pWu6Ha0Ii" d="M0 1100 l0 -1100 1100 0 1100 0 0 1100 0 1100 -1100 0 -1100 0 0 -1100z m499 515 c17 -20 33 -48 37 -63 3 -15 8 -33 10 -41 9 -29 -17 -41 -92 -41 -94 0 -109 13 -100 84 11 95 87 127 145 61z m1069 4 c174 -26 244 -43 285 -66 91 -54 64 -160 -62 -241 -99 -64 -161 -83 -295 -92 -162 -11 -214 -31 -298 -115 -36 -35 -84 -92 -109 -126 -314 -436 -440 -552 -615 -567 -94 -7 -125 12 -172 106 -37 76 -37 77 -37 202 0 102 5 144 27 230 44 174 50 209 55 358 l6 142 97 0 98 0 7 -165 c4 -91 9 -165 12 -165 3 0 41 19 84 41 100 52 161 117 224 241 93 181 128 219 217 238 65 14 322 3 476 -21z" rs_id="2999"></path></g></g></svg>