<svg class="img-fluid" id="outputsvg" xmlns="http://www.w3.org/2000/svg" rs_id="2761" width="1200" height="628" viewBox="0 0 12000 6280"><g id="l6dFRFUNOj0RzFTXz8gcWEM" fill="rgb(236,218,201)" style="transform: none;" rs_id="2762"><g rs_id="2763" style="transform: none;"><path id="pZEJrdf1e" d="M2692 6083 c-7 -109 -14 -263 -17 -343 -3 -80 -10 -181 -15 -225 -5 -44 -14 -147 -20 -230 -12 -174 -29 -318 -65 -577 -8 -58 -18 -140 -22 -182 l-6 -76 199 0 c109 0 215 -5 235 -10 56 -16 100 -50 134 -104 27 -44 30 -60 33 -141 2 -50 -1 -110 -8 -133 -15 -57 -91 -136 -145 -151 -24 -7 -152 -11 -326 -11 l-285 0 -17 -49 c-10 -26 -44 -88 -76 -137 -66 -102 -217 -247 -341 -328 l-76 -49 -1 -133 c-1 -126 0 -134 18 -134 16 0 17 -3 7 -25 -6 -14 -17 -25 -25 -25 -10 0 -13 27 -13 125 l0 125 -44 0 c-28 0 -60 -9 -90 -26 l-46 -26 0 -99 c0 -59 -4 -99 -10 -99 -6 0 -10 30 -10 70 l0 70 -46 0 c-30 0 -72 -12 -125 -35 -44 -19 -87 -35 -94 -35 -22 0 -19 -117 6 -215 11 -44 22 -126 26 -182 3 -57 10 -103 14 -103 5 0 9 -4 9 -10 0 -5 -9 -10 -20 -10 -16 0 -20 -7 -20 -35 0 -31 3 -35 25 -35 14 0 25 -5 25 -10 0 -14 78 -49 109 -50 13 0 29 -6 35 -14 24 -31 396 -144 595 -181 410 -76 842 -68 1166 20 163 44 359 129 371 160 3 7 19 17 35 20 16 4 31 11 34 16 4 5 22 9 41 9 l34 0 0 85 0 85 34 0 c32 0 35 3 69 78 19 42 45 110 57 150 14 45 27 72 36 72 10 0 14 12 14 40 0 39 -1 40 -35 40 l-35 0 0 125 0 125 73 -2 72 -2 -62 -3 -63 -4 0 -59 0 -60 50 0 c28 0 50 -4 50 -10 0 -5 9 -10 20 -10 11 0 25 -9 32 -20 9 -14 24 -20 50 -20 l37 0 20 68 c11 37 26 91 32 120 7 29 23 64 35 78 26 27 62 32 70 9 4 -9 19 -15 36 -15 25 0 29 -3 23 -17 -14 -34 -18 -231 -6 -280 11 -43 11 -48 -8 -62 -13 -11 -27 -46 -40 -101 -22 -90 -43 -155 -54 -166 -4 -4 -7 -52 -7 -106 l0 -98 -64 0 c-56 0 -65 -3 -71 -20 -13 -40 -124 -169 -194 -224 -39 -31 -96 -88 -127 -127 -30 -38 -78 -87 -104 -107 -56 -43 -61 -66 -34 -160 46 -156 -32 -317 -174 -358 -63 -19 -127 -8 -189 33 -50 32 -100 106 -109 161 -6 40 -8 42 -40 42 -19 0 -34 -4 -34 -9 0 -4 -15 -11 -32 -14 -18 -3 -78 -15 -133 -27 -81 -18 -265 -48 -297 -50 -5 0 -8 -16 -8 -35 0 -28 4 -35 20 -35 16 0 20 -7 20 -35 l0 -35 -210 0 -210 0 0 35 0 35 80 0 80 0 0 235 0 235 25 0 c22 0 25 4 25 35 l0 35 -51 0 c-93 0 -89 11 -89 -244 l0 -223 -99 -6 c-54 -4 -126 -4 -160 -1 l-61 7 0 -32 c0 -18 4 -41 10 -51 8 -15 3 -21 -38 -38 -77 -32 -90 -34 -144 -20 -87 22 -142 89 -139 169 l1 49 -34 0 c-19 0 -36 -5 -38 -10 -2 -7 -34 -4 -91 10 -70 16 -105 19 -172 14 l-84 -7 -7 -43 c-5 -34 -11 -44 -25 -44 -15 0 -19 -7 -19 -35 l0 -35 100 0 100 0 0 -35 0 -35 -103 0 -103 0 -14 -53 c-17 -68 -104 -286 -145 -362 -85 -160 -147 -237 -370 -461 -121 -122 -248 -240 -283 -263 -124 -83 -283 -142 -464 -172 l-78 -13 0 -93 0 -93 3861 0 3861 0 -5 33 c-3 17 -28 98 -56 180 -105 300 -173 701 -187 1095 -4 105 -11 192 -15 192 -5 0 -9 6 -9 13 0 7 -14 21 -30 31 -47 27 -83 91 -75 132 7 39 64 101 106 116 34 12 38 22 46 114 l6 74 -37 0 c-21 0 -46 -5 -57 -11 -16 -8 -25 -7 -40 7 -10 9 -19 21 -19 26 0 13 100 58 130 58 37 0 45 9 64 66 9 29 34 79 54 113 34 56 155 209 219 277 15 16 50 56 77 89 28 33 116 130 195 215 80 85 165 181 189 212 l44 57 43 -57 c23 -32 59 -72 81 -89 99 -78 242 -133 344 -133 l50 0 0 33 0 34 -87 22 c-162 41 -279 128 -360 266 -56 96 -74 166 -80 322 -8 190 25 390 109 651 124 390 336 737 640 1047 139 142 136 130 82 317 -71 245 -162 462 -292 696 l-46 82 -3051 0 -3052 0 -11 -197z m-642 -2939 c0 -75 -4 -123 -9 -119 -6 3 -7 43 -4 95 6 88 5 90 -16 90 -21 0 -21 1 -6 30 28 54 35 35 35 -96z m263 119 l-63 -4 0 -114 0 -114 58 -4 57 -3 -67 -2 -68 -2 0 125 0 125 73 -2 72 -2 -62 -3z m455 0 c-10 -2 -26 -2 -35 0 -10 3 -2 5 17 5 19 0 27 -2 18 -5z m302 -112 l0 -120 43 -4 c23 -2 -1 -4 -53 -4 -52 0 -76 2 -52 4 l42 4 0 120 c0 73 4 119 10 119 6 0 10 -46 10 -119z m620 72 c1 -27 2 -83 3 -126 1 -56 -1 -77 -10 -77 -10 0 -13 32 -13 125 0 77 4 125 10 125 6 0 10 -21 10 -47z m1058 40 l-28 -4 0 -120 c0 -73 -4 -119 -10 -119 -6 0 -10 48 -10 125 l0 125 38 -1 c30 -2 32 -3 10 -6z m322 -118 c0 -77 -4 -125 -10 -125 -6 0 -10 48 -10 125 0 77 4 125 10 125 6 0 10 -48 10 -125z m730 0 c0 -77 -4 -125 -10 -125 -6 0 -10 48 -10 125 0 77 4 125 10 125 6 0 10 -48 10 -125z m650 60 l0 -65 38 -2 37 -1 -37 -4 -38 -4 0 -55 c0 -30 -4 -54 -10 -54 -6 0 -10 48 -10 125 0 77 4 125 10 125 6 0 10 -28 10 -65z m170 -60 c0 -72 -4 -125 -10 -125 -11 0 -16 87 -12 183 6 116 22 73 22 -58z m200 0 c0 -77 -4 -125 -10 -125 -6 0 -10 48 -10 125 0 77 4 125 10 125 6 0 10 -48 10 -125z m202 73 c5 -83 -3 -198 -13 -198 -5 0 -9 55 -9 125 0 72 4 125 9 125 6 0 11 -24 13 -52z m-4189 -1 c3 -8 1 -20 -4 -28 -6 -10 -9 -7 -9 14 0 29 5 35 13 14z m3427 -12 c0 -8 -4 -17 -10 -20 -6 -4 -10 5 -10 20 0 15 4 24 10 20 6 -3 10 -12 10 -20z m-2959 -55 c-5 -46 -8 -51 -14 -29 -4 15 -2 41 4 58 15 43 17 37 10 -29z m198 24 c6 -21 6 -44 1 -57 -7 -18 -9 -14 -9 20 -1 23 -4 48 -7 57 -3 9 -4 16 -1 16 4 0 11 -16 16 -36z m1381 -29 c0 -16 -5 -37 -10 -45 -7 -11 -10 3 -10 45 0 42 3 56 10 45 5 -8 10 -28 10 -45z m530 -2 c0 -41 -3 -54 -10 -43 -11 17 -13 61 -4 84 11 28 14 18 14 -41z m199 -3 c0 -14 -4 -32 -9 -40 -7 -11 -10 3 -9 45 0 43 3 54 9 40 5 -11 9 -31 9 -45z m-1768 -67 c-9 -15 -10 -12 -10 17 0 29 1 32 10 18 7 -12 7 -24 0 -35z m1382 28 c2 -10 1 -25 -4 -32 -6 -10 -9 -4 -9 19 0 36 5 42 13 13z m-2523 -23 c0 -16 -3 -19 -11 -11 -6 6 -8 16 -5 22 11 17 16 13 16 -11z m-573 -520 c-2 -29 -3 -6 -3 52 0 58 1 81 3 53 2 -29 2 -77 0 -105z m390 10 c-2 -29 -3 -8 -3 47 0 55 1 79 3 53 2 -26 2 -71 0 -100z m290 -10 c-2 -29 -3 -6 -3 52 0 58 1 81 3 53 2 -29 2 -77 0 -105z m620 10 c-2 -29 -3 -8 -3 47 0 55 1 79 3 53 2 -26 2 -71 0 -100z m1294 47 c0 -48 -2 -90 -5 -93 -4 -3 -6 39 -6 93 0 54 2 96 6 93 3 -3 5 -45 5 -93z m256 -57 c-2 -29 -3 -6 -3 52 0 58 1 81 3 53 2 -29 2 -77 0 -105z m1470 0 c-2 -29 -3 -6 -3 52 0 58 1 81 3 53 2 -29 2 -77 0 -105z m220 0 c-2 -29 -3 -6 -3 52 0 58 1 81 3 53 2 -29 2 -77 0 -105z m150 0 c-2 -29 -3 -6 -3 52 0 58 1 81 3 53 2 -29 2 -77 0 -105z m170 0 c-2 -29 -3 -6 -3 52 0 58 1 81 3 53 2 -29 2 -77 0 -105z m-3720 35 c-3 -10 -5 -2 -5 17 0 19 2 27 5 18 2 -10 2 -26 0 -35z m2170 0 c-3 -10 -5 -2 -5 17 0 19 2 27 5 18 2 -10 2 -26 0 -35z m353 -55 c-1 -31 -1 -32 -15 -14 -19 25 -19 46 0 46 10 0 15 -10 15 -32z m-172 -3 c-12 -27 -28 -24 -28 6 0 12 7 19 20 19 17 0 18 -3 8 -25z m-1462 -597 c-3 -62 -9 -148 -12 -190 l-7 -78 35 0 c34 0 36 2 72 84 21 47 62 131 90 188 l52 103 52 3 52 3 0 -270 0 -271 -46 0 -47 0 7 133 c3 72 9 158 12 190 l6 57 -35 0 c-35 0 -36 -1 -85 -102 -27 -57 -69 -142 -92 -190 l-43 -88 -53 0 -54 0 0 270 0 270 52 0 51 0 -7 -112z m954 77 l0 -35 -115 0 -115 0 0 -235 0 -235 -50 0 -50 0 0 270 0 270 165 0 165 0 0 -35z m360 -235 l0 -270 -50 0 -50 0 0 270 0 270 50 0 50 0 0 -270z m366 85 l-6 -185 35 0 c30 0 37 5 46 28 5 15 44 98 86 185 l77 157 53 0 53 0 0 -270 0 -270 -47 0 -46 0 7 185 7 185 -33 0 c-33 -1 -34 -2 -123 -183 l-90 -182 -52 -3 -53 -3 0 270 0 271 47 0 46 0 -7 -185z m974 150 l0 -35 -120 0 -120 0 0 -80 0 -79 93 -3 92 -3 3 -37 3 -38 -96 0 -96 0 3 -77 3 -78 113 -3 112 -3 0 -34 0 -35 -165 0 -165 0 0 270 0 270 170 0 170 0 0 -35z" rs_id="2764"></path><path id="pcYs1b4gy" d="M9150 6256 c0 -13 27 -75 59 -138 82 -156 144 -297 190 -436 l39 -117 41 -3 c34 -3 56 6 145 58 304 175 598 279 884 311 370 42 675 -106 983 -477 139 -167 303 -420 407 -630 42 -85 49 -94 74 -94 l28 0 0 775 0 775 -1425 0 -1425 0 0 -24z" rs_id="2765"></path><path id="pj4M4AZUW" d="M10325 5560 c-120 -25 -132 -29 -298 -99 -144 -62 -255 -121 -399 -213 l-78 -50 0 -51 c0 -28 9 -114 20 -191 29 -210 36 -338 28 -581 -7 -225 -20 -353 -63 -599 -27 -153 -54 -236 -126 -399 -62 -138 -132 -239 -229 -330 -94 -88 -150 -117 -317 -163 -7 -2 -13 -19 -13 -39 l0 -35 48 0 c59 1 160 35 237 80 139 83 296 286 380 495 94 233 152 602 168 1060 l2 70 80 42 c97 51 199 92 342 140 87 28 123 35 183 34 81 -1 212 -14 355 -36 50 -8 128 -19 175 -25 252 -34 462 -74 691 -131 35 -9 44 -21 143 -187 58 -97 145 -240 195 -317 80 -126 92 -140 120 -143 31 -3 31 -3 31 41 0 40 -12 63 -98 199 -53 84 -139 223 -191 308 -461 766 -598 953 -764 1045 -157 86 -415 117 -622 75z" rs_id="2766"></path><path id="p10bnlN8Or" d="M9144 4805 c-121 -140 -303 -438 -393 -645 -81 -186 -103 -273 -109 -427 -4 -121 -2 -136 17 -177 32 -66 89 -113 147 -122 58 -8 131 7 188 41 66 38 171 150 201 212 42 90 74 228 85 373 10 137 -2 768 -15 790 -3 5 -21 10 -40 10 -29 0 -41 -9 -81 -55z m61 -687 c-9 -123 -31 -247 -54 -307 -19 -52 -75 -140 -115 -183 -57 -60 -171 -121 -206 -110 -22 7 -58 42 -81 78 l-19 31 45 98 c56 120 141 235 250 337 89 83 165 146 179 147 4 1 5 -41 1 -91z" rs_id="2767"></path><path id="pxt6kvV7o" d="M0 4610 l0 -40 58 0 c98 0 185 -31 328 -116 42 -24 77 -44 79 -44 3 0 18 -13 35 -30 24 -23 40 -30 70 -30 39 0 40 1 40 35 0 30 -7 40 -55 76 -156 118 -336 188 -482 189 l-73 0 0 -40z" rs_id="2768"></path><path id="pURt2vH8I" d="M1300 4241 c0 -13 -8 -21 -22 -23 -19 -2 -24 -10 -26 -40 l-3 -38 50 0 c39 0 51 4 51 15 0 8 5 15 10 15 6 0 10 20 10 45 0 45 0 45 -35 45 -28 0 -35 -4 -35 -19z" rs_id="2769"></path><path id="pJF0HMP9R" d="M2600 4244 c0 -9 -11 -14 -35 -14 -34 0 -35 -1 -35 -40 0 -29 4 -40 15 -40 10 0 15 -11 15 -35 l0 -35 75 0 c73 0 75 1 75 25 0 21 5 25 30 25 26 0 30 4 30 28 0 15 -3 44 -6 64 l-6 36 -79 0 c-62 0 -79 -3 -79 -14z" rs_id="2770"></path><path id="p13YcMVFaX" d="M1510 4225 c0 -14 -4 -25 -10 -25 -5 0 -10 -11 -10 -25 0 -16 -6 -25 -16 -25 -12 0 -14 -9 -12 -37 l3 -38 60 2 c33 1 61 7 63 13 2 5 19 10 38 10 l34 0 0 69 0 68 -52 7 c-90 10 -98 9 -98 -19z" rs_id="2771"></path><path id="pVA0lnVvE" d="M2040 4205 c0 -24 5 -35 15 -35 9 0 15 -9 15 -25 0 -16 6 -25 15 -25 8 0 15 -9 15 -20 0 -15 7 -20 25 -20 14 0 25 -4 25 -10 0 -5 20 -10 45 -10 45 0 45 0 45 35 0 28 -4 35 -20 35 -17 0 -20 7 -20 40 l0 40 -45 0 c-33 0 -45 4 -45 15 0 10 -11 15 -35 15 -33 0 -35 -2 -35 -35z" rs_id="2772"></path><path id="pM3M3VERX" d="M2280 4205 c0 -19 5 -35 10 -35 6 0 10 -22 10 -49 0 -35 4 -51 16 -55 25 -10 74 -7 74 4 0 6 5 10 11 10 23 0 42 34 47 82 l5 51 -52 -6 c-46 -5 -51 -4 -51 13 0 16 -7 20 -35 20 -33 0 -35 -2 -35 -35z" rs_id="2773"></path><path id="p1GQYB1wQw" d="M1000 4165 c0 -24 5 -35 15 -35 9 0 15 -9 15 -24 0 -19 6 -24 38 -30 20 -3 52 -6 70 -6 31 0 32 2 32 40 l0 39 -50 7 c-40 5 -50 10 -50 25 0 15 -7 19 -35 19 -33 0 -35 -2 -35 -35z" rs_id="2774"></path><path id="p9Mxq61b7" d="M1737 4160 c-4 -18 -13 -30 -22 -30 -11 0 -15 -10 -15 -35 0 -33 2 -35 34 -35 19 0 37 6 39 13 4 10 6 10 6 0 1 -8 15 -13 36 -13 33 0 35 2 35 35 0 19 -4 35 -10 35 -5 0 -10 7 -10 15 0 8 -4 15 -10 15 -5 0 -10 7 -10 15 0 10 -10 15 -34 15 -29 0 -34 -4 -39 -30z" rs_id="2775"></path><path id="poYp0qOnb" d="M1230 4095 c0 -34 1 -35 40 -35 39 0 40 1 40 35 0 34 -1 35 -40 35 -39 0 -40 -1 -40 -35z" rs_id="2776"></path><path id="p193NlzCFP" d="M597 3933 c-4 -3 -7 -21 -7 -40 0 -28 5 -35 36 -48 20 -8 56 -15 80 -15 l44 0 0 38 c0 34 -3 38 -43 55 -43 17 -98 23 -110 10z" rs_id="2777"></path><path id="pNW9uQEeE" d="M990 3861 c0 -22 4 -42 9 -45 12 -8 136 -223 177 -305 33 -69 46 -98 85 -193 23 -56 25 -58 62 -58 35 0 37 2 37 30 0 62 -134 354 -243 527 -50 80 -53 83 -89 83 -37 0 -38 -1 -38 -39z" rs_id="2778"></path><path id="pvy2D95MZ" d="M24 3774 c-10 -38 24 -189 59 -264 51 -112 177 -249 365 -399 55 -44 69 -51 108 -51 l44 0 0 75 c0 41 -4 75 -9 75 -6 0 -33 46 -61 103 -109 215 -265 414 -367 466 -25 12 -61 21 -87 21 -41 0 -46 -3 -52 -26z m185 -157 c63 -67 161 -205 210 -298 23 -42 41 -79 41 -83 0 -16 -172 151 -232 224 -42 53 -95 154 -104 200 -7 31 -6 32 16 18 12 -7 43 -35 69 -61z" rs_id="2779"></path><path id="pur3TdlKP" d="M930 2980 l0 -40 40 0 40 0 0 40 0 40 -40 0 -40 0 0 -40z" rs_id="2780"></path><path id="p6IDuh2bR" d="M10400 2595 c-5 -14 -10 -44 -10 -65 l0 -38 73 -22 c171 -52 291 -75 522 -101 190 -21 535 2 740 50 22 5 63 14 90 20 28 5 77 21 110 34 67 26 76 42 55 110 l-11 39 -52 -5 c-29 -3 -86 -15 -127 -26 -121 -34 -345 -72 -480 -79 -215 -13 -500 19 -690 76 -47 14 -113 28 -147 30 -60 4 -63 3 -73 -23z" rs_id="2781"></path><path id="px7i4pzjw" d="M0 1711 l0 -870 46 -7 c59 -9 218 2 309 21 39 8 108 34 155 57 85 43 85 43 133 128 44 79 100 236 128 356 l12 51 43 -5 c29 -3 44 -1 44 7 0 6 9 11 20 11 16 0 20 7 20 36 l0 37 -47 -7 c-27 -3 -103 -9 -170 -13 l-123 -6 0 272 0 271 75 0 75 0 -1 33 c0 29 -5 34 -57 59 -123 59 -544 349 -607 418 -10 11 -26 20 -37 20 -17 0 -18 -31 -18 -869z" rs_id="2782"></path><path id="p13RwY26ZJ" d="M670 1900 l0 -90 88 0 c119 0 126 6 117 93 -9 82 -16 87 -124 87 l-81 0 0 -90z" rs_id="2783"></path><path id="p15a61wlys" d="M1930 1980 c0 -5 -11 -10 -25 -10 -14 0 -25 -4 -25 -10 0 -5 -7 -10 -15 -10 -11 0 -15 -11 -15 -36 l0 -37 43 7 c23 3 59 9 80 12 30 5 37 3 37 -10 0 -12 10 -16 45 -16 l45 0 0 50 c0 38 -4 52 -19 60 -25 13 -151 13 -151 0z" rs_id="2784"></path><path id="pGDJjo9Jz" d="M3483 1983 c-7 -2 -13 -20 -13 -39 l0 -34 70 0 70 0 0 40 0 40 -57 -1 c-32 0 -64 -3 -70 -6z" rs_id="2785"></path><path id="p1DzPsDVh4" d="M2200 1928 c0 -13 -3 -47 -6 -75 l-7 -53 35 0 c32 0 36 3 42 31 3 17 6 51 6 75 0 44 0 44 -35 44 -30 0 -35 -3 -35 -22z" rs_id="2786"></path><path id="pgJNABvxm" d="M3620 1890 c0 -5 -6 -10 -13 -10 -8 0 -45 -15 -83 -34 -38 -18 -79 -36 -91 -40 -20 -7 -23 -14 -23 -66 0 -70 11 -103 46 -135 23 -22 37 -25 95 -25 57 0 72 4 97 25 45 38 64 145 46 258 -6 34 -9 37 -40 37 -19 0 -34 -4 -34 -10z" rs_id="2787"></path><path id="pRSvICkw4" d="M1470 1845 c0 -31 3 -35 25 -35 20 0 25 -5 25 -25 0 -22 4 -25 35 -25 l36 0 -3 58 -3 57 -57 3 -58 3 0 -36z" rs_id="2788"></path><path id="pGb5eyZTJ" d="M880 1765 c0 -33 2 -35 35 -35 33 0 35 2 35 35 0 33 -2 35 -35 35 -33 0 -35 -2 -35 -35z" rs_id="2789"></path><path id="p12fQZuybq" d="M2100 1770 c0 -5 -11 -10 -25 -10 -14 0 -25 -4 -25 -10 0 -5 -8 -10 -19 -10 -10 0 -32 -5 -50 -11 -23 -8 -31 -17 -31 -35 0 -13 -4 -24 -10 -24 -5 0 -10 -18 -10 -39 0 -46 9 -51 88 -51 88 0 102 7 102 46 0 33 -1 34 -42 35 -33 0 -38 2 -23 9 11 5 32 9 48 9 17 1 27 6 27 16 0 8 9 15 20 15 16 0 20 7 20 35 0 33 -2 35 -35 35 -19 0 -35 -4 -35 -10z" rs_id="2790"></path><path id="ptLCRfAN" d="M670 1666 l0 -87 88 3 87 3 3 66 c4 82 -3 89 -102 96 l-76 6 0 -87z" rs_id="2791"></path><path id="p7k8pwdHr" d="M10605 1320 c-18 -35 -20 -84 -2 -97 18 -14 307 -137 427 -181 271 -101 682 -212 781 -212 43 0 49 10 49 85 l0 52 -62 13 c-243 47 -730 205 -970 314 -103 47 -131 56 -169 56 -33 0 -41 -5 -54 -30z" rs_id="2792"></path><path id="p1DHKb4SiY" d="M9913 421 c-41 -34 -31 -67 72 -233 53 -84 99 -160 104 -168 6 -11 30 -16 95 -18 84 -3 86 -2 86 20 -1 13 -12 41 -26 63 -13 22 -27 48 -30 58 -4 9 -10 17 -15 17 -5 0 -9 6 -9 14 0 8 -6 21 -13 28 -6 7 -21 30 -32 51 -11 20 -23 37 -27 37 -5 0 -8 7 -8 15 0 8 -4 15 -10 15 -5 0 -10 5 -10 10 0 12 -51 92 -65 102 -20 15 -90 8 -112 -11z" rs_id="2793"></path></g></g><g id="l2S2uTq0DhD0gXLQ4ahMv20" fill="rgb(217,187,160)" style="transform: none;" rs_id="2794"><g rs_id="2795" style="transform: none;"><path id="pMgQbTRmS" d="M0 5435 l0 -845 43 0 c119 -1 308 -81 454 -192 74 -57 104 -61 148 -19 16 16 55 39 85 50 54 21 69 21 968 21 804 0 912 2 912 15 0 8 -7 15 -16 15 -12 0 -14 8 -10 43 4 23 13 92 21 152 40 293 53 408 65 575 6 80 15 188 20 240 6 52 15 199 20 325 6 127 13 283 17 348 l6 117 -1367 0 -1366 0 0 -845z m100 -825 c-20 -13 -77 -13 -85 0 -4 6 14 10 47 10 38 0 49 -3 38 -10z m222 -59 c118 -57 267 -155 255 -167 -8 -8 -37 8 -31 17 3 5 -2 9 -11 9 -8 0 -18 7 -21 15 -4 8 -10 15 -14 15 -5 0 -42 20 -83 44 -102 60 -171 91 -240 106 -31 7 -57 17 -57 21 0 12 137 -28 202 -60z" rs_id="2796"></path><path id="p9PQ6ZQgM" d="M10185 4759 c-116 -28 -331 -110 -450 -172 l-80 -42 -2 -65 c-11 -307 -39 -571 -80 -762 -25 -117 -28 -79 -4 54 36 201 52 349 57 523 2 94 6 196 8 228 2 32 0 55 -5 51 -5 -3 -9 -44 -9 -92 -1 -301 -56 -710 -126 -927 -105 -326 -301 -573 -520 -655 -65 -24 -183 -27 -261 -6 -95 25 -263 135 -263 172 0 8 -5 14 -10 14 -6 0 -25 23 -42 50 -36 58 -70 72 -42 18 9 -18 27 -48 41 -65 13 -18 19 -33 13 -33 -6 0 -24 21 -41 48 -16 26 -35 47 -41 47 -7 0 -39 -33 -72 -74 -33 -41 -124 -142 -201 -225 -77 -83 -163 -178 -191 -211 -27 -33 -62 -73 -77 -89 -64 -68 -185 -221 -219 -277 -20 -34 -45 -84 -54 -113 -9 -28 -23 -55 -30 -59 -28 -17 -15 -37 24 -37 20 0 53 -5 73 -10 46 -13 119 -83 119 -115 0 -13 5 -25 12 -27 17 -6 -5 -62 -39 -97 -16 -17 -64 -43 -113 -62 -111 -42 -120 -51 -120 -110 0 -44 3 -49 25 -55 14 -3 60 -4 102 -2 64 3 80 1 95 -14 17 -17 16 -19 -30 -39 -49 -23 -86 -26 -187 -14 -53 5 -58 4 -42 -8 9 -8 17 -19 17 -26 0 -6 4 -11 9 -11 4 0 11 -87 15 -192 9 -266 53 -596 111 -844 21 -88 88 -300 127 -401 l12 -33 1223 0 c673 0 1223 4 1223 8 0 5 -7 17 -15 28 -21 28 -18 40 5 19 11 -10 20 -24 20 -31 0 -7 5 -16 11 -20 8 -5 10 3 7 24 -2 17 -1 29 4 26 4 -3 8 -11 8 -18 0 -16 28 -41 36 -33 4 3 -5 27 -20 53 -14 25 -26 49 -26 51 0 15 33 -25 52 -63 l22 -44 878 0 878 0 0 1960 c0 1645 -2 1960 -14 1960 -12 0 -31 25 -100 133 -10 15 -14 27 -10 27 5 0 29 -32 54 -70 25 -38 51 -70 59 -70 18 0 10 18 -39 90 -22 32 -40 66 -40 74 0 9 -4 16 -10 16 -5 0 -10 7 -10 15 0 8 -4 15 -8 15 -12 0 -102 145 -102 164 0 9 -4 16 -10 16 -5 0 -10 7 -10 15 0 8 -9 23 -20 32 -11 10 -20 25 -20 35 0 10 -4 18 -9 18 -5 0 -30 36 -55 79 -43 72 -70 100 -84 86 -3 -3 2 -13 10 -22 27 -32 108 -173 99 -173 -5 0 -30 36 -56 80 -41 70 -51 81 -83 89 -229 57 -440 97 -692 131 -47 6 -125 17 -175 25 -209 32 -432 48 -490 34z m1523 -389 c7 -11 8 -20 2 -20 -5 0 -14 9 -20 20 -6 11 -7 20 -3 20 5 0 14 -9 21 -20z m63 -108 c8 -15 32 -53 53 -84 20 -32 33 -58 28 -58 -5 0 -29 33 -54 73 -60 95 -60 97 -51 97 4 0 15 -12 24 -28z m-2256 -764 c-28 -86 -101 -244 -116 -254 -5 -3 7 30 27 73 40 88 82 191 96 241 5 19 12 31 15 28 3 -3 -7 -42 -22 -88z m-136 -290 c-50 -94 -185 -236 -279 -291 -68 -39 -190 -82 -212 -74 -15 5 -15 5 77 32 33 9 84 29 114 44 70 34 196 152 257 241 48 71 65 89 43 48z m-911 -209 c70 -61 156 -105 257 -131 50 -13 81 -24 69 -26 -35 -5 -162 35 -229 72 -59 34 -170 125 -152 126 5 0 30 -18 55 -41z m2078 -429 c83 -29 284 -68 422 -81 64 -7 121 -16 126 -21 6 -4 -21 -5 -60 -2 -102 9 -136 13 -234 31 -19 3 -42 7 -50 8 -42 7 -85 17 -166 41 -126 37 -132 37 -143 15 -15 -26 -3 -34 109 -64 193 -54 334 -76 537 -84 84 -3 150 -9 148 -13 -10 -16 -245 -2 -430 27 -148 22 -385 86 -385 103 0 5 4 20 10 34 12 32 36 33 116 6z m1402 -9 c14 -40 1 -49 -15 -10 -10 25 -17 29 -35 24 -18 -5 -20 -4 -8 4 26 19 48 12 58 -18z m-143 -16 c-16 -7 -34 -10 -40 -7 -5 3 1 9 15 13 42 12 57 8 25 -6z m-88 -22 c-11 -10 -207 -41 -212 -33 -3 4 35 14 83 23 99 17 138 20 129 10z m-1097 -13 c20 -6 21 -8 5 -8 -11 0 -29 3 -40 8 -25 11 1 11 35 0z m1185 0 c-11 -5 -27 -9 -35 -9 -9 0 -8 4 5 9 11 5 27 9 35 9 9 0 8 -4 -5 -9z m-1030 -29 c61 -11 166 -24 235 -30 207 -19 210 -19 65 -16 -129 4 -327 30 -400 54 -46 15 -20 12 100 -8z m953 14 c-14 -14 -343 -65 -413 -64 -66 1 -3 17 75 19 36 0 121 12 190 25 135 25 156 28 148 20z m117 -10 c-16 -8 -41 -14 -55 -14 -22 0 -21 2 10 14 48 19 86 18 45 0z m-597 -19 c3 -3 -27 -6 -66 -6 -40 0 -72 4 -72 8 0 9 129 7 138 -2z m151 10 c-10 -10 -109 -15 -109 -6 0 6 26 10 57 10 31 0 54 -2 52 -4z m346 -16 c-11 -5 -31 -9 -45 -9 -23 0 -23 1 -5 9 11 5 31 9 45 9 23 0 23 -1 5 -9z m-75 -14 c0 -9 -40 -13 -46 -5 -3 5 6 9 20 9 14 0 26 -2 26 -4z m-75 -16 c-11 -5 -36 -8 -55 -8 l-35 0 30 8 c17 4 41 8 55 8 23 1 23 0 5 -8z m-125 -21 c-19 -3 -39 -3 -45 0 -5 3 6 8 25 12 19 3 40 3 45 0 6 -3 -6 -8 -25 -12z m-65 1 c4 -6 -16 -10 -52 -11 -32 0 -68 -2 -80 -3 -13 -2 -23 1 -23 5 0 5 30 10 68 12 37 2 70 4 74 5 4 1 10 -2 13 -8z m-2431 -359 c3 -4 19 -11 36 -14 37 -8 102 -74 132 -135 18 -38 23 -63 23 -130 0 -49 -4 -86 -11 -90 -6 -4 -14 -20 -18 -37 -4 -16 -29 -50 -55 -75 -36 -36 -59 -49 -102 -58 -65 -15 -168 -6 -176 14 -3 8 -14 14 -24 14 -40 0 -108 146 -109 232 0 65 36 166 73 206 45 47 121 82 178 82 26 0 50 -4 53 -9z m-917 -9 c8 -5 13 -45 15 -117 l3 -110 115 0 115 0 3 118 3 117 33 0 c70 0 66 15 66 -276 l0 -264 -50 0 -50 0 0 105 0 105 -120 0 -120 0 0 -105 0 -105 -50 0 -50 0 0 270 0 270 38 0 c20 0 42 -4 49 -8z m1457 2 c13 -5 16 -23 16 -94 l0 -88 78 -4 c79 -4 152 -29 152 -52 0 -7 11 -19 25 -26 15 -8 27 -25 30 -44 15 -88 9 -122 -28 -162 -41 -45 -114 -64 -254 -64 l-103 0 0 270 0 270 34 0 c19 0 41 -3 50 -6z m1192 -740 c22 -9 63 -27 92 -40 240 -109 727 -267 970 -314 59 -12 62 -14 62 -41 0 -16 -5 -29 -11 -29 -6 0 -8 8 -4 19 5 16 -3 22 -49 35 -30 9 -59 16 -65 16 -35 0 -492 136 -558 166 -17 8 -34 14 -37 14 -10 0 -259 97 -318 124 -110 50 -125 55 -137 43 -6 -6 -11 -16 -11 -23 0 -11 187 -98 350 -162 197 -78 497 -168 733 -222 113 -25 126 -39 16 -16 -189 39 -477 123 -679 198 -119 44 -409 167 -427 181 -10 7 -9 15 3 38 17 34 19 34 70 13z m1053 -390 c9 -8 -45 -2 -64 6 -14 7 -8 8 20 3 22 -3 42 -7 44 -9z m-1762 -511 c14 -6 10 -9 -17 -13 -25 -4 -35 -10 -34 -23 2 -19 -11 -23 -21 -7 -4 6 4 19 17 30 26 22 29 23 55 13z m41 -58 c27 -42 12 -47 -17 -6 -22 31 -26 41 -13 41 4 0 17 -16 30 -35z m74 -115 c9 -17 14 -30 9 -30 -7 0 -51 55 -51 64 0 14 27 -8 42 -34z m-54 -50 c7 -11 8 -20 2 -20 -5 0 -14 9 -20 20 -6 11 -7 20 -3 20 5 0 14 -9 21 -20z m98 -23 c4 -12 12 -25 18 -29 7 -5 5 -8 -5 -8 -13 0 -22 12 -47 63 -2 4 3 4 12 1 8 -3 18 -16 22 -27z m-66 -27 c7 -13 7 -20 1 -20 -6 0 -15 9 -21 20 -7 13 -7 20 -1 20 6 0 15 -9 21 -20z" rs_id="2797"></path><path id="pqzwRNWqH" d="M8854 1980 c-44 -18 -72 -70 -79 -151 -9 -101 8 -183 45 -221 26 -25 35 -28 97 -28 118 0 143 34 143 195 0 104 -15 165 -40 165 -6 0 -10 7 -10 15 0 8 -9 19 -19 25 -23 12 -107 12 -137 0z" rs_id="2798"></path><path id="pvlfPscaU" d="M9538 1794 c-5 -4 -8 -54 -8 -111 l0 -103 83 0 c107 0 127 15 127 95 0 47 -4 58 -31 86 -27 28 -39 32 -98 36 -36 3 -69 2 -73 -3z" rs_id="2799"></path><path id="pZMPEz1mF" d="M9252 4168 c-2 -78 -7 -149 -12 -158 -6 -9 -7 41 -3 128 4 90 3 142 -4 142 -16 0 -150 -106 -238 -188 -45 -42 -109 -113 -143 -157 -56 -75 -162 -279 -162 -312 0 -17 31 -65 68 -105 50 -55 139 -46 240 25 43 30 51 33 33 13 -57 -61 -163 -103 -221 -86 -62 18 -124 95 -139 172 l-9 43 -1 -55 c-1 -49 3 -60 37 -105 21 -27 49 -55 62 -62 34 -17 129 -16 180 2 49 17 135 76 165 113 50 61 97 142 112 192 10 30 20 57 24 60 22 16 43 480 22 480 -4 0 -9 -64 -11 -142z m-12 -207 c0 -11 -4 -23 -10 -26 -6 -4 -10 5 -10 19 0 14 5 26 10 26 6 0 10 -9 10 -19z m-57 -201 c-25 -63 -111 -186 -121 -175 -2 2 12 23 31 47 45 55 94 147 104 196 4 20 9 29 11 20 2 -9 -10 -49 -25 -88z" rs_id="2800"></path><path id="pplyFp9Eu" d="M3013 3923 c-20 -8 -15 -40 7 -46 11 -3 20 -1 20 4 0 5 3 8 8 7 4 -2 18 7 32 20 l24 22 -40 -1 c-21 0 -45 -3 -51 -6z" rs_id="2801"></path><path id="p19vWWEZAV" d="M1010 3865 c0 -24 14 -56 47 -107 59 -93 171 -313 208 -412 l30 -76 105 -2 c72 -1 85 -3 42 -5 l-63 -4 3 -116 c2 -82 7 -118 16 -121 7 -2 12 5 12 19 0 12 3 20 6 17 3 -4 45 11 94 33 95 42 120 47 120 24 0 -8 7 -15 15 -15 12 0 15 16 15 85 0 50 4 85 10 85 6 0 10 -25 10 -55 0 -42 3 -55 15 -55 8 0 15 6 15 14 0 15 82 66 106 66 8 0 14 -7 14 -15 0 -8 7 -15 15 -15 10 0 15 10 15 30 0 26 4 30 26 30 19 0 25 4 22 18 -3 12 19 33 77 72 132 89 270 222 336 324 32 49 66 111 76 137 9 27 23 49 30 49 7 0 13 7 13 15 0 13 -86 15 -715 15 l-715 0 0 -35z m38 -15 c7 -11 9 -20 4 -20 -10 0 -32 22 -32 32 0 15 15 8 28 -12z m32 -50 c7 -13 7 -20 1 -20 -6 0 -15 9 -21 20 -7 13 -7 20 -1 20 6 0 15 -9 21 -20z m53 -89 c17 -30 25 -52 18 -50 -7 3 -26 29 -43 58 -17 30 -25 52 -18 49 7 -2 27 -28 43 -57z m50 -91 c10 -16 13 -30 8 -30 -6 0 -17 14 -26 30 -9 17 -12 30 -7 30 4 0 16 -13 25 -30z m41 -89 c-7 -7 -34 28 -34 43 1 6 10 0 21 -13 11 -13 17 -27 13 -30z m23 -41 c14 -36 1 -40 -15 -5 -14 31 -15 35 -4 35 4 0 13 -13 19 -30z m27 -56 c4 -10 1 -14 -6 -12 -15 5 -23 28 -10 28 5 0 13 -7 16 -16z m30 -76 c8 -21 12 -38 7 -38 -8 0 -41 65 -41 82 0 19 17 -3 34 -44z" rs_id="2802"></path><path id="pJ1xlzgP1" d="M47 3783 c-12 -11 -7 -85 8 -152 39 -164 139 -290 403 -509 53 -43 70 -52 103 -52 l39 0 0 55 c0 46 -4 60 -25 81 -14 14 -25 35 -25 48 0 13 -7 26 -15 30 -8 3 -15 15 -15 26 0 11 -4 20 -10 20 -5 0 -14 18 -20 40 -6 22 -15 40 -19 40 -5 0 -12 11 -15 25 -4 14 -11 25 -16 25 -6 0 -10 7 -10 15 0 8 -4 15 -10 15 -5 0 -10 7 -10 15 0 8 -4 15 -10 15 -5 0 -10 4 -10 9 0 5 -13 23 -30 41 -16 18 -30 35 -30 40 0 7 -109 120 -116 120 -2 0 -25 14 -51 30 -44 28 -100 39 -116 23z m84 -33 c43 -22 181 -149 163 -150 -6 0 -32 23 -58 50 -26 28 -49 50 -51 50 -2 0 -25 13 -51 30 -53 33 -69 30 -60 -11 3 -16 2 -29 -3 -29 -10 0 -19 50 -13 68 5 17 28 15 73 -8z m-28 -150 c3 -11 2 -20 -3 -20 -8 0 -20 24 -20 41 0 17 17 1 23 -21z m231 -45 c15 -19 23 -35 18 -35 -5 0 -22 16 -36 35 -15 19 -23 35 -18 35 5 0 22 -16 36 -35z m-202 -20 c10 -19 13 -35 8 -35 -8 0 -40 51 -40 65 0 16 17 0 32 -30z m45 -78 c26 -38 138 -155 203 -212 80 -71 154 -131 175 -143 17 -10 17 -11 3 -12 -25 0 -225 164 -221 181 2 5 -3 9 -10 9 -20 0 -187 182 -187 204 0 15 17 3 37 -27z m301 -132 c6 -14 8 -25 3 -25 -4 0 -13 11 -19 25 -6 14 -8 25 -3 25 4 0 13 -11 19 -25z m30 -55 c7 -11 8 -20 2 -20 -5 0 -14 9 -20 20 -6 11 -7 20 -3 20 5 0 14 -9 21 -20z m30 -65 c6 -14 16 -25 22 -25 5 0 10 -4 10 -10 0 -5 -7 -10 -16 -10 -8 0 -12 5 -9 10 3 6 2 10 -3 10 -5 0 -14 11 -20 25 -6 14 -8 25 -3 25 4 0 13 -11 19 -25z" rs_id="2803"></path><path id="plmMU2OAF" d="M4034 2083 c-7 -2 -10 -13 -7 -24 7 -24 46 -22 51 2 3 16 -23 29 -44 22z" rs_id="2804"></path><path id="pswh4PI1o" d="M4148 2083 c-22 -6 -23 -29 -2 -37 31 -12 45 -7 42 16 -3 23 -13 28 -40 21z" rs_id="2805"></path><path id="p27OfGuzU" d="M5068 2083 c-21 -5 -24 -33 -4 -33 7 0 28 -3 46 -6 29 -6 31 -5 28 17 -3 24 -31 33 -70 22z" rs_id="2806"></path><path id="pS3bn8G8Q" d="M5458 2083 c-22 -6 -23 -29 -2 -37 31 -12 45 -7 42 16 -3 23 -13 28 -40 21z" rs_id="2807"></path><path id="p1D9P7CVL2" d="M6768 2083 c-21 -5 -24 -33 -4 -33 7 0 28 -3 46 -6 29 -6 31 -5 28 17 -3 24 -31 33 -70 22z" rs_id="2808"></path><path id="p4Edl2Diq" d="M7453 1983 c-7 -2 -13 -13 -13 -24 0 -13 5 -17 17 -12 14 5 15 1 10 -27 -4 -18 -7 -41 -7 -51 0 -10 -10 -27 -22 -39 l-22 -20 39 0 c22 0 63 10 91 21 43 18 53 27 58 52 11 55 7 79 -14 84 -11 3 -20 9 -20 14 0 9 -96 11 -117 2z" rs_id="2809"></path><path id="p3degUBqm" d="M720 1735 c0 -8 7 -15 15 -15 8 0 15 -4 15 -10 0 -5 13 -8 30 -7 24 2 30 7 30 25 0 20 -5 22 -45 22 -33 0 -45 -4 -45 -15z" rs_id="2810"></path><path id="p1FcuOi4kM" d="M1830 1550 c0 -5 11 -17 25 -26 14 -9 25 -22 25 -30 0 -9 11 -12 30 -11 24 2 30 6 28 22 -2 12 -12 21 -25 23 -13 2 -23 10 -23 18 0 9 -11 14 -30 14 -16 0 -30 -4 -30 -10z" rs_id="2811"></path><path id="p127MQYyAv" d="M3593 1503 c-28 -5 -30 -29 -3 -36 11 -3 20 -1 20 5 0 6 9 8 20 5 11 -3 20 -1 20 4 0 5 7 9 15 9 8 0 15 5 15 10 0 10 -44 11 -87 3z" rs_id="2812"></path><path id="p1Drqt3KYn" d="M4957 854 c-4 -4 -7 -22 -7 -41 0 -31 2 -33 35 -33 33 0 35 2 35 33 -1 29 -2 30 -12 12 -12 -19 -12 -19 -18 4 -6 25 -21 37 -33 25z" rs_id="2813"></path><path id="prOogLh6s" d="M5367 854 c-4 -4 -7 -22 -7 -41 0 -31 2 -33 35 -33 24 0 35 5 35 15 0 8 -6 15 -14 15 -8 0 -16 10 -18 22 -3 22 -19 33 -31 22z" rs_id="2814"></path><path id="pArZpn0kG" d="M5810 831 c0 -28 -3 -31 -30 -31 -25 0 -30 -4 -30 -25 0 -14 -4 -25 -10 -25 -15 0 -12 -26 4 -39 15 -13 25 3 27 42 0 12 3 16 6 10 2 -7 11 -13 19 -13 8 0 14 -6 14 -14 0 -7 7 -19 15 -26 12 -10 15 -7 20 12 3 13 5 49 3 78 -2 43 -7 56 -20 58 -14 3 -18 -3 -18 -27z" rs_id="2815"></path><path id="pUSUkKjiM" d="M5947 854 c-16 -16 -7 -44 14 -44 15 0 20 5 17 22 -3 22 -19 33 -31 22z" rs_id="2816"></path><path id="pK0aFOez8" d="M7167 849 c-16 -9 -16 -12 -2 -31 11 -16 12 -25 3 -35 -8 -10 -6 -13 11 -13 31 0 51 23 51 59 0 26 -4 31 -22 31 -13 0 -31 -5 -41 -11z m53 -29 c0 -13 -28 -25 -38 -16 -3 4 0 11 8 16 20 13 30 12 30 0z" rs_id="2817"></path><path id="pZ59SPu7g" d="M6554 750 c-9 -44 -9 -50 5 -48 9 2 20 13 26 26 11 25 45 30 45 7 0 -8 7 -15 15 -15 11 0 15 11 15 40 l0 40 -48 0 -48 0 -10 -50z" rs_id="2818"></path><path id="p18l7r6nWe" d="M5140 771 c0 -10 7 -24 15 -31 8 -7 15 -19 15 -27 0 -18 38 -14 63 7 26 22 21 30 -18 30 -28 0 -35 4 -35 20 0 13 -7 20 -20 20 -13 0 -20 -7 -20 -19z" rs_id="2819"></path><path id="pShEdV2vC" d="M5570 739 c0 -7 7 -17 17 -24 13 -10 20 -9 34 3 10 9 16 19 13 24 -8 12 -64 10 -64 -3z" rs_id="2820"></path><path id="pLogNHyzp" d="M5940 736 c0 -7 6 -19 14 -25 11 -9 15 -8 20 5 10 26 7 34 -14 34 -11 0 -20 -6 -20 -14z" rs_id="2821"></path><path id="pVqs6Mw6e" d="M6390 739 c0 -7 7 -17 17 -24 13 -10 20 -9 34 3 10 9 16 19 13 24 -8 12 -64 10 -64 -3z" rs_id="2822"></path><path id="pOBWSbYlH" d="M6968 725 c-6 -29 -7 -29 43 -13 52 15 52 38 0 38 -33 0 -39 -3 -43 -25z" rs_id="2823"></path><path id="ps6YXuhUS" d="M7190 735 c0 -22 31 -35 47 -20 21 22 15 35 -17 35 -20 0 -30 -5 -30 -15z" rs_id="2824"></path></g></g><g id="l5543WFEGDc8aYLWPTpuYLW" fill="rgb(245,235,226)" style="transform: none;" rs_id="2825"><g rs_id="2826" style="transform: none;"><path id="p168yksmZz" d="M8770 6269 c0 -6 17 -41 39 -77 74 -127 169 -328 219 -462 51 -138 125 -377 120 -391 -2 -5 -55 -61 -118 -126 -395 -404 -637 -875 -730 -1420 -26 -148 -28 -365 -5 -479 25 -123 102 -258 188 -328 108 -87 269 -143 382 -133 76 7 195 49 261 93 63 42 169 151 219 227 21 31 41 57 45 57 4 0 7 6 7 13 0 6 20 57 45 112 25 55 56 130 68 168 13 37 26 67 30 67 5 0 6 9 3 20 -3 11 0 20 6 20 5 0 8 6 5 14 -3 8 4 65 15 127 38 213 52 354 60 594 9 257 2 397 -29 621 -11 77 -20 150 -20 161 0 56 482 309 694 365 131 34 226 43 333 30 135 -16 229 -42 310 -87 74 -42 194 -155 259 -245 47 -65 266 -405 348 -540 326 -540 447 -730 463 -730 10 0 13 84 13 410 0 326 -3 410 -13 410 -7 0 -34 43 -59 94 -61 122 -181 324 -265 444 -224 322 -474 543 -698 617 -373 123 -861 29 -1371 -266 -58 -33 -112 -58 -119 -55 -7 2 -16 20 -20 38 -17 79 -94 268 -183 450 l-97 198 -202 0 c-138 0 -203 -3 -203 -11z m480 -1760 c9 -349 1 -512 -35 -645 -34 -129 -67 -192 -138 -264 -148 -150 -258 -174 -346 -74 -55 63 -65 98 -58 213 9 165 87 379 232 636 128 226 305 469 327 447 5 -5 13 -144 18 -313z" rs_id="2827"></path><path id="pcyz2biUB" d="M0 3589 l0 -1035 32 -31 c92 -86 407 -305 578 -401 l65 -37 -35 -5 c-56 -8 -10 -21 95 -27 134 -7 201 -38 230 -108 19 -44 8 -81 -36 -119 -48 -41 -54 -89 -15 -126 79 -73 11 -169 -131 -186 -43 -4 -63 -11 -63 -20 0 -8 7 -14 16 -14 21 0 17 -21 -33 -188 -23 -77 -55 -156 -87 -215 l-51 -92 -85 -43 c-110 -55 -203 -75 -357 -76 l-123 0 0 -357 0 -356 22 3 c242 34 408 90 550 185 35 23 162 141 283 263 223 224 285 301 370 461 41 76 128 294 145 363 8 29 19 52 27 52 7 0 13 7 13 15 0 12 -17 15 -90 15 l-90 0 0 270 0 270 170 0 170 0 0 -35 0 -35 -120 0 -120 0 0 -80 0 -80 95 0 95 0 0 -55 c0 -53 1 -54 28 -53 48 3 242 -44 242 -59 0 -27 29 -12 35 18 12 54 67 103 162 145 49 21 94 44 101 53 16 20 16 86 -1 99 -25 21 -119 25 -170 7 -51 -17 -61 -15 -77 16 -10 17 -4 22 47 45 77 34 173 31 227 -7 52 -37 78 -75 83 -122 8 -72 -39 -113 -202 -179 l-60 -24 -3 -46 c-3 -44 -2 -46 29 -52 17 -3 63 -6 101 -6 52 0 70 -4 74 -15 4 -9 19 -15 35 -15 28 0 29 1 15 22 l-15 23 104 0 c58 0 100 -1 95 -3 -6 -2 -10 -10 -10 -18 0 -15 70 -20 129 -8 43 9 39 24 -6 25 -24 1 -29 3 -15 6 l22 4 0 224 c0 216 1 225 21 235 11 6 30 9 42 7 18 -4 17 -5 -5 -6 -19 -1 -28 -6 -28 -18 0 -16 8 -18 65 -15 l65 4 0 -236 0 -236 95 0 c78 0 95 3 95 15 0 8 -6 15 -12 15 -34 1 24 19 82 25 36 4 117 18 180 32 63 13 129 27 145 30 17 3 33 11 37 17 4 6 8 -1 8 -16 0 -16 5 -28 10 -28 6 0 10 30 10 69 0 188 105 321 251 321 71 -1 125 -26 176 -84 41 -47 85 -63 77 -28 -2 11 13 29 45 54 27 20 75 69 105 107 31 39 88 96 127 127 70 55 181 184 194 224 3 11 13 20 21 20 8 0 14 5 14 10 0 6 14 10 30 10 l30 0 2 108 c0 59 3 92 5 75 5 -35 27 -45 36 -15 4 9 15 41 26 70 11 29 27 87 36 128 12 51 23 78 36 85 25 13 24 20 -7 97 -16 40 -25 83 -25 116 0 50 24 141 42 160 5 6 9 21 9 34 0 21 -3 23 -29 17 -20 -4 -30 -2 -34 8 -13 35 -114 24 -139 -16 -8 -12 -27 -70 -42 -128 -34 -131 -40 -142 -61 -111 -9 12 -25 22 -36 22 -10 0 -19 5 -19 10 0 6 -7 10 -15 10 -8 0 -15 -7 -15 -14 0 -11 -14 -16 -47 -18 l-48 -3 -3 -52 -3 -52 63 -4 63 -3 -67 -2 c-38 -1 -68 -6 -68 -11 0 -5 -8 -12 -17 -14 -10 -3 -3 -5 15 -6 30 -1 48 -21 18 -21 -9 0 -22 -27 -36 -72 -12 -40 -38 -108 -58 -152 -30 -66 -38 -76 -47 -62 -7 9 -15 16 -19 16 -3 0 -6 -39 -7 -87 0 -49 -3 -82 -6 -75 -9 22 -23 13 -24 -15 0 -16 -3 -22 -6 -15 -7 17 -21 15 -54 -9 l-29 -20 0 25 c0 24 -1 24 -30 10 -36 -18 -39 -34 -7 -35 14 0 17 -2 7 -6 -8 -3 -19 -12 -23 -20 -5 -7 -39 -29 -77 -48 -475 -239 -1188 -241 -1865 -4 -123 42 -183 79 -130 79 28 0 34 15 9 24 -33 13 -52 7 -47 -14 7 -25 -9 -25 -64 -1 -40 18 -42 22 -48 75 -4 31 -11 56 -16 56 -5 0 -6 7 -3 15 4 10 0 15 -15 15 -12 0 -21 5 -21 10 0 6 9 10 20 10 17 0 19 5 14 48 -3 26 -14 90 -26 142 -17 83 -25 134 -27 178 -1 17 -31 15 -31 -3 0 -8 -4 -15 -10 -15 -6 0 -10 54 -10 141 l0 141 -26 -6 c-21 -6 -25 -4 -21 8 4 9 3 16 -2 16 -12 0 -44 77 -37 88 3 5 -1 13 -10 16 -9 4 -14 13 -10 21 3 8 2 15 -3 15 -9 0 -34 51 -27 57 2 3 -5 14 -16 25 -11 11 -17 26 -14 34 3 8 1 14 -4 14 -12 0 -41 56 -33 64 4 3 2 6 -4 6 -11 0 -59 75 -65 101 -2 8 -8 18 -15 24 -7 5 -13 17 -15 25 -2 8 -11 21 -21 28 -23 17 -22 32 3 32 13 0 18 5 14 15 -5 13 -34 15 -178 15 -184 0 -216 4 -216 27 0 8 -12 29 -27 47 -47 56 -63 104 -63 193 0 59 6 98 20 135 25 65 27 106 5 88 -16 -13 -59 -4 -50 11 4 5 -1 9 -10 9 -8 0 -18 7 -21 15 -4 8 -10 15 -14 15 -5 0 -42 20 -83 44 -102 60 -171 91 -240 106 -31 7 -57 17 -57 22 0 5 -9 4 -19 -2 -26 -14 -74 -13 -89 2 -9 9 -12 -218 -12 -1023z m683 301 c37 -14 49 -30 23 -30 -26 0 -87 31 -80 41 3 5 9 9 12 7 4 -2 24 -10 45 -18z m-550 -141 c102 -52 258 -251 367 -466 28 -57 55 -103 61 -103 5 0 9 -7 9 -15 0 -23 26 -18 38 8 9 19 11 14 10 -33 0 -30 -2 -47 -5 -37 -5 21 -43 23 -43 2 0 -8 -7 -15 -15 -15 -23 0 -222 165 -217 181 1 5 -4 9 -11 9 -27 0 -194 191 -182 210 3 5 2 10 -4 10 -12 0 -45 59 -37 67 3 3 -2 12 -10 21 -10 9 -13 24 -10 38 4 15 2 24 -5 24 -6 0 -9 9 -6 20 3 10 1 20 -3 22 -8 3 -14 38 -11 66 2 18 26 15 74 -9z m872 -579 c-7 -97 -7 -100 13 -100 19 0 20 -3 10 -25 -6 -14 -17 -25 -25 -25 -10 0 -13 27 -13 125 0 83 4 125 11 125 7 0 8 -31 4 -100z m175 -27 c0 -69 -3 -123 -7 -119 -5 4 -6 48 -4 97 3 85 2 89 -18 89 -21 0 -21 1 -6 30 28 54 35 34 35 -97z m-361 -3 c0 -19 -4 -42 -9 -50 -7 -10 -10 6 -9 55 0 72 17 67 18 -5z m-152 -582 c-2 -29 -3 -6 -3 52 0 58 1 81 3 53 2 -29 2 -77 0 -105z m1373 -608 c0 -5 -9 -10 -20 -10 -11 0 -20 5 -20 10 0 6 9 10 20 10 11 0 20 -4 20 -10z m-484 -133 c1 -24 1 -24 -3 -3 -3 16 -12 26 -26 29 -18 3 -17 4 3 3 20 -1 25 -6 26 -29z m503 -188 c29 0 32 -2 16 -9 -24 -10 -77 -12 -99 -4 -29 11 -17 27 15 20 17 -3 48 -6 68 -7z" rs_id="2828"></path><path id="pPDnPX8fc" d="M1017 4278 l-28 -10 7 -91 c7 -107 15 -117 87 -117 55 0 77 16 77 54 0 14 5 28 10 31 11 7 13 67 4 101 -11 40 -91 56 -157 32z m83 -158 c0 -5 -9 -10 -21 -10 -11 0 -17 5 -14 10 3 6 13 10 21 10 8 0 14 -4 14 -10z" rs_id="2829"></path><path id="pawB8xJcm" d="M1500 4283 c-41 -16 -50 -35 -50 -108 0 -94 19 -115 104 -115 48 0 61 4 83 26 23 23 25 31 21 95 -2 47 -9 74 -20 86 -17 17 -109 28 -138 16z m60 -164 c0 -5 -7 -9 -15 -9 -8 0 -15 7 -15 15 0 9 6 12 15 9 8 -4 15 -10 15 -15z" rs_id="2830"></path><path id="pNrOAgzDB" d="M2322 4280 c-29 -12 -42 -48 -42 -116 0 -45 4 -59 25 -79 20 -21 34 -25 84 -25 83 0 101 19 101 111 0 90 -17 111 -91 115 -30 2 -64 -1 -77 -6z m38 -120 c0 -5 -7 -10 -15 -10 -8 0 -15 5 -15 10 0 6 7 10 15 10 8 0 15 -4 15 -10z m30 -41 c0 -5 -7 -9 -15 -9 -8 0 -15 7 -15 15 0 9 6 12 15 9 8 -4 15 -10 15 -15z" rs_id="2831"></path><path id="peoXermW5" d="M1210 4170 l0 -110 100 0 100 0 0 110 0 110 -100 0 -100 0 0 -110z m110 10 c0 -5 -9 -10 -21 -10 -11 0 -17 5 -14 10 3 6 13 10 21 10 8 0 14 -4 14 -10z" rs_id="2832"></path><path id="p7xkm2Cue" d="M1702 4173 l3 -108 78 0 c91 0 107 12 107 80 0 50 -22 83 -58 87 -19 2 -28 9 -30 26 -3 19 -9 22 -53 22 l-50 0 3 -107z m89 -43 c5 0 9 -4 9 -10 0 -5 -8 -10 -19 -10 -15 0 -17 5 -13 28 4 19 7 22 10 10 2 -10 8 -18 13 -18z" rs_id="2833"></path><path id="p17uUD504W" d="M2050 4170 l0 -110 73 0 c122 0 117 -5 117 116 l0 104 -95 0 -95 0 0 -110z m72 -12 c-6 -6 -15 -8 -19 -4 -4 4 -1 11 7 16 19 12 27 3 12 -12z" rs_id="2834"></path><path id="pqh7xpkRM" d="M2536 4238 c-3 -24 -8 -73 -12 -110 l-7 -68 132 0 131 0 0 28 c0 15 -7 62 -15 105 -8 43 -15 81 -15 83 0 2 -47 4 -104 4 l-104 0 -6 -42z m118 -56 c-4 -18 -10 -32 -14 -32 -5 0 -3 16 3 35 13 42 20 40 11 -3z m44 -10 c2 -7 -2 -10 -12 -6 -9 3 -16 11 -16 16 0 13 23 5 28 -10z" rs_id="2835"></path><path id="pdCfTFvK0" d="M10441 2561 c-15 -26 -3 -34 109 -64 232 -65 369 -82 645 -82 261 0 322 6 540 54 59 13 199 52 204 57 2 2 -1 15 -7 28 -9 19 -17 24 -39 21 -15 -2 -29 -4 -30 -6 -2 -1 -6 -2 -10 -3 -5 -1 -18 -7 -30 -14 -12 -6 -38 -14 -57 -16 -20 -3 -43 -9 -53 -14 -10 -5 -52 -14 -93 -21 -74 -11 -98 -14 -215 -28 -77 -9 -362 -10 -440 -1 -60 7 -98 13 -165 25 -19 3 -42 7 -50 8 -42 7 -85 17 -166 41 -126 37 -132 37 -143 15z" rs_id="2836"></path><path id="pRW2BU2pG" d="M3480 1972 c-50 -24 -70 -71 -70 -159 0 -58 3 -73 15 -73 8 0 15 6 15 14 0 8 10 18 23 22 12 4 53 22 91 40 38 19 75 34 82 34 7 0 15 6 17 13 3 6 6 0 6 -15 2 -52 21 -28 21 25 0 65 -22 95 -75 107 -58 14 -86 12 -125 -8z m100 -22 c0 -5 -7 -10 -15 -10 -8 0 -15 5 -15 10 0 6 7 10 15 10 8 0 15 -4 15 -10z" rs_id="2837"></path><path id="pfOE0JBPu" d="M823 1949 c18 -11 24 -39 7 -39 -5 0 -10 -12 -10 -26 0 -19 4 -25 15 -20 29 11 15 -5 -17 -19 l-33 -15 45 3 45 2 3 63 3 62 -38 0 c-31 -1 -35 -3 -20 -11z" rs_id="2838"></path><path id="pQd8CYCpD" d="M1330 1660 l0 -80 70 0 c56 0 70 3 70 15 0 8 -6 15 -14 15 -23 0 -28 17 -21 60 4 25 12 40 21 40 8 0 14 7 14 15 0 12 -14 15 -70 15 l-70 0 0 -80z" rs_id="2839"></path><path id="prNMgxqLm" d="M820 1675 c0 -8 -7 -15 -15 -15 -8 0 -15 -2 -15 -4 0 -2 -3 -12 -7 -22 -5 -14 -2 -16 15 -12 12 4 20 2 16 -3 -3 -5 -18 -9 -35 -9 -16 0 -29 -5 -29 -11 0 -6 19 -9 48 -7 l47 3 3 48 c2 37 0 47 -12 47 -9 0 -16 -7 -16 -15z" rs_id="2840"></path><path id="p1C8uRZ8Me" d="M10651 1297 c-6 -6 -11 -16 -11 -23 0 -21 322 -156 565 -239 224 -75 609 -175 623 -161 3 3 0 6 -7 6 -8 0 -10 7 -6 19 5 16 -3 22 -49 35 -30 9 -59 16 -65 16 -35 0 -492 136 -558 166 -17 8 -34 14 -37 14 -10 0 -259 97 -318 124 -110 50 -125 55 -137 43z" rs_id="2841"></path><path id="p14BHpDVHI" d="M9945 380 c-5 -9 78 -151 185 -320 6 -8 14 -25 20 -38 7 -16 18 -22 40 -22 36 0 37 3 5 58 -14 24 -22 48 -19 53 3 5 -1 9 -9 9 -13 0 -41 43 -42 65 0 5 -12 23 -28 40 -15 16 -25 35 -22 42 2 7 -3 13 -11 13 -9 0 -14 5 -12 11 2 6 -9 25 -25 42 -15 16 -26 36 -23 44 6 16 -49 19 -59 3z" rs_id="2842"></path></g></g><g id="l6z84KtPZknafD5Wksm8jww" fill="rgb(217,140,74)" style="transform: none;" rs_id="2843"><g rs_id="2844" style="transform: none;"><path id="p1BWII3JSg" d="M738 4474 c-4 -3 -12 -7 -20 -8 -66 -12 -139 -77 -163 -145 -21 -60 -21 -248 0 -298 26 -61 65 -104 119 -129 l51 -24 1135 0 1135 0 51 24 c59 27 110 85 125 140 6 21 9 94 7 161 -3 115 -5 124 -33 171 -34 54 -78 88 -134 104 -38 11 -2263 15 -2273 4z m376 -225 c24 -11 42 -51 31 -70 -4 -5 -23 -17 -43 -26 l-37 -16 34 -6 c47 -8 51 -28 8 -36 -48 -9 -77 8 -77 46 0 25 6 33 35 45 40 16 39 34 -1 26 -39 -7 -51 20 -16 35 34 15 36 15 66 2z m499 -21 c27 -32 23 -92 -9 -117 -59 -47 -124 -14 -124 62 0 79 83 114 133 55z m830 0 c24 -28 22 -89 -3 -116 -21 -22 -73 -30 -96 -14 -31 20 -43 86 -23 123 22 42 89 46 122 7z m-1153 -8 c0 -23 4 -30 20 -30 16 0 20 7 20 30 0 25 4 30 25 30 25 0 25 -1 25 -80 0 -79 0 -80 -25 -80 -21 0 -25 5 -25 30 0 23 -4 30 -20 30 -16 0 -20 -7 -20 -30 0 -25 -4 -30 -25 -30 -25 0 -25 1 -25 80 0 79 0 80 25 80 21 0 25 -5 25 -30z m482 8 c2 -17 11 -24 30 -26 28 -3 58 -35 58 -59 0 -29 -39 -53 -85 -53 l-45 0 0 80 c0 72 2 80 19 80 13 0 21 -8 23 -22z m350 -15 l3 -38 20 38 c13 27 25 37 42 37 22 0 23 -3 23 -80 0 -72 -2 -80 -19 -80 -23 0 -30 17 -25 56 4 26 2 25 -18 -13 -16 -31 -28 -43 -44 -43 -20 0 -23 6 -26 58 -4 81 0 102 22 102 14 0 20 -9 22 -37z m516 5 l9 -33 7 33 c6 27 12 32 36 32 31 0 35 -7 45 -75 3 -22 8 -50 11 -62 4 -19 0 -23 -21 -23 -22 0 -25 4 -25 34 0 19 -4 38 -10 41 -6 3 -10 -5 -10 -19 0 -69 -43 -79 -62 -13 l-12 42 -5 -40 c-5 -32 -11 -41 -28 -43 -27 -4 -27 -3 -12 89 11 66 13 69 40 69 24 0 30 -6 37 -32z" rs_id="2845"></path><path id="pl6r17dgG" d="M1532 4173 c2 -30 7 -38 23 -38 16 0 20 7 20 35 0 29 -4 36 -23 38 -21 3 -23 0 -20 -35z" rs_id="2846"></path><path id="pwQj61omY" d="M2370 4205 c-19 -22 -8 -70 15 -70 16 0 21 8 23 36 3 40 -18 59 -38 34z" rs_id="2847"></path><path id="pffzG0An4" d="M1780 4151 c0 -12 6 -21 16 -21 9 0 14 7 12 17 -5 25 -28 28 -28 4z" rs_id="2848"></path><path id="pg2E5P3Hf" d="M1935 2090 c-44 -8 -119 -40 -149 -64 -18 -14 -17 -17 24 -66 23 -27 46 -50 50 -50 5 0 31 11 58 25 74 37 152 30 152 -14 0 -24 -9 -30 -113 -75 -106 -47 -152 -92 -162 -159 -4 -27 -2 -60 5 -82 25 -75 120 -135 216 -135 49 0 140 31 178 61 l26 20 -41 49 -41 48 -41 -19 c-70 -31 -137 -24 -137 16 0 30 11 38 107 74 91 36 127 60 148 101 17 32 20 116 6 153 -13 33 -69 87 -106 102 -41 17 -131 25 -180 15z" rs_id="2849"></path><path id="pjGucBmHE" d="M3489 2090 c-158 -28 -249 -203 -208 -402 33 -163 196 -254 365 -203 64 19 113 60 149 126 25 46 30 68 33 145 6 121 -13 185 -73 252 -25 27 -62 56 -82 65 -51 20 -128 27 -184 17z m110 -145 c81 -41 94 -247 19 -310 -57 -48 -140 -23 -168 50 -15 38 -12 160 4 199 17 40 60 76 93 76 13 0 37 -7 52 -15z" rs_id="2850"></path><path id="pXYO9g3Rz" d="M7441 2088 c-49 -8 -146 -60 -146 -77 0 -16 68 -100 82 -101 6 0 27 9 45 19 39 23 118 39 118 23 0 -5 8 -12 19 -15 14 -3 17 -11 14 -29 -4 -21 -20 -31 -86 -58 -138 -57 -177 -100 -177 -197 1 -95 84 -167 210 -182 33 -4 63 -4 66 1 3 5 11 8 17 6 17 -3 101 38 117 57 9 11 9 15 1 15 -7 0 -10 4 -7 9 3 4 -10 25 -29 47 l-34 38 -36 -17 c-36 -17 -99 -22 -129 -11 -22 8 -20 37 4 59 11 10 20 15 20 11 0 -3 10 0 23 8 12 8 25 15 30 15 4 0 28 9 53 21 26 11 50 20 54 20 12 0 60 59 70 86 13 34 13 104 -1 104 -5 0 -7 4 -4 10 16 26 -70 116 -125 129 -56 14 -122 18 -169 9z" rs_id="2851"></path><path id="pozSHHZ2I" d="M608 2082 l-68 -3 0 -301 0 -301 159 5 c138 5 165 8 205 28 60 29 80 65 74 137 -4 44 -11 60 -38 88 -19 19 -29 35 -22 35 6 0 27 14 46 31 38 33 54 90 41 149 -10 45 -57 94 -107 113 -44 16 -170 24 -290 19z m220 -138 c15 -10 22 -25 22 -49 0 -43 -20 -55 -94 -55 l-56 0 0 60 0 60 53 0 c31 0 61 -6 75 -16z m-30 -240 c18 -12 22 -24 20 -52 l-3 -37 -57 -3 -58 -3 0 56 0 55 38 0 c21 0 48 -7 60 -16z" rs_id="2852"></path><path id="pyQQ4oxHw" d="M1393 2082 l-193 -2 0 -300 0 -300 195 0 195 0 0 65 0 65 -115 0 -115 0 0 50 0 49 98 3 97 3 -4 60 c-1 33 -5 62 -7 64 -2 2 -44 6 -94 9 l-90 5 0 48 0 49 120 0 120 0 0 64 c0 36 -3 66 -7 68 -5 2 -95 2 -200 0z" rs_id="2853"></path><path id="pVXFEq8Nv" d="M2593 2082 l-73 -3 0 -234 0 -235 -80 0 -80 0 0 -65 0 -65 240 0 240 0 0 65 0 65 -80 0 -80 0 0 234 c0 129 -3 236 -7 238 -5 2 -41 2 -80 0z" rs_id="2854"></path><path id="pzaMuF7yW" d="M4430 2080 l-74 -5 -53 -105 c-29 -58 -70 -143 -92 -190 l-40 -85 7 80 c4 44 7 130 7 190 l0 110 -75 0 -75 0 -3 -297 -2 -298 83 0 84 0 43 88 c23 48 65 133 92 190 28 57 52 102 54 100 2 -2 -1 -33 -6 -68 -5 -36 -10 -120 -10 -187 l0 -123 75 0 75 0 0 299 c0 165 -3 301 -7 303 -5 2 -42 1 -83 -2z" rs_id="2855"></path><path id="p1GZZGxZGG" d="M6119 2082 l-76 -3 -82 -168 c-44 -92 -81 -173 -81 -179 0 -6 -4 -13 -8 -16 -5 -3 -7 78 -4 179 l5 185 -77 0 -76 0 0 -300 0 -301 83 3 82 3 91 183 91 183 -5 -186 -5 -185 77 0 76 0 0 299 c0 165 -3 301 -7 303 -5 2 -42 2 -84 0z" rs_id="2856"></path><path id="pKrVuAmr8" d="M8804 2071 c-70 -32 -143 -109 -136 -143 1 -5 -2 -8 -6 -8 -4 0 -9 -12 -10 -26 -1 -14 -5 -30 -8 -36 -10 -16 -10 -168 0 -168 4 0 6 -9 3 -20 -3 -11 -1 -20 5 -20 6 0 8 -6 5 -14 -3 -8 -2 -16 3 -18 5 -2 10 -10 12 -18 2 -8 10 -20 18 -27 8 -7 12 -13 8 -13 -17 0 37 -50 54 -50 11 0 17 -4 13 -9 -6 -11 61 -35 75 -26 5 3 10 2 10 -4 0 -7 17 -9 43 -6 23 3 59 7 79 9 21 1 41 6 45 9 3 4 14 7 23 7 25 0 98 67 121 111 10 21 16 39 12 39 -5 0 -1 5 7 10 12 7 15 33 15 122 0 97 -3 120 -22 158 -37 74 -115 149 -150 142 -6 -1 -14 2 -18 8 -11 18 -156 12 -201 -9z m157 -122 c11 -5 17 -14 14 -19 -3 -5 4 -14 16 -20 11 -7 18 -14 15 -17 -3 -3 1 -11 8 -19 17 -16 14 -180 -3 -212 -31 -58 -114 -71 -161 -24 -32 32 -53 113 -44 170 3 20 7 45 8 55 3 25 55 89 66 82 5 -3 11 -1 15 5 8 13 41 13 66 -1z" rs_id="2857"></path><path id="pOvhUJFVv" d="M4750 1780 l0 -300 80 0 80 0 0 235 0 235 115 0 116 0 -3 63 -3 62 -192 3 -193 2 0 -300z" rs_id="2858"></path><path id="phXBjsVRG" d="M5340 1780 l0 -300 80 0 80 0 -2 298 -3 297 -77 3 -78 3 0 -301z" rs_id="2859"></path><path id="p1BCGyLBMM" d="M6440 1780 l0 -300 195 0 196 0 -3 66 -3 66 -110 2 -110 1 -3 48 -3 47 96 0 96 0 -3 68 -3 67 -92 3 -93 3 0 49 0 50 120 0 121 0 -3 63 -3 62 -197 3 -198 2 0 -300z" rs_id="2860"></path><path id="pM9by3MT" d="M7940 1780 l0 -300 80 0 80 0 0 105 0 105 90 0 90 0 0 -105 0 -105 80 0 80 0 0 294 c0 334 9 306 -96 306 l-63 0 -3 -117 -3 -118 -85 0 -85 0 -3 110 c-2 72 -7 112 -15 117 -7 4 -42 8 -79 8 l-68 0 0 -300z" rs_id="2861"></path><path id="p7mP6Mt5B" d="M9400 1781 l0 -300 133 -3 c72 -2 137 0 142 3 6 4 28 9 49 12 45 6 82 31 112 75 17 25 22 47 22 104 1 83 -12 121 -45 139 -13 7 -23 18 -23 25 0 23 -73 48 -152 52 l-78 4 0 88 c0 102 2 100 -96 100 l-64 0 0 -299z m220 -22 c0 -6 8 -9 17 -7 18 3 60 -31 56 -44 -2 -5 2 -8 7 -8 6 0 10 -11 10 -25 0 -14 -5 -25 -12 -25 -6 0 -8 -3 -5 -7 14 -14 -31 -32 -80 -33 l-53 0 0 73 c0 41 3 77 7 80 11 11 53 8 53 -4z" rs_id="2862"></path><path id="p3166zseb" d="M4757 853 c-4 -3 -7 -35 -7 -70 l0 -63 38 0 c71 0 100 77 46 119 -26 21 -64 28 -77 14z m58 -68 c0 -16 -6 -30 -12 -32 -9 -3 -13 7 -13 32 0 25 4 35 13 33 6 -3 12 -17 12 -33z" rs_id="2863"></path><path id="pttKZoyu1" d="M5014 835 c-20 -30 -34 -32 -34 -5 0 11 -7 20 -15 20 -12 0 -15 -14 -15 -66 l0 -65 46 3 c57 4 75 24 55 61 -10 18 -10 30 -2 44 20 38 -11 45 -35 8z m4 -73 c2 -7 -3 -12 -12 -12 -9 0 -16 7 -16 16 0 17 22 14 28 -4z" rs_id="2864"></path><path id="pDqWNRhsA" d="M5167 847 c-27 -19 -33 -78 -10 -106 39 -48 113 -18 113 46 0 58 -59 93 -103 60z m61 -61 c-2 -23 -8 -31 -23 -31 -23 0 -33 38 -15 60 19 23 41 6 38 -29z" rs_id="2865"></path><path id="pQZ0OUP4i" d="M5550 845 c-10 -12 -9 -16 3 -21 9 -3 20 -3 26 0 22 14 19 -13 -4 -28 -49 -32 -17 -97 38 -77 24 9 23 25 -3 29 -26 4 -26 15 2 27 12 6 26 18 32 27 24 39 -64 80 -94 43z" rs_id="2866"></path><path id="pAKAAKlIq" d="M5737 854 c-4 -4 -7 -36 -7 -71 0 -56 2 -63 20 -63 15 0 20 7 20 25 0 18 5 25 20 25 15 0 20 -7 20 -25 0 -15 6 -25 14 -25 28 0 28 123 0 134 -10 4 -14 -3 -14 -24 0 -41 -37 -43 -42 -3 -3 26 -18 39 -31 27z" rs_id="2867"></path><path id="p1Fd2LKxqB" d="M6070 790 l0 -70 44 0 c51 0 71 18 62 55 -5 18 -15 27 -36 32 -23 4 -30 11 -30 29 0 17 -6 24 -20 24 -18 0 -20 -7 -20 -70z m70 -25 c0 -8 -7 -15 -15 -15 -8 0 -15 7 -15 15 0 8 7 15 15 15 8 0 15 -7 15 -15z" rs_id="2868"></path><path id="p1BAzwGzJ8" d="M6370 845 c-10 -12 -9 -16 3 -21 9 -3 20 -3 26 0 22 14 19 -13 -4 -28 -49 -32 -17 -97 38 -77 24 9 23 25 -3 29 -26 4 -26 15 2 27 12 6 26 18 32 27 24 39 -64 80 -94 43z" rs_id="2869"></path><path id="p1DPSjRTl3" d="M6557 853 c-4 -3 -7 -35 -7 -70 0 -56 2 -63 20 -63 15 0 20 7 20 25 0 18 5 25 20 25 15 0 20 -7 20 -25 0 -18 5 -25 20 -25 18 0 20 7 20 71 0 62 -2 70 -17 67 -11 -2 -19 -14 -21 -31 -2 -19 -9 -27 -23 -27 -14 0 -19 7 -19 30 0 28 -17 40 -33 23z" rs_id="2870"></path><path id="pFo1kQ1i9" d="M6777 842 c-20 -22 -22 -81 -3 -107 17 -23 71 -24 93 -2 23 22 22 81 -2 107 -23 25 -66 26 -88 2z m63 -32 c15 -28 3 -60 -21 -60 -15 0 -19 7 -19 33 0 50 20 63 40 27z" rs_id="2871"></path><path id="p15jDN58kE" d="M6977 853 c-4 -3 -7 -35 -7 -70 l0 -63 43 0 c47 0 67 13 67 45 0 27 -18 45 -47 45 -18 0 -23 6 -23 25 0 24 -18 34 -33 18z m63 -88 c0 -8 -7 -15 -15 -15 -8 0 -15 7 -15 15 0 8 7 15 15 15 8 0 15 -7 15 -15z" rs_id="2872"></path><path id="p1DI9rtwFJ" d="M7173 853 c-7 -2 -13 -11 -13 -20 0 -11 7 -13 30 -8 38 8 40 -9 3 -27 -37 -18 -41 -52 -9 -73 19 -13 29 -14 45 -5 29 15 26 30 -4 30 -34 0 -31 13 5 27 20 7 30 18 30 31 0 39 -45 63 -87 45z" rs_id="2873"></path><path id="p1CoWVvBM7" d="M5360 785 l0 -65 39 0 c36 0 71 19 71 38 0 21 -34 52 -56 52 -17 0 -24 5 -24 20 0 11 -7 20 -15 20 -12 0 -15 -14 -15 -65z m70 -20 c0 -8 -7 -15 -15 -15 -8 0 -15 7 -15 15 0 8 7 15 15 15 8 0 15 -7 15 -15z" rs_id="2874"></path><path id="p5cFJxFV0" d="M5940 786 c0 -60 2 -66 20 -66 19 0 21 5 18 62 -2 50 -6 63 -20 66 -16 3 -18 -5 -18 -62z" rs_id="2875"></path></g></g><g id="l48jRsICl0LkgsCqfLISO7T" fill="rgb(69,69,69)" style="transform: none;" rs_id="2876"><g rs_id="2877" style="transform: none;"><path id="pgFirCBe3" d="M4482 3336 c-49 -103 -49 -224 -1 -336 19 -43 25 -50 43 -44 11 4 22 8 24 9 2 2 -5 27 -15 56 -25 75 -25 226 1 293 15 40 16 50 5 57 -26 16 -37 9 -57 -35z" rs_id="2878"></path><path id="pUXjlhmCC" d="M7313 3372 c-10 -6 -8 -21 7 -65 28 -79 27 -206 -1 -282 -23 -62 -23 -60 7 -69 18 -6 25 0 43 38 50 102 51 231 3 339 -20 46 -34 55 -59 39z" rs_id="2879"></path><path id="pfy9QPCxA" d="M679 3301 c-71 -22 -109 -76 -109 -156 0 -85 38 -140 107 -155 117 -27 202 69 173 197 -12 56 -63 113 -100 113 -10 0 -24 2 -32 4 -7 2 -25 1 -39 -3z m73 -88 c26 -24 25 -116 -2 -143 -25 -25 -41 -25 -70 -2 -50 40 -30 162 27 162 15 0 35 -7 45 -17z" rs_id="2880"></path><path id="plwqHlcVt" d="M2715 3301 c-38 -9 -75 -29 -75 -40 0 -5 8 -19 18 -31 16 -20 21 -21 41 -11 26 14 83 11 88 -5 2 -6 -16 -19 -39 -30 -23 -10 -55 -30 -70 -42 -57 -48 -23 -143 54 -154 40 -6 96 6 115 25 12 12 11 17 -5 37 -17 21 -21 22 -55 9 -28 -10 -40 -10 -48 -2 -19 19 -4 38 41 52 92 27 120 105 59 162 -17 16 -39 29 -49 29 -10 0 -24 2 -32 4 -7 2 -26 1 -43 -3z" rs_id="2881"></path><path id="pH18EsAbZ" d="M3359 3301 c-49 -15 -67 -31 -88 -74 -25 -52 -27 -102 -5 -157 23 -57 63 -83 129 -83 68 0 107 27 131 88 47 125 -52 261 -167 226z m73 -88 c39 -44 25 -143 -22 -158 -64 -20 -101 90 -55 165 10 16 61 12 77 -7z" rs_id="2882"></path><path id="p12TNuOkpC" d="M5462 3300 c-66 -15 -102 -70 -102 -154 0 -103 50 -160 141 -160 86 0 139 59 139 154 0 33 -7 69 -18 90 -27 55 -96 85 -160 70z m78 -85 c7 -9 15 -38 18 -65 4 -42 1 -52 -21 -74 -33 -33 -50 -33 -76 0 -25 32 -28 100 -5 132 18 26 65 30 84 7z" rs_id="2883"></path><path id="pCHKexRBD" d="M6143 3300 c-18 -4 -44 -15 -59 -25 l-26 -17 25 -25 c20 -21 28 -23 45 -14 11 6 34 11 51 11 50 0 38 -28 -24 -55 -69 -31 -92 -63 -79 -112 17 -67 95 -96 172 -64 35 15 39 26 17 54 -12 17 -18 18 -50 7 -28 -9 -39 -9 -50 0 -20 17 -13 25 49 53 65 30 91 63 81 106 -7 31 -56 81 -80 81 -7 0 -19 2 -27 4 -7 2 -28 0 -45 -4z" rs_id="2884"></path><path id="p9mPuOAYt" d="M960 3145 l0 -155 43 0 43 0 48 98 47 97 -3 -95 -3 -95 38 -3 37 -3 0 155 0 156 -41 0 -40 0 -49 -101 -48 -102 5 102 6 101 -42 0 -41 0 0 -155z" rs_id="2885"></path><path id="pwYI7gUju" d="M1330 3145 l0 -155 40 0 40 0 0 120 0 120 60 0 60 0 0 35 0 35 -100 0 -100 0 0 -155z" rs_id="2886"></path><path id="pnSTDsoOc" d="M1630 3145 l0 -155 40 0 40 0 0 155 0 155 -40 0 -40 0 0 -155z" rs_id="2887"></path><path id="poEG7J1dN" d="M1830 3145 l0 -155 43 0 44 0 46 98 47 97 -3 -95 -2 -95 38 -3 37 -3 0 155 0 156 -41 0 -40 0 -49 -102 -49 -103 6 103 6 102 -41 0 -42 0 0 -155z" rs_id="2888"></path><path id="p1Fac6Z2Zv" d="M2200 3145 l0 -155 101 0 100 0 -3 33 c-3 32 -4 32 -60 35 -54 3 -58 5 -58 27 0 23 4 25 50 25 49 0 50 1 50 30 0 29 -1 30 -50 30 -49 0 -50 1 -50 30 l0 30 60 0 60 0 0 35 0 35 -100 0 -100 0 0 -155z" rs_id="2889"></path><path id="peEugx95q" d="M3020 3180 l0 -120 -40 0 c-39 0 -40 -1 -40 -35 l0 -35 120 0 120 0 0 35 c0 34 -1 35 -40 35 l-40 0 0 120 0 120 -40 0 -40 0 0 -120z" rs_id="2890"></path><path id="p192XZZlpE" d="M3640 3144 l0 -156 96 4 c91 3 97 5 120 31 32 38 33 96 1 133 l-24 27 33 59 34 59 -47 -3 c-44 -3 -47 -5 -73 -53 -36 -66 -54 -65 -58 3 l-3 52 -40 0 -39 0 0 -156z m148 -26 c20 -20 14 -48 -12 -60 -37 -16 -56 -4 -56 37 0 32 3 35 28 35 15 0 33 -5 40 -12z" rs_id="2891"></path><path id="peycPmddp" d="M3990 3145 l0 -155 100 0 100 0 0 35 0 35 -61 0 c-57 0 -60 1 -57 23 3 19 10 22 51 25 45 3 47 5 47 33 0 28 -1 29 -50 29 -49 0 -50 1 -50 30 0 30 0 30 58 30 32 0 61 2 64 5 2 3 3 18 0 35 l-4 30 -99 0 -99 0 0 -155z" rs_id="2892"></path><path id="ph9HVJnVu" d="M4670 3146 l0 -156 68 0 c119 0 173 48 173 154 0 106 -43 147 -163 154 l-78 5 0 -157z m144 62 c9 -13 16 -43 16 -69 0 -49 -15 -71 -57 -83 -23 -7 -23 -6 -23 83 0 90 0 91 24 91 14 0 32 -10 40 -22z" rs_id="2893"></path><path id="p6KUxbuzu" d="M5020 3145 l0 -155 83 0 c125 0 169 36 153 125 -4 19 -16 41 -27 49 -20 14 -20 14 10 68 17 30 31 58 31 61 0 4 -19 7 -42 7 -42 -1 -44 -2 -69 -53 -38 -74 -59 -75 -59 -3 l0 56 -40 0 -40 0 0 -155z m148 -27 c29 -29 2 -68 -47 -68 -18 0 -21 6 -21 40 0 37 2 40 28 40 15 0 33 -5 40 -12z" rs_id="2894"></path><path id="p1C96mvFHc" d="M5750 3144 l0 -156 90 4 c81 3 92 5 116 30 30 29 36 86 15 127 -15 27 -67 51 -111 51 -29 0 -30 1 -30 50 l0 50 -40 0 -40 0 0 -156z m140 -24 c11 -11 20 -24 20 -29 0 -18 -32 -41 -56 -41 -22 0 -24 4 -24 45 0 38 3 45 20 45 11 0 29 -9 40 -20z" rs_id="2895"></path><path id="pjn6OxzWd" d="M6400 3145 l0 -155 40 0 40 0 0 54 0 54 41 4 c22 2 42 2 45 -1 2 -2 4 -28 4 -58 l0 -53 40 0 40 0 0 155 0 155 -40 0 -40 0 0 -65 0 -65 -45 0 -45 0 0 65 0 65 -40 0 -40 0 0 -155z" rs_id="2896"></path><path id="p15QNEEw9j" d="M6770 3145 l0 -155 40 0 40 0 0 155 0 155 -40 0 -40 0 0 -155z" rs_id="2897"></path><path id="pXxYMA8eE" d="M6970 3145 l0 -155 76 0 c96 0 139 18 154 66 24 73 -31 144 -112 144 l-38 0 0 50 0 50 -40 0 -40 0 0 -155z m142 -22 c35 -32 12 -73 -41 -73 -18 0 -21 6 -21 38 0 21 3 42 7 45 11 12 36 8 55 -10z" rs_id="2898"></path><path id="p18XPaMaOc" d="M914 2743 c-12 -2 -34 -17 -49 -34 -23 -23 -30 -40 -33 -87 -5 -72 13 -113 62 -136 43 -20 66 -20 110 1 93 44 87 209 -9 249 -35 14 -42 15 -81 7z m66 -73 c39 -39 18 -140 -28 -140 -32 0 -52 31 -52 81 0 38 5 51 22 63 29 20 34 20 58 -4z" rs_id="2899"></path><path id="pJNvbhIou" d="M1324 2739 c-47 -13 -58 -32 -34 -54 16 -14 24 -15 50 -7 58 21 83 -9 28 -33 -59 -24 -88 -53 -88 -89 0 -60 67 -98 134 -76 45 15 52 26 31 50 -14 15 -21 17 -40 8 -26 -11 -55 -5 -55 12 0 6 25 21 55 34 58 26 73 52 61 101 -12 46 -81 73 -142 54z" rs_id="2900"></path><path id="pUGL0WbAt" d="M3133 2736 c-93 -42 -98 -208 -8 -250 41 -20 66 -20 110 -2 43 18 65 61 65 126 0 54 -19 98 -50 118 -31 19 -84 23 -117 8z m79 -63 c40 -36 15 -143 -33 -143 -46 0 -67 102 -29 140 24 24 38 25 62 3z" rs_id="2901"></path><path id="p11cqcUZP8" d="M3763 2739 c-49 -14 -63 -51 -63 -164 l0 -95 29 0 29 0 4 90 c5 98 19 127 56 116 26 -8 32 -33 32 -128 l0 -78 30 0 30 0 0 95 c0 111 -13 147 -61 164 -37 13 -42 13 -86 0z" rs_id="2902"></path><path id="p1L7F6JU1" d="M4081 2737 c-71 -25 -101 -118 -63 -194 22 -41 70 -73 112 -73 32 0 82 29 74 43 -19 33 -24 35 -55 23 -28 -10 -33 -9 -55 17 -53 62 -8 153 63 126 23 -8 30 -7 40 7 17 24 16 32 -4 42 -33 18 -78 21 -112 9z" rs_id="2903"></path><path id="p16GWEM3lc" d="M5303 2736 c-51 -23 -75 -70 -70 -139 3 -46 9 -63 32 -87 53 -55 148 -48 186 14 22 35 26 120 7 160 -23 52 -99 77 -155 52z m79 -63 c40 -36 15 -143 -33 -143 -46 0 -67 102 -29 140 24 24 38 25 62 3z" rs_id="2904"></path><path id="psohLVkqi" d="M6110 2737 c-46 -16 -74 -66 -74 -132 0 -110 99 -170 185 -112 41 28 59 60 59 110 0 104 -79 167 -170 134z m74 -60 c28 -20 33 -96 9 -126 -15 -19 -26 -23 -45 -18 -49 13 -59 111 -14 142 25 18 28 18 50 2z" rs_id="2905"></path><path id="pk1esGMA5" d="M630 2635 l0 -105 -35 0 c-31 0 -35 -3 -35 -25 l0 -25 105 0 105 0 0 25 c0 22 -4 25 -35 25 l-35 0 0 105 0 105 -35 0 -35 0 0 -105z" rs_id="2906"></path><path id="p1HGlaPVgE" d="M1530 2713 c5 -15 23 -74 40 -130 l31 -103 43 0 43 0 37 123 c20 67 36 125 36 130 0 4 -15 7 -34 7 -30 0 -35 -4 -41 -30 -6 -27 -10 -30 -45 -30 -35 0 -39 3 -42 28 -3 23 -8 27 -40 30 -37 3 -37 3 -28 -25z m127 -128 c-12 -51 -21 -48 -31 8 -6 34 -5 37 17 37 24 0 24 -1 14 -45z" rs_id="2907"></path><path id="pcOZ8gYpP" d="M1840 2610 l0 -130 30 0 30 0 0 99 0 100 53 3 c48 3 52 5 52 28 0 24 -2 25 -82 28 l-83 3 0 -131z" rs_id="2908"></path><path id="pPEn50WRC" d="M2090 2610 l0 -130 85 0 c83 0 85 0 85 24 0 23 -5 25 -47 28 -41 3 -48 6 -51 26 -3 20 1 22 42 22 44 0 46 1 46 30 0 29 -2 30 -45 30 -38 0 -45 3 -45 20 0 18 7 20 55 20 54 0 55 0 55 30 l0 30 -90 0 -90 0 0 -130z" rs_id="2909"></path><path id="p1DG9riYZF" d="M2482 2613 l3 -128 64 -3 c78 -4 115 10 131 49 25 60 -11 113 -84 124 -46 7 -46 8 -46 46 0 38 -1 39 -35 39 l-36 0 3 -127z m133 -33 c9 -27 -11 -50 -41 -50 -21 0 -24 5 -24 35 0 32 2 35 29 35 21 0 32 -6 36 -20z" rs_id="2910"></path><path id="p12X7pGmvj" d="M2770 2609 l0 -131 85 3 c64 3 89 8 102 22 24 24 23 89 -2 117 -19 21 -19 22 8 71 l28 49 -38 0 c-36 0 -41 -3 -61 -45 -12 -25 -29 -45 -37 -45 -11 0 -15 11 -15 45 0 45 0 45 -35 45 l-35 0 0 -131z m128 -21 c28 -28 8 -58 -39 -58 -15 0 -19 7 -19 35 0 30 3 35 23 35 13 0 28 -5 35 -12z" rs_id="2911"></path><path id="pvkggLis9" d="M3392 2613 l3 -128 57 -3 c76 -4 124 17 143 62 19 45 19 76 0 124 -22 53 -58 72 -139 72 l-67 0 3 -127z m132 45 c23 -33 20 -75 -9 -103 -44 -45 -55 -34 -55 50 0 73 1 75 24 75 14 0 32 -10 40 -22z" rs_id="2912"></path><path id="pwWh3t74r" d="M4340 2635 l0 -105 -35 0 c-31 0 -35 -3 -35 -25 l0 -25 105 0 105 0 0 25 c0 22 -4 25 -35 25 l-35 0 0 105 0 105 -35 0 -35 0 0 -105z" rs_id="2913"></path><path id="p39rK1BAD" d="M4682 2613 l3 -128 83 -3 c81 -3 82 -3 82 22 0 23 -4 25 -47 28 -44 3 -48 5 -48 28 0 22 5 25 43 28 40 3 43 5 40 30 -3 23 -7 26 -43 26 l-40 1 -3 48 c-3 46 -3 47 -38 47 l-35 0 3 -127z" rs_id="2914"></path><path id="p1G5u9z6AB" d="M4940 2609 l0 -131 85 3 c64 3 89 8 102 22 24 24 23 89 -2 117 -19 21 -19 22 8 71 l28 49 -38 0 c-36 0 -41 -3 -61 -45 -12 -25 -29 -45 -37 -45 -11 0 -15 11 -15 45 0 45 0 45 -35 45 l-35 0 0 -131z m128 -21 c28 -28 8 -58 -39 -58 -15 0 -19 7 -19 35 0 30 3 35 23 35 13 0 28 -5 35 -12z" rs_id="2915"></path><path id="p160C5SCTw" d="M5562 2613 l3 -128 34 -3 c40 -4 43 0 72 88 l22 64 26 -74 c26 -74 27 -75 64 -78 l37 -3 0 130 0 131 -30 0 -29 0 -3 -72 -3 -73 -21 60 c-15 43 -26 61 -40 63 -16 2 -24 -9 -43 -63 -13 -36 -25 -65 -28 -65 -2 0 -1 34 3 75 l7 75 -37 0 -37 0 3 -127z" rs_id="2916"></path><path id="p2tyH1xto" d="M6408 2638 l-3 -103 -32 -3 c-27 -3 -33 -7 -33 -28 0 -24 0 -24 105 -24 l105 0 0 25 c0 22 -4 25 -35 25 l-35 0 0 105 0 105 -35 0 -34 0 -3 -102z" rs_id="2917"></path><path id="p1BJjqrbGv" d="M6630 2610 l0 -130 35 0 35 0 0 50 0 50 40 0 40 0 0 -50 0 -50 35 0 35 0 0 130 0 130 -35 0 -35 0 0 -50 0 -50 -40 0 -40 0 0 50 0 50 -35 0 -35 0 0 -130z" rs_id="2918"></path><path id="pcCr4vdVD" d="M6950 2610 l0 -130 85 0 c84 0 85 0 85 25 0 23 -3 25 -50 25 -47 0 -50 2 -50 25 0 23 4 25 40 25 38 0 40 2 40 30 0 28 -2 30 -40 30 -33 0 -40 3 -40 20 0 17 7 20 50 20 49 0 50 1 50 30 l0 30 -85 0 -85 0 0 -130z" rs_id="2919"></path><path id="pEJKLAgPl" d="M7220 2609 l0 -131 81 4 c72 3 83 6 101 28 24 29 20 97 -7 117 -16 11 -15 16 9 59 14 25 26 48 26 50 0 2 -17 4 -37 4 -34 -1 -40 -5 -59 -43 -28 -55 -48 -55 -52 1 -3 39 -5 42 -33 42 l-29 0 0 -131z m118 -18 c8 -4 12 -19 10 -32 -2 -19 -9 -24 -33 -24 -27 0 -30 4 -33 33 -3 28 0 32 20 32 13 0 29 -4 36 -9z" rs_id="2920"></path></g></g></svg>